<svg xmlns="http://www.w3.org/2000/svg" viewBox="0 0 14 11" fill="none">
  <path
    d="M5.82156 0.694225C5.64131 0.624535 5.44132 0.62301 5.25671 0.689921C5.0721 0.756831 4.91467 0.887898 4.81207 1.06011C4.70946 1.23232 4.66823 1.43466 4.69563 1.6316C4.72302 1.82855 4.81729 2.0075 4.96188 2.13705C7.01683 3.9875 8.96981 5.95377 10.8122 8.02718C7.51285 8.15855 4.21992 8.51213 0.954622 9.08564C0.847185 9.10488 0.743946 9.1456 0.650803 9.20547C0.55766 9.26534 0.476436 9.3432 0.411767 9.43459C0.347098 9.52599 0.300252 9.62913 0.273902 9.73813C0.247552 9.84714 0.242213 9.95986 0.258194 10.0699C0.274174 10.1799 0.311161 10.285 0.367039 10.3793C0.422917 10.4736 0.496595 10.5552 0.583864 10.6194C0.671133 10.6835 0.770281 10.7291 0.875655 10.7534C0.981029 10.7778 1.09056 10.7804 1.198 10.7612C4.98133 10.0823 8.8028 9.70589 12.6278 9.63519C12.7868 9.63328 12.9431 9.58424 13.0778 9.49397C13.2125 9.4037 13.3201 9.27602 13.3875 9.12626C13.4549 8.97649 13.4794 8.811 13.4579 8.64963C13.4365 8.48826 13.37 8.33787 13.2665 8.21649C11.036 5.58605 8.63495 3.11468 6.079 0.819985C5.89875 0.624992 5.65812 0.524496 5.41187 0.514695C5.1656 0.504893 4.91972 0.588077 4.72842 0.753342C5.11341 0.739047 5.5028 0.764381 5.82156 0.694225Z"
    fill="url(#paint0_linear_49_34188)"
  />
  <defs>
    <linearGradient
      id="paint0_linear_49_34188"
      x1="16.4964"
      y1="11.6254"
      x2="1.72866"
      y2="5.96377"
      gradientUnits="userSpaceOnUse"
    >
      <stop stop-color="#A05EA6" />
      <stop offset="1" stop-color="#0080A3" />
    </linearGradient>
  </defs>
</svg>