<svg width="26" height="24" viewBox="0 0 26 24" fill="none" xmlns="http://www.w3.org/2000/svg">
  <path d="M2.76837 3.04035C3.98651 7.25534 6.90096 9.46506 9.80687 11.6683C11.178 12.7079 12.5472 13.746 13.7354 14.9927C14.8811 16.1981 15.9404 17.5089 16.9997 18.8195C18.2035 20.309 19.4072 21.7983 20.737 23.1324C20.8127 23.2066 21.2767 22.7772 21.777 22.1688C22.2772 21.5604 22.6207 21.0076 22.5451 20.9333C21.2154 19.5994 20.0119 18.1103 18.8082 16.6208C17.7491 15.3103 16.6899 13.9997 15.5444 12.7944C14.3571 11.5481 12.9882 10.5114 11.6173 9.4732C8.71713 7.27678 5.80851 5.07398 4.59404 0.867979C4.55772 0.74623 4.12188 1.13135 3.61787 1.73053C3.11435 2.33011 2.73556 2.91533 2.76837 3.04035Z" fill="#BD5A0F"></path>
  <path d="M2.76837 3.04035C3.98651 7.25534 6.90096 9.46506 9.80687 11.6683C11.178 12.7079 12.5472 13.746 13.7354 14.9927C14.8811 16.1981 15.9404 17.5089 16.9997 18.8195C18.2035 20.309 19.4072 21.7983 20.737 23.1324C20.8127 23.2066 21.2767 22.7772 21.777 22.1688C22.2772 21.5604 22.6207 21.0076 22.5451 20.9333C21.2154 19.5994 20.0119 18.1103 18.8082 16.6208C17.7491 15.3103 16.6899 13.9997 15.5444 12.7944C14.3571 11.5481 12.9882 10.5114 11.6173 9.4732C8.71713 7.27678 5.80851 5.07398 4.59404 0.867979C4.55772 0.74623 4.12188 1.13135 3.61787 1.73053C3.11435 2.33011 2.73556 2.91533 2.76837 3.04035Z" stroke="black"></path>
  <path d="M2.76935 20.4704C3.98749 16.2554 6.90193 14.0457 9.80784 11.8424C11.179 10.8029 12.5482 9.76474 13.7364 8.51808C14.882 7.31266 15.9414 6.00186 17.0006 4.69127C18.2045 3.2017 19.4081 1.7124 20.7379 0.378375C20.8136 0.304101 21.2777 0.733555 21.778 1.34194C22.2782 1.95037 22.6217 2.50318 22.546 2.57741C21.2164 3.91131 20.0129 5.40048 18.8092 6.88992C17.7501 8.2004 16.6909 9.51108 15.5454 10.7164C14.3581 11.9626 12.9892 12.9994 11.6183 14.0375C8.71811 16.234 5.80948 18.4368 4.59501 22.6428C4.5587 22.7645 4.12286 22.3794 3.61885 21.7802C3.11533 21.1806 2.73653 20.5954 2.76935 20.4704Z" fill="#BD5A0F"></path>
  <path d="M2.76935 20.4704C3.98749 16.2554 6.90193 14.0457 9.80784 11.8424C11.179 10.8029 12.5482 9.76474 13.7364 8.51808C14.882 7.31266 15.9414 6.00186 17.0006 4.69127C18.2045 3.2017 19.4081 1.7124 20.7379 0.378375C20.8136 0.304101 21.2777 0.733555 21.778 1.34194C22.2782 1.95037 22.6217 2.50318 22.546 2.57741C21.2164 3.91131 20.0129 5.40048 18.8092 6.88992C17.7501 8.2004 16.6909 9.51108 15.5454 10.7164C14.3581 11.9626 12.9892 12.9994 11.6183 14.0375C8.71811 16.234 5.80948 18.4368 4.59501 22.6428C4.5587 22.7645 4.12286 22.3794 3.61885 21.7802C3.11533 21.1806 2.73653 20.5954 2.76935 20.4704Z" stroke="black"></path>
</svg>