<svg width="14" height="27" viewBox="0 0 14 27" fill="none" xmlns="http://www.w3.org/2000/svg">
  <path d="M5.99947 8.00642C6.03389 5.82059 6.12199 3.63542 6.26379 1.45091C6.26566 1.33233 6.36172 1.21978 6.53085 1.138C6.69999 1.05622 6.92833 1.01193 7.16565 1.01486C7.40297 1.01779 7.62983 1.0677 7.79632 1.15362C7.96281 1.23954 8.0553 1.35442 8.05343 1.473C7.5568 9.14064 7.72069 16.9208 8.53656 24.5986C8.54893 24.7174 8.46647 24.833 8.30733 24.9199C8.14819 25.0068 7.9254 25.058 7.68796 25.0622C7.45053 25.0664 7.21791 25.0232 7.04127 24.9422C6.86463 24.8612 6.75844 24.749 6.74607 24.6302C6.16453 19.1226 5.91217 13.5505 5.99947 8.00642Z" fill="url(#paint0_linear_49_34175)"></path>
  <path d="M1.70204 16.6128C1.6897 16.4199 1.74831 16.2287 1.86758 16.0727C1.98685 15.9167 2.15914 15.8059 2.35422 15.7598C2.5493 15.7136 2.75468 15.7351 2.9343 15.8203C3.11393 15.9056 3.25631 16.0493 3.33645 16.2261C4.48429 18.7419 5.77323 21.1953 7.19758 23.5754C8.3138 20.4678 9.64005 17.4331 11.1678 14.4908C11.2184 14.3941 11.2882 14.3078 11.3733 14.237C11.4584 14.1661 11.5571 14.112 11.6637 14.0778C11.7703 14.0435 11.8827 14.0298 11.9946 14.0374C12.1065 14.0451 12.2156 14.0738 12.3157 14.1221C12.4159 14.1704 12.5051 14.2372 12.5782 14.3189C12.6513 14.4005 12.707 14.4952 12.742 14.5978C12.7771 14.7003 12.7907 14.8085 12.7823 14.9164C12.7738 15.0242 12.7435 15.1294 12.6928 15.2261C10.9091 18.6309 9.40228 22.1629 8.18605 25.7901C8.13648 25.9412 8.04279 26.0755 7.91621 26.1769C7.78964 26.2783 7.63556 26.3425 7.47246 26.3619C7.30936 26.3812 7.14416 26.3548 6.99669 26.2859C6.84921 26.2169 6.72572 26.1084 6.64103 25.9732C4.80193 23.0557 3.16578 20.0232 1.7433 16.8957C1.71238 16.8086 1.68697 16.7188 1.66712 16.6268L1.70204 16.6128Z" fill="url(#paint1_linear_49_34175)"></path>
  <defs>
    <linearGradient id="paint0_linear_49_34175" x1="7.19742" y1="32.6642" x2="8.61303" y2="1.05926" gradientUnits="userSpaceOnUse">
      <stop stop-color="#A05EA6"></stop>
      <stop offset="1" stop-color="#0080A3"></stop>
    </linearGradient>
    <linearGradient id="paint1_linear_49_34175" x1="8.92252" y1="30.0778" x2="7.95756" y2="14.2915" gradientUnits="userSpaceOnUse">
      <stop stop-color="#A05EA6"></stop>
      <stop offset="1" stop-color="#0080A3"></stop>
    </linearGradient>
  </defs>
</svg>