<svg width="13" height="14" viewBox="0 0 13 14" fill="none" xmlns="http://www.w3.org/2000/svg">
  <path d="M4.73156 4.22298C4.7449 3.37566 4.81193 2.52899 4.93265 1.68299C4.93338 1.63702 5.02834 1.5941 5.19667 1.56367C5.36499 1.53324 5.59288 1.51779 5.8302 1.52072C6.06752 1.52364 6.29484 1.54471 6.46214 1.57929C6.62944 1.61386 6.72302 1.65911 6.72229 1.70508C6.29964 4.67456 6.53851 7.69266 7.4283 10.676C7.44181 10.7222 7.36048 10.7664 7.2022 10.7989C7.04391 10.8314 6.82164 10.8495 6.58428 10.8494C6.34691 10.8492 6.1139 10.8307 5.9365 10.7979C5.7591 10.7652 5.65185 10.7209 5.63833 10.6747C5.00377 8.53469 4.69772 6.37212 4.73156 4.22298Z" fill="url(#paint0_linear_49_34181)"></path>
  <path d="M0.702531 3.57443C0.690193 3.38158 0.748802 3.19036 0.868068 3.03437C0.987335 2.87838 1.15963 2.76758 1.35471 2.72143C1.54978 2.67528 1.75517 2.69673 1.93479 2.78201C2.11441 2.86729 2.2568 3.01096 2.33693 3.18777C3.48478 5.70361 4.77372 8.15697 6.19807 10.537C7.31429 7.42946 8.64054 4.39475 10.1683 1.45244C10.2189 1.35574 10.2887 1.2695 10.3738 1.19864C10.4589 1.12778 10.5575 1.07369 10.6641 1.03945C10.7707 1.00522 10.8832 0.991513 10.9951 0.999117C11.107 1.00672 11.2161 1.03548 11.3162 1.08377C11.4164 1.13205 11.5055 1.19891 11.5787 1.28053C11.6518 1.36214 11.7075 1.45691 11.7425 1.55943C11.7775 1.66195 11.7912 1.77021 11.7828 1.87802C11.7743 1.98584 11.7439 2.0911 11.6933 2.1878C9.90958 5.59259 8.40277 9.12458 7.18654 12.7518C7.13697 12.9029 7.04328 13.0372 6.9167 13.1386C6.79013 13.24 6.63605 13.3042 6.47295 13.3235C6.30985 13.3429 6.14465 13.3165 5.99717 13.2475C5.8497 13.1786 5.72621 13.0701 5.64152 12.9349C3.80242 10.0174 2.16627 6.98489 0.743789 3.85733C0.712865 3.78729 0.689061 3.71452 0.702531 3.57443Z" fill="url(#paint1_linear_49_34181)"></path>
  <defs>
    <linearGradient id="paint0_linear_49_34181" x1="6.16707" y1="13.7935" x2="6.47268" y2="1.52881" gradientUnits="userSpaceOnUse">
      <stop stop-color="#A05EA6"></stop>
      <stop offset="1" stop-color="#0080A3"></stop>
    </linearGradient>
    <linearGradient id="paint1_linear_49_34181" x1="7.92301" y1="17.0395" x2="6.95805" y2="1.25313" gradientUnits="userSpaceOnUse">
      <stop stop-color="#A05EA6"></stop>
      <stop offset="1" stop-color="#0080A3"></stop>
    </linearGradient>
  </defs>
</svg>