<svg width="14" height="11" viewBox="0 0 14 11" fill="none" xmlns="http://www.w3.org/2000/svg">
  <path d="M5.82156 10.0719C5.64131 10.1416 5.44132 10.1431 5.25671 10.0762C5.0721 10.0093 4.91467 9.87822 4.81207 9.70601C4.70946 9.5338 4.66823 9.33146 4.69563 9.13451C4.72302 8.93757 4.81729 8.75861 4.96188 8.62907C7.01683 6.77861 8.96981 4.81235 10.8122 2.73893C7.51285 2.60756 4.21992 2.25398 0.954622 1.68047C0.847185 1.66123 0.743946 1.62052 0.650803 1.56064C0.55766 1.50077 0.476436 1.42291 0.411767 1.33152C0.347098 1.24012 0.300252 1.13698 0.273902 1.02798C0.247552 0.918978 0.242213 0.80625 0.258194 0.696235C0.274174 0.586219 0.311161 0.481069 0.367039 0.386789C0.422917 0.292509 0.496595 0.210947 0.583864 0.146756C0.671133 0.0825655 0.770281 0.0370053 0.875655 0.0126761C0.981029 -0.0116531 1.09056 -0.0142743 1.198 0.00496182C4.98133 0.683772 8.8028 1.06023 12.6278 1.13092C12.7868 1.13284 12.9431 1.18187 13.0778 1.27214C13.2125 1.36241 13.3201 1.49009 13.3875 1.63986C13.4549 1.78962 13.4794 1.95512 13.4579 2.11649C13.4365 2.27786 13.37 2.42825 13.2665 2.54962C11.036 5.18532 8.63495 7.65669 6.079 10.1613L5.82156 10.0719Z" fill="url(#paint0_linear_49_34187)"></path>
  <defs>
    <linearGradient id="paint0_linear_49_34187" x1="16.4964" y1="-0.859304" x2="1.72866" y2="4.80234" gradientUnits="userSpaceOnUse">
      <stop stop-color="#A05EA6"></stop>
      <stop offset="1" stop-color="#0080A3"></stop>
    </linearGradient>
  </defs>
</svg>