<svg width="286" height="110" viewBox="0 0 286 110" fill="none" xmlns="http://www.w3.org/2000/svg" class="self-stretch flex-grow-0 flex-shrink-0 h-[110px] relative" preserveAspectRatio="xMidYMid meet">
                <g clip-path="url(#clip0_1_39754)">
                  <path fill-rule="evenodd" clip-rule="evenodd" d="M92.2954 57.6646C92.0025 56.551 91.6031 55.5275 91.0934 54.5923C90.5827 53.6579 89.9274 52.8504 89.126 52.1664C88.3247 51.4845 87.3864 50.9543 86.3117 50.5775C85.237 50.1982 83.9889 50.0109 82.5679 50.0109C80.4915 50.0109 78.6967 50.4245 77.1852 51.2513C75.6742 52.0772 74.4444 53.1826 73.497 54.5657C72.5496 55.9488 71.8491 57.5206 71.3928 59.2809C70.9365 61.042 70.7105 62.8387 70.7105 64.6719C70.7105 66.5025 70.9365 68.3005 71.3928 70.0604C71.8491 71.8215 72.5496 73.3932 73.497 74.7764C74.4444 76.1608 75.6742 77.2653 77.1852 78.0908C78.6967 78.918 80.4915 79.3303 82.5679 79.3303C84.0989 79.3303 85.4456 79.071 86.612 78.5499C87.778 78.0282 88.7784 77.3099 89.618 76.3927C90.4554 75.4776 91.112 74.4086 91.5857 73.1854C92.0568 71.9655 92.3684 70.6531 92.5144 69.2529H99.1812C99.0352 71.5519 98.5328 73.6538 97.678 75.5586C96.8224 77.4629 95.6642 79.1075 94.2088 80.4893C92.7508 81.8737 91.039 82.9418 89.0717 83.6966C87.104 84.4514 84.9363 84.8285 82.5679 84.8285C79.6545 84.8285 77.0405 84.2984 74.7268 83.2375C72.4131 82.1789 70.4545 80.7328 68.8518 78.8996C67.2491 77.0677 66.0192 74.9294 65.1636 72.485C64.3079 70.0432 63.8794 67.4381 63.8794 64.6719C63.8794 61.9421 64.3079 59.3537 65.1636 56.9098C66.0192 54.4667 67.2491 52.3271 68.8518 50.4965C70.4545 48.6642 72.4131 47.2082 74.7268 46.1298C77.0405 45.0527 79.6545 44.514 82.5679 44.514C84.7542 44.514 86.8124 44.8106 88.744 45.4033C90.6744 45.9961 92.378 46.8585 93.8533 47.9904C95.3287 49.1211 96.5212 50.4965 97.4325 52.1136C98.3416 53.7299 98.9079 55.5824 99.1269 57.6646H92.2954Z" fill="#935893"></path>
                  <path fill-rule="evenodd" clip-rule="evenodd" d="M102.543 45.3539H108.663V59.6928H108.772C109.522 58.4312 110.642 57.3766 112.127 56.5268C113.613 55.6804 115.268 55.2574 117.093 55.2574C120.136 55.2574 122.534 56.0509 124.287 57.6378C126.04 59.2247 126.919 61.605 126.919 64.7801V83.9887H120.797V66.4015C120.726 64.2023 120.261 62.6063 119.402 61.6145C118.543 60.6227 117.2 60.1261 115.375 60.1261C114.338 60.1261 113.407 60.3163 112.583 60.695C111.76 61.0732 111.062 61.5973 110.489 62.2621C109.917 62.932 109.469 63.716 109.147 64.6175C108.825 65.5198 108.663 66.475 108.663 67.4854V83.9887H102.543V45.3539Z" fill="#935893"></path>
                  <path fill-rule="evenodd" clip-rule="evenodd" d="M144.569 79.1328C145.954 79.1328 147.161 78.8462 148.182 78.271C149.203 77.6963 150.044 76.9405 150.7 76.0059C151.357 75.0708 151.84 74.0191 152.152 72.8511C152.46 71.6827 152.617 70.486 152.617 69.2645C152.617 68.0768 152.46 66.8903 152.152 65.7026C151.84 64.5175 151.357 63.4658 150.7 62.547C150.044 61.63 149.203 60.8862 148.182 60.3102C147.161 59.735 145.954 59.4459 144.569 59.4459C143.18 59.4459 141.976 59.735 140.956 60.3102C139.934 60.8862 139.094 61.63 138.437 62.547C137.78 63.4658 137.295 64.5175 136.986 65.7026C136.676 66.8903 136.52 68.0768 136.52 69.2645C136.52 70.486 136.676 71.6827 136.986 72.8511C137.295 74.0191 137.78 75.0708 138.437 76.0059C139.094 76.9405 139.934 77.6963 140.956 78.271C141.976 78.8462 143.18 79.1328 144.569 79.1328ZM144.569 83.9886C142.306 83.9886 140.29 83.6206 138.519 82.882C136.748 82.146 135.251 81.1298 134.03 79.8336C132.805 78.5396 131.875 76.9946 131.238 75.1965C130.599 73.3984 130.28 71.4211 130.28 69.2645C130.28 67.143 130.599 65.1828 131.238 63.3847C131.875 61.5867 132.805 60.0404 134.03 58.7455C135.251 57.4514 136.748 56.4365 138.519 55.6979C140.29 54.9619 142.306 54.5926 144.569 54.5926C146.832 54.5926 148.847 54.9619 150.618 55.6979C152.387 56.4365 153.884 57.4514 155.108 58.7455C156.33 60.0404 157.261 61.5867 157.899 63.3847C158.537 65.1828 158.857 67.143 158.857 69.2645C158.857 71.4211 158.537 73.3984 157.899 75.1965C157.261 76.9946 156.33 78.5396 155.108 79.8336C153.884 81.1298 152.387 82.146 150.618 82.882C148.847 83.6206 146.832 83.9886 144.569 83.9886Z" fill="#935893"></path>
                  <path fill-rule="evenodd" clip-rule="evenodd" d="M162.221 83.9887H168.945V45.3539H162.221V83.9887Z" fill="#935893"></path>
                  <path fill-rule="evenodd" clip-rule="evenodd" d="M195.549 69.2403C195.549 67.9752 195.385 66.7458 195.06 65.5518C194.736 64.3604 194.25 63.3031 193.599 62.3808C192.949 61.458 192.136 60.7189 191.161 60.1584C190.186 59.5974 189.066 59.3158 187.802 59.3158C185.202 59.3158 183.241 60.2213 181.924 62.0289C180.605 63.8365 179.947 66.24 179.947 69.2403C179.947 70.6503 180.117 71.9603 180.461 73.1716C180.805 74.3824 181.318 75.4211 182.005 76.2887C182.692 77.1563 183.512 77.8436 184.469 78.3503C185.428 78.8557 186.537 79.1075 187.802 79.1075C189.211 79.1075 190.403 78.8203 191.379 78.2412C192.353 77.663 193.157 76.9127 193.79 75.9899C194.42 75.0684 194.872 74.0206 195.143 72.846C195.414 71.6731 195.549 70.4701 195.549 69.2403ZM173.988 44.514H180.164V58.829H180.272C180.706 58.1429 181.23 57.528 181.842 56.9856C182.457 56.4431 183.133 55.9813 183.875 55.6023C184.615 55.2228 185.39 54.9348 186.204 54.7347C187.017 54.5372 187.82 54.4381 188.614 54.4381C190.817 54.4381 192.741 54.8266 194.385 55.6023C196.027 56.3802 197.391 57.4465 198.475 58.8022C199.559 60.1584 200.371 61.7396 200.913 63.5467C201.454 65.3543 201.725 67.2883 201.725 69.3485C201.725 71.2281 201.482 73.0543 200.995 74.8248C200.507 76.5966 199.766 78.1606 198.772 79.5154C197.779 80.8711 196.525 81.9547 195.007 82.7671C193.491 83.582 191.703 83.9887 189.645 83.9887C188.706 83.9887 187.757 83.9253 186.8 83.7989C185.844 83.6726 184.931 83.4268 184.064 83.0672C183.198 82.7076 182.412 82.2354 181.707 81.6572C181.003 81.0794 180.416 80.3196 179.947 79.3787H179.838V83.2302H173.988V44.514Z" fill="#935893"></path>
                  <path fill-rule="evenodd" clip-rule="evenodd" d="M222.624 69.2638C221.664 69.875 220.483 70.2435 219.08 70.3692C217.675 70.4949 216.274 70.6845 214.871 70.9358C214.207 71.0435 213.56 71.1966 212.932 71.3944C212.304 71.5921 211.749 71.8619 211.271 72.2038C210.791 72.5465 210.414 72.9948 210.136 73.5511C209.859 74.1092 209.72 74.7848 209.72 75.5744C209.72 76.2582 209.923 76.833 210.329 77.3005C210.735 77.7681 211.225 78.1361 211.797 78.4059C212.369 78.6757 212.997 78.8632 213.68 78.9717C214.363 79.0789 214.982 79.133 215.535 79.133C216.237 79.133 216.993 79.0446 217.807 78.8632C218.617 78.6847 219.384 78.3797 220.105 77.9474C220.824 77.5167 221.425 76.9681 221.904 76.3015C222.385 75.6375 222.624 74.8191 222.624 73.8484V69.2638ZM228.938 77.0307C228.938 77.7865 229.04 78.3257 229.243 78.6483C229.444 78.9717 229.842 79.133 230.434 79.133H231.098C231.355 79.133 231.652 79.0987 231.984 79.0253V83.2877C231.762 83.3585 231.476 83.4409 231.127 83.5301C230.774 83.6206 230.415 83.7004 230.045 83.7737C229.677 83.8432 229.307 83.8981 228.938 83.9346C228.569 83.9702 228.254 83.9886 227.997 83.9886C226.704 83.9886 225.633 83.736 224.784 83.2341C223.935 82.7301 223.382 81.8512 223.123 80.5914C221.867 81.7779 220.326 82.6409 218.498 83.1805C216.67 83.7197 214.908 83.9886 213.209 83.9886C211.916 83.9886 210.68 83.8183 209.498 83.4765C208.318 83.1346 207.274 82.6319 206.369 81.9653C205.464 81.3013 204.745 80.4567 204.211 79.4311C203.675 78.4059 203.407 77.2104 203.407 75.8443C203.407 74.1182 203.73 72.7147 204.377 71.6367C205.022 70.5588 205.87 69.7129 206.923 69.1012C207.976 68.4908 209.157 68.0499 210.469 67.7801C211.778 67.5103 213.098 67.3035 214.429 67.1607C215.572 66.9445 216.661 66.7914 217.695 66.7009C218.728 66.6121 219.643 66.4585 220.437 66.2415C221.23 66.0266 221.857 65.6963 222.319 65.2446C222.782 64.7955 223.012 64.1212 223.012 63.2225C223.012 62.4329 222.818 61.786 222.431 61.2807C222.043 60.7776 221.563 60.3902 220.99 60.1217C220.418 59.8519 219.782 59.6713 219.08 59.5821C218.378 59.4916 217.714 59.4461 217.086 59.4461C215.314 59.4461 213.855 59.806 212.71 60.5249C211.566 61.2464 210.918 62.3595 210.773 63.8698H204.458C204.569 62.0717 205.013 60.5798 205.788 59.3912C206.563 58.2047 207.551 57.2538 208.75 56.5336C209.951 55.8147 211.307 55.3128 212.822 55.0237C214.335 54.7354 215.886 54.5926 217.473 54.5926C218.877 54.5926 220.262 54.7354 221.629 55.0237C222.994 55.3128 224.222 55.7791 225.311 56.4259C226.4 57.0732 227.277 57.9096 227.942 58.9339C228.606 59.9591 228.938 61.2086 228.938 62.6834V77.0307Z" fill="#935893"></path>
                  <mask id="mask0_1_39754" style="mask-type:luminance" maskUnits="userSpaceOnUse" x="66" y="54" width="210" height="56">
                    <path d="M66.6748 54.8695H275.629V110H66.6748V54.8695Z" fill="white"></path>
                  </mask>
                  <g mask="url(#mask0_1_39754)">
                    <path fill-rule="evenodd" clip-rule="evenodd" d="M235.183 55.6208H241.009V59.4794H241.17C241.636 58.8022 242.139 58.1763 242.678 57.6045C243.218 57.0331 243.82 56.5504 244.487 56.1568C245.15 55.7637 245.915 55.4515 246.778 55.2175C247.642 54.9868 248.629 54.8695 249.744 54.8695C251.433 54.8695 253.007 55.2456 254.463 55.9956C255.919 56.747 256.952 57.9081 257.563 59.4794C258.608 58.0513 259.81 56.9252 261.178 56.1035C262.544 55.281 264.252 54.8695 266.302 54.8695C269.247 54.8695 271.54 55.5867 273.177 57.0147C274.813 58.4445 275.63 60.8396 275.63 64.1997V83.3414H269.483V67.1495C269.483 66.0404 269.446 65.0316 269.376 64.1191C269.304 63.2066 269.096 62.4211 268.754 61.7602C268.412 61.0988 267.901 60.5897 267.217 60.2315C266.533 59.8751 265.599 59.6943 264.412 59.6943C262.329 59.6943 260.816 60.3398 259.884 61.6259C258.947 62.9132 258.482 64.7361 258.482 67.0949V83.3414H252.332V65.5394C252.332 63.6099 251.982 62.1533 251.282 61.1705C250.581 60.1872 249.295 59.6943 247.426 59.6943C246.634 59.6943 245.869 59.8555 245.132 60.1782C244.395 60.4997 243.748 60.9645 243.192 61.5726C242.634 62.1815 242.185 62.9303 241.843 63.8244C241.5 64.7177 241.332 65.7368 241.332 66.88V83.3414H235.183V55.6208Z" fill="#935893"></path>
                  </g>
                  <mask id="mask1_1_39754" style="mask-type:luminance" maskUnits="userSpaceOnUse" x="66" y="54" width="210" height="56">
                    <path d="M66.6748 54.8695H275.629V110H66.6748V54.8695Z" fill="white"></path>
                  </mask>
                  <g mask="url(#mask1_1_39754)">
                    <path fill-rule="evenodd" clip-rule="evenodd" d="M68.7947 107.471C68.3491 106.622 67.9696 105.763 67.6531 104.893C67.3387 104.022 67.0977 103.129 66.9274 102.212C66.758 101.294 66.6748 100.331 66.6748 99.3234C66.6748 97.5214 66.9776 95.7032 67.5844 93.8705C68.1913 92.0374 69.0941 90.3344 70.2919 88.7592H71.79C70.6839 90.5015 69.8999 92.2272 69.4393 93.9387C68.98 95.6499 68.7488 97.4451 68.7488 99.3234C68.7488 101.248 68.9821 103.074 69.4509 104.8C69.9192 106.527 70.6998 108.268 71.79 110.025H70.2919C69.74 109.169 69.2403 108.318 68.7947 107.471Z" fill="#777776"></path>
                  </g>
                  <path fill-rule="evenodd" clip-rule="evenodd" d="M80.1201 95.6062C79.6242 95.1872 78.9571 94.9771 78.1211 94.9771C77.4072 94.9771 76.8101 95.1099 76.3303 95.3739C75.8496 95.6387 75.4658 95.9882 75.1798 96.4241C74.8912 96.8592 74.6874 97.3615 74.5628 97.9294C74.4382 98.4973 74.3759 99.083 74.3759 99.6904C74.3759 100.25 74.4443 100.794 74.5745 101.324C74.7056 101.853 74.9111 102.324 75.1911 102.734C75.4688 103.147 75.8344 103.478 76.2844 103.727C76.7327 103.976 77.2679 104.099 77.887 104.099C78.8645 104.099 79.6281 103.844 80.1789 103.33C80.7288 102.816 81.0646 102.094 81.1901 101.161H83.2124C82.9948 102.653 82.4409 103.805 81.5501 104.613C80.6575 105.422 79.4455 105.826 77.9113 105.826C76.9966 105.826 76.1862 105.678 75.4818 105.383C74.7761 105.088 74.1868 104.669 73.7143 104.123C73.2414 103.58 72.8853 102.93 72.6456 102.174C72.4046 101.42 72.2856 100.592 72.2856 99.6904C72.2856 98.7878 72.4012 97.9446 72.6339 97.1601C72.8654 96.3733 73.2185 95.6895 73.691 95.1051C74.1639 94.522 74.7554 94.0627 75.4688 93.7297C76.184 93.3954 77.013 93.2274 77.9584 93.2274C78.6399 93.2274 79.2785 93.3098 79.8756 93.4727C80.4731 93.6372 81.0001 93.8882 81.4566 94.2307C81.9144 94.5733 82.2899 95.0044 82.5842 95.5254C82.8784 96.0469 83.0649 96.666 83.1423 97.3811H81.0966C80.9422 96.6174 80.6159 96.0273 80.1201 95.6062Z" fill="#777776"></path>
                  <path fill-rule="evenodd" clip-rule="evenodd" d="M86.7288 89.8679V95.9693H86.7706C86.9161 95.6125 87.1175 95.3097 87.3756 95.0626C87.6349 94.8177 87.9275 94.6172 88.2508 94.4608C88.5756 94.3036 88.9141 94.1892 89.2674 94.1139C89.6188 94.0395 89.9617 94.0021 90.2925 94.0021C91.0274 94.0021 91.6393 94.1073 92.1289 94.3144C92.6173 94.524 93.0149 94.8143 93.3168 95.1866C93.6199 95.5605 93.831 96.0034 93.9552 96.5179C94.0766 97.032 94.1373 97.6006 94.1373 98.2257V105.826H92.3026V98.0032C92.3026 97.287 92.1 96.7217 91.6984 96.3029C91.2943 95.8874 90.7396 95.6778 90.0336 95.6778C89.472 95.6778 88.986 95.7676 88.5756 95.946C88.1651 96.1257 87.8226 96.3782 87.5493 96.7063C87.2759 97.0345 87.0705 97.418 86.9334 97.858C86.7971 98.298 86.7288 98.7776 86.7288 99.3V105.826H84.8916V89.8679H86.7288Z" fill="#777776"></path>
                  <path fill-rule="evenodd" clip-rule="evenodd" d="M98.8903 101.499C99.0706 102.067 99.3221 102.541 99.6393 102.921C99.9601 103.304 100.332 103.595 100.762 103.796C101.189 103.999 101.643 104.099 102.122 104.099C102.601 104.099 103.054 103.999 103.483 103.796C103.911 103.595 104.285 103.304 104.603 102.921C104.922 102.541 105.173 102.067 105.354 101.499C105.536 100.93 105.626 100.28 105.626 99.5502C105.626 98.819 105.536 98.1712 105.354 97.6021C105.173 97.035 104.922 96.5548 104.603 96.1662C104.285 95.7785 103.911 95.4824 103.483 95.281C103.054 95.0787 102.601 94.9766 102.122 94.9766C101.643 94.9766 101.189 95.0787 100.762 95.281C100.332 95.4824 99.9601 95.7785 99.6393 96.1662C99.3221 96.5548 99.0706 97.035 98.8903 97.6021C98.7068 98.1712 98.6173 98.819 98.6173 99.5502C98.6173 100.28 98.7068 100.93 98.8903 101.499ZM97.0067 97.065C97.2396 96.2956 97.5872 95.627 98.0514 95.0591C98.5156 94.4908 99.088 94.044 99.7709 93.718C100.452 93.3893 101.237 93.2274 102.122 93.2274C103.021 93.2274 103.809 93.3893 104.485 93.718C105.16 94.044 105.728 94.4908 106.194 95.0591C106.657 95.627 107.005 96.2956 107.238 97.065C107.47 97.8356 107.586 98.664 107.586 99.5502C107.586 100.436 107.47 101.263 107.238 102.024C107.005 102.785 106.657 103.452 106.194 104.017C105.728 104.585 105.16 105.031 104.485 105.349C103.809 105.666 103.021 105.826 102.122 105.826C101.237 105.826 100.452 105.666 99.7709 105.349C99.088 105.031 98.5156 104.585 98.0514 104.017C97.5872 103.452 97.2396 102.785 97.0067 102.024C96.7754 101.263 96.6592 100.436 96.6592 99.5502C96.6592 98.664 96.7754 97.8356 97.0067 97.065Z" fill="#777776"></path>
                  <path fill-rule="evenodd" clip-rule="evenodd" d="M109.268 105.826H110.949V89.8679H109.268V105.826Z" fill="#777776"></path>
                  <path fill-rule="evenodd" clip-rule="evenodd" d="M114.311 105.826H115.99V94.2712H114.311V105.826ZM114.312 92.1912H115.992V89.8679H114.312V92.1912Z" fill="#777776"></path>
                  <path fill-rule="evenodd" clip-rule="evenodd" d="M125.509 95.6062C125.013 95.1872 124.345 94.9771 123.509 94.9771C122.795 94.9771 122.199 95.1099 121.719 95.3739C121.237 95.6387 120.854 95.9882 120.569 96.4241C120.28 96.8592 120.075 97.3615 119.952 97.9294C119.827 98.4973 119.765 99.083 119.765 99.6904C119.765 100.25 119.832 100.794 119.962 101.324C120.095 101.853 120.3 102.324 120.58 102.734C120.859 103.147 121.223 103.478 121.672 103.727C122.12 103.976 122.655 104.099 123.276 104.099C124.252 104.099 125.015 103.844 125.565 103.33C126.116 102.816 126.453 102.094 126.579 101.161H128.601C128.383 102.653 127.829 103.805 126.938 104.613C126.046 105.422 124.834 105.826 123.3 105.826C122.385 105.826 121.575 105.678 120.87 105.383C120.164 105.088 119.575 104.669 119.102 104.123C118.629 103.58 118.273 102.93 118.034 102.174C117.794 101.42 117.674 100.592 117.674 99.6904C117.674 98.7878 117.789 97.9446 118.023 97.1601C118.255 96.3733 118.607 95.6895 119.079 95.1051C119.552 94.522 120.146 94.0627 120.859 93.7297C121.57 93.3954 122.401 93.2274 123.346 93.2274C124.029 93.2274 124.667 93.3098 125.264 93.4727C125.86 93.6372 126.388 93.8882 126.844 94.2307C127.301 94.5733 127.678 95.0044 127.972 95.5254C128.266 96.0469 128.452 96.666 128.529 97.3811H126.484C126.33 96.6174 126.004 96.0273 125.509 95.6062Z" fill="#777776"></path>
                  <path fill-rule="evenodd" clip-rule="evenodd" d="M143.045 99.7488C142.654 99.833 142.246 99.9051 141.819 99.958C141.392 100.012 140.961 100.075 140.527 100.146C140.091 100.215 139.702 100.328 139.357 100.483C139.012 100.64 138.731 100.861 138.514 101.148C138.297 101.435 138.188 101.829 138.188 102.326C138.188 102.652 138.252 102.929 138.38 103.156C138.506 103.38 138.672 103.562 138.875 103.703C139.076 103.843 139.316 103.945 139.594 104.006C139.87 104.07 140.152 104.1 140.437 104.1C141.066 104.1 141.606 104.009 142.054 103.83C142.506 103.652 142.873 103.428 143.157 103.156C143.442 102.883 143.652 102.587 143.787 102.267C143.922 101.949 143.989 101.649 143.989 101.369V99.3403C143.749 99.5265 143.434 99.6633 143.045 99.7488ZM145.72 105.826C145.225 105.826 144.831 105.682 144.539 105.394C144.247 105.106 144.101 104.637 144.101 103.982C143.576 104.637 142.965 105.106 142.268 105.394C141.571 105.682 140.818 105.826 140.008 105.826C139.485 105.826 138.99 105.767 138.526 105.65C138.061 105.534 137.653 105.339 137.3 105.068C136.948 104.796 136.67 104.444 136.468 104.018C136.266 103.589 136.165 103.072 136.165 102.466C136.165 101.781 136.276 101.223 136.503 100.788C136.728 100.351 137.023 99.9975 137.391 99.7253C137.756 99.4536 138.177 99.2456 138.65 99.108C139.121 98.9678 139.605 98.851 140.099 98.7572C140.623 98.6496 141.122 98.5662 141.595 98.5107C142.066 98.4577 142.483 98.38 142.842 98.2784C143.203 98.1777 143.487 98.0309 143.695 97.8352C143.906 97.6411 144.011 97.3576 144.011 96.9838C144.011 96.5488 143.932 96.1994 143.776 95.9333C143.617 95.6684 143.417 95.4683 143.167 95.3285C142.922 95.1883 142.643 95.0945 142.336 95.0472C142.029 95.0008 141.727 94.9777 141.425 94.9777C140.616 94.9777 139.942 95.1375 139.403 95.4566C138.864 95.7748 138.571 96.3787 138.526 97.2638H136.615C136.645 96.5163 136.793 95.8872 137.064 95.3737C137.334 94.8597 137.693 94.4455 138.145 94.1264C138.593 93.8069 139.11 93.5768 139.696 93.437C140.28 93.2981 140.894 93.2274 141.538 93.2274C142.062 93.2274 142.583 93.2669 143.1 93.3441C143.617 93.4231 144.087 93.5816 144.506 93.8234C144.925 94.0639 145.263 94.4017 145.518 94.8367C145.773 95.273 145.901 95.8421 145.901 96.5397V102.747C145.901 103.212 145.926 103.556 145.978 103.774C146.03 103.991 146.207 104.1 146.506 104.1C146.672 104.1 146.867 104.061 147.091 103.982V105.523C146.761 105.724 146.304 105.826 145.72 105.826Z" fill="#777776"></path>
                  <path fill-rule="evenodd" clip-rule="evenodd" d="M155.766 95.6062C155.27 95.1872 154.603 94.9771 153.766 94.9771C153.052 94.9771 152.456 95.1099 151.976 95.3739C151.494 95.6387 151.11 95.9882 150.825 96.4241C150.536 96.8592 150.332 97.3615 150.209 97.9294C150.084 98.4973 150.022 99.083 150.022 99.6904C150.022 100.25 150.089 100.794 150.219 101.324C150.352 101.853 150.557 102.324 150.837 102.734C151.116 103.147 151.479 103.478 151.929 103.727C152.377 103.976 152.913 104.099 153.533 104.099C154.509 104.099 155.272 103.844 155.823 103.33C156.374 102.816 156.71 102.094 156.836 101.161H158.858C158.64 102.653 158.087 103.805 157.196 104.613C156.303 105.422 155.092 105.826 153.557 105.826C152.641 105.826 151.832 105.678 151.127 105.383C150.421 105.088 149.832 104.669 149.359 104.123C148.887 103.58 148.531 102.93 148.291 102.174C148.05 101.42 147.932 100.592 147.932 99.6904C147.932 98.7878 148.047 97.9446 148.28 97.1601C148.511 96.3733 148.864 95.6895 149.336 95.1051C149.809 94.522 150.402 94.0627 151.116 93.7297C151.827 93.3954 152.658 93.2274 153.603 93.2274C154.285 93.2274 154.925 93.3098 155.522 93.4727C156.118 93.6372 156.646 93.8882 157.101 94.2307C157.559 94.5733 157.936 95.0044 158.23 95.5254C158.524 96.0469 158.71 96.666 158.787 97.3811H156.741C156.587 96.6174 156.262 96.0273 155.766 95.6062Z" fill="#777776"></path>
                  <path fill-rule="evenodd" clip-rule="evenodd" d="M160.54 105.826H162.221V94.2712H160.54V105.826ZM160.54 92.1912H162.221V89.8679H160.54V92.1912Z" fill="#777776"></path>
                  <mask id="mask2_1_39754" style="mask-type:luminance" maskUnits="userSpaceOnUse" x="163" y="88" width="19" height="22">
                    <path d="M163.911 88.244H181.238V109.999H163.911V88.244Z" fill="white"></path>
                  </mask>
                  <g mask="url(#mask2_1_39754)">
                    <path fill-rule="evenodd" clip-rule="evenodd" d="M166.211 101.096C166.358 101.634 166.583 102.115 166.883 102.537C167.184 102.961 167.569 103.298 168.039 103.547C168.509 103.798 169.062 103.922 169.695 103.922C170.358 103.922 170.919 103.791 171.383 103.523C171.847 103.258 172.224 102.911 172.517 102.479C172.809 102.048 173.021 101.561 173.153 101.012C173.284 100.464 173.35 99.9093 173.35 99.3459C173.35 98.7515 173.279 98.1755 173.142 97.6212C173.003 97.0648 172.784 96.5761 172.482 96.1551C172.18 95.7315 171.792 95.3904 171.314 95.1331C170.835 94.8746 170.258 94.7457 169.578 94.7457C168.915 94.7457 168.352 94.8794 167.891 95.1449C167.426 95.4113 167.057 95.7629 166.778 96.2014C166.502 96.639 166.301 97.1395 166.178 97.7042C166.054 98.2663 165.992 98.8446 165.992 99.4394C165.992 100.004 166.066 100.555 166.211 101.096ZM173.279 105.401V103.758H173.233C172.909 104.431 172.402 104.916 171.708 105.213C171.012 105.51 170.25 105.659 169.417 105.659C168.492 105.659 167.685 105.488 167 105.144C166.313 104.799 165.741 104.337 165.287 103.758C164.832 103.18 164.489 102.506 164.259 101.74C164.025 100.972 163.911 100.16 163.911 99.2996C163.911 98.4397 164.021 97.6247 164.246 96.8578C164.469 96.0922 164.81 95.4227 165.264 94.8501C165.719 94.2802 166.291 93.826 166.977 93.491C167.663 93.1547 168.459 92.9857 169.371 92.9857C169.678 92.9857 170.01 93.0171 170.364 93.08C170.72 93.1429 171.074 93.2477 171.429 93.398C171.783 93.5456 172.118 93.7399 172.436 93.9832C172.752 94.2264 173.017 94.5256 173.233 94.8864H173.279V88.6449H175.246V105.401H173.279Z" fill="#777776"></path>
                  </g>
                  <mask id="mask3_1_39754" style="mask-type:luminance" maskUnits="userSpaceOnUse" x="163" y="88" width="19" height="22">
                    <path d="M163.911 88.244H181.238V109.999H163.911V88.244Z" fill="white"></path>
                  </mask>
                  <g mask="url(#mask3_1_39754)">
                    <path fill-rule="evenodd" clip-rule="evenodd" d="M178.464 104.732C178.925 102.974 179.157 101.137 179.157 99.2281C179.157 97.2579 178.923 95.3839 178.452 93.6081C177.982 91.831 177.205 90.0443 176.127 88.244H177.607C178.162 89.1214 178.662 89.9945 179.11 90.8627C179.558 91.7297 179.939 92.6141 180.257 93.5137C180.571 94.4147 180.814 95.3328 180.985 96.2722C181.154 97.209 181.239 98.1969 181.239 99.2281C181.239 101.074 180.935 102.932 180.324 104.804C179.715 106.672 178.81 108.414 177.607 110.025H176.127C177.221 108.256 178 106.493 178.464 104.732Z" fill="#777776"></path>
                  </g>
                  <path fill-rule="evenodd" clip-rule="evenodd" d="M196.952 95.6062C196.456 95.1872 195.789 94.9771 194.953 94.9771C194.239 94.9771 193.642 95.1099 193.162 95.3739C192.682 95.6387 192.297 95.9882 192.012 96.4241C191.723 96.8592 191.519 97.3615 191.395 97.9294C191.27 98.4973 191.208 99.083 191.208 99.6904C191.208 100.25 191.276 100.794 191.407 101.324C191.538 101.853 191.743 102.324 192.023 102.734C192.301 103.147 192.666 103.478 193.116 103.727C193.565 103.976 194.1 104.099 194.719 104.099C195.696 104.099 196.46 103.844 197.011 103.33C197.561 102.816 197.897 102.094 198.022 101.161H200.044C199.827 102.653 199.273 103.805 198.382 104.613C197.489 105.422 196.278 105.826 194.743 105.826C193.829 105.826 193.018 105.678 192.314 105.383C191.608 105.088 191.018 104.669 190.545 104.123C190.072 103.58 189.717 102.93 189.477 102.174C189.237 101.42 189.118 100.592 189.118 99.6904C189.118 98.7878 189.233 97.9446 189.466 97.1601C189.697 96.3733 190.051 95.6895 190.523 95.1051C190.996 94.522 191.587 94.0627 192.301 93.7297C193.016 93.3954 193.845 93.2274 194.79 93.2274C195.472 93.2274 196.111 93.3098 196.708 93.4727C197.305 93.6372 197.832 93.8882 198.29 94.2307C198.746 94.5733 199.122 95.0044 199.416 95.5254C199.71 96.0469 199.897 96.666 199.974 97.3811H197.929C197.773 96.6174 197.448 96.0273 196.952 95.6062Z" fill="#777776"></path>
                  <mask id="mask4_1_39754" style="mask-type:luminance" maskUnits="userSpaceOnUse" x="201" y="93" width="24" height="17">
                    <path d="M201.017 93.6407H224.869V110H201.017V93.6407Z" fill="white"></path>
                  </mask>
                  <g mask="url(#mask4_1_39754)">
                    <path fill-rule="evenodd" clip-rule="evenodd" d="M208.049 99.9491C207.651 100.031 207.233 100.1 206.796 100.152C206.359 100.204 205.918 100.265 205.473 100.333C205.03 100.4 204.631 100.51 204.279 100.66C203.926 100.811 203.641 101.025 203.417 101.303C203.196 101.581 203.085 101.961 203.085 102.442C203.085 102.758 203.15 103.025 203.28 103.245C203.41 103.462 203.579 103.638 203.786 103.774C203.993 103.909 204.237 104.008 204.522 104.067C204.804 104.129 205.093 104.158 205.383 104.158C206.027 104.158 206.579 104.07 207.037 103.897C207.497 103.725 207.872 103.508 208.163 103.245C208.454 102.981 208.669 102.694 208.806 102.385C208.944 102.077 209.014 101.788 209.014 101.517V99.554C208.768 99.7341 208.446 99.8664 208.049 99.9491ZM210.784 105.828C210.278 105.828 209.875 105.689 209.576 105.41C209.279 105.131 209.129 104.677 209.129 104.044C208.591 104.677 207.968 105.131 207.254 105.41C206.543 105.689 205.773 105.828 204.944 105.828C204.41 105.828 203.904 105.77 203.429 105.657C202.956 105.545 202.538 105.356 202.177 105.095C201.816 104.831 201.533 104.491 201.325 104.078C201.119 103.664 201.017 103.164 201.017 102.578C201.017 101.915 201.132 101.375 201.362 100.954C201.592 100.532 201.893 100.19 202.269 99.9265C202.645 99.6636 203.074 99.4624 203.555 99.3293C204.037 99.1937 204.532 99.0807 205.039 98.99C205.573 98.8858 206.083 98.8052 206.567 98.7515C207.049 98.7002 207.476 98.6251 207.842 98.5268C208.209 98.4294 208.501 98.2874 208.714 98.098C208.93 97.9103 209.036 97.6361 209.036 97.2745C209.036 96.8537 208.957 96.5157 208.795 96.2583C208.633 96.0021 208.428 95.8085 208.174 95.6733C207.922 95.5376 207.64 95.4469 207.325 95.4012C207.011 95.3562 206.701 95.334 206.394 95.334C205.566 95.334 204.877 95.4885 204.326 95.7972C203.773 96.105 203.475 96.6891 203.429 97.5454H201.476C201.508 96.8222 201.659 96.2137 201.936 95.7169C202.212 95.2197 202.579 94.8191 203.039 94.5105C203.499 94.2014 204.026 93.9788 204.625 93.8436C205.222 93.7092 205.851 93.6407 206.508 93.6407C207.045 93.6407 207.577 93.679 208.105 93.7537C208.633 93.8301 209.114 93.9834 209.541 94.2173C209.97 94.45 210.316 94.7767 210.576 95.1975C210.837 95.6195 210.967 96.1701 210.967 96.8449V102.85C210.967 103.299 210.993 103.632 211.047 103.842C211.101 104.053 211.281 104.158 211.587 104.158C211.757 104.158 211.956 104.12 212.185 104.044V105.534C211.847 105.729 211.379 105.828 210.784 105.828Z" fill="#777776"></path>
                  </g>
                  <mask id="mask5_1_39754" style="mask-type:luminance" maskUnits="userSpaceOnUse" x="201" y="93" width="24" height="17">
                    <path d="M201.017 93.6407H224.869V110H201.017V93.6407Z" fill="white"></path>
                  </mask>
                  <g mask="url(#mask5_1_39754)">
                    <path fill-rule="evenodd" clip-rule="evenodd" d="M222.585 98.053C222.438 97.534 222.217 97.0729 221.918 96.6655C221.618 96.259 221.236 95.9357 220.768 95.6942C220.301 95.4544 219.753 95.3339 219.125 95.3339C218.467 95.3339 217.908 95.4611 217.448 95.7165C216.987 95.9739 216.613 96.3073 216.323 96.7214C216.029 97.1367 215.819 97.6066 215.689 98.1324C215.559 98.6594 215.495 99.1932 215.495 99.7341C215.495 100.308 215.562 100.86 215.701 101.392C215.838 101.927 216.057 102.397 216.356 102.803C216.656 103.211 217.042 103.537 217.516 103.785C217.991 104.033 218.565 104.158 219.24 104.158C219.914 104.158 220.478 104.03 220.929 103.774C221.38 103.519 221.745 103.18 222.021 102.758C222.296 102.337 222.496 101.857 222.618 101.314C222.741 100.773 222.802 100.215 222.802 99.6434C222.802 99.1016 222.729 98.5725 222.585 98.053ZM215.562 93.9124V95.4914H215.61C215.932 94.8459 216.437 94.3747 217.125 94.0816C217.816 93.7885 218.574 93.6407 219.402 93.6407C220.319 93.6407 221.121 93.8074 221.802 94.1375C222.485 94.4697 223.051 94.9173 223.504 95.4805C223.954 96.0453 224.295 96.6958 224.524 97.4332C224.757 98.1694 224.87 98.9517 224.87 99.7798C224.87 100.608 224.759 101.39 224.536 102.125C224.314 102.864 223.977 103.507 223.526 104.056C223.075 104.605 222.508 105.037 221.826 105.354C221.144 105.67 220.35 105.827 219.446 105.827C219.156 105.827 218.83 105.798 218.471 105.738C218.11 105.677 217.754 105.579 217.402 105.443C217.049 105.308 216.716 105.124 216.402 104.891C216.088 104.659 215.824 104.369 215.61 104.021H215.562V110.025H213.611V93.9124H215.562Z" fill="#777776"></path>
                  </g>
                  <path fill-rule="evenodd" clip-rule="evenodd" d="M228.352 102.875C228.535 103.179 228.777 103.42 229.075 103.598C229.374 103.778 229.711 103.906 230.085 103.983C230.462 104.061 230.848 104.099 231.246 104.099C231.554 104.099 231.873 104.076 232.211 104.031C232.547 103.983 232.858 103.897 233.141 103.773C233.425 103.648 233.657 103.466 233.842 103.225C234.027 102.984 234.119 102.676 234.119 102.304C234.119 101.79 233.926 101.402 233.542 101.137C233.161 100.873 232.682 100.659 232.108 100.495C231.533 100.331 230.91 100.184 230.235 100.052C229.562 99.9205 228.936 99.7316 228.363 99.4933C227.788 99.2515 227.308 98.9115 226.928 98.4765C226.545 98.0414 226.351 97.4353 226.351 96.6564C226.351 96.0503 226.486 95.5298 226.755 95.0947C227.023 94.6584 227.368 94.3045 227.788 94.0336C228.209 93.7605 228.684 93.5595 229.212 93.4249C229.741 93.2933 230.266 93.2274 230.787 93.2274C231.46 93.2274 232.081 93.2864 232.647 93.4019C233.213 93.52 233.716 93.7214 234.153 94.0093C234.589 94.2976 234.938 94.6862 235.199 95.1755C235.458 95.6661 235.611 96.277 235.657 97.0072H233.704C233.675 96.6174 233.575 96.2956 233.407 96.0386C233.236 95.782 233.023 95.5758 232.762 95.4208C232.501 95.2658 232.215 95.1525 231.901 95.0808C231.587 95.0127 231.27 94.9766 230.949 94.9766C230.658 94.9766 230.362 95.0009 230.062 95.0474C229.764 95.0947 229.491 95.1755 229.248 95.2923C229.001 95.4082 228.804 95.5645 228.649 95.7586C228.497 95.9544 228.42 96.2053 228.42 96.5166C228.42 96.8592 228.539 97.1423 228.777 97.3693C229.013 97.5947 229.316 97.7809 229.683 97.9294C230.052 98.0762 230.464 98.2012 230.925 98.3019C231.383 98.4035 231.844 98.509 232.303 98.6163C232.794 98.7265 233.271 98.8581 233.74 99.0131C234.206 99.1694 234.62 99.3756 234.979 99.6322C235.339 99.8893 235.63 100.212 235.852 100.601C236.074 100.991 236.186 101.472 236.186 102.047C236.186 102.778 236.037 103.384 235.738 103.867C235.439 104.349 235.049 104.738 234.566 105.033C234.082 105.328 233.54 105.535 232.934 105.651C232.329 105.768 231.728 105.826 231.131 105.826C230.473 105.826 229.844 105.757 229.248 105.617C228.649 105.476 228.122 105.248 227.662 104.928C227.203 104.61 226.835 104.19 226.56 103.669C226.283 103.147 226.13 102.513 226.1 101.767H228.053C228.067 102.202 228.166 102.572 228.352 102.875Z" fill="#777776"></path>
                  <path fill-rule="evenodd" clip-rule="evenodd" d="M246.226 105.564V103.608H246.181C245.794 104.371 245.297 104.932 244.693 105.291C244.087 105.647 243.374 105.826 242.553 105.826C241.82 105.826 241.206 105.719 240.718 105.505C240.226 105.291 239.832 104.984 239.53 104.585C239.225 104.188 239.014 103.715 238.891 103.165C238.77 102.616 238.708 102.009 238.708 101.341V93.2274H240.544V101.58C240.544 102.343 240.746 102.946 241.149 103.391C241.552 103.838 242.107 104.06 242.814 104.06C243.374 104.06 243.861 103.964 244.27 103.774C244.681 103.583 245.024 103.313 245.297 102.962C245.57 102.614 245.776 102.205 245.913 101.734C246.049 101.264 246.117 100.753 246.117 100.194V93.2274H247.954V105.564H246.226Z" fill="#777776"></path>
                  <path fill-rule="evenodd" clip-rule="evenodd" d="M251.314 105.826H252.995V89.8679H251.314V105.826Z" fill="#777776"></path>
                  <path fill-rule="evenodd" clip-rule="evenodd" d="M263.226 97.053C263.051 96.6345 262.815 96.2724 262.516 95.9689C262.22 95.6659 261.867 95.4241 261.464 95.2448C261.06 95.0668 260.613 94.9778 260.126 94.9778C259.622 94.9778 259.166 95.0668 258.763 95.2448C258.358 95.4241 258.011 95.6685 257.723 95.9807C257.431 96.2933 257.202 96.654 257.035 97.0647C256.866 97.4767 256.769 97.9174 256.736 98.3836H263.536C263.504 97.9174 263.402 97.4741 263.226 97.053ZM263.697 104.8C262.81 105.484 261.697 105.826 260.354 105.826C259.408 105.826 258.588 105.671 257.893 105.36C257.199 105.049 256.615 104.612 256.143 104.053C255.668 103.493 255.314 102.824 255.078 102.047C254.841 101.269 254.708 100.421 254.677 99.5046C254.677 98.5859 254.814 97.7463 255.09 96.9835C255.363 96.2212 255.75 95.5609 256.245 95.0008C256.741 94.4408 257.329 94.0049 258.007 93.6945C258.686 93.3836 259.43 93.2274 260.24 93.2274C261.294 93.2274 262.166 93.4492 262.859 93.8938C263.555 94.3357 264.112 94.8988 264.532 95.5839C264.95 96.2676 265.242 97.0148 265.402 97.8249C265.561 98.6333 265.627 99.4026 265.597 100.134H256.736C256.721 100.662 256.783 101.165 256.92 101.638C257.059 102.113 257.279 102.533 257.583 102.897C257.89 103.263 258.279 103.556 258.75 103.773C259.224 103.991 259.781 104.1 260.422 104.1C261.246 104.1 261.922 103.905 262.448 103.516C262.975 103.127 263.321 102.536 263.49 101.743H265.413C265.154 103.096 264.58 104.115 263.697 104.8Z" fill="#777776"></path>
                  <path fill-rule="evenodd" clip-rule="evenodd" d="M268.696 102.875C268.88 103.179 269.121 103.42 269.419 103.598C269.718 103.778 270.055 103.906 270.429 103.983C270.806 104.061 271.192 104.099 271.59 104.099C271.898 104.099 272.218 104.076 272.555 104.031C272.892 103.983 273.202 103.897 273.485 103.773C273.77 103.648 274.003 103.466 274.187 103.225C274.371 102.984 274.464 102.676 274.464 102.304C274.464 101.79 274.271 101.402 273.887 101.137C273.505 100.873 273.027 100.659 272.452 100.495C271.877 100.331 271.254 100.184 270.579 100.052C269.906 99.9205 269.281 99.7316 268.707 99.4933C268.132 99.2515 267.652 98.9115 267.272 98.4765C266.889 98.0414 266.695 97.4353 266.695 96.6564C266.695 96.0503 266.83 95.5298 267.099 95.0947C267.367 94.6584 267.711 94.3045 268.132 94.0336C268.554 93.7605 269.027 93.5595 269.556 93.4249C270.085 93.2933 270.61 93.2274 271.131 93.2274C271.804 93.2274 272.425 93.2864 272.991 93.4019C273.558 93.52 274.06 93.7214 274.498 94.0093C274.933 94.2976 275.283 94.6862 275.544 95.1755C275.802 95.6661 275.956 96.277 276.002 97.0072H274.049C274.019 96.6174 273.919 96.2956 273.751 96.0386C273.581 95.782 273.367 95.5758 273.106 95.4208C272.846 95.2658 272.56 95.1525 272.245 95.0808C271.931 95.0127 271.614 94.9766 271.293 94.9766C271.001 94.9766 270.706 95.0009 270.407 95.0474C270.107 95.0947 269.835 95.1755 269.591 95.2923C269.345 95.4082 269.148 95.5645 268.994 95.7586C268.841 95.9544 268.764 96.2053 268.764 96.5166C268.764 96.8592 268.882 97.1423 269.121 97.3693C269.357 97.5947 269.66 97.7809 270.029 97.9294C270.396 98.0762 270.808 98.2012 271.269 98.3019C271.728 98.4035 272.188 98.509 272.647 98.6163C273.139 98.7265 273.616 98.8581 274.084 99.0131C274.55 99.1694 274.965 99.3756 275.324 99.6322C275.684 99.8893 275.974 100.212 276.197 100.601C276.419 100.991 276.531 101.472 276.531 102.047C276.531 102.778 276.381 103.384 276.082 103.867C275.784 104.349 275.393 104.738 274.91 105.033C274.427 105.328 273.885 105.535 273.278 105.651C272.673 105.768 272.072 105.826 271.475 105.826C270.818 105.826 270.189 105.757 269.591 105.617C268.994 105.476 268.466 105.248 268.005 104.928C267.546 104.61 267.179 104.19 266.904 103.669C266.626 103.147 266.473 102.513 266.444 101.767H268.396C268.411 102.202 268.51 102.572 268.696 102.875Z" fill="#777776"></path>
                  <path fill-rule="evenodd" clip-rule="evenodd" d="M59.1505 25.0512C59.1505 19.3051 64.411 14.6487 70.8943 14.6487C81.1619 14.6487 94.4801 25.0512 94.4801 25.0512C94.4801 25.0512 81.1619 35.4537 70.8943 35.4537C64.411 35.4537 59.1505 30.7969 59.1505 25.0512ZM70.2827 10.9186C62.1079 10.9186 55.4751 17.2352 55.4751 25.0311C55.4751 25.0379 55.476 25.0444 55.476 25.0512H55.4751V104.986H59.3403V34.5146C62.0494 37.3518 65.9423 39.1441 70.2827 39.1441C83.2295 39.1441 100.023 25.0311 100.023 25.0311C100.023 25.0311 83.2295 10.9186 70.2827 10.9186Z" fill="#739549"></path>
                  <path fill-rule="evenodd" clip-rule="evenodd" d="M36.6933 24.6411C26.4257 24.6411 13.1075 14.1939 13.1075 14.1939C13.1075 14.1939 26.4257 3.74661 36.6933 3.74661C43.1766 3.74661 48.4371 8.42258 48.4371 14.1939C48.4371 19.9639 43.1766 24.6411 36.6933 24.6411ZM7.56494 14.1733C7.56494 14.1733 24.3581 28.347 37.3049 28.347C41.6453 28.347 45.5382 26.547 48.2473 23.6976V105.826H52.1125V14.1939H52.1116C52.1116 14.187 52.1125 14.1802 52.1125 14.1733C52.1125 6.34427 45.4797 0 37.3049 0C24.3581 0 7.56494 14.1733 7.56494 14.1733Z" fill="#739549"></path>
                  <path fill-rule="evenodd" clip-rule="evenodd" d="M29.1284 65.7133C18.8608 65.7133 5.54259 55.301 5.54259 55.301C5.54259 55.301 18.8608 44.8886 29.1284 44.8886C35.6116 44.8886 40.8722 49.5489 40.8722 55.301C40.8722 61.0521 35.6116 65.7133 29.1284 65.7133ZM0 55.2809C0 55.2809 16.7932 69.4068 29.74 69.4068C34.0804 69.4068 37.9733 67.6133 40.6824 64.773V104.986H44.5476V55.301H44.5467C44.5467 55.2941 44.5476 55.2877 44.5476 55.2809C44.5476 47.4776 37.9147 41.1545 29.74 41.1545C16.7932 41.1545 0 55.2809 0 55.2809Z" fill="#935893"></path>
                  <path fill-rule="evenodd" clip-rule="evenodd" d="M280.482 55.6288H280.976C281.552 55.6288 282.019 55.4324 282.019 54.9568C282.019 54.5369 281.717 54.2567 281.058 54.2567C280.784 54.2567 280.592 54.2848 280.482 54.3129V55.6288ZM280.455 58.2324H279.412V53.6409C279.824 53.557 280.4 53.5008 281.14 53.5008C281.991 53.5008 282.375 53.6409 282.704 53.8368C282.951 54.0331 283.143 54.3968 283.143 54.8448C283.143 55.349 282.759 55.7408 282.211 55.9085V55.9647C282.649 56.1325 282.896 56.4685 283.034 57.0843C283.171 57.7844 283.253 58.0642 283.362 58.2324H282.238C282.101 58.0642 282.019 57.6443 281.881 57.1124C281.799 56.6086 281.525 56.3846 280.948 56.3846H280.455V58.2324ZM277.684 55.8246C277.684 57.8683 279.165 59.492 281.195 59.492C283.171 59.492 284.625 57.8683 284.625 55.8528C284.625 53.8091 283.171 52.1572 281.168 52.1572C279.165 52.1572 277.684 53.8091 277.684 55.8246ZM285.777 55.8246C285.777 58.4283 283.774 60.4719 281.168 60.4719C278.589 60.4719 276.531 58.4283 276.531 55.8246C276.531 53.2772 278.589 51.2332 281.168 51.2332C283.774 51.2332 285.777 53.2772 285.777 55.8246Z" fill="#935893"></path>
                </g>
                <defs>
                  <clipPath id="clip0_1_39754">
                    <rect width="286" height="110" fill="white"></rect>
                  </clipPath>
                </defs>
              </svg>