<svg xmlns="http://www.w3.org/2000/svg" viewBox="0 0 21 100" fill="none">
  <path
    d="M10.8134 28.1916C10.8885 19.4517 11.0172 10.7128 11.1997 1.97503C11.2038 1.5009 11.302 1.04806 11.4728 0.716134C11.6436 0.384207 11.8729 0.200383 12.1104 0.205099C12.3478 0.209815 12.5739 0.402685 12.7389 0.741281C12.9039 1.07988 12.9943 1.53646 12.9903 2.01059C12.3508 32.6803 12.3702 63.7803 13.0439 94.4522C13.0541 94.9266 12.9694 95.3911 12.8086 95.7433C12.6477 96.0955 12.4238 96.3068 12.1861 96.3305C11.9484 96.3542 11.7164 96.1885 11.5412 95.8698C11.3659 95.5512 11.2617 95.1056 11.2516 94.6312C10.772 72.629 10.623 50.3593 10.8134 28.1916Z"
    fill="url(#paint0_linear_49_34178)"
  />
  <path
    d="M6.21195 88.4078C6.19839 88.1961 6.25581 87.9867 6.37414 87.8163C6.49246 87.646 6.66413 87.5255 6.859 87.4761C7.05386 87.4267 7.25946 87.4515 7.4397 87.5462C7.61994 87.6409 7.76329 87.7994 7.84458 87.9939C9.00883 90.7613 10.3138 93.461 11.7538 96.0812C12.8508 92.679 14.1584 89.358 15.6682 86.1397C15.7182 86.0339 15.7875 85.9397 15.8722 85.8625C15.9568 85.7853 16.0552 85.7266 16.1616 85.6897C16.2681 85.6529 16.3805 85.6385 16.4924 85.6476C16.6044 85.6566 16.7138 85.6889 16.8143 85.7425C16.9147 85.7961 17.0044 85.87 17.0781 85.96C17.1518 86.05 17.2081 86.1543 17.2437 86.267C17.2794 86.3797 17.2938 86.4986 17.286 86.6168C17.2783 86.735 17.2485 86.8503 17.1985 86.9561C15.4356 90.6802 13.9505 94.5455 12.7567 98.5172C12.7081 98.6826 12.6152 98.8294 12.4892 98.9398C12.3632 99.0503 12.2095 99.1198 12.0465 99.1399C11.8834 99.1601 11.718 99.1301 11.57 99.0536C11.422 98.977 11.2978 98.8571 11.2122 98.7083C9.3539 95.4959 7.69788 92.1586 6.25502 88.7184C6.2235 88.6182 6.20892 88.5117 6.21195 88.4078Z"
    fill="url(#paint1_linear_49_34178)"
  />
  <defs>
    <linearGradient
      id="paint0_linear_49_34178"
      x1="11.5539"
      y1="126.738"
      x2="30.0945"
      y2="2.81403"
      gradientUnits="userSpaceOnUse"
    >
      <stop stop-color="#A05EA6" />
      <stop offset="1" stop-color="#0080A3" />
    </linearGradient>
    <linearGradient
      id="paint1_linear_49_34178"
      x1="13.5206"
      y1="103.226"
      x2="12.4685"
      y2="85.8999"
      gradientUnits="userSpaceOnUse"
    >
      <stop stop-color="#A05EA6" />
      <stop offset="1" stop-color="#0080A3" />
    </linearGradient>
  </defs>
</svg>