<svg xmlns="http://www.w3.org/2000/svg" viewBox="0 0 13 27" fill="none">
  <path
    d="M5.48436 7.21951C5.57882 5.03544 5.72693 2.85352 5.92869 0.673731C5.93382 0.555249 6.03294 0.445372 6.20425 0.368273C6.37557 0.291174 6.60504 0.253168 6.84219 0.262617C7.07934 0.272065 7.30475 0.328194 7.46882 0.418655C7.63288 0.509116 7.72218 0.626499 7.71705 0.744982C7.00995 8.39608 6.96003 16.1778 7.56464 23.8752C7.57375 23.9942 7.48815 24.1075 7.32668 24.19C7.1652 24.2725 6.94109 24.3176 6.70363 24.3152C6.46617 24.3129 6.23482 24.2633 6.06048 24.1775C5.88613 24.0917 5.78307 23.9766 5.77396 23.8575C5.34396 18.336 5.24478 12.7591 5.48436 7.21951Z"
    fill="url(#paint0_linear_49_34184)"
  />
  <path
    d="M1.07655 16.2712C1.06951 16.0781 1.13335 15.8886 1.25686 15.7359C1.38037 15.5832 1.55564 15.4772 1.75191 15.4364C1.94818 15.3957 2.1529 15.4228 2.33011 15.5129C2.50732 15.6031 2.6457 15.7506 2.72096 15.9296C3.79925 18.476 5.0203 20.9639 6.37872 23.3822C7.5799 20.3064 8.98902 17.3093 10.597 14.4101C10.6503 14.3148 10.7224 14.2305 10.8094 14.162C10.8964 14.0935 10.9965 14.0422 11.104 14.0109C11.2115 13.9796 11.3243 13.969 11.436 13.9796C11.5476 13.9903 11.6559 14.0221 11.7547 14.0731C11.8534 14.1241 11.9408 14.1934 12.0116 14.277C12.0825 14.3606 12.1355 14.4568 12.1677 14.5603C12.1999 14.6637 12.2106 14.7723 12.1992 14.8799C12.1878 14.9874 12.1545 15.0918 12.1013 15.1871C10.2247 18.5416 8.6214 22.0308 7.30596 25.6233C7.25226 25.7729 7.15492 25.9046 7.02561 26.0025C6.8963 26.1003 6.74051 26.1603 6.57694 26.1752C6.41337 26.19 6.24896 26.1591 6.10343 26.0861C5.9579 26.0132 5.83744 25.9013 5.7565 25.7638C3.99825 22.7969 2.44603 19.7206 1.11002 16.5551C1.08161 16.4632 1.07068 16.3675 1.07655 16.2712Z"
    fill="url(#paint1_linear_49_34184)"
  />
  <defs>
    <linearGradient
      id="paint0_linear_49_34184"
      x1="6.00441"
      y1="31.9009"
      x2="8.2878"
      y2="0.346765"
      gradientUnits="userSpaceOnUse"
    >
      <stop stop-color="#A05EA6" />
      <stop offset="1" stop-color="#0080A3" />
    </linearGradient>
    <linearGradient
      id="paint1_linear_49_34184"
      x1="7.92436"
      y1="29.9296"
      x2="7.39348"
      y2="14.1226"
      gradientUnits="userSpaceOnUse"
    >
      <stop stop-color="#A05EA6" />
      <stop offset="1" stop-color="#0080A3" />
    </linearGradient>
  </defs>
</svg>