<svg xmlns="http://www.w3.org/2000/svg" viewBox="0 0 130 98" fill="none">
  <path
    d="M86.0172 37.617C87.1156 38.8157 88.214 40.0144 89.3898 41.2988C89.413 40.1857 88.8638 39.3761 88.2837 38.59C86.2957 35.889 84.3309 33.1802 82.3042 30.5104C81.6312 29.6308 80.8113 28.8602 80.0532 28.0585C78.305 26.2137 76.5877 24.3378 74.8008 22.5397C72.1089 19.8387 69.8889 16.803 68.0942 13.4326C67.2356 11.8136 65.9129 11.4633 64.0486 11.6423C62.0529 11.8369 60.9081 12.8333 59.887 14.3122C56.5994 19.0603 53.3506 23.8318 49.9934 28.5177C47.4639 32.0516 44.772 35.4609 42.1883 38.9558C41.4148 39.9989 40.7341 41.1275 40.0766 42.2484C39.7672 42.7777 39.5351 43.3693 39.3804 43.9686C38.9395 45.6811 39.597 46.9265 41.3143 47.4091C42.1265 47.6348 43.0238 47.6659 43.8669 47.6192C46.8219 47.4713 49.7691 47.2612 52.9174 47.0588C52.9793 48.6078 53.0721 50.0789 53.0875 51.5501C53.1572 57.8316 53.1262 64.121 53.3041 70.3947C53.397 73.6172 53.6986 76.8553 54.2014 80.0389C54.9208 84.5847 58.0382 87.0599 62.6408 87.0444C63.7547 87.0444 64.8608 86.9043 65.9747 86.8965C69.5562 86.8653 73.1145 86.5307 76.3635 84.8104C80.4145 82.6641 82.3174 79.0436 82.6036 74.6124C82.7919 71.73 82.8229 68.8398 82.806 65.9495C82.7609 57.7695 82.6989 49.5817 82.5261 41.4017C82.4952 39.8448 82.3946 38.2801 82.2245 36.7309C82.1316 35.9214 81.7764 35.1895 80.8423 35.0805C80.1307 34.9949 79.3731 35.0805 78.6693 35.2205C76.4295 35.6632 74.2209 36.2459 71.5135 36.798C71.5058 35.4722 71.5135 34.2037 71.5058 32.9351C71.4749 30.4209 71.4439 27.9068 71.413 25.3926C71.3897 24.3335 71.3743 23.2744 71.359 22.2153C71.3436 19.5089 69.0854 17.2859 66.3548 17.2548C64.3358 17.2315 62.3168 17.1837 60.29 17.1837C59.8723 17.1837 59.4084 17.2471 59.037 17.3872C56.6631 18.1267 55.9211 20.3964 57.0272 22.5397C57.7465 23.9103 58.8293 25.1166 59.7789 26.3695C62.3782 29.7899 64.9311 33.2525 67.5767 36.6375C68.3424 37.6185 69.108 38.5995 69.9047 39.6272C71.3821 41.5497 73.5752 42.4453 76.1128 42.3518C77.1648 42.3129 78.209 42.1884 79.261 42.0794C80.1307 41.9783 80.538 42.2562 80.5767 43.1362C80.6617 44.9499 80.7234 46.7714 80.7698 48.5851C80.9553 55.9246 81.1175 63.264 81.3107 70.6035C81.3724 73.086 81.4495 75.5769 81.4804 78.0599C81.4959 80.0545 79.9635 81.7904 77.9909 82.1399C75.3682 82.6097 72.7844 83.2391 70.0926 83.5483C66.9597 83.9132 63.981 83.7342 61.0647 82.4267C57.9318 81.0328 56.0366 78.4874 55.8046 75.195C55.6036 72.5064 55.3407 69.8256 55.2633 67.1293C55.0776 60.4509 54.9771 53.7647 54.8843 47.0862C54.867 45.7293 54.9539 44.3724 54.9999 43.0077C55.0153 42.6504 54.9229 42.498 54.5902 42.498C52.5171 42.5058 50.444 42.5447 48.3708 42.5825C47.1336 42.6037 45.8964 42.625 44.6592 42.6637C43.3371 42.7093 42.0072 42.7248 40.6851 42.8338C38.3809 43.0155 36.4779 41.7626 35.7896 39.5793C35.247 37.8668 35.5022 36.2459 36.6083 34.77C38.0847 32.7677 39.7827 30.9074 41.4149 29.0627C43.9368 26.1879 46.5361 23.3758 49.1354 20.5638C51.0693 18.4564 53.0031 16.349 54.967 14.2571C56.0808 13.0508 57.264 11.9139 58.5089 10.855C60.5124 9.16077 63.031 8.84399 65.5452 9.94563C68.1678 11.0939 69.7352 13.3948 71.1034 15.8234C72.7 18.6355 74.4559 21.3652 76.2118 24.0872C77.6112 26.2693 78.9951 28.4825 80.5312 30.5648C81.0583 31.2499 81.693 31.8871 82.4278 32.3921C83.0699 32.8348 83.8431 33.1358 84.5085 33.5474C85.0047 33.8639 85.453 34.2368 85.8245 34.6717"
    fill="#0080A3"
  />
</svg>