<svg xmlns="http://www.w3.org/2000/svg" viewBox="0 0 130 98" fill="none">
  <path
    d="M44.3161 61.0275C43.2176 59.8288 42.1192 58.6301 40.9434 57.3458C40.9202 58.4589 41.4694 59.2684 42.0496 60.0545C44.0376 62.7555 46.0024 65.4643 48.0291 68.1342C48.702 69.0137 49.522 69.7843 50.2801 70.5861C52.0283 72.4308 53.7455 74.3067 55.5324 76.1048C58.2243 78.8058 60.4444 81.8415 62.239 85.2119C63.0976 86.8309 64.4204 87.1812 66.2846 87.0022C68.2804 86.8076 69.4252 85.8113 70.4463 84.3323C73.7338 79.5842 76.9827 74.8127 80.3399 70.1268C82.8693 66.593 85.5613 63.1836 88.1449 59.6887C88.9184 58.6457 89.5991 57.517 90.2567 56.3961C90.5661 55.8668 90.7981 55.2753 90.9528 54.6759C91.3938 52.9635 90.7362 51.7181 89.019 51.2355C88.2068 51.0097 87.3095 50.9786 86.4663 51.0253C83.5114 51.1732 80.5642 51.3834 77.4159 51.5857C77.354 50.0367 77.2612 48.5656 77.2457 47.0945C77.1761 40.8129 77.207 34.5236 77.0291 28.2498C76.9363 25.0273 76.6346 21.7892 76.1318 18.6056C75.4124 14.0599 72.295 11.5846 67.6925 11.6002C66.5786 11.6002 65.4724 11.7403 64.3585 11.7481C60.777 11.7792 57.2263 12.1132 54.0078 13.8335C50.0023 15.9798 48.0994 19.5926 47.8054 24.0238C47.617 26.9062 47.5861 29.7964 47.603 32.695C47.6481 40.875 47.7101 49.0628 47.8829 57.2428C47.9138 58.7997 48.0144 60.3644 48.1845 61.9136C48.2774 62.7231 48.6403 63.4549 49.5667 63.564C50.3013 63.6497 51.0207 63.564 51.7478 63.4239C53.9798 62.9812 56.1884 62.4064 58.9266 61.8543C58.9266 63.1801 58.9188 64.4486 58.9266 65.7172C58.9575 68.2235 58.9885 70.7376 59.0194 73.2596C59.0426 74.3109 59.058 75.37 59.0734 76.4291C59.0887 79.1355 61.3547 81.3586 64.0775 81.3896C66.0965 81.413 68.1155 81.4607 70.1423 81.4607C70.56 81.4607 71.0239 81.3974 71.3953 81.2651C73.7692 80.5177 74.5112 78.248 73.4051 76.1047C72.6858 74.7341 71.603 73.5278 70.6534 72.2749C68.0541 68.8622 65.4934 65.3918 62.8555 62.0068C62.0899 61.0259 61.3243 60.0449 60.5276 59.0171C59.0502 57.0947 56.8571 56.1991 54.3195 56.2926C53.2675 56.3314 52.2233 56.4559 51.1636 56.565C50.2939 56.6661 49.8942 56.3882 49.8555 55.5082C49.7705 53.6944 49.7088 51.8729 49.6624 50.0592C49.4769 42.7119 49.3147 35.3804 49.1215 28.0409C49.0598 25.5506 48.9827 23.0675 48.9518 20.5766C48.9364 18.582 50.4687 16.8539 52.4414 16.5045C55.064 16.0346 57.6478 15.3974 60.3397 15.0961C63.4726 14.7312 66.4512 14.9102 69.3675 16.2177C72.5005 17.6116 74.3957 20.157 74.6277 23.4494C74.8287 26.1379 75.0915 28.8188 75.169 31.5151C75.3547 38.1856 75.4552 44.8797 75.548 51.5582C75.5652 52.9151 75.4784 54.2719 75.4324 55.6367C75.417 55.9939 75.5094 56.1464 75.8421 56.1464C77.9152 56.1386 79.9883 56.0996 82.0614 56.0619C83.2987 56.0407 84.5359 56.0194 85.7731 55.9806C87.0951 55.9351 88.4251 55.9195 89.7471 55.8105C92.0513 55.6289 93.9543 56.8818 94.6427 59.0651C95.1852 60.7776 94.9378 62.3985 93.824 63.8744C92.3476 65.8767 90.6651 67.737 89.0251 69.5816C86.5032 72.4565 83.9039 75.2686 81.3046 78.0806C79.3707 80.188 77.4369 82.2954 75.4553 84.3873C74.3492 85.5936 73.1582 86.7305 71.9211 87.7893C69.9175 89.4758 67.399 89.8003 64.8847 88.6988C62.2621 87.5505 60.6947 85.2574 59.3266 82.821C57.73 80.0168 55.974 77.2792 54.2181 74.5573C52.8187 72.3751 51.4348 70.1619 49.8987 68.0797C49.3717 67.3945 48.737 66.7574 48.0021 66.2523C47.2907 65.8083 46.4963 65.485 45.8232 65.0735C45.3269 64.757 44.8787 64.3841 44.5072 63.9493"
    fill="#0080A3"
  />
</svg>