<svg xmlns="http://www.w3.org/2000/svg" viewBox="0 0 130 98" fill="none">
  <path
    d="M91.6747 63.5287C93.0079 62.0739 94.341 60.619 95.768 59.0603C95.7962 60.4112 95.1296 61.3937 94.4255 62.3478C92.0127 65.626 89.6281 68.9136 87.1683 72.1539C86.3515 73.2214 85.3564 74.1567 84.4363 75.1298C82.3146 77.3687 80.2304 79.6455 78.0617 81.8278C74.7945 85.1059 72.1001 88.7903 69.922 92.8809C68.8799 94.8459 67.2745 95.271 65.0119 95.0537C62.5897 94.8175 61.2002 93.6083 59.961 91.8134C55.9709 86.0506 52.0278 80.2595 47.9533 74.5724C44.8833 70.2834 41.6162 66.1456 38.4805 61.9038C37.5416 60.6379 36.7155 59.2681 35.9175 57.9077C35.5419 57.2653 35.2603 56.5473 35.0725 55.8199C34.5374 53.7415 35.3354 52.23 37.4196 51.6443C38.4054 51.3703 39.4944 51.3325 40.5177 51.3892C44.1041 51.5687 47.681 51.8238 51.5021 52.0694C51.5772 50.1894 51.6898 48.4039 51.7086 46.6184C51.7931 38.9946 51.7556 31.3613 51.9715 23.747C52.0842 19.8359 52.4503 15.9059 53.0605 12.042C53.9337 6.52492 57.7172 3.52074 63.3032 3.53964C64.6551 3.53964 65.9977 3.70969 67.3496 3.71913C71.6964 3.75692 75.9501 4.09315 79.8303 6.25889C84.3243 8.78414 86.1728 12.8852 86.1259 17.7906C86.0979 20.673 85.9761 23.55 85.9292 26.427C85.7974 34.607 85.6468 42.7947 85.4962 50.9747C85.4774 52.5315 85.4586 54.0884 85.4962 55.6452C85.5149 56.4702 85.8905 57.1942 86.8387 57.2686C87.5486 57.3241 88.2679 57.2031 88.9685 57.0542C91.2082 56.5838 93.4292 56.031 95.839 55.4337C95.8578 56.7728 95.8765 58.0564 95.8953 59.3324C95.9422 61.8466 95.9891 64.3685 96.0359 66.8827C96.0547 67.9418 96.0735 69.0009 96.0922 70.06C96.1298 72.7663 93.9276 74.9599 91.205 74.9755C89.1859 74.9832 87.1669 74.9832 85.1478 74.9599C84.7302 74.9521 84.2563 74.8932 83.8949 74.7598C81.5145 74.0358 80.7764 71.765 81.8919 69.6293C82.6112 68.2443 83.6941 67.0536 84.6422 65.8085C87.2479 62.3881 89.8163 58.9254 92.458 55.5404C93.2237 54.5594 93.9893 53.5784 94.7829 52.5507C96.2684 50.6282 98.4611 49.7326 100.998 49.8261C102.05 49.865 103.094 49.9895 104.146 50.0984C105.016 50.1995 105.413 50.5176 105.452 51.3891C105.537 53.2029 105.599 55.0166 105.645 56.838C105.831 64.1853 105.993 71.5248 106.186 78.8643C106.248 81.3469 106.325 83.83 106.356 86.321C106.371 88.3155 104.839 90.0436 102.866 90.3932C100.243 90.8631 97.6595 91.5002 94.9676 91.8016C91.8347 92.1665 88.856 91.9874 85.9398 90.6799C82.7975 89.286 80.9023 86.7407 80.6796 83.4483C80.4786 80.7598 80.2065 78.0789 80.1383 75.3827C79.9526 68.7121 79.8521 62.0181 79.7593 55.3395C79.7431 53.9826 79.8283 52.6257 79.8749 51.2688C79.8937 50.9196 79.7937 50.7671 79.461 50.7749C77.3972 50.7827 75.3241 50.8217 73.2511 50.8594C72.0137 50.8805 70.7765 50.9018 69.5394 50.9406C68.2174 50.9862 66.8873 51.0018 65.5653 51.1107C63.2613 51.2921 61.358 50.0392 60.6646 47.8558C60.1275 46.1433 60.3695 44.5224 61.4834 43.0464C62.9598 41.0362 64.6422 39.1836 66.2822 37.339C68.8042 34.4642 71.4034 31.6521 74.0026 28.8322C75.9365 26.7248 77.8704 24.6174 79.852 22.5254C80.9581 21.3192 82.1491 20.1823 83.3863 19.1158C85.3898 17.4292 87.9084 17.1048 90.4227 18.2063C93.0452 19.3569 94.6127 21.6433 95.9808 24.0797C97.5774 26.8917 99.3333 29.6214 101.089 32.3435C102.489 34.5256 103.872 36.7388 105.409 38.821C105.936 39.5061 106.57 40.1433 107.305 40.6483C108.017 41.0923 108.811 41.4234 109.484 41.8349C109.98 42.1515 110.428 42.5244 110.8 42.9515"
    fill="#0080A3"
  />
</svg>