<svg width="55" height="56" viewBox="0 0 55 56" fill="none" xmlns="http://www.w3.org/2000/svg">
<path d="M17.7061 38.0539C17.1181 37.3087 16.6521 36.5852 16.0641 35.9847C12.1851 31.9695 8.31324 27.9398 4.35535 24.0113C2.79227 22.4631 1.6809 20.6761 0.999742 18.6432C0.648407 17.5942 0.741618 16.386 0.677087 15.2501C0.655576 14.9101 0.806149 14.5701 0.820489 14.2228C0.942381 10.3305 2.80661 7.28474 5.4452 4.64407C9.28837 0.802451 14.8524 -0.138078 19.728 2.20596C20.1798 2.423 20.5884 2.76303 20.9613 3.1103C21.5994 3.68907 22.1444 4.37638 22.8112 4.92621C28.5401 9.66494 33.7456 14.9607 38.8435 20.3578C42.8373 24.5829 46.9457 28.7066 50.8104 33.0475C53.7358 36.332 54.9834 40.2243 53.3916 44.594C52.7033 46.4823 51.8859 48.3488 50.8749 50.0779C48.7813 53.6663 45.3755 54.9686 41.4319 55.0626C39.0514 55.1205 36.757 54.549 34.5415 53.7459C33.6022 53.4059 32.6844 52.7982 31.9746 52.0892C27.8087 47.9582 23.7074 43.7548 19.5631 39.5949C19.011 39.0378 18.3442 38.5892 17.6989 38.0539H17.7061ZM28.6405 44.1383C28.1386 43.7621 27.5865 43.4437 27.1347 43.0096C25.3422 41.3023 23.5855 39.5587 21.8145 37.8296C21.4202 37.4462 21.0043 37.0917 20.5669 36.6938C19.8643 37.533 20.5311 37.873 20.8752 38.213C24.9765 42.3368 29.085 46.4461 33.2293 50.5337C33.7456 51.0474 34.4196 51.4742 35.1007 51.7274C37.2016 52.516 39.3526 53.1237 41.6327 53.0369C44.7086 52.9139 47.4333 52.0096 49.1039 49.2025C50.0719 47.5747 51.0398 45.889 51.635 44.1093C52.7033 40.9188 52.4308 37.6632 50.1579 35.1166C45.863 30.3055 41.3315 25.7115 36.8932 21.0306C36.6351 20.7557 36.3053 20.5604 36.0472 20.365C31.8455 26.2758 26.2241 30.66 21.413 35.963C21.8719 36.4695 22.2878 36.9325 22.7108 37.3955C24.7399 39.5949 26.7691 41.787 28.7982 43.9863C28.748 44.037 28.6978 44.0876 28.6476 44.1383H28.6405ZM35.4592 19.7718C35.2011 19.4028 35.0649 19.1496 34.8784 18.9615C32.5482 16.5668 30.2609 14.1287 27.8661 11.8136C25.4283 9.45512 22.8757 7.21238 20.359 4.93346C20.065 4.66577 19.7209 4.44149 19.3767 4.25339C16.3724 2.58218 13.2821 2.53876 10.0843 3.6746C7.02262 4.75981 5.05085 7.02428 3.54513 9.75176C1.07861 14.2373 1.55184 19.439 5.73918 23.2662C9.51782 26.7171 13.067 30.4213 16.7166 34.0097C17.24 34.5233 17.7563 35.037 18.3514 35.6302C18.6095 35.2975 18.7744 35.0949 18.9537 34.8634C18.5019 34.3714 18.1219 33.9373 17.7276 33.525C13.9418 29.6616 10.1488 25.7983 6.36297 21.9277C5.63879 21.1898 4.92178 20.4374 4.24779 19.6488C4.07571 19.4462 4.07571 19.0845 4.00401 18.7951C5.48105 19.4463 6.34863 20.6544 7.41698 21.6528C8.46381 22.6367 9.47479 23.6641 10.4929 24.6842C11.5541 25.7404 12.6153 26.7967 13.6621 27.8674C14.6731 28.8947 15.6411 29.9582 16.6736 30.9639C17.7204 31.9912 18.5306 33.2862 19.8929 34.0676C25.1988 29.3722 29.5511 23.7581 35.4736 19.7718H35.4592Z" fill="white"/>
<path d="M29.7447 45.1223C29.8736 45.1656 29.9954 45.209 30.1243 45.2524C30.0456 45.3463 29.9668 45.4403 29.888 45.5415C29.8521 45.3969 29.8092 45.2451 29.7733 45.1006L29.7519 45.1223H29.7447Z" fill="white"/>
<path d="M29.7659 45.0929L29.422 44.7388L29.3934 44.7677C29.508 44.8833 29.6226 45.0062 29.7372 45.1218L29.7587 45.1002L29.7659 45.0929Z" fill="white"/>
<path d="M29.4216 44.7384C29.2999 44.6227 29.1853 44.5143 29.0635 44.3987C29.1709 44.5216 29.2855 44.6372 29.393 44.7601L29.4216 44.7312V44.7384Z" fill="white"/>
<path d="M29.0703 44.4056C28.927 44.3189 28.7909 44.2322 28.6476 44.1454C28.6978 44.0948 28.7479 44.0442 28.7981 43.9937C28.8912 44.131 28.9772 44.2683 29.0703 44.4129V44.4056Z" fill="white"/>
<path d="M18.2007 26.6013C17.3833 27.0209 16.6592 27.2163 16.021 26.623C13.4613 24.25 10.7725 22.0073 8.67885 19.1424C6.2697 15.8433 7.60334 12.1826 9.37435 10.4824C9.68267 10.1858 10.1272 9.92536 10.5431 9.86025C11.719 9.67938 12.2639 10.4173 11.805 11.5315C11.5684 12.1175 11.2529 12.6673 10.9446 13.2244C10.1631 14.6279 10.1917 16.017 11.1669 17.2758C12.0058 18.3538 12.9451 19.3666 13.913 20.3361C15.0029 21.4285 16.2146 22.4124 17.2973 23.5121C18.086 24.3152 18.5019 25.3063 18.2079 26.6013H18.2007ZM11.0091 10.7718C9.86909 10.9165 9.46756 11.517 9.1234 12.1826C7.99052 14.3892 8.02637 16.5813 9.60379 18.5057C11.0952 20.3216 12.7801 21.9784 14.4149 23.664C15.1463 24.4164 15.978 25.082 16.7595 25.791L17.1324 25.4872C16.8313 24.988 16.6161 24.402 16.2146 24.0041C15.2395 23.0346 14.1496 22.1809 13.1602 21.2259C12.2137 20.3144 11.2744 19.3811 10.4427 18.361C8.95131 16.5523 8.84376 14.6135 10.1129 12.6022C10.4355 12.0958 10.6506 11.5242 11.0163 10.7791L11.0091 10.7718Z" fill="white"/>
</svg>