<svg width="16" height="29" viewBox="0 0 16 29" fill="none" xmlns="http://www.w3.org/2000/svg">
  <g clip-path="url(#clip0_28_49)">
  <path d="M6.70269 6.48582C6.86201 4.51952 7.08188 2.55792 7.36227 0.601025C7.37092 0.494356 7.4855 0.400305 7.68082 0.339562C7.87614 0.278819 8.1362 0.256361 8.40378 0.277127C8.67136 0.297893 8.92455 0.360182 9.10765 0.450292C9.29075 0.540402 9.38876 0.650952 9.38011 0.757621C8.39713 7.62643 8.15314 14.647 8.65034 21.6253C8.65775 21.7332 8.55835 21.831 8.37402 21.8972C8.18968 21.9633 7.93551 21.9924 7.66741 21.978C7.39931 21.9637 7.13925 21.907 6.94443 21.8206C6.74961 21.7341 6.636 21.6249 6.62859 21.517C6.27612 16.5115 6.29858 11.4731 6.70269 6.48582Z" fill="url(#paint0_linear_28_49)"/>
  <path d="M1.97613 11.81C1.9764 11.5914 2.0566 11.38 2.20266 11.2127C2.34872 11.0455 2.5513 10.9331 2.77482 10.8954C2.99834 10.8577 3.22852 10.897 3.42494 11.0065C3.62135 11.1159 3.77145 11.2885 3.84887 11.4939C4.95902 14.4173 6.23298 17.2805 7.66514 20.071C9.15334 16.6465 10.8732 13.3197 12.8136 10.1119C12.8778 10.0065 12.9629 9.91433 13.0642 9.84063C13.1654 9.76693 13.2807 9.71315 13.4035 9.68236C13.5263 9.65157 13.6542 9.64438 13.7799 9.66119C13.9056 9.678 14.0266 9.71849 14.1361 9.78034C14.2455 9.8422 14.3412 9.9242 14.4178 10.0217C14.4943 10.1192 14.5501 10.2302 14.5821 10.3485C14.6141 10.4667 14.6216 10.5899 14.6041 10.7109C14.5866 10.832 14.5446 10.9485 14.4804 11.0539C12.2171 14.7647 10.2569 18.6394 8.6176 22.6429C8.55055 22.8097 8.43494 22.9544 8.28466 23.0595C8.13437 23.1646 7.95578 23.2258 7.77031 23.2356C7.58484 23.2454 7.40037 23.2035 7.23903 23.1148C7.07768 23.0262 6.94632 22.8946 6.8607 22.7359C5.00008 19.3084 3.37693 15.7661 2.00188 12.1322C1.97369 12.0271 1.96497 11.918 1.97613 11.81Z" fill="url(#paint1_linear_28_49)"/>
  </g>
  <path d="M5.32275 28.1858C4.00627 28.1858 2.68959 28.1251 1.37269 28.0036C1.30128 28.0036 1.23242 27.897 1.18128 27.7072C1.13013 27.5174 1.10088 27.26 1.09997 26.9915C1.09906 26.7231 1.12655 26.4657 1.17641 26.2759C1.22626 26.0861 1.29439 25.9795 1.36581 25.9795C5.9881 26.4045 10.6707 26.0807 15.2843 25.0214C15.3557 25.0052 15.4262 25.0964 15.4803 25.2748C15.5345 25.4533 15.5678 25.7043 15.573 25.9727C15.5782 26.2411 15.5548 26.505 15.508 26.7061C15.4613 26.9073 15.3949 27.0294 15.3235 27.0455C12.0139 27.8012 8.66182 28.1858 5.32275 28.1858Z" fill="url(#paint2_linear_28_49)"/>
  <defs>
  <linearGradient id="paint0_linear_28_49" x1="8.79144" y1="0.307211" x2="7.11295" y2="21.9357" gradientUnits="userSpaceOnUse">
  <stop stop-color="#A05FA6"/>
  <stop offset="1" stop-color="#765EA5"/>
  </linearGradient>
  <linearGradient id="paint1_linear_28_49" x1="8.29235" y1="9.65234" x2="8.29235" y2="23.237" gradientUnits="userSpaceOnUse">
  <stop stop-color="#A05FA6"/>
  <stop offset="1" stop-color="#765EA5"/>
  </linearGradient>
  <linearGradient id="paint2_linear_28_49" x1="1.09865" y1="26.6027" x2="15.5755" y2="26.5534" gradientUnits="userSpaceOnUse">
  <stop stop-color="#A05FA6"/>
  <stop offset="1" stop-color="#765EA5"/>
  </linearGradient>
  <clipPath id="clip0_28_49">
  <rect width="24.8779" height="15.8314" fill="white" transform="matrix(0 1 -1 0 15.8315 0.1875)"/>
  </clipPath>
  </defs>
  </svg>
  