<svg width="26" height="39" viewBox="0 0 26 39" fill="none" xmlns="http://www.w3.org/2000/svg">
<g clip-path="url(#clip0_4850_34803)">
<path d="M11.7024 11.4846C11.8618 9.5183 12.0816 7.5567 12.362 5.5998C12.3707 5.49314 12.4853 5.39908 12.6806 5.33834C12.8759 5.2776 13.136 5.25514 13.4035 5.27591C13.6711 5.29667 13.9243 5.35896 14.1074 5.44907C14.2905 5.53918 14.3885 5.64973 14.3799 5.7564C13.3969 12.6252 13.1529 19.6458 13.6501 26.6241C13.6575 26.732 13.5581 26.8298 13.3738 26.8959C13.1894 26.9621 12.9353 26.9912 12.6672 26.9768C12.3991 26.9625 12.139 26.9058 11.9442 26.8193C11.7494 26.7329 11.6358 26.6237 11.6283 26.5158C11.2759 21.5103 11.2983 16.4718 11.7024 11.4846Z" fill="#0080A3"/>
<path d="M6.97564 16.808C6.97591 16.5895 7.05611 16.378 7.20217 16.2108C7.34823 16.0435 7.55081 15.9312 7.77433 15.8935C7.99785 15.8557 8.22803 15.8951 8.42445 16.0045C8.62086 16.1139 8.77096 16.2865 8.84838 16.492C9.95854 19.4153 11.2325 22.2786 12.6646 25.0691C14.1529 21.6446 15.8727 18.3177 17.8131 15.1099C17.8773 15.0046 17.9625 14.9124 18.0637 14.8387C18.1649 14.765 18.2802 14.7112 18.403 14.6804C18.5258 14.6496 18.6537 14.6424 18.7794 14.6592C18.9051 14.6761 19.0261 14.7165 19.1356 14.7784C19.245 14.8402 19.3407 14.9223 19.4173 15.0197C19.4938 15.1172 19.5496 15.2282 19.5816 15.3465C19.6136 15.4648 19.6211 15.5879 19.6036 15.709C19.5861 15.83 19.5441 15.9466 19.4799 16.0519C17.2166 19.7627 15.2564 23.6374 13.6171 27.641C13.5501 27.8078 13.4345 27.9524 13.2842 28.0576C13.1339 28.1627 12.9553 28.2238 12.7698 28.2336C12.5844 28.2434 12.3999 28.2015 12.2385 28.1129C12.0772 28.0242 11.9458 27.8927 11.8602 27.7339C9.99959 24.3064 8.37644 20.7641 7.00139 17.1303C6.9732 17.0252 6.96448 16.9161 6.97564 16.808Z" fill="#0080A3"/>
</g>
<path d="M10.3228 33.1855C9.00627 33.1855 7.68959 33.1248 6.37269 33.0034C6.30128 33.0034 6.23242 32.8967 6.18128 32.7069C6.13013 32.5171 6.10088 32.2597 6.09997 31.9913C6.09906 31.7229 6.12655 31.4654 6.17641 31.2756C6.22626 31.0858 6.29439 30.9792 6.36581 30.9792C10.9881 31.4043 15.6707 31.0804 20.2843 30.0211C20.3557 30.005 20.4262 30.0962 20.4803 30.2746C20.5345 30.453 20.5678 30.704 20.573 30.9725C20.5782 31.2409 20.5548 31.5047 20.508 31.7059C20.4613 31.9071 20.3949 32.0292 20.3235 32.0453C17.0139 32.801 13.6618 33.1855 10.3228 33.1855Z" fill="#0080A3"/>
<defs>
<clipPath id="clip0_4850_34803">
<rect width="24.8779" height="15.8314" fill="white" transform="matrix(0 1 -1 0 20.8313 5.18555)"/>
</clipPath>
</defs>
</svg>
