 <svg width="24" height="24" viewBox="0 0 24 24" fill="none" xmlns="http://www.w3.org/2000/svg" class="flex-grow-0 flex-shrink-0 w-6 h-6 relative" preserveAspectRatio="none">
            <path d="M4.29202 6.54126C4.29235 6.28387 4.39023 6.03482 4.56849 5.83784C4.74674 5.64085 4.99397 5.50853 5.26677 5.46409C5.53956 5.41966 5.82048 5.46596 6.06019 5.59487C6.29991 5.72378 6.48309 5.92705 6.57758 6.169C7.93245 9.61214 9.48723 12.9845 11.2351 16.2711C13.0513 12.2377 15.1503 8.31936 17.5184 4.54127C17.5968 4.41714 17.7007 4.30857 17.8243 4.22176C17.9478 4.13496 18.0885 4.07162 18.2384 4.03535C18.3883 3.99909 18.5444 3.99062 18.6978 4.01042C18.8512 4.03022 18.9989 4.07791 19.1324 4.15076C19.266 4.22361 19.3828 4.3202 19.4762 4.435C19.5696 4.54981 19.6378 4.68059 19.6768 4.81988C19.7158 4.95917 19.7249 5.10423 19.7036 5.24679C19.6823 5.38935 19.631 5.52662 19.5526 5.65075C16.7904 10.0213 14.3981 14.585 12.3975 19.3003C12.3157 19.4968 12.1746 19.6672 11.9912 19.791C11.8077 19.9148 11.5898 19.9868 11.3634 19.9984C11.1371 20.0099 10.912 19.9605 10.715 19.8561C10.5181 19.7517 10.3578 19.5968 10.2533 19.4098C7.98255 15.3729 6.0016 11.2008 4.32344 6.92082C4.28904 6.797 4.2784 6.66851 4.29202 6.54126Z" fill="#191919"></path>
          </svg>