<svg width="112" height="65" viewBox="0 0 112 65" fill="none" xmlns="http://www.w3.org/2000/svg">
  <g clip-path="url(#clip0_2129_37638)">
  <path d="M37.5917 23.3203C35.6835 23.3203 33.6152 24.0915 31.9812 25.3965C30.7014 24.0549 28.8412 23.3203 26.6906 23.3203C23.6009 23.3203 20.7602 24.6048 19.3181 25.8778L19.1719 26.0079V40.5979L19.5147 40.6709C19.9786 40.7691 20.4402 40.817 20.9682 40.817C21.3589 40.817 21.9349 40.7919 22.4628 40.6709L22.7987 40.5934V27.6391C23.7791 27.0802 25.0909 26.738 26.2839 26.738C28.8457 26.738 30.1438 28.2072 30.1438 31.1024V40.5934L30.4797 40.6709C30.9094 40.7691 31.3985 40.817 31.9744 40.817C32.5183 40.817 33.0096 40.7668 33.4347 40.6709L33.7706 40.5934V29.9457C33.7706 29.3754 33.6975 28.7845 33.5512 28.1867C34.3123 27.5205 35.4778 26.7402 37.1872 26.7402C39.7491 26.7402 41.0472 28.2095 41.0472 31.1047V40.5957L41.3831 40.6732C41.8127 40.7713 42.3018 40.8192 42.8777 40.8192C43.4239 40.8192 43.9153 40.7691 44.338 40.6732L44.674 40.5957V29.948C44.674 25.6018 41.1134 23.3272 37.5986 23.3272L37.5917 23.3203Z" fill="white"/>
  <path d="M49.8501 23.625C49.3062 23.625 48.8217 23.6729 48.3623 23.771L48.0195 23.844V40.5946L48.3623 40.6676C48.8217 40.7657 49.3062 40.8137 49.8501 40.8137C50.394 40.8137 50.8854 40.7635 51.3104 40.6676L51.6464 40.5901V23.8509L51.3104 23.7733C50.8876 23.6752 50.3963 23.6273 49.8501 23.6273V23.625Z" fill="white"/>
  <path d="M65.8267 23.9797L65.5594 23.8884C64.4167 23.496 63.3106 23.3203 61.9782 23.3203C58.9867 23.3203 56.4706 24.5477 55.2273 25.5995L55.0742 25.7296V40.5957L55.417 40.6687C55.8878 40.7691 56.3472 40.8147 56.9048 40.8147C57.4624 40.8147 57.9697 40.7668 58.3994 40.6687L58.7353 40.5911V27.4042C59.5192 26.9889 60.5773 26.7699 61.8114 26.7699C62.8467 26.7699 63.8476 26.8863 64.6292 27.0939L64.9058 27.1692L65.0817 26.9433C65.6279 26.2429 65.9296 25.1911 65.8519 24.2626L65.829 23.9819L65.8267 23.9797Z" fill="white"/>
  <path d="M81.4207 23.6953C80.8768 23.6953 80.3923 23.7432 79.933 23.8413L79.5902 23.9143V37.1537C78.4361 37.5484 77.2706 37.7401 76.0365 37.7401C73.2049 37.7401 71.7675 37.0556 71.7675 33.3095V23.9189L71.4315 23.8413C71.0087 23.7432 70.5174 23.6953 69.9712 23.6953C69.425 23.6953 68.9428 23.7432 68.4834 23.8413L68.1406 23.9143V34.4319C68.1406 38.7052 70.7825 41.1555 75.3852 41.1555C78.8223 41.1555 81.0528 40.3866 82.9519 39.5539L83.2102 39.4398V23.9189L82.8742 23.8413C82.4514 23.7432 81.9601 23.6953 81.4139 23.6953H81.4207Z" fill="white"/>
  <path d="M104.924 23.3203C103.015 23.3203 100.947 24.0915 99.3132 25.3965C98.0335 24.0549 96.1732 23.3203 94.0227 23.3203C90.9329 23.3203 88.0922 24.6048 86.6502 25.8778L86.5039 26.0079V40.5979L86.8467 40.6709C87.3106 40.7691 87.7723 40.817 88.3002 40.817C88.691 40.817 89.2669 40.7919 89.7948 40.6709L90.1307 40.5934V27.6391C91.1112 27.0802 92.4229 26.738 93.6159 26.738C96.1778 26.738 97.4758 28.2072 97.4758 31.1024V40.5934L97.8118 40.6709C98.2414 40.7691 98.7305 40.817 99.3064 40.817C99.8503 40.817 100.342 40.7668 100.767 40.6709L101.103 40.5934V29.9457C101.103 29.3754 101.03 28.7845 100.883 28.1867C101.644 27.5205 102.81 26.738 104.522 26.738C107.083 26.738 108.381 28.2072 108.381 31.1024V40.5934L108.717 40.6709C109.147 40.7691 109.636 40.817 110.212 40.817C110.758 40.817 111.25 40.7668 111.672 40.6709L112.008 40.5934V29.9457C112.008 25.5995 108.45 23.3249 104.933 23.3249L104.924 23.3203Z" fill="white"/>
  <path d="M52.3261 48.0581C52.8814 46.6596 52.1958 45.0694 50.7949 44.5127C49.394 43.9583 47.8011 44.6427 47.2435 46.0436C46.6882 47.4421 47.3738 49.0323 48.777 49.589C49.4557 49.8582 50.1984 49.8468 50.8703 49.557C51.5399 49.2673 52.0587 48.7357 52.3284 48.0581H52.3261Z" fill="white"/>
  <path d="M37.9262 53.0202C37.2131 52.8605 36.4818 52.9883 35.8648 53.3784C34.5918 54.1838 34.2102 55.8721 35.0169 57.1451C35.8236 58.4159 37.5148 58.7969 38.79 57.9916C40.0629 57.1862 40.4446 55.4979 39.6379 54.2248C39.2471 53.6088 38.6392 53.1822 37.9262 53.0225V53.0202Z" fill="white"/>
  <path d="M22.3415 52.6299H22.3278C20.8286 52.5409 19.5351 53.6816 19.4391 55.1783C19.3934 55.9061 19.6334 56.6088 20.1156 57.154C20.5978 57.7016 21.2651 58.0278 21.9941 58.0758H22.0078C22.7323 58.1191 23.4293 57.8796 23.9732 57.4004C24.5217 56.9191 24.8485 56.2529 24.8965 55.5251C24.9925 54.0239 23.8475 52.7234 22.3438 52.6276L22.3415 52.6299Z" fill="white"/>
  <path d="M12.2006 47.9358C12.6668 47.3745 12.8862 46.665 12.8176 45.9395C12.749 45.2139 12.4017 44.5569 11.8395 44.0915C10.6785 43.131 8.95309 43.2929 7.99096 44.4519C7.02883 45.6109 7.19109 47.3334 8.35204 48.2939C8.91424 48.7594 9.62498 48.9784 10.3517 48.9099C11.0785 48.8415 11.7366 48.4947 12.2028 47.9335L12.2006 47.9358Z" fill="white"/>
  <path d="M8.07767 33.0912C8.45018 32.4638 8.55531 31.7292 8.37477 31.0242C8.19423 30.3192 7.74858 29.7238 7.12012 29.3519C6.73846 29.126 6.32025 28.9983 5.8906 28.9732C5.61179 28.9572 5.32841 28.9846 5.0496 29.0553C3.58926 29.4272 2.70484 30.917 3.07735 32.3748C3.25789 33.0821 3.70353 33.6753 4.332 34.0472C4.96047 34.419 5.69635 34.524 6.40252 34.3438C7.11097 34.1635 7.70516 33.7186 8.07767 33.0912Z" fill="white"/>
  <path d="M13.2597 18.4115C13.815 17.0129 13.1294 15.4227 11.7262 14.866C11.4497 14.7565 11.164 14.6927 10.8761 14.6767C10.4556 14.6516 10.0328 14.7246 9.63514 14.898C8.96553 15.1877 8.44676 15.7193 8.17709 16.3969C7.62175 17.7955 8.30735 19.3857 9.71055 19.9423C10.3893 20.2115 11.132 20.2001 11.8039 19.9104C12.4735 19.6206 12.9923 19.0891 13.262 18.4115H13.2597Z" fill="white"/>
  <path d="M20.5086 8.17785C20.3486 8.88967 20.4766 9.61974 20.8674 10.2357C21.6741 11.5065 23.3653 11.8875 24.6405 11.0822C25.9134 10.2768 26.2951 8.58852 25.4884 7.31545C24.9993 6.54431 24.1857 6.10171 23.3356 6.05151C22.7848 6.01957 22.218 6.1519 21.7153 6.46902C21.0982 6.85916 20.6709 7.46603 20.5109 8.17557L20.5086 8.17785Z" fill="white"/>
  <path d="M38.5134 6.38H38.4996C37.7752 6.33665 37.0782 6.57621 36.5343 7.05532C35.9858 7.53671 35.659 8.2029 35.611 8.93069C35.5653 9.65848 35.8052 10.3589 36.2874 10.9065C36.7696 11.454 37.437 11.7803 38.166 11.8282H38.1797C39.6789 11.9171 40.9724 10.7764 41.0684 9.27976C41.1644 7.77855 40.0194 6.4781 38.5156 6.38228L38.5134 6.38Z" fill="white"/>
  <path d="M52.0016 15.0466C50.4042 13.8762 48.1577 14.2185 46.9853 15.8132C45.8129 17.408 46.1557 19.6507 47.7532 20.821C49.3506 21.9914 51.5971 21.6492 52.7695 20.0545C53.9419 18.4597 53.5991 16.217 52.0016 15.0466Z" fill="white"/>
  <path d="M40.3491 49.557C40.4177 50.1661 40.7216 50.7137 41.2038 51.097C42.1979 51.8864 43.6491 51.7221 44.4399 50.7297C44.8238 50.2483 44.9952 49.6482 44.9266 49.0368C44.8581 48.4276 44.5541 47.8801 44.0719 47.4968C43.5897 47.1135 42.9909 46.9424 42.3762 47.0108C41.7637 47.0793 41.2175 47.3827 40.8336 47.8641C40.4496 48.3455 40.2782 48.9455 40.3468 49.557H40.3491Z" fill="white"/>
  <path d="M32.4389 52.686C32.2744 52.0928 31.8882 51.6023 31.3534 51.2989C30.8186 50.9977 30.197 50.9201 29.6028 51.0844C28.3779 51.4221 27.658 52.6929 27.9985 53.9157C28.1631 54.5066 28.5493 54.9994 29.0841 55.3029C29.6188 55.6063 30.2404 55.6816 30.8346 55.5173C32.0596 55.1797 32.7795 53.9089 32.4389 52.6883V52.686Z" fill="white"/>
  <path d="M17.0127 51.4107C17.5886 51.6251 18.2148 51.6046 18.7747 51.3491C19.3346 51.0936 19.762 50.6373 19.9768 50.0623C20.1916 49.4874 20.1711 48.8623 19.9151 48.3033C19.6592 47.7443 19.2021 47.3177 18.6262 47.1033C17.4378 46.6584 16.1077 47.263 15.6621 48.4516C15.2165 49.6403 15.8221 50.9681 17.0127 51.4107Z" fill="white"/>
  <path d="M8.24697 39.9777C8.58749 40.491 9.10626 40.8401 9.70959 40.9633C10.3129 41.0842 10.9277 40.9678 11.4419 40.6279C11.9561 40.2879 12.3057 39.77 12.4269 39.1677C12.5503 38.5654 12.4314 37.9517 12.0909 37.4407C11.675 36.8132 11.0008 36.4551 10.3015 36.414C9.82157 36.3866 9.32794 36.5052 8.8983 36.7904C7.84018 37.4908 7.54766 38.9191 8.24926 39.9777H8.24697Z" fill="white"/>
  <path d="M10.3236 23.3889C10.3122 23.3889 10.3008 23.3889 10.287 23.3889C9.01868 23.3341 7.94 24.3197 7.88515 25.586C7.85772 26.1997 8.07255 26.786 8.48848 27.24C8.90441 27.694 9.48032 27.961 10.0859 27.9838C10.7007 28.0112 11.288 27.7967 11.7428 27.3815C12.1953 26.9663 12.4604 26.4004 12.4878 25.7867C12.5153 25.173 12.3004 24.5867 11.8845 24.1327C11.4777 23.6878 10.9224 23.4254 10.3213 23.3912L10.3236 23.3889Z" fill="white"/>
  <path d="M19.6758 16.5914C20.0598 16.11 20.2312 15.51 20.1626 14.8986C20.0941 14.2871 19.7901 13.7419 19.3079 13.3586C18.924 13.0529 18.4692 12.8909 18.0121 12.8635C17.2877 12.8202 16.5564 13.119 16.0719 13.7259C15.6879 14.2073 15.5165 14.8073 15.5851 15.4188C15.6536 16.0302 15.9576 16.5755 16.4398 16.9588C16.922 17.342 17.5231 17.5154 18.1355 17.4447C18.7457 17.3763 19.2942 17.0728 19.6781 16.5914H19.6758Z" fill="white"/>
  <path d="M28.0649 11.7663C28.4032 12.9892 29.6761 13.7079 30.901 13.3679C32.126 13.0303 32.8436 11.7595 32.5054 10.5366C32.2357 9.5647 31.3764 8.9122 30.4188 8.85516C30.172 8.84147 29.9206 8.86657 29.6692 8.93501C28.4443 9.27267 27.7244 10.5435 28.0649 11.764V11.7663Z" fill="white"/>
  <path d="M40.5293 14.3921C40.0836 15.5807 40.6893 16.9086 41.8799 17.3512C42.4558 17.5656 43.082 17.5451 43.6419 17.2896C44.2018 17.034 44.6292 16.5778 44.844 16.0028C45.2896 14.8165 44.684 13.4886 43.4934 13.0437C43.2717 12.9616 43.0477 12.916 42.8238 12.9023C41.8411 12.8453 40.8927 13.4248 40.5293 14.3921Z" fill="white"/>
  <path d="M50.3535 57.5779C50.9134 56.8775 51.1648 55.9991 51.062 55.1093C50.9614 54.2195 50.5181 53.421 49.8142 52.8621C49.2657 52.4263 48.6121 52.1776 47.9265 52.1388C47.7345 52.1274 47.538 52.132 47.3414 52.1548C46.4501 52.2552 45.6503 52.6978 45.0904 53.4005C44.5305 54.1009 44.2791 54.9793 44.3819 55.869C44.4825 56.7588 44.9258 57.5573 45.6297 58.114C46.3313 58.673 47.2089 58.9239 48.1024 58.8213C48.9937 58.7209 49.7936 58.2783 50.3535 57.5779Z" fill="white"/>
  <path d="M33.8893 59.9368C33.6494 59.0721 33.0872 58.3534 32.3056 57.9131C31.8531 57.6576 31.3572 57.5115 30.8498 57.4819C30.4842 57.4613 30.114 57.5001 29.7529 57.6005C28.8867 57.8401 28.1669 58.4013 27.7258 59.1816C27.2847 59.9619 27.1727 60.8676 27.4127 61.73C27.6527 62.5947 28.2148 63.3133 28.9964 63.7537C29.778 64.194 30.6853 64.3058 31.5492 64.0662C33.3363 63.5711 34.3853 61.7186 33.8893 59.9368Z" fill="white"/>
  <path d="M14.7384 52.3212C14.4184 52.2002 14.0871 52.1318 13.7534 52.1113C13.2141 52.0793 12.6724 52.1797 12.1674 52.4101C11.3515 52.782 10.7276 53.4482 10.4122 54.2878C9.76319 56.0217 10.6476 57.9587 12.3822 58.6066C14.1168 59.2546 16.0593 58.3716 16.7083 56.64C17.0237 55.8004 16.9917 54.8878 16.6192 54.0733C16.2467 53.2588 15.5794 52.636 14.7384 52.3212Z" fill="white"/>
  <path d="M0.0682048 40.8991C-0.110052 41.7775 0.0636341 42.6741 0.559553 43.4202C1.05547 44.1685 1.81192 44.6773 2.69178 44.8575C3.57163 45.0354 4.46749 44.8621 5.21708 44.367C5.96667 43.8719 6.4763 43.1167 6.65684 42.2384C6.83739 41.36 6.66141 40.4656 6.1655 39.7173C5.66958 38.969 4.91313 38.4602 4.03327 38.28C3.15342 38.0998 2.25756 38.2754 1.50797 38.7705C0.758378 39.2656 0.248747 40.0208 0.0682048 40.8991Z" fill="white"/>
  <path d="M0.0344966 23.2047C-0.00435417 24.1014 0.306452 24.9569 0.914353 25.6185C1.51997 26.2802 2.34726 26.668 3.2454 26.7045C4.14125 26.7433 5.00054 26.433 5.66329 25.8262C6.32604 25.2216 6.71226 24.3934 6.75111 23.4991C6.78997 22.6024 6.47916 21.7469 5.87126 21.0852C5.27707 20.4373 4.46806 20.054 3.59277 20.0015C3.57449 20.0015 3.55849 20.0015 3.54021 19.9993C1.68908 19.9194 0.116769 21.3567 0.0344966 23.2047Z" fill="white"/>
  <path d="M16.7379 11.2693C17.2978 10.5689 17.5492 9.69049 17.4464 8.80071C17.3458 7.91094 16.9025 7.11242 16.1986 6.55346C15.6501 6.1177 14.9965 5.86901 14.3109 5.83023C14.1167 5.81882 13.9224 5.82339 13.7259 5.8462C12.8346 5.94659 12.0347 6.38919 11.4771 7.09189C10.9172 7.7923 10.6658 8.67067 10.7686 9.56045C10.8692 10.4502 11.3125 11.2487 12.0141 11.8054C12.7157 12.3644 13.5956 12.6153 14.4869 12.5127C15.3782 12.4123 16.178 11.9697 16.7379 11.2693Z" fill="white"/>
  <path d="M34.1628 2.64787C33.7697 1.22879 32.5151 0.275138 31.1187 0.193005C30.7599 0.172471 30.392 0.208975 30.0263 0.30936C29.1602 0.548915 28.4403 1.11016 27.9992 1.89042C27.5581 2.67069 27.4462 3.57643 27.6861 4.43883C27.9261 5.30351 28.4883 6.02218 29.2699 6.4625C30.0515 6.90511 30.9587 7.01462 31.8226 6.77506C33.6097 6.27998 34.6587 4.42743 34.1628 2.64559V2.64787Z" fill="white"/>
  <path d="M49.4649 5.7837C49.1427 5.66278 48.8136 5.59662 48.4868 5.57609C47.0539 5.49167 45.669 6.3381 45.1388 7.75034C44.4898 9.48426 45.3742 11.4212 47.1088 12.0692C48.8433 12.7171 50.7859 11.8342 51.4349 10.1025C51.7503 9.26296 51.7183 8.35265 51.3458 7.53588C50.9733 6.72139 50.306 6.09855 49.4649 5.7837Z" fill="white"/>
  </g>
  <defs>
  <clipPath id="clip0_2129_37638">
  <rect width="112" height="64" fill="white" transform="translate(0 0.1875)"/>
  </clipPath>
  </defs>
  </svg>
  