<svg width="40" height="60" viewBox="0 0 40 60" fill="none" xmlns="http://www.w3.org/2000/svg">
<path d="M3.75131 39.053C2.90201 38.1262 2.05271 37.1994 1.1436 36.2063C1.12565 37.0669 1.5503 37.6929 1.99888 38.3007C3.53599 40.3891 5.05516 42.4835 6.62218 44.5478C7.14253 45.2279 7.77651 45.8238 8.36265 46.4437C9.71435 47.87 11.0421 49.3205 12.4237 50.7107C14.5051 52.7991 16.2217 55.1463 17.6093 57.7523C18.2731 59.0041 19.2959 59.275 20.7373 59.1365C22.2804 58.9861 23.1656 58.2157 23.9551 57.0722C26.497 53.401 29.009 49.7117 31.6048 46.0886C33.5605 43.3562 35.6419 40.7201 37.6396 38.0179C38.2377 37.2114 38.764 36.3387 39.2724 35.4721C39.5116 35.0628 39.6911 34.6054 39.8107 34.142C40.1516 32.8179 39.6432 31.855 38.3154 31.4818C37.6874 31.3073 36.9936 31.2832 36.3417 31.3193C34.057 31.4337 31.7782 31.5962 29.344 31.7527C29.2961 30.555 29.2243 29.4175 29.2124 28.28C29.1585 23.4232 29.1825 18.5603 29.0449 13.7094C28.9731 11.2178 28.7399 8.71412 28.3511 6.25258C27.7949 2.73782 25.3845 0.823958 21.8259 0.835995C20.9646 0.835995 20.1093 0.944327 19.248 0.950345C16.4789 0.974419 12.9979 4.00771 12.669 6.53545C12.4656 8.10626 12.0709 9.66503 12.0051 11.2358C11.7957 16.2853 11.9692 21.3287 12.5015 26.3602C12.6391 27.6481 12.5673 28.9541 12.5493 30.2541C12.5493 30.6212 12.3819 30.9823 12.2503 31.536C11.2096 31.536 10.2168 31.536 9.21793 31.536C7.63895 31.536 6.05997 31.518 4.48099 31.5119C3.6915 31.5119 2.9977 31.6985 2.42353 32.3304C2.1185 32.6615 1.63404 32.83 1.22135 33.0587C0.443822 33.486 -0.0406385 34.3526 0.120848 35.2133C0.168696 35.466 0.449803 35.6707 0.778757 36.092C0.958187 35.5262 1.04192 35.2193 1.15556 34.9244C1.25724 34.6475 1.38882 34.3827 1.64002 34.1179C1.60413 36.1281 3.02163 37.4461 3.73336 39.0711C3.83504 39.1674 3.93074 39.2637 4.03241 39.36C4.21782 39.6489 4.40922 39.9377 4.59463 40.2266C4.6963 40.3229 4.792 40.4192 4.89368 40.5155C5.07909 40.8104 5.27048 41.0993 5.45589 41.3942C6.55041 42.622 7.66287 43.8437 8.73347 45.0955C9.03252 45.4446 9.20597 45.896 9.43325 46.2992C9.54689 46.4076 9.65454 46.5099 9.76818 46.6182C9.86986 46.7085 9.97154 46.7987 10.0732 46.889L10.139 46.9311L10.0971 46.865C9.99546 46.7747 9.89378 46.6844 9.7921 46.5881C9.68445 46.4858 9.57081 46.3775 9.46315 46.2751C7.7167 44.9872 6.50256 43.2599 5.47981 41.3701C5.28842 41.0752 5.10301 40.7863 4.91162 40.4914C4.80994 40.3951 4.71425 40.2988 4.61257 40.2025C4.42716 39.9137 4.23577 39.6248 4.05036 39.3359C3.94868 39.2396 3.85299 39.1433 3.75131 39.047L3.75131 39.053ZM29.5712 45.7094C29.6849 45.6191 29.8045 45.5228 29.9181 45.4326C29.9899 45.24 30.0677 45.0534 30.1394 44.8608C30.2531 44.7585 30.3607 44.6562 30.4744 44.5539C30.576 44.4636 30.6777 44.3733 30.7794 44.283C30.8571 44.0905 30.9289 43.8979 31.0067 43.7113C31.1203 43.615 31.228 43.5247 31.3416 43.4284C31.539 42.3872 32.2088 41.6891 33.0342 41.1053C33.1299 41.009 33.2316 40.9127 33.3273 40.8224C33.5187 40.5336 33.7041 40.2387 33.8955 39.9498C34.1826 39.5646 34.4697 39.1794 34.7567 38.7942C34.8524 38.6979 34.9541 38.6016 35.0498 38.5053C35.1575 38.4151 35.2711 38.3248 35.3788 38.2405C35.4505 38.0419 35.5223 37.8433 35.5941 37.6447C35.7077 37.5424 35.8154 37.4401 35.929 37.3378C36.0307 37.2475 36.1264 37.1512 36.2281 37.0609C36.3058 36.8744 36.3776 36.6818 36.4553 36.4952L36.7903 36.1822C36.8621 35.9716 36.9398 35.7609 37.0116 35.5503C37.1192 35.3697 37.2209 35.1952 37.3286 35.0147C37.3824 34.3767 37.4302 33.7388 37.4841 33.1008C37.8788 33.2091 38.1898 33.498 38.136 33.6304C37.9267 34.1179 37.5977 34.5512 37.3166 35.0026C37.2149 35.1772 37.1133 35.3577 37.0116 35.5322C36.9338 35.7429 36.8561 35.9535 36.7723 36.1642C36.6587 36.2665 36.551 36.3748 36.4374 36.4771C36.3597 36.6637 36.2819 36.8563 36.2101 37.0429C36.1144 37.1331 36.0128 37.2294 35.9171 37.3197C35.8034 37.422 35.6898 37.5243 35.5761 37.6267C35.5044 37.8253 35.4326 38.0179 35.3548 38.2165C35.2472 38.3067 35.1395 38.397 35.0319 38.4873C34.9362 38.5836 34.8405 38.6859 34.7448 38.7822C34.4577 39.1674 34.1646 39.5465 33.8775 39.9317C33.6862 40.2206 33.5007 40.5095 33.3094 40.8044C33.2137 40.9007 33.118 41.003 33.0223 41.0993C32.4541 41.8697 31.8859 42.64 31.3237 43.4164C31.21 43.5127 31.0964 43.603 30.9827 43.6993C30.905 43.8918 30.8332 44.0844 30.7555 44.277C30.6538 44.3673 30.5521 44.4576 30.4504 44.5478C30.3368 44.6502 30.2291 44.7525 30.1155 44.8608C30.0437 45.0534 29.966 45.24 29.8882 45.4326C29.7865 45.5289 29.6849 45.6252 29.5832 45.7214L29.5234 45.7756L29.5652 45.7275L29.5712 45.7094ZM27.8607 48.3154L27.2745 49.182C26.3774 50.813 25.5101 52.4621 24.5711 54.069C23.9551 55.1222 23.2374 56.1153 22.5675 57.1324C22.4718 57.0722 22.3821 57.012 22.2864 56.9458C23.6202 54.1533 25.4204 51.6496 27.2925 49.1941C27.4779 48.8932 27.6693 48.5983 27.8547 48.2973C27.8547 48.2793 27.8666 48.2552 27.8726 48.2371C27.8726 48.2612 27.8607 48.2853 27.8547 48.3094L27.8607 48.3154ZM18.3688 57.012L18.3569 56.9759L18.3748 57.0361C18.9011 57.1504 19.1643 57.4995 19.3437 57.9208C19.266 57.981 19.1942 58.0412 19.1165 58.1014C18.8653 57.7402 18.62 57.3731 18.3688 57.012ZM25.0137 3.23735L24.936 3.20124L24.9898 3.26142C26.1262 3.88132 26.7004 4.91649 26.9276 6.13221C27.1848 7.4984 27.4241 8.88263 27.5018 10.2669C27.6274 12.5659 27.6274 14.871 27.6633 17.17C27.7351 21.732 27.8009 26.2879 27.8607 30.8499C27.8607 31.0726 27.753 31.2893 27.6932 31.5119C27.3822 28.906 27.2028 26.3361 27.119 23.7662C26.9635 19.0177 26.8678 14.2691 26.7422 9.52059C26.6884 7.53451 26.3834 5.60861 25.247 3.90539C25.1214 3.71882 25.0855 3.46605 25.0077 3.24337L25.0137 3.23735ZM36.3477 33.9915C36.3118 34.9545 35.7556 35.6285 35.2412 36.3146C33.3153 38.8845 31.3057 41.3942 29.4696 44.0363C26.9276 47.7015 24.5053 51.457 22.0531 55.1824C21.6404 55.8083 21.3414 56.5125 20.9586 57.2407C20.6835 57.0481 20.4622 56.9458 20.3067 56.7833C18.3389 54.6829 16.2276 52.6968 14.4513 50.4459C10.9524 45.9983 7.65689 41.3822 4.23577 36.8683C3.49412 35.8934 3.28479 34.9244 3.70944 33.5763C4.37931 33.498 5.11497 33.3536 5.85063 33.3355C8.48227 33.2693 11.1019 33.1971 13.6857 32.5531C15.3425 32.1439 15.4681 32.1017 15.4262 30.3383C15.3245 25.6259 15.1152 20.9135 15.0673 16.195C15.0314 12.6863 15.1511 9.17152 15.2767 5.66278C15.3245 4.36881 15.9764 3.45401 17.2982 2.99661C18.6918 2.51514 20.1033 2.35866 21.5328 2.48504C22.2086 2.54523 23.1177 2.76791 23.4646 3.24938C24.296 4.39289 25.1573 5.6688 25.4503 7.01692C25.8869 9.01504 25.9169 11.1155 26.0006 13.1798C26.2398 19.138 26.4073 25.1023 26.6465 31.0666C26.6705 31.7045 26.9635 32.3304 27.0891 32.8059C28.387 33.4258 29.5174 33.3656 30.6717 33.2332C31.5689 33.1309 32.49 33.0527 33.3871 33.1249C34.4039 33.2091 35.4984 33.1911 36.3357 33.9855L36.3477 33.9915ZM13.8771 30.8258C13.7575 30.8319 13.6319 30.8379 13.5123 30.8499C13.5123 30.4286 13.5362 30.0073 13.5123 29.5921C13.3927 27.7745 13.2551 25.9569 13.1355 24.1454C13.0936 23.5255 12.9501 22.8755 13.0577 22.2857C13.5362 19.7519 13.2073 17.2121 13.2431 14.6724C13.273 12.6803 13.4046 10.6942 13.4943 8.7081C13.5123 8.7081 13.5302 8.72014 13.5541 8.72014C13.6618 16.0927 13.7695 23.4593 13.8831 30.8318L13.8771 30.8258Z" fill="white"/>
</svg>
