<svg width="290" height="74" viewBox="0 0 290 74" fill="none" xmlns="http://www.w3.org/2000/svg">
<path d="M144.623 21.8461C144.836 20.3457 145.022 19.0586 145.222 17.7027C139.42 19.623 134.1 19.8708 129.97 14.406C129.667 14.5574 129.302 14.7432 128.876 14.9634C128.387 14.0549 129.302 13.7452 129.44 13.0845C129.412 12.7541 129.378 12.3343 129.337 11.7561C129.846 11.8456 130.238 11.9144 130.672 11.9901C133.191 9.85652 136.075 8.72779 139.454 9.03751C142.854 9.34722 145.408 10.8752 146.86 14.4266C148.594 11.6254 150.804 9.81524 153.44 8.25977C154.114 8.82414 154.727 9.33344 155.456 9.946C155.085 10.3383 154.823 10.6756 154.5 10.9302C152.194 12.7748 150.405 15.0804 148.794 17.5238C147.947 18.8108 147.376 20.2287 147.576 22.0526C148.23 21.9356 148.801 21.853 149.365 21.7222C151.024 21.3368 152.69 20.972 154.334 20.5315C159.118 19.2376 165.698 23.1194 167.866 26.8566C169.745 30.0915 170.791 33.4227 170.626 37.2012C170.44 41.5304 169.765 45.7563 168.231 49.7896C166.599 54.0706 163.881 57.6908 160.577 60.8155C159.235 62.0819 157.617 63.1006 156.007 64.0435C155.202 64.5184 154.135 64.7662 153.192 64.7455C151.279 64.7111 149.365 64.3945 147.452 64.2431C145.752 64.1123 144.038 63.9127 142.352 64.0022C140.721 64.0848 139.089 64.4496 137.479 64.7868C133.177 65.6816 129.688 64.1674 127.361 60.4714C124.14 55.3714 122.096 49.8377 120.438 44.1252C119.405 40.5737 118.848 36.919 119.99 33.23C120.534 31.4749 121.305 29.8643 122.557 28.4878C123.844 27.0631 124.904 25.3906 126.336 24.1449C129.605 21.3092 133.377 19.6987 137.844 20.504C139.736 20.8481 141.608 21.2748 143.494 21.6534C143.804 21.7153 144.128 21.7497 144.616 21.8254L144.623 21.8461ZM165.973 26.9874C165.842 26.8773 165.705 26.774 165.574 26.6639C163.894 23.8558 161.252 22.2934 158.161 22.1696C155.291 22.0594 152.38 22.7133 149.503 23.1331C146.543 23.5598 143.618 23.8696 140.728 22.7546C140.163 22.5412 139.571 22.4104 138.986 22.2521C136.316 21.5157 133.666 21.4125 131.071 22.5343C130.273 22.8785 129.44 23.2088 129.006 24.1518C129.22 24.138 129.378 24.1311 129.529 24.1174C131.656 23.9178 133.797 23.436 135.896 23.5874C138.676 23.787 141.43 24.4133 144.169 24.9846C146.179 25.4044 148.119 25.3012 149.998 24.5854C152.146 23.7663 154.348 23.4016 156.626 23.5461C159.896 23.7457 163.11 24.1449 165.601 26.6295C165.732 26.7396 165.87 26.8498 166.001 26.953C166.056 27.9372 166.524 28.6874 167.288 29.2793C167.356 29.6579 167.377 30.0502 167.501 30.4081C168.334 32.7826 168.588 35.2122 168.389 37.7106C168.341 38.3162 168.382 38.9357 168.382 39.5482C168.988 38.3162 169.153 35.6871 168.898 33.8769C168.671 32.2457 168.389 30.6214 167.267 29.3C166.833 28.5222 166.407 27.7514 165.973 26.9736V26.9874ZM167.439 37.8688C167.391 35.515 167.226 33.2368 166.455 31.0069C165.395 27.9579 163.654 25.6522 160.226 25.1773C157.17 24.7574 154.121 24.4064 151.12 25.6247C147.507 27.0975 143.921 26.6433 140.377 25.2736C139.668 24.9983 138.911 24.8194 138.16 24.6611C135.345 24.0554 132.551 24.4133 129.832 25.1429C128.098 25.604 126.322 26.1615 125.166 27.7445C123.672 29.7818 122.475 32.0668 122.516 34.5445C122.64 42.3357 124.478 49.6795 129.165 56.1009C131.333 59.0674 135.042 61.8686 139.509 60.3957C140.025 60.2236 140.583 60.1617 141.12 60.0447C142.744 59.673 144.382 59.556 146.034 59.8795C148.085 60.2787 150.164 60.554 152.187 61.0771C156.936 62.3022 160.267 59.439 162.146 55.688C163.158 53.6714 164.115 51.6272 164.996 49.5556C165.594 48.1446 166.207 46.6993 166.489 45.2057C166.943 42.7899 167.136 40.3191 167.439 37.8688ZM130.954 13.1877C132.558 15.5898 134.643 16.8149 137.355 16.9319C139.991 17.0489 142.455 16.3331 144.878 15.4108C145.208 15.2869 145.504 15.0667 145.8 14.9015C144.823 12.5339 143.632 11.2055 141.808 10.6824C140.707 10.3658 139.551 10.0974 138.415 10.0974C135.579 10.0974 133.04 10.9509 130.947 13.1877H130.954ZM121.394 32.4316C121.25 32.7688 121.14 33.0166 121.05 33.2644C119.997 36.1275 120.238 39.0664 120.981 41.8883C121.945 45.5499 123.156 49.1564 124.457 52.7147C125.538 55.6673 127.3 58.2965 128.993 60.9325C130.424 63.1625 134.106 64.6354 136.825 63.5479C136.798 63.5204 136.777 63.4722 136.749 63.4654C136.474 63.4516 136.199 63.4378 135.923 63.4378C133.618 63.3896 131.821 62.254 130.287 60.6848C128.669 59.0261 127.258 57.2159 126.439 54.9859C125.93 53.5957 125.187 52.2948 124.602 50.9321C122.131 45.1369 120.548 39.1834 121.497 32.7963C121.511 32.7206 121.449 32.6312 121.38 32.4316H121.394ZM153.192 10.476C153.116 10.3934 153.041 10.3177 152.958 10.2351C150.879 11.5634 149.028 13.1395 147.837 15.3695C147.651 15.7205 147.81 16.2574 147.81 16.925C149.716 14.64 151.451 12.5614 153.185 10.476H153.192ZM147.115 17.6133C146.943 17.6133 146.764 17.6133 146.592 17.6064C146.433 18.391 146.22 19.1687 146.144 19.9602C146.068 20.7311 145.614 21.5501 146.289 22.3072C146.406 20.7105 147.335 19.2376 147.121 17.6133H147.115ZM148.443 63.0042C146.605 62.5706 144.768 62.137 142.841 62.5431C144.664 63.1212 146.585 62.7633 148.443 63.0042ZM151.822 63.5066C151.822 63.5066 151.822 63.4585 151.822 63.4378C151.671 63.4447 151.519 63.4516 151.368 63.4585C151.402 63.4791 151.437 63.5204 151.471 63.5204C151.588 63.5204 151.705 63.5135 151.822 63.5066Z" fill="#0080A3"/>
</svg>
