<svg width="152" height="113" viewBox="0 0 152 113" fill="none" xmlns="http://www.w3.org/2000/svg">
  <path d="M102.806 60.3885C100.204 62.5787 97.6013 64.8879 97.2256 68.7458C96.8316 72.8328 96.355 76.9107 96.0893 80.9977C95.6678 87.4855 92.8637 92.663 87.6587 96.4659C83.8283 99.2609 79.4572 100.571 74.6646 100.434C67.3612 100.223 61.4964 97.4098 57.4003 91.1968C55.0727 87.6596 54.2296 83.6551 53.7898 79.559C53.4507 76.3608 53.3683 73.1352 53.2216 69.9188C53.13 67.9944 52.6901 67.3255 50.8666 66.7206C49.7578 66.3541 48.6306 66.0059 47.5401 65.6027C45.4233 64.8238 43.6273 63.5592 42.2802 61.7723C38.0466 56.1824 35.4166 49.8778 34.1612 42.9959C33.8496 41.3098 33.9504 39.6878 34.8668 38.1117C35.215 37.516 35.1417 36.5538 34.9951 35.8116C34.152 31.4222 33.2265 27.0511 32.3193 22.68C31.9344 20.829 31.8978 19.0054 33.0616 17.4109C33.6114 16.6595 34.317 15.9906 35.0409 15.3949C35.4716 15.0375 36.1039 14.671 36.617 14.6985C39.0729 14.8451 40.9606 12.7191 43.5081 13.1223C45.3592 13.4156 46.4863 14.2036 46.6879 15.8531C46.8895 17.5484 45.8724 18.9321 44.0121 19.2986C43.0133 19.4911 41.9778 19.4819 40.9057 19.5644C40.3283 19.1245 39.7602 18.6847 39.2195 18.2815C36.9378 18.7122 36.0214 19.9401 36.3238 22.3318C36.5437 24.0729 36.9103 25.7957 37.2585 27.5185C37.7992 30.1759 38.3581 32.8242 38.9446 35.4634C39.0546 35.949 39.2837 36.4164 39.5036 36.8654C40.1542 38.1575 40.979 39.3762 41.4646 40.7233C42.7934 44.4438 43.9847 48.2192 45.2309 51.9671C45.3959 52.4528 45.6158 52.9202 45.7899 53.3967C47.0728 56.8972 49.6661 58.7757 53.2308 59.4997C56.5297 60.1778 59.792 59.8204 63.0451 59.1789C65.5834 58.6749 67.3062 56.9522 68.754 54.9911C69.8354 53.525 70.7884 51.9396 71.6406 50.3177C72.1354 49.3647 72.4012 48.2742 72.6394 47.2112C73.2167 44.6454 73.5833 42.0245 74.2889 39.4954C74.9212 37.1953 75.0678 37.2411 76.8639 35.8207C77.6062 31.9628 78.3851 28.0866 79.0723 24.192C79.2556 23.1291 79.3014 21.9836 79.1365 20.9206C78.8341 18.9504 76.8547 17.9333 75.0037 18.7305C73.5008 19.3811 72.0072 19.3261 70.5135 18.8038C68.9007 18.2448 68.4333 17.4842 68.5616 15.8164C68.6991 14.0479 69.5604 12.8474 71.1274 12.7649C72.9602 12.6733 74.9395 12.0044 76.5432 13.663C76.8456 13.9745 77.5053 13.9471 78.0002 14.0753C80.9326 14.8268 82.7195 16.7603 83.0219 19.7385C83.1502 20.9664 83.1593 22.2402 82.9944 23.4498C82.3804 27.8025 81.6565 32.1278 80.9967 36.4714C80.9143 37.0303 80.731 37.7176 80.9509 38.1666C81.8856 40.1185 81.5191 42.0704 81.0517 43.9856C80.4286 46.5422 79.6863 49.0806 78.8799 51.5823C76.5982 58.6658 71.8514 63.2568 64.7404 65.4194C63.6957 65.7401 62.651 66.0609 61.2857 66.4732C61.1574 67.3346 60.8641 68.3243 60.9008 69.2956C61.084 73.3918 61.249 77.488 62.4494 81.465C63.6774 85.5245 65.9591 88.6676 69.7804 90.6104C76.1949 93.8909 87.4938 90.5279 88.8133 80.4112C89.1157 78.1019 89.1615 75.7469 89.2257 73.4101C89.3173 69.8821 89.4823 66.3724 90.7102 63.0185C92.5246 58.0885 95.906 54.5788 100.689 52.4528C101.679 52.013 102.376 51.4356 102.944 50.5193C104.52 47.9718 106.829 46.6064 109.862 46.5697C110.156 46.5697 110.467 46.6155 110.742 46.5514C115.645 45.296 120.107 50.8492 119.658 55.6601C119.273 59.8204 116.46 63.3851 112.529 64.109C109.413 64.6772 106.563 64.0174 104.318 61.5707C103.97 61.195 103.604 60.8467 103.237 60.4893C103.191 60.4435 103.099 60.4527 102.797 60.3794L102.806 60.3885ZM38.9538 38.4324C37.2219 37.8551 36.278 38.2308 36.0764 39.8619C35.9206 41.1357 36.0489 42.5102 36.3513 43.7656C37.6067 48.8515 39.5861 53.6441 42.3627 58.0976C43.9663 60.6818 46.1106 62.5695 49.098 63.4034C50.2251 63.715 51.3247 64.1365 52.4427 64.4847C53.7348 64.8879 54.6787 65.6852 54.9352 67.0139C55.2193 68.4343 55.4209 69.8913 55.4575 71.3391C55.5767 76.3425 55.9066 81.3367 57.6019 86.0652C59.4438 91.206 62.3945 95.4946 68.1034 96.9791C73.8124 98.4636 79.4206 99.1692 84.7813 95.5862C89.8671 92.1865 93.3127 87.8796 93.835 81.5658C94.1741 77.4788 94.6414 73.401 95.0538 69.3231C95.347 66.3724 96.52 63.8524 98.6368 61.7264C99.7639 60.5901 100.735 59.2981 102.027 57.7769C101.927 57.1629 101.725 55.9717 101.487 54.5605C96.4283 56.8789 93.3219 60.5627 92.1306 65.7126C91.6083 67.9761 91.5808 70.3586 91.3517 72.6954C91.0768 75.5361 90.9576 78.386 90.5269 81.1992C89.7114 86.5875 86.7973 90.5187 81.8123 92.8005C73.5833 96.5759 64.9878 92.9471 61.5606 85.5887C60.6992 83.7468 59.9661 81.7674 59.6545 79.7789C59.0772 76.0218 58.7015 72.228 58.5182 68.4251C58.3899 65.6668 59.1688 64.8513 61.7988 63.9624C63.0451 63.5409 64.3646 63.3026 65.5742 62.7894C69.0473 61.3324 72.2454 59.4905 74.5088 56.3015C77.7528 51.738 79.0449 46.5056 79.9062 41.1265C80.1995 39.3121 78.9074 38.2216 76.7723 38.4965C76.3324 39.8253 75.7918 41.2548 75.4069 42.721C74.9029 44.627 74.5272 46.5789 74.0873 48.5033C72.2912 56.3749 66.848 61.2774 58.8939 62.0838C51.114 62.8719 45.7349 59.6096 43.2057 51.7472C41.7945 47.3578 40.3925 42.9592 38.9354 38.4141L38.9538 38.4324ZM103.952 55.0186C103.952 55.3119 103.933 55.6051 103.952 55.8983C104.135 58.4275 105.253 60.4893 107.581 61.4882C110.119 62.5787 112.703 62.6062 114.966 60.5718C117.413 58.3817 117.871 53.6899 115.782 51.1424C114.481 49.5479 112.657 48.5033 110.742 48.2742C107.113 47.8526 103.906 51.234 103.943 55.0095L103.952 55.0186ZM79.4022 36.7554C79.7413 35.0785 80.0803 33.6856 80.3003 32.2836C80.8776 28.6731 81.5374 25.0718 81.9222 21.4429C82.2063 18.7763 80.3736 16.4579 77.9085 15.8898C77.6336 15.8256 77.3037 15.9722 76.5981 16.0914C77.1388 16.4762 77.3221 16.6595 77.542 16.7603C80.5019 18.0707 81.235 19.4178 80.6851 22.6067C79.9979 26.5746 79.2923 30.5333 78.6233 34.5012C78.5133 35.1701 78.1468 35.9307 79.3931 36.7554H79.4022ZM39.1645 15.8714C35.5266 15.8531 33.3365 17.9699 33.4556 20.9481C33.5014 22.0386 33.648 23.1291 33.8588 24.2012C34.6377 28.0591 35.4624 31.917 36.2872 35.7658C36.3421 36.0132 36.5621 36.2239 36.7087 36.4622C37.8175 36.004 37.4143 35.1884 37.286 34.5562C36.9011 32.7784 36.4063 31.019 35.9939 29.2412C35.4716 26.9686 34.8851 24.696 34.5186 22.396C34.0421 19.4361 35.3066 17.6125 38.2115 16.6687C38.4315 16.5954 38.5964 16.3571 39.1645 15.8898V15.8714ZM74.5272 13.8646C73.3634 13.8646 72.3462 13.7913 71.3382 13.8829C70.321 13.9837 69.8537 14.7351 69.7529 15.6973C69.6429 16.7695 70.2752 17.3926 71.2374 17.5117C72.2362 17.64 73.2809 17.6767 74.2706 17.53C75.3427 17.3651 75.7734 16.4029 75.3702 15.3674C75.1869 14.9001 74.8754 14.4877 74.5272 13.8646ZM40.3467 17.6217C41.767 17.7683 42.8117 17.9699 43.8564 17.9516C44.7911 17.9332 45.2492 17.246 45.2217 16.3296C45.1942 15.4407 44.7819 14.7809 43.8197 14.726C42.83 14.671 41.8404 14.7168 40.6491 14.7168C40.5483 15.7248 40.4658 16.4487 40.3467 17.6308V17.6217Z" fill="#EC7113"/>
  <path d="M110.302 50.7659C112.758 50.7384 114.811 52.7544 114.82 55.192C114.82 58.1152 113.152 60.0762 110.623 60.1129C108.039 60.1403 105.684 57.7028 105.647 54.9629C105.61 52.5253 107.526 50.8026 110.302 50.7751V50.7659ZM110.284 53.1943C108.891 53.2309 108.039 53.9549 108.075 55.0728C108.121 56.6123 109.633 58.0968 111.054 58.0144C112.135 57.9502 112.813 57.1347 112.813 55.9159C112.813 54.3947 111.668 53.1668 110.284 53.2034V53.1943Z" fill="#EC7113"/>
  </svg>
  