<svg width="151" height="113" viewBox="0 0 151 113" fill="none" xmlns="http://www.w3.org/2000/svg">
  <path d="M137.298 60.1125C137.634 61.1516 137.298 62.0379 136.656 62.6186C136.564 62.7714 136.564 63.0771 136.35 63.0771C134.241 63.3216 132.346 64.2079 130.329 66.1639C128.312 68.1199 125.531 71.0234 123.575 73.0405C119.785 76.922 116.27 80.1311 111.869 83.3402C107.499 86.5492 102.884 88.5969 97.7188 90.2168C92.3092 91.8977 85.891 92.8757 80.1452 92.4784C65.5668 91.5004 54.4726 89.6666 40.9944 82.8206C33.9038 79.2142 29.6251 73.2239 24.246 68.9757C22.8707 67.8754 21.0369 67.1419 19.7227 65.9805C18.5614 64.972 16.8804 64.6052 15.8718 63.3827C15.0161 62.3436 13.8241 61.0905 14.4354 59.5929C14.741 58.8594 15.1689 58.2787 15.6579 57.698C15.7496 57.4535 15.8413 57.2396 15.9635 56.9951C16.6053 55.8337 17.2472 54.7334 18.0418 53.6637C19.7533 51.4021 21.4954 49.1405 23.4208 47.0622C27.2717 42.8751 31.7339 39.2076 36.41 35.9985C41.2389 32.6672 46.404 29.4581 51.8136 27.1353C57.0398 24.9042 62.5717 23.0399 68.1952 22.1536C75.1635 21.0533 82.4374 20.9005 89.2835 22.7954C92.7982 23.7734 96.1601 25.1793 99.4609 26.6769C102.792 28.1744 106.124 29.7637 109.363 31.4141C115.476 34.5315 120.977 38.5658 125.684 43.5781C128.006 46.0842 130.176 48.7126 132.194 51.4632C134.211 54.1833 136.228 56.8423 137.298 60.0819V60.1125ZM25.6213 63.6883C25.6825 62.5269 25.2546 60.3264 24.9184 59.2262C24.6739 58.401 23.6042 57.0257 23.2069 56.3227C21.8621 57.209 18.9892 57.7286 17.7667 58.8288C17.5222 59.0428 17.1555 59.7763 16.911 59.654C16.911 59.654 16.911 59.654 16.8804 59.654C16.8804 59.7152 16.8804 59.7763 16.9415 59.8374C17.5833 60.4181 17.7667 61.7017 18.5308 62.1602C19.4171 62.6798 20.4257 63.5966 21.2203 64.2079C21.5565 64.4524 24.0932 65.2165 24.3988 65.461C24.46 65.0636 25.5602 64.0245 25.5908 63.6578L25.6213 63.6883ZM29.5639 44.5866C27.7607 45.9619 23.5736 50.638 22.0149 52.2579L19.356 55.5892C22.9318 53.4192 32.987 48.2541 36.7462 46.4509C40.6276 44.5866 44.5091 42.814 48.4823 41.1636C52.3943 39.5132 56.4897 37.6794 60.5851 36.6403C68.1341 34.776 74.9801 34.0119 82.7736 34.3787C90.0781 34.7149 106.735 39.666 114.589 45.7786C119.296 49.4461 151.845 76.922 117.799 39.6049C113.642 36.5792 109.516 33.9508 104.87 31.7503C100.347 29.5803 94.8459 27.0436 89.9864 25.6683C83.6905 23.8957 75.1329 23.3761 68.7453 24.5986C61.9604 25.8822 55.5117 27.9299 49.4908 31.2613C46.4957 32.9422 41.5445 35.6929 38.6105 37.4961C35.6459 39.2993 32.3451 42.5084 29.5639 44.6172V44.5866ZM91.5451 39.0242C89.9864 38.5963 88.1527 38.0156 84.7296 37.71C83.1404 37.5878 81.5511 37.5266 79.9924 37.4961C72.4434 37.3433 64.6499 38.9936 57.376 40.9802C56.887 41.1025 56.398 41.2553 55.9396 41.4081C55.3283 41.9888 54.7476 42.6 54.1975 43.2724C53.3112 44.3727 52.6694 45.8091 52.0275 47.0928C51.3857 48.407 50.805 49.7517 50.316 51.127C49.2769 54.0305 48.0544 57.1173 47.7182 60.2042C47.382 63.291 47.7182 66.1639 48.7268 69.0979C52.2109 79.1225 62.9384 89.2082 73.2686 89.7583C79.1061 90.064 84.6991 89.6666 89.6808 86.3964C94.5708 83.1873 100.714 78.8169 101.753 72.9488C102.334 69.7703 102.853 65.3998 102.456 62.2213C102.028 59.0428 101.081 54.275 100.103 51.2187C99.2469 48.5292 98.7885 44.5561 96.6185 42.6612C95.4266 41.622 93.0733 39.4826 91.5757 39.0548L91.5451 39.0242ZM33.751 74.7826C40.1081 81.1396 52.2109 84.4404 60.8907 86.6104C60.0961 86.1214 57.9567 85.0211 57.2538 84.3793C52.8222 80.2228 49.6436 76.1273 46.9541 70.4427C45.3649 67.0808 44.2952 62.5269 45.0898 58.8594C45.8233 55.4364 46.3734 52.6552 47.871 49.5072C48.7879 47.6123 50.5605 44.4338 51.8442 42.6306C50.805 43.0279 48.0544 44.281 47.0458 44.7089C43.6534 46.1148 40.2303 47.429 36.899 48.9877C33.5065 50.5769 30.1141 52.2273 26.8744 54.0916C26.2326 54.4584 25.5908 54.7946 24.9184 55.1308C25.7742 56.0782 26.416 57.0868 26.8133 58.3704C27.2412 59.8374 27.4245 61.3656 27.394 62.8937C27.394 64.2079 27.4857 65.9805 26.5382 66.9891C28.9832 69.5564 31.2754 72.2764 33.7816 74.7826H33.751ZM125.409 67.4781C126.998 65.95 132.102 62.2519 133.844 60.7543C131.766 59.4707 128.19 58.8288 125.409 56.9951C122.78 55.2836 120.06 53.4192 117.707 51.341C112.847 47.0011 107.04 43.3641 100.928 41.0719C99.9499 40.7052 98.9413 40.369 97.9327 40.0633C101.02 43.9754 102.425 49.2016 103.251 54.0305C104.381 60.632 105.604 67.8449 102.945 74.2936C99.8582 81.7203 93.7457 87.3133 86.4717 90.2779C87.7248 90.0945 88.9473 89.8195 90.2004 89.5138C93.7151 88.5969 97.2298 87.5884 100.592 86.2131C103.74 84.9294 106.857 83.4013 109.577 81.4147C112.358 79.3976 114.834 77.0442 117.248 74.6298C119.816 72.0931 122.75 70.0454 125.378 67.5087L125.409 67.4781Z" fill="#EC7113"/>
  <path d="M29.686 65.2464C29.9305 64.8796 30.4806 65.2158 30.2667 65.5826C29.4109 67.1413 28.5551 68.7611 28.4329 70.5337C28.6468 70.4115 28.8302 70.6254 28.7385 70.8394C28.5857 71.145 28.5551 71.0227 28.6774 71.2978C28.7691 71.5729 28.5551 71.8174 28.3412 71.909C28.1578 71.9702 28.4023 71.7257 28.219 71.7257C27.9745 71.7257 27.6688 71.5423 27.6383 71.2978C27.4855 70.2587 27.3021 69.6168 27.6383 68.7305C27.6383 68.7305 27.6077 68.7305 27.5771 68.7611C27.516 68.7916 27.4243 68.7916 27.3938 68.7611C27.3938 68.7611 27.3632 68.7611 27.3326 68.7305C27.2409 68.6694 27.1493 68.5777 27.1798 68.4555C27.2409 67.6914 27.5771 66.9884 27.9133 66.3161C28.0967 65.9188 28.6774 66.2549 28.494 66.6523C28.2801 67.0801 28.0661 67.4774 27.9439 67.9359C27.9439 68.0276 27.9133 68.1193 27.8828 68.1804C28.3718 67.1718 29.0441 66.1938 29.686 65.2464Z" fill="#EC7113"/>
  <path d="M31.5821 66.8964C31.8877 66.6825 32.285 67.1715 32.01 67.4465C31.1237 68.2106 30.6958 70.0138 30.5735 71.1752C30.543 71.542 30.4818 71.9087 30.4513 72.2755C30.4513 72.4894 30.3902 72.7339 30.3902 72.9478C30.543 72.9478 30.6347 73.1312 30.6041 73.284C30.5124 73.8342 30.2985 73.773 29.8095 73.284C29.3205 72.795 29.1371 72.3366 29.2593 71.7253C29.5955 70.0749 30.1151 67.8744 31.5821 66.8964Z" fill="#EC7113"/>
  <path d="M34.5144 69.9537C33.842 70.7789 33.5364 72.1542 33.2919 73.1933C33.1391 73.8046 32.6195 75.3022 33.3225 75.7606C33.5058 75.8828 33.5364 76.1273 33.3836 76.2802C32.9251 76.7386 32.4056 76.6775 32.0694 76.0968C31.7332 75.4855 31.5804 74.5992 31.7332 73.9268C32.1305 72.4598 32.7723 70.4732 33.9032 69.373C34.3005 68.9757 34.8506 69.5564 34.5144 69.9842V69.9537Z" fill="#EC7113"/>
  <path d="M37.6325 70.2291C37.7853 69.6178 38.7021 69.8623 38.5799 70.4736C38.2437 72.2462 37.2657 73.8049 36.6239 75.4859C36.2877 76.3416 36.2266 77.2279 36.2877 78.1448C36.2877 78.2671 36.196 78.4199 36.0432 78.4504C34.6067 78.7866 34.7596 76.525 35.0346 75.7304C35.6764 73.8049 37.0823 72.2156 37.6019 70.2291H37.6325Z" fill="#EC7113"/>
  <path d="M39.9242 74.0795C40.1687 73.6822 40.7799 74.0184 40.566 74.4463C39.9242 75.6382 39.374 76.8913 39.0684 78.2055C38.8545 79.0918 38.9461 80.1615 38.3655 80.895C38.2126 81.0784 37.9376 80.9867 37.8153 80.8339C37.2041 79.9781 37.8153 78.45 38.1515 77.5637C38.61 76.3412 39.2212 75.1798 39.9242 74.0795Z" fill="#EC7113"/>
  <path d="M43.1041 77.6243C43.3486 77.1964 43.9598 77.5632 43.7459 77.9911C43.3486 78.8163 42.8595 79.5498 42.4928 80.375C42.1566 81.0779 41.9732 81.7809 41.7287 82.5144C41.9732 82.5755 41.9732 82.9728 41.7287 83.0034C41.6065 83.0034 41.6676 82.8506 41.5759 82.8811C41.3925 82.9422 41.2092 82.7894 41.148 82.6366C40.6285 80.8028 42.2789 79.0913 43.1041 77.6243Z" fill="#EC7113"/>
  <path d="M46.8619 80.0394C47.2592 79.5199 48.1456 80.0394 47.7482 80.559C47.1064 81.4453 46.4646 82.3928 46.1284 83.4319C45.9145 84.1043 46.2201 84.0737 45.67 84.5321C45.5172 84.6544 45.3338 84.685 45.181 84.5321C44.478 83.8598 44.8753 83.5541 45.181 82.8206C45.6089 81.8121 46.2201 80.9257 46.8925 80.0394H46.8619Z" fill="#EC7113"/>
  <path d="M50.4392 80.5886C50.9588 80.0079 51.7534 80.8331 51.2644 81.4138C50.8671 81.9028 50.7754 82.4835 50.5309 83.0642C50.4086 83.4004 50.103 83.8282 50.0724 84.195C50.0724 84.8674 49.8585 85.8148 49.3389 86.2427C49.1861 86.365 48.9416 86.4261 48.7888 86.2427C48.4221 85.8759 48.3915 85.6009 48.5137 85.0813C48.6054 84.6229 48.5749 83.8894 48.8499 83.4921C49.4612 82.5446 49.6751 81.4138 50.4392 80.5886Z" fill="#EC7113"/>
  <path d="M95.7932 82.6674C95.946 82.1784 96.6795 82.3924 96.5572 82.8814C96.1599 84.3484 95.243 85.632 94.9374 87.1296C94.6623 88.3521 94.5095 89.8802 93.5315 90.736C93.3482 90.9194 93.0425 90.736 93.1037 90.4915C93.4398 89.0856 93.7455 87.5269 94.2956 86.1516C94.754 84.9596 95.4264 83.8594 95.7932 82.6674Z" fill="#EC7113"/>
  <path d="M103.159 75.0574C103.495 74.4462 104.382 74.9963 104.076 75.6076C102.945 77.9915 101.906 80.4059 100.959 82.8815C100.531 84.0123 100.103 85.1737 99.7362 86.3351C99.4 87.3437 99.1249 88.5356 98.4831 89.4219C98.2997 89.9721 97.2911 89.7887 97.3523 89.1774C97.5662 86.8852 98.7887 84.4708 99.7056 82.3619C100.745 79.8864 101.906 77.4719 103.159 75.088V75.0574Z" fill="#EC7113"/>
  <path d="M105.879 73.0397C106.093 72.3062 107.163 72.6118 107.01 73.3453C106.46 75.7598 105.604 78.052 104.932 80.4359C104.596 81.5972 104.137 82.6975 103.862 83.8589C103.74 84.3173 103.648 84.8063 103.587 85.2648C103.648 85.3259 103.709 85.4482 103.709 85.5704C103.77 86.1817 103.465 86.6401 103.281 87.1902C103.006 88.0765 101.845 87.832 101.753 86.9763C101.478 84.5618 102.67 82.2085 103.434 80.008C104.229 77.6852 105.176 75.393 105.879 73.0091V73.0397Z" fill="#EC7113"/>
  <path d="M112.145 70.1985C112.481 69.3733 113.795 69.7095 113.49 70.5652C112.573 73.1325 111.35 75.6386 110.647 78.2976C110.525 78.8171 110.311 79.3061 110.128 79.7952C110.128 79.7952 110.128 79.7952 110.128 79.7646C110.28 79.5812 110.617 79.7646 110.525 80.0091C110.097 80.9871 109.669 81.9957 109.272 82.9737C109.088 83.4627 108.386 83.8294 107.958 83.3099C106.888 82.0568 108.141 79.7951 108.783 78.5726C109.15 77.8697 109.272 76.9834 109.577 76.2193C109.822 75.6081 110.066 75.0274 110.311 74.4161C110.922 73.0102 111.533 71.6043 112.114 70.1679L112.145 70.1985Z" fill="#EC7113"/>
  <path d="M117.707 69.3417C116.943 70.931 116.331 72.6119 115.873 74.3234C115.873 74.3846 115.873 74.4457 115.842 74.5068C115.934 74.2929 116.056 74.0484 116.148 73.8039C116.24 73.5899 116.637 73.6816 116.606 73.9261C116.423 75.6682 115.72 77.3797 114.956 78.969C114.65 79.6108 113.52 79.4885 113.397 78.755C113.153 77.013 113.795 75.1181 114.345 73.4677C114.925 71.7867 115.567 70.1669 116.392 68.5777C116.851 67.6913 118.104 68.4554 117.707 69.3417Z" fill="#EC7113"/>
  <path d="M122.139 64.4839C122.903 63.7198 124.064 64.8812 123.33 65.6758C122.169 66.9595 121.222 68.5793 120.885 70.3214C120.794 70.8715 120.488 71.4522 120.366 72.0023C120.274 72.4608 120.213 72.9498 119.969 73.3165C119.969 73.3165 119.969 73.3165 119.969 73.286C119.632 73.8361 118.777 74.0195 118.44 73.3165C117.829 72.094 118.746 70.2908 119.021 69.4351C119.632 67.5707 120.763 65.8287 122.169 64.4533L122.139 64.4839Z" fill="#EC7113"/>
  <path d="M126.601 61.0913C127.212 60.2355 128.649 61.0302 128.037 61.9165C127.12 63.2612 126.815 64.8199 126.265 66.3175C125.867 67.4483 125.409 69.007 124.37 69.6794C124.095 69.8628 123.789 69.6794 123.697 69.4044C123.147 67.9985 124.248 66.3481 124.706 65.0644C125.226 63.6586 125.715 62.2832 126.601 61.0607V61.0913Z" fill="#EC7113"/>
  <path d="M72.8099 75.2713C69.7231 75.2713 66.6668 74.0182 64.344 71.726C61.5628 68.9754 60.2792 65.2162 60.7988 61.3958C61.8379 54.1219 66.8502 47.1536 74.4909 47.9788C87.0521 49.3236 87.7551 53.4495 87.9079 60.0511V61.5181C88.183 68.2419 82.6817 73.8349 74.552 75.1185C73.9713 75.2102 73.3906 75.2407 72.8099 75.2407V75.2713ZM73.2989 50.2099C67.6448 50.2099 63.8856 55.8334 63.0604 61.732C62.6325 64.8189 63.6717 67.8751 65.9333 70.1062C68.1644 72.3067 71.2512 73.3459 74.1852 72.8874C79.8699 72.0011 85.8908 68.0891 85.6463 61.6098V60.1122C85.4934 54.3664 85.4323 51.4935 74.2464 50.271C73.9407 50.2404 73.6045 50.2099 73.2989 50.2099Z" fill="#EC7113"/>
  </svg>
  