<svg width="120" height="90" viewBox="0 0 120 90" fill="none" xmlns="http://www.w3.org/2000/svg">
<path d="M66.277 14.1531C73.3208 11.5966 80.4372 10.4725 87.7621 10.9076C92.041 11.1615 96.2564 11.8776 100.281 13.4278C101.088 13.736 101.886 14.0987 102.638 14.5247C105.839 16.3197 107.352 19.5379 106.718 23.1278C105.875 27.86 103.191 31.4952 99.6922 34.5775C97.4258 36.5719 94.9781 38.3669 92.4489 40.3794C97.7612 42.3194 100.744 46.4714 102.04 51.82C102.784 54.875 101.841 57.9845 100.526 60.686C97.8882 66.0708 91.6421 69.5157 84.5801 68.1468C80.7545 67.4035 77.5544 65.5632 75.2427 62.3087C72.9673 59.1177 72.5774 55.5096 72.94 51.7928C72.6137 51.7384 72.4415 51.6477 72.3418 51.7021C68.2261 53.8597 63.7387 54.5758 59.206 55.2467C57.3022 55.5277 55.4619 56.3346 53.6307 56.9873C51.863 57.6219 50.1495 58.4468 48.3727 59.0633C44.5562 60.3777 41.8638 63.0339 39.5611 66.1887C38.4098 67.7661 37.3039 69.3888 36.1979 71.0024C35.9078 71.4194 35.5179 71.8364 35.4272 72.2988C34.974 74.683 33.3151 76.2513 31.6742 77.7653C28.7552 80.4668 24.3766 81.3461 21.249 76.7953C19.8529 74.7646 18.9826 72.5889 18.9282 70.1231C18.8738 67.7298 18.8738 65.3365 18.9282 62.9523C19.0823 56.2983 17.5593 50.0159 14.749 44.0418C13.2804 40.9324 12.7818 37.6416 12.9994 34.3146C13.2079 31.1508 13.7518 27.9869 14.4589 24.8865C15.5196 20.2541 18.9916 17.4075 22.645 14.8511C26.4162 12.213 30.7586 11.1615 35.255 10.4634C41.7368 9.45718 48.1098 10.2821 54.51 11.1161C58.6167 11.651 62.678 12.3309 66.2951 14.1802L66.277 14.1531ZM80.3556 41.4763L80.2831 41.5217L80.3193 41.44C80.4644 41.2678 80.6004 41.0865 80.7455 40.9142C81.2713 40.8145 81.8061 40.7148 82.3319 40.6151C82.2866 40.4973 82.2503 40.3703 82.205 40.2525C81.7245 40.4882 81.2531 40.7239 80.7726 40.9596L80.3465 41.4854L80.3556 41.4763ZM92.9294 13.174C95.4858 13.9627 97.997 14.8239 100.191 16.4557C103.536 18.9487 104.37 22.865 102.131 26.3914C100.644 28.7303 98.831 30.8154 96.4468 32.2749C93.2376 34.233 89.965 36.0733 86.7377 38.0043C86.0578 38.4031 85.1965 38.6388 84.7523 39.6179C86.3932 39.6179 87.8437 39.6451 89.2851 39.5998C89.7655 39.5816 90.2823 39.4456 90.7175 39.2281C95.504 36.7713 99.4474 33.2993 102.629 29.0113C104.107 27.026 105.023 24.7234 105.231 22.1941C105.44 19.5923 104.551 17.4257 102.339 16.0477C99.4746 14.2709 96.3108 13.2828 92.9112 13.2102C91.2976 12.9111 89.7021 12.4035 88.0794 12.34C80.274 12.0318 72.5684 12.485 65.3976 16.093C65.2798 16.1565 65.1166 16.1203 64.8174 16.1384C64.754 14.8239 63.7024 14.5429 62.6599 14.1984C58.2812 12.757 53.6942 12.5485 49.1886 11.8867C44.2752 11.1615 39.3798 11.1071 34.4754 11.8867C30.6679 12.4941 26.8967 13.2646 23.606 15.4222C20.0251 17.7702 16.8612 20.5805 15.855 24.95C15.1388 28.0413 14.6765 31.2233 14.4589 34.3872C14.2685 37.1249 14.4861 39.9805 15.7643 42.4554C17.5865 45.9728 18.5656 49.744 19.5447 53.5243C20.3062 56.4887 20.6687 59.4893 20.5146 62.5625C20.3968 64.9467 20.3333 67.3582 20.5146 69.7333C20.6415 71.3651 20.977 73.0693 21.6297 74.5651C23.4881 78.8078 28.0843 79.9682 31.2935 76.5052C32.4176 75.2904 33.3966 73.9306 34.2941 72.5436C36.1162 69.7605 37.7027 66.8052 39.6427 64.1127C41.7368 61.1936 44.3839 58.8548 47.9104 57.6672C49.6963 57.0689 51.4006 56.2348 53.1593 55.5821C55.7339 54.6212 58.2994 53.7872 61.0916 53.4608C65.0441 53.0075 68.9151 52.0194 72.4687 50.0522C73.4206 49.5264 74.037 48.9553 73.9373 47.804C72.6863 48.4204 71.5349 49.0188 70.3655 49.5536C67.247 50.9588 63.9562 51.2398 60.5838 51.0404C59.8677 50.995 59.0881 50.9406 58.4444 51.1763C55.5888 52.2188 52.7604 53.3521 49.9501 54.4943C45.9522 56.117 42.5074 58.6644 38.9809 61.0758C36.9049 62.49 35.6086 64.439 34.8199 66.7507C34.4664 67.7751 34.3667 68.8993 33.9315 69.8783C33.1066 71.7095 32.345 73.6405 31.1484 75.2179C29.1087 77.8922 25.691 77.6837 23.8688 74.8372C23.071 73.5952 22.5815 72.0812 22.3005 70.6217C22.0104 69.0715 21.9923 67.4397 22.1102 65.8533C22.5181 60.1874 21.5028 54.739 19.6716 49.4267C18.7288 46.6889 17.6228 44.0055 16.7253 41.2496C15.5286 37.5691 14.8125 33.816 15.4471 29.9088C15.9547 26.7994 16.6437 23.6899 18.6652 21.2423C21.5299 17.7793 25.2105 15.3134 29.5891 14.0715C34.8108 12.5938 40.2047 12.204 45.5352 12.7117C53.0323 13.4369 60.4298 14.842 67.0929 17.9424C69.749 16.8274 72.1423 15.5944 74.6716 14.7876C80.6276 12.8929 86.7558 12.5666 92.9566 13.1559L92.9294 13.174ZM65.588 19.3385C64.2644 18.8218 62.95 18.1962 61.5721 17.8064C52.9055 15.3497 44.121 14.416 35.1372 15.7849C30.7676 16.4557 26.6792 17.7339 23.0439 20.3085C22.5725 20.6439 22.0648 20.9793 21.7384 21.4326C18.901 25.3851 17.4052 29.7547 17.6771 34.6682C17.8766 38.3941 18.8103 41.9568 20.0795 45.4469C21.394 49.055 22.7538 52.6449 22.9442 56.5612C23.1527 60.831 23.4428 65.0918 23.8235 69.3435C23.9233 70.4585 24.3493 71.5917 24.8479 72.607C25.3465 73.6405 26.0536 74.7465 27.3862 74.7284C28.7007 74.7102 29.1177 73.4683 29.4804 72.4982C30.2781 70.4041 30.9036 68.2466 31.6016 66.1162C32.3088 63.9586 33.1882 61.8917 35.0738 60.4684C40.4315 56.4252 46.0974 52.9713 52.6426 51.1672C53.4132 50.9587 54.1746 50.7231 54.927 50.4783C59.6773 48.9372 62.125 45.6011 62.4332 40.6695C62.5329 39.083 62.4604 37.4875 62.542 35.9011C62.5692 35.4115 62.8503 34.9401 63.1676 33.9701C63.6934 34.9311 64.1466 35.3934 64.192 35.892C64.5637 40.189 64.346 44.4044 61.7624 48.1575C62.1613 48.2754 62.2972 48.3479 62.4332 48.357C62.7233 48.3751 63.0224 48.4023 63.3035 48.357C66.9478 47.6317 70.438 46.7071 73.2393 43.933C75.3878 41.8027 77.6994 39.7539 80.2287 38.1221C83.3835 36.0915 86.8556 34.5685 90.1463 32.7372C91.9776 31.7128 93.8269 30.6522 95.4405 29.3286C96.9817 28.0595 98.3958 26.5365 99.5652 24.9138C101.197 22.6293 100.635 20.3448 98.3777 18.6767C96.0388 16.9452 93.3917 15.9934 90.5179 15.7849C84.299 15.3406 78.198 16.0659 72.2874 18.0331C68.1354 19.4201 64.8537 22.1669 61.9527 25.3942C61.4723 25.9291 61.2003 26.8356 60.1941 26.6181C60.1397 26.3914 60.0309 26.201 60.0853 26.1376C61.8893 23.8893 63.7024 21.6593 65.5789 19.3476L65.588 19.3385ZM87.2635 66.1615C93.5186 66.2703 97.1539 63.2606 98.831 58.6825C100.708 53.5424 99.7012 48.5564 95.377 44.8758C92.5033 42.4282 89.0403 41.0593 85.124 42.0656C82.8668 42.6457 80.7727 43.6792 79.023 45.2566C78.2253 45.9728 77.4547 46.7977 76.9651 47.7315C75.6688 50.2154 75.0342 52.9078 75.3787 55.709C75.7051 58.3833 76.2761 61.0123 78.6059 62.8073C81.3165 64.9014 84.3263 66.1797 87.2816 66.1706L87.2635 66.1615Z" fill="#7A9C49"/>
<path d="M86.7197 46.7347C88.134 46.1998 88.6598 46.6077 88.7867 47.5958C88.8955 48.4571 88.9408 49.3274 89.0043 50.1886C89.0586 50.9682 89.1039 51.7478 89.1674 52.6725C90.4365 52.8176 91.5788 52.881 92.7029 53.0986C93.7364 53.3071 94.7426 53.6788 95.9392 54.0414C93.8995 55.9633 91.4791 55.2561 89.2852 55.8635C88.6869 58.6557 89.666 61.8921 87.1276 64.7205C85.786 61.5294 86.8647 58.5832 86.2029 55.5372C85.1332 55.5372 84.0727 55.5372 83.012 55.5372C82.5769 55.5372 82.1417 55.5825 81.7065 55.5825C80.1019 55.6006 79.3949 55.2017 79.3858 54.2771C79.3768 53.3796 80.0657 52.8447 81.6431 52.7632C83.1389 52.6816 84.6437 52.7451 86.2483 52.7451C86.4206 50.5422 86.5747 48.6293 86.7288 46.7256L86.7197 46.7347Z" fill="#7A9C49"/>
</svg>
