<svg width="151" height="113" viewBox="0 0 151 113" fill="none" xmlns="http://www.w3.org/2000/svg">
  <path d="M17.1113 30.1505C17.933 28.8544 18.5116 27.292 19.6226 26.3199C22.3191 23.9475 25.1081 21.6214 28.1402 19.7003C35.4774 15.0365 43.532 12.9765 52.3042 12.6062C62.3147 12.178 71.7581 14.4925 81.2477 16.8997C83.4582 17.4667 85.5297 18.5893 87.879 19.5498C91.1656 17.3626 94.8458 15.6961 98.85 14.7703C105.84 13.1501 112.853 12.178 120.028 13.37C123.755 13.9949 127.041 15.5688 130.12 17.7445C133.048 19.816 135.235 25.4867 132.457 29.676C130.444 32.7197 128.141 35.4393 125.097 37.5108C118.964 41.6886 112.541 45.2993 105.713 48.2156C104.636 48.6785 103.687 49.5234 102.819 50.3335C101.188 51.8379 99.5443 53.354 98.0977 55.032C94.1051 59.6611 88.8279 61.4086 83.03 61.5128C79.9169 61.5706 77.0005 61.6748 74.3851 63.5033L74.4198 63.5496C73.656 62.4154 72.7996 63.1561 71.978 63.4454C65.2889 65.76 59.028 68.8846 53.3458 73.1203C51.4247 74.5553 49.1564 75.6894 48.057 77.9114C47.0039 80.0408 46.1243 82.2975 45.4299 84.5773C44.6083 87.2506 43.6246 89.7966 41.9581 92.0881C38.7293 96.5204 33.7299 94.8771 31.8551 91.5673C31.5426 91.0234 31.207 90.4795 30.4085 90.0397C30.6862 91.7756 30.8598 93.5347 31.2764 95.2474C31.693 96.9834 32.3411 98.6498 32.6652 100.444C30.9177 99.5062 30.3969 97.8282 29.934 96.1848C28.5684 91.3937 28.0939 86.4868 29.2743 81.6379C30.501 76.6037 30.0381 71.6968 28.8346 66.8247C27.8856 62.9709 26.5431 59.2214 25.328 55.4486C24.3906 52.5439 23.3028 49.697 22.4348 46.769C20.0045 38.5061 21.1502 30.6829 25.409 23.1721C23.0713 24.5724 21.0229 26.3431 19.1366 28.2989C18.5116 28.9469 17.8057 29.5372 17.1345 30.1505H17.146H17.1113ZM82.2662 57.9484C86.0389 57.9715 91.8716 55.6107 94.5681 53.1225C97.3455 50.5533 100.03 47.7874 103.12 45.658C106.453 43.3666 110.249 41.7812 113.79 39.7791C117.17 37.858 120.63 36.0295 123.732 33.7265C125.826 32.1642 127.585 29.9885 129.101 27.8244C130.86 25.2899 130.12 22.3273 127.666 20.4641C125.271 18.6472 122.586 17.4667 119.623 16.8881C114.45 15.8581 109.277 16.2516 104.162 17.1196C100.262 17.7792 96.3155 18.6124 92.6354 20.0128C87.8211 21.8413 83.9326 25.1974 80.5997 29.1553C80.0673 29.7802 79.6854 30.8102 78.1115 30.1852C80.2178 26.806 83.1341 24.2715 85.576 21.0775C83.3193 20.2905 81.4098 19.6077 79.5003 18.9481C74.7323 17.3047 69.756 16.8997 64.8028 16.2053C58.2063 15.291 51.7024 15.916 45.1869 16.8418C40.2338 17.5477 35.6972 19.2721 31.6005 22.1074C30.6399 22.7671 29.8298 23.6697 29.066 24.5724C26.7977 27.2573 25.7331 30.5324 24.923 33.8654C23.5574 39.4435 24.5179 44.8942 26.0571 50.2872C27.8393 56.5249 30.9755 62.3923 31.0797 69.2781C32.399 67.7274 31.4732 65.6095 33.3017 64.1167C33.3017 65.2161 33.3827 65.9567 33.2901 66.6627C32.8619 69.8683 32.1328 73.0624 31.9939 76.2796C31.8435 79.7631 32.156 83.2696 32.4221 86.7646C32.4916 87.6326 33.0702 88.4889 33.5447 89.2759C34.3201 90.5257 35.0955 91.9376 36.8892 91.7872C38.4631 91.6483 38.926 90.2249 39.3658 89.0676C40.3842 86.3943 41.2059 83.6515 42.0854 80.9319C43.0112 78.085 44.2032 75.4117 46.6914 73.5138C54.1327 67.8662 62.1758 63.4801 71.272 61.0499C77.4519 59.3949 80.97 55.4255 81.4908 48.1694C81.6297 46.2367 81.5139 44.2925 81.6065 42.3598C81.6412 41.7002 81.9421 41.0637 82.2546 39.9758C84.8122 42.5913 83.4119 45.4729 84.0947 48.1231C84.5576 46.0747 84.9974 44.1883 85.5297 41.8159C86.8837 44.8942 85.738 49.9863 82.2777 57.9946L82.2662 57.9484Z" fill="#EC7113"/>
  <path d="M17.0993 30.1387C16.9489 30.4974 16.7984 30.8562 16.6595 31.2265C16.5438 31.1571 16.4165 31.0761 16.3008 31.0066C16.5785 30.7173 16.8447 30.4396 17.1225 30.1502L17.1109 30.1387H17.0993Z" fill="#EC7113"/>
  <path d="M74.3613 63.5039C74.3613 63.5039 74.396 63.5386 74.396 63.5502L74.3613 63.5039Z" fill="#EC7113"/>
  <path d="M45.9048 55.7838C45.8701 52.7286 47.5019 51.0389 50.534 50.9811C53.1957 50.9348 55.9269 53.5734 55.9732 56.2351C56.0195 59.2556 53.8206 61.5817 50.8464 61.6627C47.6871 61.7438 45.9627 59.6838 45.9048 55.7838ZM53.8669 56.374C53.8901 54.5686 52.4203 53.0063 50.615 52.9369C48.4972 52.8559 47.2704 54.1057 47.2357 56.374C47.2126 58.3529 48.4971 59.6144 50.534 59.6028C52.6055 59.6028 53.8322 58.3992 53.8669 56.374Z" fill="#EC7113"/>
  <path d="M42.0741 37.1053C39.3776 37.0706 37.2482 34.9991 37.2598 32.4184C37.2598 29.5136 40.2456 26.5741 43.2198 26.5509C45.8005 26.5278 48.1498 28.9118 48.1151 31.5504C48.0804 34.6751 45.3839 37.1632 42.0741 37.1169V37.1053ZM41.9931 27.9165C39.4702 29.1548 38.4634 30.6824 38.9147 32.5457C39.3198 34.2584 40.8242 35.3 42.618 35.1148C44.597 34.9181 45.9973 33.6798 46.2403 31.9323C46.5065 30.0112 45.5575 29.0854 41.9931 27.9165Z" fill="#EC7113"/>
  <path d="M100.111 30.0686C100.122 33.2743 98.1318 35.3342 95.0072 35.3458C91.8362 35.3458 89.6953 33.471 89.649 30.6125C89.6027 27.9161 92.5884 24.9882 95.4238 24.965C98.0277 24.9419 100.099 27.1986 100.111 30.0686ZM94.822 33.8645C96.9514 33.8414 98.6063 32.2674 98.5948 30.2769C98.5948 28.2748 96.4538 26.4348 94.255 26.5273C92.5538 26.5968 90.8641 28.4484 90.8178 30.2654C90.76 32.4179 92.4033 33.8761 94.822 33.8529V33.8645Z" fill="#EC7113"/>
  <path d="M59.8962 43.1112C57.7899 43.1575 56.0077 41.2249 55.9961 38.8988C55.9846 37.3249 58.1139 35.2996 59.9077 35.1839C61.8635 35.0566 63.8193 36.9198 63.9119 38.9913C64.0161 41.0744 62.0718 43.065 59.9077 43.1112H59.8962ZM57.489 38.7715C57.7552 40.2528 58.2644 41.2943 59.792 41.2365C60.8914 41.1902 61.8751 40.5884 61.9445 39.4658C61.9793 38.7946 61.4932 37.7762 60.9377 37.4522C59.5374 36.6421 58.5653 37.6489 57.5006 38.7715H57.489Z" fill="#EC7113"/>
  <path d="M92.1373 48.2612C90.1352 48.2612 88.6076 46.8494 88.6886 45.0903C88.7581 43.2387 90.656 41.549 92.6234 41.5606C94.7296 41.5722 96.3267 43.0535 96.2341 44.9167C96.1415 46.7221 94.2435 48.2728 92.1373 48.2612ZM90.1584 45.2523C91.8017 47.3933 93.0168 47.266 94.5097 44.8126C92.9011 42.7526 91.4198 42.9031 90.1584 45.2523Z" fill="#EC7113"/>
  <path d="M124.263 25.7404C124.297 26.9903 123.128 28.2054 121.809 28.298C120.258 28.4021 119.17 27.3837 119.124 25.7867C119.089 24.3517 119.853 23.53 121.288 23.4721C122.897 23.4027 124.216 24.4095 124.263 25.7404ZM121.74 27.2333C122.839 26.5968 123.117 26.0297 122.041 25.4164C121.821 25.2891 121.416 25.4858 120.802 25.5668C121.184 26.2496 121.439 26.7125 121.728 27.2333H121.74Z" fill="#EC7113"/>
  <path d="M38.2894 67.3809C39.4929 67.3924 40.6039 68.4918 40.6039 69.6723C40.6039 70.8643 39.4814 71.9058 38.2431 71.8595C37.0742 71.8132 36.0443 70.8296 36.079 69.788C36.1137 68.5266 37.1668 67.3809 38.301 67.3924L38.2894 67.3809ZM38.8564 70.0079L39.0069 69.545C38.6366 69.4177 38.2662 69.2904 37.8959 69.1746C37.838 69.3367 37.7917 69.4871 37.7339 69.6491C38.1042 69.7764 38.4745 69.8922 38.8449 70.0195L38.8564 70.0079Z" fill="#EC7113"/>
  <path d="M107.541 33.519C109.045 31.8294 109.74 31.6326 111.059 32.3849C111.973 32.9056 112.413 33.6695 112.066 34.6879C111.707 35.741 110.955 36.4122 109.798 36.3659C107.877 36.2965 107.888 34.7457 107.553 33.5074L107.541 33.519ZM110.724 34.0629C110.006 33.6579 109.381 33.1834 108.837 34.5143C109.566 35.0582 110.156 35.3707 110.724 34.0629Z" fill="#EC7113"/>
  <path d="M36.8428 44.8022C36.8891 45.8322 36.0906 46.7812 35.0838 46.8969C33.9381 47.0242 33.0122 46.2026 32.9081 44.9643C32.8155 43.9343 33.5677 43.02 34.6209 42.8927C35.7203 42.7654 36.785 43.6797 36.8428 44.8022Z" fill="white"/>
  <path d="M66.9093 26.6436H69.6637C69.2702 28.067 68.2518 28.5878 67.1523 28.2406C66.4348 28.0092 65.6826 27.118 65.4627 26.3658C65.1271 25.2317 65.9488 24.41 67.0251 24.1091C68.1361 23.7967 69.2123 23.8893 69.6984 25.3474C68.8188 25.8798 67.1176 24.3984 66.9093 26.6436Z" fill="white"/>
  <path d="M63.75 52.7526C64.2592 51.2597 65.2082 50.4149 66.6432 50.8199C67.2218 50.9819 67.8931 51.9888 67.8931 52.6253C67.8931 53.2734 67.2797 54.2686 66.6895 54.5001C65.1156 55.1134 64.537 53.69 63.75 52.7526ZM65.3123 53.2155H67.0714C66.5969 51.6763 66.0183 51.7689 65.3123 53.2155Z" fill="white"/>
  <path d="M105.446 25.1619C105.122 25.023 104.671 24.9883 104.509 24.7453C103.953 23.9005 104.324 23.1714 105.03 22.6275C105.932 21.9215 107.495 22.1183 108.247 22.9978C108.93 23.7848 109.011 24.6758 108.316 25.4628C107.657 26.2266 106.824 26.4928 105.944 25.7174C105.736 25.5438 105.585 25.3123 105.4 25.104C106.048 24.9883 106.696 24.8842 107.576 24.7337C106.604 23.9931 105.89 24.1358 105.435 25.1619H105.446Z" fill="white"/>
  <path d="M50.6017 53.8287C52.0483 54.0139 53.0899 55.148 52.9626 56.3979C52.8468 57.5667 51.5623 58.5273 50.3703 58.3537C48.9468 58.1454 47.8474 56.7219 48.0904 55.391C48.2987 54.2453 49.2477 53.6551 50.6017 53.8287ZM51.597 57.1038C51.7474 55.8077 51.1919 55.4489 49.9884 55.5415C49.8611 56.8377 50.1851 57.4279 51.597 57.1038Z" fill="white"/>
  <path d="M43.4741 29.5496C44.0874 30.7531 45.1521 31.9451 44.0643 33.4843C43.4741 34.3291 41.9812 34.5259 41.0438 33.9357C40.1064 33.357 39.6203 32.5238 39.8981 31.3781C40.2452 29.9546 41.1479 29.4686 43.4625 29.5496H43.4741ZM42.3283 30.7531C42.0737 30.7879 41.8191 30.8226 41.5645 30.8689C41.5645 31.3896 41.4025 32.003 41.6224 32.408C41.7497 32.6395 42.4788 32.5585 43.3468 32.6742C42.8723 31.7715 42.5945 31.2623 42.3283 30.7531Z" fill="white"/>
  <path d="M94.7305 32.6848C93.2954 32.7427 92.3118 31.9905 92.196 30.7406C92.0572 29.4213 93.0987 28.2409 94.4643 28.1483C95.772 28.0557 96.883 29.0973 96.9987 30.5091C97.1029 31.7821 96.2233 32.6154 94.742 32.6848H94.7305ZM93.0061 31.3424C94.2444 31.2382 94.9388 31.1804 95.6331 31.1225C95.6331 30.8332 95.6216 30.5554 95.61 30.2661C94.9156 29.5255 94.2212 29.3634 93.0061 31.3424Z" fill="white"/>
  </svg>
  