<svg width="67" height="80" viewBox="0 0 67 80" fill="none" xmlns="http://www.w3.org/2000/svg">
<g clip-path="url(#clip0_4612_14929)">
<path d="M21.118 22.1517C24.3154 19.2357 28.2816 18.8888 32.3134 18.8794C35.2295 18.8794 38.1455 18.9544 41.0522 19.1326C42.8243 19.2451 44.5496 19.6858 46.0498 20.7828C47.2406 21.6548 48.0094 22.7706 48.2438 24.2145C49.4721 31.6406 49.9128 39.0948 49.0502 46.5959C48.6845 49.7651 47.3906 50.7871 44.1276 50.609C44.0526 51.0684 43.9213 51.5466 43.912 52.0248C43.8651 55.3253 43.8651 58.6258 43.8088 61.9262C43.7526 65.6018 43.6682 69.2773 43.5557 72.9622C43.5275 73.778 43.3869 74.6124 43.1712 75.4001C42.4305 78.0723 40.1802 79.4506 37.4798 78.8693C36.5609 78.6724 35.6889 78.2692 34.695 77.9223C34.0199 78.2974 33.2792 78.7943 32.4728 79.1412C29.3224 80.5102 26.2375 79.0568 25.3655 75.7095C25.0186 74.3687 24.8686 72.9622 24.7748 71.5745C24.3341 65.2924 24.2497 59.0196 24.7748 52.7374C24.8405 51.9873 24.7748 51.2184 24.7748 50.3746C24.4185 50.3089 24.0622 50.2152 23.6965 50.1777C21.0337 49.8964 19.2709 48.1899 19.1396 45.452C19.0459 43.4923 19.2146 41.5233 19.3365 39.5636C19.5803 35.6349 19.8616 31.7156 20.1148 27.7869C20.1429 27.4213 20.0773 27.0462 19.7116 26.6524C19.5803 27.4869 19.374 28.3214 19.3459 29.1559C19.1959 33.7878 19.0834 38.4103 18.9615 43.0423C18.9334 44.0643 19.149 45.1238 18.6052 46.474C18.3989 45.9114 18.2583 45.7051 18.2489 45.4895C17.902 39.0761 17.8832 32.672 18.7927 26.2961C19.0365 24.5896 19.5053 22.93 20.5648 21.5235C20.818 21.1954 21.2024 20.9703 21.5306 20.689L21.5025 20.6609C21.3806 21.1672 21.2587 21.6735 21.1368 22.1892C21.1087 22.2736 21.0805 22.358 21.0524 22.4424C21.0712 22.3486 21.0899 22.2549 21.1087 22.1611L21.118 22.1517ZM27.5596 29.6528C27.5596 30.4873 27.5784 31.0312 27.5596 31.5844C27.4846 34.0597 27.3533 36.5351 27.3158 39.0104C27.2502 42.6297 27.3908 46.2584 27.1939 49.8682C26.772 57.6131 26.8658 65.358 27.3064 73.0935C27.3627 74.078 27.6534 75.1 28.0378 76.0095C28.4222 76.919 29.2098 77.5097 30.3069 77.416C31.9571 77.2753 33.448 75.897 33.6074 74.2186C33.7949 72.2684 33.9261 70.2993 33.9449 68.3397C34.0105 62.4982 33.9918 56.6567 34.0387 50.8153C34.0387 50.1683 33.8605 49.4276 34.8075 48.7056C34.9388 49.5682 35.0794 50.2152 35.1263 50.8621C35.3701 54.1532 35.6514 57.4443 35.7827 60.7448C35.9608 65.2455 36.0264 69.7555 36.1108 74.2655C36.1296 75.1375 36.2234 75.8876 37.1047 76.3471C38.8206 77.2472 40.5271 76.6471 41.024 74.7812C41.3991 73.3841 41.6241 71.9121 41.6523 70.4681C41.746 65.8362 41.5585 61.1949 41.7554 56.563C42.0367 49.8964 42.2148 43.2485 41.7554 36.582C41.6241 34.7442 41.671 32.897 41.6804 31.0593C41.6804 30.4779 41.8492 29.906 41.9711 29.109C43.1243 29.9904 43.0962 31.0218 43.1712 31.9125C43.4338 35.0067 43.6025 38.1103 43.7901 41.2139C43.8932 42.9204 43.9964 44.6269 44.0526 46.3427C44.0901 47.4867 44.5683 48.2555 45.5622 48.6212C46.6499 48.4337 47.0343 47.7398 47.1281 46.8584C47.3156 44.8988 47.6063 42.9485 47.625 40.9888C47.6719 35.9069 47.3156 30.853 46.7249 25.7991C46.3686 22.7987 44.5589 21.5235 42.2899 21.1297C40.4146 20.8015 38.5206 20.5953 36.6359 20.4171C33.5511 20.1264 30.4569 20.0327 27.3908 20.689C23.6403 21.486 22.2057 23.3894 22.1963 27.1962C22.1963 30.7499 21.9432 34.2941 21.8025 37.8478C21.7088 40.3231 21.5119 42.7985 21.5587 45.2645C21.5962 47.2616 22.9464 48.1618 25.1686 47.8711C25.2155 46.9616 25.2624 46.0146 25.3187 45.0769C25.5531 40.7076 25.7875 36.3288 26.0313 31.9594C26.0781 31.0874 26.125 30.1873 27.5596 29.681V29.6528Z" fill="white"/>
<path d="M34.1514 16.7228C29.7914 16.826 26.2377 13.4036 26.1721 9.0342C26.0971 4.29915 29.5007 0.539227 33.917 0.332947C37.6675 0.164173 42.3182 4.04598 42.4588 8.02156C42.6651 13.7786 39.1115 16.554 34.1608 16.7228H34.1514ZM34.2733 14.1724C37.9488 14.1724 41.0243 11.4158 41.043 8.09657C41.0618 4.52418 38.2489 1.92693 34.3483 1.92693C30.6915 1.92693 28.3005 4.33665 28.2724 8.03094C28.2443 11.7533 30.5978 14.1537 34.2733 14.1631V14.1724Z" fill="white"/>
<path d="M21.5399 20.6796L21.6151 20.5952L21.5117 20.6515L21.5399 20.6796Z" fill="white"/>
<path d="M39.9834 74.7624C40.1334 58.9164 40.2834 43.061 40.4428 27.2149C40.5179 27.1962 40.5929 27.1774 40.6585 27.1587C40.7804 27.5431 40.9867 27.9182 41.0054 28.3026C41.1086 31.0874 41.2492 33.8815 41.2211 36.6663C41.1742 42.189 41.0148 47.7023 40.9398 53.225C40.846 59.7603 40.7991 66.2956 40.7054 72.8309C40.7054 73.4779 40.5178 74.1248 40.4147 74.7718H39.9834V74.7624Z" fill="white"/>
<path d="M30.026 9.81254C28.7602 8.31232 28.7977 6.66209 29.5572 5.11499C30.3355 3.53976 31.9201 3.23034 33.5984 3.35223C33.1765 3.53976 32.7546 3.72729 32.3326 3.90544C30.3355 4.73993 29.8479 5.48067 29.9135 7.67473C29.9323 8.38734 29.9885 9.09994 30.026 9.81254Z" fill="white"/>
<path d="M22.8902 47.8616C22.3745 47.5241 22.1026 46.999 22.0558 46.277C20.3305 42.2264 20.068 37.6039 20.0398 33.122C20.0398 33.1595 20.0398 33.2064 20.0398 33.2439C20.0305 34.8003 19.993 36.3568 20.1055 37.9133C20.4993 43.5391 20.3493 49.1649 20.1055 54.8001C19.9367 58.71 20.0867 62.6294 20.0117 66.5487C19.9836 67.7676 19.7961 69.0147 19.4866 70.1867C19.0647 71.7713 17.6301 72.2683 16.1768 71.5088C15.436 71.1243 15.3517 70.4868 15.3423 69.746C15.2673 65.9392 15.211 62.1324 15.061 58.3256C14.9485 55.5408 14.7047 52.7561 14.5078 49.9807C14.4703 49.4275 14.3484 48.8836 14.2359 48.1523C13.4389 48.7617 13.5983 49.39 13.5889 49.9338C13.5514 54.8657 13.5608 59.8071 13.5139 64.739C13.4951 66.3987 13.3826 68.0583 13.2326 69.7085C13.1013 71.1243 11.8355 72.2964 10.4384 72.4089C9.51019 72.4839 8.84447 71.987 8.5163 71.2181C8.18812 70.4492 7.94434 69.5866 7.89746 68.7521C7.5224 62.2168 7.44739 55.6721 7.80369 49.1274C7.97247 46.0801 7.85995 43.014 7.90683 39.9573C7.94434 37.8664 8.04748 35.7755 8.11311 33.6846C8.13187 33.2251 8.11311 32.7563 8.11311 32.0531C6.90356 32.4844 6.86606 33.2439 6.81918 33.9752C6.6129 37.6695 6.41599 41.3638 6.21909 45.0581C6.17221 45.8551 6.1347 46.6521 6.0972 47.4209C4.21255 47.6647 3.07801 46.8958 3.04051 45.2175C3.003 43.1265 3.1624 41.0356 3.24678 38.9541C3.3593 35.9536 3.56558 32.9532 3.57496 29.9528C3.57496 26.7367 4.79388 25.1333 7.96309 24.4582C10.5603 23.905 13.167 23.98 15.7736 24.2332C17.377 24.3832 18.9709 24.5614 20.5555 24.8333C20.8274 24.8802 21.09 24.9458 21.3431 25.0302C21.6901 24.5801 22.1026 24.1957 22.5527 23.8769C21.5963 23.4456 20.5649 23.2299 19.5148 23.1643C17.0582 23.0049 14.5922 22.9393 12.1262 22.9486C8.73195 22.9486 5.40335 23.2487 2.70296 25.6865C2.79672 25.2927 2.89048 24.8989 2.98425 24.5051C2.72171 24.7208 2.41229 24.9083 2.20601 25.1802C1.30588 26.371 0.912072 27.7775 0.715169 29.212C-0.053692 34.5941 -0.0349393 40.0136 0.255728 45.4331C0.265104 45.6113 0.386997 45.7894 0.555771 46.2676C1.01521 45.1237 0.837062 44.233 0.855814 43.3703C0.958954 39.4604 1.05272 35.5504 1.17461 31.6405C1.19336 30.9279 1.38089 30.2247 1.48403 29.5215C1.78407 29.859 1.84033 30.1778 1.82158 30.4872C1.60592 33.8064 1.36214 37.1257 1.16523 40.4449C1.06209 42.1045 0.912072 43.7735 0.99646 45.4238C1.10898 47.7397 2.59982 49.1837 4.85014 49.4181C5.15956 49.4462 5.4596 49.5306 5.75965 49.5775C5.75965 50.2995 5.80653 50.9371 5.75965 51.5746C5.30958 56.8817 5.38459 62.1887 5.75965 67.4957C5.84404 68.6677 5.96593 69.8585 6.25659 70.9931C6.98795 73.8154 9.59458 75.053 12.2575 73.8904C12.9326 73.5997 13.5608 73.1778 14.1327 72.859C14.9672 73.1496 15.708 73.4872 16.4862 73.656C18.7647 74.1529 20.6681 72.9902 21.2963 70.7305C21.4838 70.0648 21.6057 69.3616 21.6244 68.6677C21.7276 65.5642 21.7932 62.4512 21.8401 59.3476C21.887 56.5629 21.887 53.7687 21.9245 50.9839C21.9245 50.5807 22.0464 50.1776 22.1026 49.7838C23.1903 49.84 24.0154 49.7369 24.6343 49.4275C23.9498 49.0337 23.3497 48.5086 22.8902 47.8616Z" fill="white"/>
<path d="M13.6831 21.1484C9.99822 21.2328 6.99779 18.3449 6.94153 14.6506C6.8759 10.6469 9.75444 7.46832 13.4862 7.29954C16.6554 7.1589 20.5841 10.4312 20.706 13.7974C20.8748 18.6637 17.8744 21.0078 13.6925 21.1484H13.6831ZM13.7863 18.9919C16.8898 18.9919 19.4871 16.6665 19.5058 13.863C19.5246 10.8438 17.143 8.64974 13.8519 8.64974C10.7671 8.64974 8.74179 10.6844 8.71366 13.8067C8.68553 16.9572 10.6733 18.9825 13.7863 18.9919Z" fill="white"/>
<path d="M3.02173 24.4863L3.08752 24.4207L3.00293 24.4675L3.02173 24.4863Z" fill="white"/>
<path d="M18.6055 70.1867C18.7367 56.7973 18.8586 43.3985 18.9899 30.009C19.0555 29.9903 19.1118 29.9809 19.1774 29.9622C19.2806 30.281 19.4587 30.6091 19.4681 30.9373C19.5525 33.2908 19.6744 35.6536 19.6556 38.0071C19.6181 42.6671 19.4775 47.3365 19.4118 51.9966C19.3368 57.5193 19.2899 63.0419 19.2149 68.5646C19.2149 69.1084 19.0555 69.6616 18.9711 70.2055H18.6055V70.1867Z" fill="white"/>
<path d="M10.1944 15.307C9.12551 14.0412 9.15364 12.6442 9.80061 11.3408C10.457 10.0094 11.7978 9.74686 13.223 9.85C12.8667 10.0094 12.5104 10.1688 12.1541 10.3188C10.4663 11.022 10.0538 11.6503 10.11 13.4974C10.1288 14.0975 10.1757 14.6976 10.2038 15.307H10.1944Z" fill="white"/>
<path d="M47.8223 32.3532C47.991 33.3283 48.1598 34.3034 48.3286 35.2786C48.3473 34.7535 48.3661 34.2191 48.3848 33.694C48.4036 33.2345 48.3848 32.7657 48.3848 32.0625C48.1504 32.1469 47.9723 32.2407 47.8223 32.3438V32.3532Z" fill="white"/>
<path d="M65.8717 27.4775C65.6654 26.2585 65.0185 25.3115 64.0152 24.5802C62.7494 23.6519 61.2961 23.2768 59.7958 23.1831C57.3392 23.0237 54.8733 22.9581 52.4073 22.9674C50.4007 22.9674 48.4223 23.0799 46.5752 23.6613C46.5752 23.6894 46.5752 23.7175 46.5846 23.7363C46.6221 24.1395 46.6596 24.5333 46.7065 24.9365C47.1565 24.7489 47.6628 24.5989 48.2348 24.477C50.8321 23.9238 53.4387 23.9988 56.0453 24.252C57.6487 24.402 59.2426 24.5802 60.8272 24.8521C62.7494 25.1802 64.2777 26.2585 64.5778 28.7995C65.0841 33.0751 65.3842 37.3414 65.3373 41.6358C65.3185 43.2954 65.0747 44.9456 64.9153 46.5958C64.8403 47.346 64.5122 47.9273 63.5933 48.0867C62.7494 47.7773 62.3462 47.1303 62.3181 46.1645C62.2712 44.7206 62.1868 43.2766 62.0931 41.8327C61.9337 39.2073 61.7836 36.5913 61.568 33.9659C61.5023 33.2064 61.5305 32.3438 60.5553 31.5937C60.4522 32.2688 60.3115 32.7563 60.3115 33.2439C60.3022 34.8004 60.2647 36.3569 60.3772 37.9133C60.771 43.5392 60.621 49.165 60.3772 54.8002C60.2084 58.7101 60.3584 62.6294 60.2834 66.5487C60.2553 67.7677 60.0678 69.0147 59.7583 70.1868C59.3364 71.7714 57.9018 72.2683 56.4485 71.5088C55.7078 71.1244 55.6234 70.4868 55.614 69.7461C55.539 65.9393 55.4827 62.1325 55.3327 58.3257C55.2202 55.5409 54.9764 52.7561 54.7795 49.9807C54.742 49.4275 54.6201 48.8837 54.5076 48.1523C53.7106 48.7618 53.87 49.39 53.8606 49.9338C53.8231 54.8658 53.8325 59.8071 53.7856 64.7391C53.7669 66.3987 53.6543 68.0583 53.5043 69.7086C53.373 71.1244 52.1072 72.2964 50.7102 72.409C49.7819 72.484 49.1162 71.987 48.788 71.2182C48.4598 70.4493 48.216 69.5867 48.1692 68.7522C47.8129 62.6388 47.7379 56.5348 48.0191 50.4214C47.4566 51.0402 46.7721 51.5278 46.0126 51.8747C45.5907 57.0786 45.6657 62.2919 46.0314 67.4957C46.1157 68.6678 46.2376 69.8586 46.5283 70.9931C47.2597 73.8154 49.8663 75.0531 52.5292 73.8904C53.2043 73.5997 53.8325 73.1778 54.4044 72.859C55.2389 73.1497 55.9797 73.4872 56.7579 73.656C59.0364 74.153 60.9398 72.9903 61.568 70.7306C61.7555 70.0649 61.8774 69.3616 61.8962 68.6678C61.9993 65.5642 62.0649 62.4513 62.1118 59.3477C62.1587 56.5629 62.1587 53.7688 62.1962 50.984C62.1962 50.5808 62.3181 50.1776 62.3743 49.7838C65.131 49.9338 66.228 49.0618 66.5374 46.3896C67.2688 40.0511 66.8937 33.7502 65.853 27.4775H65.8717Z" fill="white"/>
<path d="M53.9634 21.1484C50.2785 21.2328 47.2781 18.3449 47.2218 14.6506C47.1562 10.6469 50.0347 7.46832 53.7665 7.29954C56.9357 7.1589 60.8644 10.4312 60.9863 13.7974C61.1551 18.6637 58.1546 21.0078 53.9728 21.1484H53.9634ZM54.0665 18.9919C57.1701 18.9919 59.7674 16.6665 59.7861 13.863C59.8049 10.8438 57.4233 8.64974 54.1322 8.64974C51.0474 8.64974 49.0221 10.6844 48.9939 13.8067C48.9658 16.9572 50.9536 18.9825 54.0665 18.9919Z" fill="white"/>
<path d="M58.8955 70.1867L59.2799 30.009C59.3456 29.9903 59.4018 29.9809 59.4675 29.9622C59.5706 30.281 59.7488 30.6091 59.7581 30.9373C59.8425 33.2908 59.9644 35.6536 59.9457 38.0071C59.9082 42.6671 59.7675 47.3365 59.7019 51.9966C59.6269 57.5193 59.58 63.0419 59.505 68.5646C59.505 69.1084 59.3456 69.6616 59.2612 70.2055H58.8955V70.1867Z" fill="white"/>
<path d="M50.4757 15.307C49.4068 14.0412 49.4349 12.6442 50.0819 11.3408C50.7382 10.0094 52.079 9.74686 53.5042 9.85C53.1479 10.0094 52.7916 10.1688 52.4353 10.3188C50.7476 11.022 50.335 11.6503 50.3913 13.4974C50.41 14.0975 50.4569 14.6976 50.485 15.307H50.4757Z" fill="white"/>
</g>
<defs>
<clipPath id="clip0_4612_14929">
<rect width="66.8628" height="79.3333" fill="white" transform="translate(0.0683594 0.333008)"/>
</clipPath>
</defs>
</svg>
