<svg width="166" height="75" viewBox="0 0 166 75" fill="none" xmlns="http://www.w3.org/2000/svg">
<g clip-path="url(#clip0_4612_15173)">
<g clip-path="url(#clip1_4612_15173)">
<path d="M18.0482 32.6274V39.3828C17.3674 39.4963 16.683 39.5402 16.0022 39.5402C15.3214 39.5402 14.637 39.4963 13.9562 39.3828V33.378C13.9562 32.1953 13.3413 31.8329 12.4556 31.8329C11.7968 31.8329 11.3869 32.0159 11.0904 32.1734L11.0209 32.1294C11.0428 32.2869 11.0428 32.47 11.0428 32.6311V39.3865C10.3621 39.5 9.67764 39.5439 8.99687 39.5439C8.3161 39.5439 7.63168 39.5 6.95091 39.3865V33.3817C6.95091 32.199 6.33602 31.8365 5.45029 31.8365C4.79148 31.8365 4.38156 32.0196 4.08509 32.177V39.3865C3.40433 39.5 2.7199 39.5439 2.03913 39.5439C1.35836 39.5439 0.673932 39.5 -0.00683594 39.3865V30.0168C0.673932 29.4492 2.78944 28.175 5.79067 28.175C7.31325 28.175 8.47349 28.4716 9.3153 29.0392C10.1791 28.5851 11.3613 28.175 12.7923 28.175C16.4304 28.175 18.0445 29.9252 18.0445 32.6311L18.0482 32.6274Z" fill="white"/>
<path d="M19.8887 39.3828V28.5595C20.5475 28.446 21.2319 28.4021 21.9346 28.4021C22.5934 28.4021 23.2742 28.446 23.9806 28.5595V39.3828C23.3218 39.4963 22.6374 39.5403 21.9346 39.5403C21.2758 39.5403 20.5951 39.4963 19.8887 39.3828Z" fill="white"/>
<path d="M33.5045 28.4899C33.435 29.83 33.0726 31.1042 32.3223 32.0159C32.0039 31.9244 31.7294 31.8805 31.3231 31.8805C30.7338 31.8805 30.2324 31.994 29.9835 32.1075V39.3828C29.3028 39.4963 28.6183 39.5402 27.9376 39.5402C27.2568 39.5402 26.5724 39.4963 25.8916 39.3828V29.9435C26.5943 29.2845 28.2999 28.1934 30.9132 28.1934C32.0039 28.1934 32.9372 28.2849 33.5045 28.4899Z" fill="white"/>
<path d="M45.3922 28.6914V38.4455C44.7554 38.8776 42.6179 39.7856 39.8473 39.7856C35.8249 39.7856 34.3682 38.0354 34.3682 35.3296V28.6877C35.0489 28.5742 35.7334 28.5303 36.4141 28.5303C37.0949 28.5303 37.7793 28.5742 38.4601 28.6877V34.579C38.4601 35.7836 38.87 36.2853 40.0303 36.2853C40.5756 36.2853 41.0075 36.1937 41.3039 36.0143V28.6914C41.9847 28.5779 42.6691 28.5339 43.3499 28.5339C44.0307 28.5339 44.7151 28.5779 45.3959 28.6914H45.3922Z" fill="white"/>
<path d="M65.3284 32.6274V39.3828C64.6477 39.4963 63.9632 39.5402 63.2825 39.5402C62.6017 39.5402 61.9173 39.4963 61.2365 39.3828V33.378C61.2365 32.1953 60.6216 31.8329 59.7359 31.8329C59.0771 31.8329 58.6671 32.0159 58.3707 32.1734L58.3011 32.1294C58.3231 32.2869 58.3231 32.47 58.3231 32.6311V39.3865C57.6423 39.5 56.9579 39.5439 56.2771 39.5439C55.5964 39.5439 54.9119 39.5 54.2312 39.3865V33.3817C54.2312 32.199 53.6163 31.8365 52.7306 31.8365C52.0718 31.8365 51.6618 32.0196 51.3654 32.177V39.3865C50.6846 39.5 50.0002 39.5439 49.3194 39.5439C48.6386 39.5439 47.9542 39.5 47.2734 39.3865V30.0168C47.9542 29.4492 50.0697 28.175 53.0709 28.175C54.5935 28.175 55.7538 28.4716 56.5956 29.0392C57.4593 28.5851 58.6415 28.175 60.0726 28.175C63.7107 28.175 65.3248 29.9252 65.3248 32.6311L65.3284 32.6274Z" fill="white"/>
<path d="M19.5703 24.9859C19.5703 23.7117 20.639 22.6426 21.9347 22.6426C23.2304 22.6426 24.343 23.7117 24.343 24.9859C24.343 26.2601 23.2523 27.3732 21.9347 27.3732C20.6171 27.3732 19.5703 26.304 19.5703 24.9859Z" fill="white"/>
<path d="M122.839 56.9981V63.2043C122.645 63.2629 122.37 63.2922 122.147 63.2922L118.82 58.5872L118.662 58.2759V63.2629C118.527 63.3031 118.428 63.3105 118.293 63.3105C118.165 63.3105 118.048 63.2995 117.912 63.2629V57.075C118.059 56.9981 118.351 56.9102 118.615 56.9688L121.931 61.6152L122.096 61.8971L122.085 61.4687V56.9981C122.231 56.9688 122.319 56.9505 122.454 56.9505C122.582 56.9505 122.707 56.9688 122.835 56.9981H122.839Z" fill="white"/>
<path d="M128.406 60.3263V62.9516C127.978 63.1859 127.165 63.402 126.444 63.402C125.038 63.402 124.464 62.7576 124.464 61.9081C124.464 60.9708 125.284 60.4435 126.356 60.4435C126.865 60.4435 127.3 60.5424 127.633 60.6778V60.3263C127.633 59.6343 127.183 59.2609 126.374 59.2609C125.818 59.2609 125.35 59.4659 125.068 59.6819C124.845 59.5757 124.705 59.3707 124.669 59.1547C124.962 58.8618 125.635 58.5286 126.415 58.5286C127.516 58.5286 128.406 59.0375 128.406 60.3263ZM126.455 62.699C126.923 62.699 127.333 62.6221 127.633 62.5122V61.3882C127.264 61.2124 126.825 61.1355 126.356 61.1355C125.723 61.1355 125.273 61.3406 125.273 61.8678C125.273 62.3658 125.664 62.699 126.455 62.699Z" fill="white"/>
<path d="M133.977 58.708C133.567 60.3593 132.776 62.0765 132.132 63.2665C132.015 63.2958 131.88 63.3068 131.77 63.3068C131.653 63.3068 131.517 63.2958 131.4 63.2665C130.609 61.8715 130.024 60.3593 129.537 58.708C129.665 58.6677 129.848 58.6384 130.046 58.6384C130.163 58.6384 130.262 58.6494 130.357 58.6677C130.796 60.1323 131.334 61.4395 131.762 62.3365L131.81 62.4427C131.821 62.4024 131.839 62.3731 131.858 62.3365C132.344 61.2637 132.784 60.1213 133.193 58.6677C133.292 58.6494 133.398 58.6384 133.505 58.6384C133.691 58.6384 133.867 58.6677 133.973 58.708H133.977Z" fill="white"/>
<path d="M135.147 57.3092C135.147 56.998 135.393 56.7527 135.715 56.7527C136.018 56.7527 136.26 56.998 136.26 57.3092C136.26 57.6205 136.015 57.8658 135.715 57.8658C135.415 57.8658 135.147 57.6205 135.147 57.3092ZM135.312 63.2628V58.6566C135.448 58.6274 135.587 58.6164 135.711 58.6164C135.835 58.6164 135.974 58.6274 136.103 58.6566V63.2628C135.974 63.2921 135.839 63.3031 135.711 63.3031C135.583 63.3031 135.448 63.2921 135.312 63.2628Z" fill="white"/>
<path d="M141.955 59.1254V63.1457C141.955 64.299 141.066 65.1741 139.759 65.1741C138.95 65.1741 138.226 64.9215 137.75 64.3723C137.819 64.1782 137.995 63.9439 138.259 63.834C138.562 64.1855 139.02 64.4675 139.763 64.4675C140.74 64.4675 141.168 63.8816 141.168 63.1384V62.8747C140.857 63.0322 140.495 63.1493 140.067 63.1493C138.76 63.1493 137.677 62.2889 137.677 60.8865C137.677 59.4842 138.713 58.5249 140.136 58.5249C140.81 58.5249 141.483 58.7483 141.959 59.1217L141.955 59.1254ZM141.165 62.1241V59.5574C140.931 59.3707 140.55 59.2535 140.129 59.2535C139.152 59.2535 138.482 59.9272 138.482 60.8939C138.482 61.8605 139.155 62.4646 140.129 62.4646C140.645 62.4646 140.931 62.2999 141.165 62.1241Z" fill="white"/>
<path d="M147.361 60.3263V62.9516C146.933 63.1859 146.12 63.402 145.399 63.402C143.994 63.402 143.419 62.7576 143.419 61.9081C143.419 60.9708 144.239 60.4435 145.311 60.4435C145.82 60.4435 146.255 60.5424 146.589 60.6778V60.3263C146.589 59.6343 146.138 59.2609 145.329 59.2609C144.773 59.2609 144.305 59.4659 144.023 59.6819C143.8 59.5757 143.661 59.3707 143.624 59.1547C143.917 58.8618 144.59 58.5286 145.37 58.5286C146.471 58.5286 147.361 59.0375 147.361 60.3263ZM145.406 62.699C145.875 62.699 146.285 62.6221 146.585 62.5122V61.3882C146.215 61.2124 145.776 61.1355 145.308 61.1355C144.674 61.1355 144.224 61.3406 144.224 61.8678C144.224 62.3658 144.616 62.699 145.406 62.699Z" fill="white"/>
<path d="M152.225 62.9041C151.98 63.1274 151.504 63.391 150.937 63.391C150.011 63.391 149.338 62.9517 149.338 61.8496V59.3415H148.547C148.518 59.2243 148.507 59.1364 148.507 59.0193C148.507 58.9131 148.518 58.8142 148.547 58.708H149.338V57.4705C149.466 57.4412 149.59 57.4302 149.729 57.4302C149.857 57.4302 149.982 57.4412 150.11 57.4705V58.708H151.933C151.962 58.8142 151.973 58.9131 151.973 59.0193C151.973 59.1364 151.962 59.2243 151.933 59.3415H150.11V61.6921C150.11 62.5233 150.502 62.699 150.999 62.699C151.369 62.699 151.731 62.4757 151.878 62.3475C152.072 62.483 152.189 62.699 152.229 62.9041H152.225Z" fill="white"/>
<path d="M153.279 57.3092C153.279 56.998 153.524 56.7527 153.847 56.7527C154.15 56.7527 154.392 56.998 154.392 57.3092C154.392 57.6205 154.147 57.8658 153.847 57.8658C153.546 57.8658 153.279 57.6205 153.279 57.3092ZM153.444 63.2628V58.6566C153.579 58.6274 153.718 58.6164 153.843 58.6164C153.967 58.6164 154.106 58.6274 154.234 58.6566V63.2628C154.106 63.2921 153.971 63.3031 153.843 63.3031C153.715 63.3031 153.579 63.2921 153.444 63.2628Z" fill="white"/>
<path d="M160.245 60.4032V63.2628C160.117 63.2921 159.97 63.3031 159.846 63.3031C159.722 63.3031 159.593 63.2921 159.454 63.2628V60.6778C159.454 59.6709 158.997 59.2609 158.108 59.2609C157.591 59.2609 157.13 59.4256 156.867 59.5831V63.2628C156.739 63.2921 156.592 63.3031 156.468 63.3031C156.343 63.3031 156.215 63.2921 156.076 63.2628V59.2316C156.526 58.8618 157.317 58.5286 158.184 58.5286C159.619 58.5286 160.241 59.4073 160.241 60.4032H160.245Z" fill="white"/>
<path d="M166.028 59.1254V63.1457C166.028 64.299 165.138 65.1741 163.832 65.1741C163.023 65.1741 162.298 64.9215 161.822 64.3723C161.892 64.1782 162.067 63.9439 162.331 63.834C162.635 64.1855 163.092 64.4675 163.835 64.4675C164.812 64.4675 165.241 63.8816 165.241 63.1384V62.8747C164.93 63.0322 164.567 63.1493 164.139 63.1493C162.832 63.1493 161.749 62.2889 161.749 60.8865C161.749 59.4842 162.785 58.5249 164.209 58.5249C164.882 58.5249 165.555 58.7483 166.031 59.1217L166.028 59.1254ZM165.237 62.1241V59.5574C165.003 59.3707 164.622 59.2535 164.201 59.2535C163.224 59.2535 162.554 59.9272 162.554 60.8939C162.554 61.8605 163.228 62.4646 164.201 62.4646C164.717 62.4646 165.003 62.2999 165.237 62.1241Z" fill="white"/>
<path d="M122.019 66.8216H120.028V72.3761C119.893 72.4054 119.764 72.4237 119.629 72.4237C119.501 72.4237 119.376 72.4054 119.237 72.3761V66.8216H117.239C117.21 66.6935 117.191 66.5763 117.191 66.4592C117.191 66.331 117.21 66.2248 117.239 66.0967H122.019C122.048 66.2248 122.067 66.331 122.067 66.4592C122.067 66.5763 122.048 66.6935 122.019 66.8216Z" fill="white"/>
<path d="M122.253 70.0657C122.253 68.689 123.278 67.6272 124.654 67.6272C126.03 67.6272 126.996 68.6927 126.996 70.0657C126.996 71.4388 125.972 72.4969 124.595 72.4969C123.219 72.4969 122.253 71.4424 122.253 70.0657ZM126.195 70.0657C126.195 69.0698 125.591 68.3558 124.625 68.3558C123.658 68.3558 123.054 69.0698 123.054 70.0657C123.054 71.0617 123.658 71.7647 124.625 71.7647C125.591 71.7647 126.195 71.0617 126.195 70.0657Z" fill="white"/>
<path d="M132.524 68.2277V72.248C132.524 73.4013 131.634 74.2764 130.328 74.2764C129.519 74.2764 128.794 74.0238 128.318 73.4746C128.388 73.2805 128.564 73.0462 128.827 72.9363C129.131 73.2878 129.588 73.5698 130.331 73.5698C131.309 73.5698 131.737 72.9839 131.737 72.2406V71.977C131.426 72.1345 131.063 72.2516 130.635 72.2516C129.328 72.2516 128.245 71.3912 128.245 69.9888C128.245 68.5865 129.281 67.6272 130.705 67.6272C131.378 67.6272 132.052 67.8505 132.527 68.224L132.524 68.2277ZM131.733 71.2264V68.6597C131.499 68.473 131.118 68.3558 130.697 68.3558C129.72 68.3558 129.05 69.0295 129.05 69.9962C129.05 70.9628 129.724 71.5669 130.697 71.5669C131.213 71.5669 131.499 71.4022 131.733 71.2264Z" fill="white"/>
<path d="M138.299 70.3001H134.884C134.943 71.1495 135.528 71.783 136.367 71.783C137.128 71.783 137.479 71.501 137.732 71.3033C137.926 71.4022 138.112 71.6365 138.16 71.8415C137.79 72.1528 137.212 72.5043 136.356 72.5043C135.009 72.5043 134.064 71.556 134.064 70.084C134.064 68.6121 135.042 67.6345 136.29 67.6345C137.472 67.6345 138.339 68.484 138.339 69.674C138.339 69.9193 138.328 70.0364 138.299 70.3001ZM137.52 69.6447C137.52 69.0186 137.186 68.3375 136.29 68.3375C135.488 68.3375 134.983 68.9343 134.895 69.6447H137.52Z" fill="white"/>
<path d="M142.98 72.0064C142.735 72.2297 142.259 72.4933 141.692 72.4933C140.766 72.4933 140.093 72.054 140.093 70.9519V68.4438H139.302C139.273 68.3266 139.262 68.2387 139.262 68.1215C139.262 68.0154 139.273 67.9165 139.302 67.8103H140.093V66.5727C140.221 66.5435 140.345 66.5325 140.484 66.5325C140.612 66.5325 140.737 66.5435 140.865 66.5727V67.8103H142.688C142.717 67.9165 142.728 68.0154 142.728 68.1215C142.728 68.2387 142.717 68.3266 142.688 68.4438H140.865V70.7944C140.865 71.6256 141.256 71.8013 141.754 71.8013C142.124 71.8013 142.486 71.578 142.633 71.4498C142.827 71.5853 142.944 71.8013 142.984 72.0064H142.98Z" fill="white"/>
<path d="M148.334 69.5165V72.3651C148.206 72.3944 148.06 72.4054 147.935 72.4054C147.811 72.4054 147.683 72.3944 147.544 72.3651V69.7984C147.544 69.0478 147.269 68.3814 146.197 68.3814C145.787 68.3814 145.329 68.5169 144.978 68.7219V72.3614C144.85 72.3907 144.715 72.4017 144.586 72.4017C144.458 72.4017 144.323 72.3907 144.188 72.3614V65.9502C144.323 65.9209 144.462 65.9099 144.586 65.9099C144.711 65.9099 144.85 65.9209 144.978 65.9502V67.9896C145.359 67.7736 145.787 67.6271 146.343 67.6271C147.73 67.6271 148.334 68.5535 148.334 69.5091V69.5165Z" fill="white"/>
<path d="M154.081 70.3001H150.667C150.725 71.1495 151.311 71.783 152.149 71.783C152.91 71.783 153.262 71.501 153.514 71.3033C153.708 71.4022 153.895 71.6365 153.942 71.8415C153.573 72.1528 152.994 72.5043 152.138 72.5043C150.791 72.5043 149.847 71.556 149.847 70.084C149.847 68.6121 150.824 67.6345 152.072 67.6345C153.254 67.6345 154.122 68.484 154.122 69.674C154.122 69.9193 154.111 70.0364 154.081 70.3001ZM153.298 69.6447C153.298 69.0186 152.965 68.3375 152.068 68.3375C151.267 68.3375 150.762 68.9343 150.674 69.6447H153.298Z" fill="white"/>
<path d="M158.265 68.473C158.012 68.4034 157.708 68.3741 157.426 68.3741C157.028 68.3741 156.676 68.451 156.42 68.6085V72.3651C156.292 72.3944 156.156 72.4054 156.021 72.4054C155.886 72.4054 155.757 72.3944 155.622 72.3651V68.257C156.003 67.9348 156.716 67.6309 157.478 67.6309C157.847 67.6309 158.151 67.6785 158.462 67.7883C158.481 68.0226 158.404 68.2972 158.268 68.473H158.265Z" fill="white"/>
<path d="M154.502 37.2005L64.8599 72.6398C60.175 74.4925 54.9082 71.6512 54.6447 67.1293L72.3337 35.897L51.1274 6.94212C50.8638 2.41655 55.761 -1.01791 60.6325 0.27825L153.792 25.0261C160.277 26.747 160.742 34.7363 154.502 37.2005ZM79.167 42.678C78.3032 42.678 77.648 42.7732 77.1466 42.9124V49.6568C77.2967 49.7007 77.4248 49.7117 77.5748 49.7117C77.7249 49.7117 77.864 49.7007 78.014 49.6568V47.0718C78.3361 47.1048 78.7095 47.1267 79.1779 47.1267C80.9604 47.1267 81.89 46.1345 81.89 44.8163C81.89 43.4982 81.0153 42.678 79.167 42.678ZM79.167 46.3651C78.6875 46.3651 78.3142 46.3432 78.014 46.3102V43.5421C78.3654 43.4872 78.7717 43.4579 79.156 43.4579C80.3748 43.4579 80.9823 43.9815 80.9823 44.8163C80.9823 45.7354 80.4699 46.3651 79.167 46.3651ZM88.2548 48.8769H85.1255V42.7952C84.9754 42.7623 84.8254 42.7403 84.6753 42.7403C84.5362 42.7403 84.4081 42.7623 84.2581 42.7952V49.6568H88.2548C88.2988 49.5067 88.3097 49.3675 88.3097 49.2394C88.3097 49.1222 88.2988 49.0051 88.2548 48.8769ZM92.8409 49.8289C94.4659 49.8289 95.553 48.8366 95.553 46.9766V42.7989C95.4249 42.7659 95.2748 42.7439 95.1467 42.7439C94.9966 42.7439 94.8576 42.7659 94.6965 42.7989V46.9766C94.6965 48.1629 94.089 48.9977 92.8372 48.9977C91.5855 48.9977 90.9889 48.1629 90.9889 46.9766V42.7989C90.8388 42.7659 90.6888 42.7439 90.5387 42.7439C90.3996 42.7439 90.2605 42.7659 90.0995 42.7989V46.9766C90.0995 48.8366 91.2305 49.8289 92.8336 49.8289H92.8409ZM100.179 49.8289C101.665 49.8289 102.617 49.071 102.617 47.7785C102.617 46.486 101.731 45.9514 100.351 45.6072C99.2386 45.3289 98.9641 44.9994 98.9641 44.4429C98.9641 43.8863 99.4765 43.4286 100.311 43.4286C101.091 43.4286 101.592 43.674 102.042 43.9962C102.255 43.89 102.481 43.5678 102.5 43.3005C102.031 42.949 101.387 42.6268 100.311 42.6268C98.9751 42.6268 98.1113 43.4286 98.1113 44.4978C98.1113 45.8232 99.1032 46.2626 100.172 46.5189C101.497 46.8302 101.753 47.2659 101.753 47.8004C101.753 48.5181 101.252 49.0307 100.183 49.0307C99.4253 49.0307 98.847 48.7195 98.4407 48.3057C98.2065 48.4449 98.0015 48.6353 97.9064 48.9575C98.2797 49.3529 98.9861 49.8326 100.183 49.8326L100.179 49.8289ZM79.8916 28.2372C77.2784 28.2372 75.5289 29.3759 74.9579 29.8739C75.1409 31.1005 75.7997 31.9646 76.6159 32.4442C77.1613 32.0342 78.2519 31.5362 79.5256 31.5362C80.9823 31.5362 81.4362 32.1037 81.4362 32.7189V33.0154C80.8433 32.88 80.2101 32.8104 79.4598 32.7884C76.5976 32.7445 74.6175 33.8795 74.6175 36.2009C74.6175 38.7237 76.6415 39.7708 79.6391 39.7708C81.7546 39.7708 83.5956 39.4084 85.4805 38.6797V33.2241C85.4805 29.6981 83.2991 28.2445 79.888 28.2445L79.8916 28.2372ZM78.6875 36.0398C78.6875 35.4247 79.1889 35.1061 80.0746 35.1061C80.5761 35.1061 81.0299 35.1501 81.4398 35.2416V36.9259C81.0299 37.0174 80.6456 37.0833 80.2796 37.0833C79.2328 37.0833 78.6875 36.6732 78.6875 36.0361V36.0398ZM92.8006 39.7891C94.6416 39.7891 95.9153 39.0861 96.7095 38.4015C96.3911 37.1749 95.6628 36.1972 94.6855 35.7176C94.1622 36.2192 93.6863 36.4462 92.8445 36.4462C91.4574 36.4462 90.7986 35.3551 90.7986 33.9454C90.7986 32.5358 91.5489 31.5106 92.8006 31.5106C93.529 31.5106 94.0743 31.8071 94.4586 32.1916C95.4358 31.5984 96.2996 30.4195 96.5046 29.3247C95.8897 28.8011 94.3891 28.164 92.6872 28.164C89.254 28.164 86.7103 30.3682 86.7103 34.0077C86.7103 37.6472 88.9612 39.7818 92.8043 39.7818L92.8006 39.7891ZM103.166 39.7891C105.007 39.7891 106.281 39.0861 107.075 38.4015C106.756 37.1749 106.028 36.1972 105.051 35.7176C104.527 36.2192 104.052 36.4462 103.21 36.4462C101.823 36.4462 101.164 35.3551 101.164 33.9454C101.164 32.5358 101.914 31.5106 103.166 31.5106C103.894 31.5106 104.44 31.8071 104.824 32.1916C105.801 31.5984 106.665 30.4195 106.87 29.3247C106.255 28.8011 104.754 28.164 103.052 28.164C99.6193 28.164 97.0756 30.3682 97.0756 34.0077C97.0756 37.6472 99.3265 39.7818 103.166 39.7818V39.7891ZM113.282 28.2372C109.897 28.2372 107.441 30.6465 107.441 34.0809C107.441 37.7863 109.941 39.7891 113.374 39.7891C115.874 39.7891 117.418 39.0166 118.399 38.2879C118.329 37.2664 117.876 36.1972 117.081 35.5126C116.126 36.102 115.057 36.6037 113.875 36.6037C112.444 36.6037 111.785 36.1936 111.602 34.967H118.421C118.512 34.4434 118.534 33.8539 118.534 33.2827C118.556 30.1668 116.445 28.2336 113.282 28.2336V28.2372ZM111.577 32.8543C111.734 31.8328 112.279 31.2396 113.304 31.2396C114.373 31.3312 114.757 32.0122 114.757 32.8543H111.577ZM124.603 39.8148C127.944 39.8148 129.694 38.3612 129.694 36.0618C129.694 33.583 127.783 32.9459 125.851 32.5614C124.237 32.2429 123.761 32.1513 123.761 31.7412C123.761 31.3312 124.171 31.2396 124.987 31.2396C126.169 31.2396 127.443 31.6277 128.168 32.0122C128.874 31.5106 129.35 30.5586 129.511 29.2368C128.739 28.7828 127.329 28.2372 124.83 28.2372C122.147 28.2372 119.896 29.4638 119.896 31.8767C119.896 34.2896 121.806 34.9707 123.442 35.3551C125.1 35.7432 125.602 35.8787 125.602 36.3108C125.602 36.6073 125.445 36.8343 124.782 36.8343C123.212 36.8343 121.92 36.2668 121.009 35.7213C120.28 36.1972 119.713 37.1309 119.552 38.4271C120.346 39.0422 122.143 39.8148 124.599 39.8148H124.603ZM135.715 39.8148C139.056 39.8148 140.806 38.3612 140.806 36.0618C140.806 33.583 138.895 32.9459 136.963 32.5614C135.349 32.2429 134.873 32.1513 134.873 31.7412C134.873 31.3312 135.283 31.2396 136.099 31.2396C137.281 31.2396 138.555 31.6277 139.283 32.0122C139.986 31.5106 140.465 30.5586 140.623 29.2368C139.85 28.7828 138.441 28.2372 135.942 28.2372C133.259 28.2372 131.008 29.4638 131.008 31.8767C131.008 34.2896 132.918 34.9707 134.554 35.3551C136.212 35.7432 136.714 35.8787 136.714 36.3108C136.714 36.6073 136.553 36.8343 135.894 36.8343C134.324 36.8343 133.028 36.2668 132.12 35.7213C131.392 36.1972 130.825 37.1309 130.667 38.4271C131.462 39.0422 133.259 39.8148 135.715 39.8148ZM143.09 30.5549C143.09 31.3165 143.715 31.9426 144.477 31.9426C145.238 31.9426 145.864 31.3165 145.864 30.5549C145.864 29.7933 145.238 29.1672 144.477 29.1672C143.715 29.1672 143.09 29.7933 143.09 30.5549ZM143.401 30.5549C143.401 29.9618 143.884 29.4785 144.477 29.4785C145.07 29.4785 145.553 29.9618 145.553 30.5549C145.553 31.1481 145.07 31.6314 144.477 31.6314C143.884 31.6314 143.401 31.1481 143.401 30.5549ZM144.202 31.2506V30.716H144.433L144.784 31.2506H145.106L144.726 30.6794C144.92 30.6135 145.033 30.478 145.033 30.251C145.033 30.0533 144.894 29.819 144.502 29.819H143.913V31.2506H144.199H144.202ZM144.202 30.478V30.068H144.469C144.652 30.068 144.751 30.1302 144.751 30.2583C144.751 30.4121 144.66 30.478 144.444 30.478H144.202Z" fill="white"/>
</g>
</g>
<defs>
<clipPath id="clip0_4612_15173">
<rect width="166" height="74.2802" fill="white"/>
</clipPath>
<clipPath id="clip1_4612_15173">
<rect width="166.027" height="74.2802" fill="white"/>
</clipPath>
</defs>
</svg>
