<svg width="43" height="107" viewBox="0 0 43 107" fill="none" xmlns="http://www.w3.org/2000/svg">
<path d="M4.80297 29.3707C9.07241 25.4623 14.3826 25.0056 19.7779 24.9844C23.6756 24.9844 27.584 25.08 31.4711 25.3242C33.8394 25.4729 36.1547 26.0677 38.1514 27.5333C39.7444 28.7015 40.7746 30.1884 41.0933 32.132C42.7288 42.0622 43.3236 52.0454 42.1766 62.0818C41.688 66.3194 39.9569 67.6895 35.5918 67.4558C35.4963 68.0718 35.3157 68.7197 35.3051 69.3569C35.2413 73.775 35.2413 78.1931 35.167 82.6113C35.082 87.5286 34.9758 92.4565 34.8271 97.3738C34.7953 98.4677 34.6041 99.5829 34.3067 100.634C33.319 104.213 30.3134 106.061 26.6918 105.275C25.4599 105.01 24.2916 104.468 22.9747 104.012C22.0719 104.511 21.0842 105.18 20.0009 105.647C15.7846 107.485 11.6532 105.53 10.4955 101.059C10.0282 99.2642 9.83708 97.3844 9.69901 95.5258C9.10426 87.125 8.99806 78.7242 9.69901 70.3234C9.78397 69.3144 9.70964 68.2948 9.70964 67.1584C9.23172 67.0735 8.75376 66.946 8.27583 66.9035C4.71796 66.5212 2.36021 64.2484 2.17966 60.5737C2.05222 57.9611 2.28587 55.3166 2.44518 52.6933C2.76379 47.4361 3.14612 42.1896 3.4966 36.9325C3.52846 36.4439 3.4435 35.9447 2.96557 35.4137C2.79564 36.5289 2.50893 37.644 2.47707 38.7698C2.27528 44.9616 2.12655 51.1533 1.96724 57.3451C1.93538 58.7151 2.22218 60.1276 1.48937 61.9331C1.21324 61.1791 1.02205 60.9029 1.01143 60.6056C0.54413 52.0242 0.522881 43.4534 1.73362 34.9252C2.05224 32.6524 2.67883 30.4221 4.10198 28.5423C4.43121 28.0962 4.95164 27.7988 5.38708 27.4271L5.35519 27.3846C5.19588 28.0643 5.02599 28.744 4.86669 29.4237C4.8242 29.5406 4.79236 29.6574 4.74988 29.7636C4.77112 29.6362 4.80292 29.5087 4.82416 29.3919L4.80297 29.3707ZM13.4162 39.407C13.4162 40.5222 13.4374 41.255 13.4162 41.9878C13.31 45.3014 13.1507 48.6044 13.087 51.918C13.002 56.761 13.1825 61.6145 12.917 66.4362C12.3541 76.8019 12.4709 87.1569 13.0657 97.5119C13.14 98.8288 13.5224 100.188 14.0534 101.42C14.5738 102.642 15.6253 103.427 17.0909 103.3C19.3 103.109 21.2966 101.261 21.509 99.02C21.7533 96.4073 21.9338 93.7734 21.9551 91.1502C22.04 83.3335 22.0188 75.5168 22.0825 67.7001C22.0825 66.8398 21.8489 65.8415 23.1021 64.875C23.2826 66.0327 23.4738 66.8929 23.5375 67.7638C23.8561 72.1713 24.2491 76.5682 24.419 80.9863C24.6633 87.0082 24.7483 93.0406 24.8651 99.0731C24.8863 100.241 25.0138 101.25 26.1926 101.856C28.4867 103.056 30.7701 102.259 31.4392 99.7634C31.9383 97.8942 32.2358 95.9294 32.2782 93.9965C32.3951 87.7941 32.1614 81.5811 32.4163 75.4C32.7987 66.4787 33.0323 57.5787 32.4163 48.6681C32.2464 46.2148 32.2995 43.7402 32.3207 41.2762C32.3207 40.5009 32.5437 39.7363 32.7137 38.6636C34.2643 39.8531 34.2218 41.2125 34.3174 42.4126C34.6678 46.5546 34.8909 50.7073 35.1458 54.8599C35.2839 57.1433 35.4325 59.4267 35.4962 61.7207C35.5493 63.2501 36.176 64.2803 37.5141 64.7688C38.9692 64.5139 39.4895 63.5899 39.6064 62.4004C39.8613 59.7878 40.2436 57.1645 40.2755 54.5413C40.3392 47.7441 39.8719 40.9789 39.0753 34.2136C38.5974 30.1991 36.176 28.4891 33.1385 27.9687C30.6321 27.5333 28.1044 27.2572 25.5661 27.0129C21.4347 26.6199 17.3033 26.4925 13.1931 27.374C8.16963 28.4467 6.24733 30.985 6.23671 36.0722C6.22609 40.8196 5.89686 45.5776 5.71632 50.3249C5.58887 53.6385 5.33399 56.9415 5.39771 60.2551C5.45082 62.9209 7.24567 64.1316 10.23 63.7493C10.2938 62.5279 10.3575 61.264 10.4318 60.0108C10.7504 54.1589 11.0585 48.307 11.3877 42.4551C11.4514 41.2975 11.5151 40.0867 13.4268 39.407H13.4162Z" fill="#7A9C49"/>
<path d="M22.2368 22.1102C16.3956 22.2482 11.6482 17.6708 11.5526 11.8189C11.4464 5.47845 16.0132 0.444322 21.9076 0.17881C26.9205 -0.0442212 33.1441 5.14921 33.3353 10.4701C33.6114 18.17 28.8534 21.8978 22.2262 22.1102H22.2368ZM22.3962 18.701C27.3135 18.701 31.4236 15.0157 31.4448 10.5763C31.4767 5.79706 27.7064 2.32416 22.4917 2.32416C17.6063 2.32416 14.3989 5.54218 14.3564 10.4913C14.3139 15.4724 17.4682 18.6904 22.3855 18.701H22.3962Z" fill="#7A9C49"/>
<path d="M5.36386 27.4059L5.47011 27.2891L5.33203 27.3634L5.36386 27.4059Z" fill="#7A9C49"/>
<path d="M30.0496 99.7565C30.2514 78.5474 30.4532 57.3382 30.655 36.129C30.7506 36.1078 30.8462 36.0865 30.9524 36.0547C31.1117 36.5645 31.3985 37.0743 31.4091 37.5947C31.5471 41.3225 31.7277 45.0609 31.6959 48.7887C31.6321 56.1699 31.4197 63.5512 31.3135 70.9431C31.186 79.6838 31.1223 88.4351 31.0055 97.1757C30.9949 98.0466 30.7506 98.9069 30.6232 99.7778H30.0391L30.0496 99.7565Z" fill="#7A9C49"/>
<path d="M16.7311 12.8637C15.0318 10.8564 15.0849 8.64737 16.1044 6.57637C17.1452 4.46289 19.2588 4.05931 21.5209 4.21862C20.958 4.46289 20.3951 4.7284 19.8216 4.96205C17.1452 6.0772 16.508 7.06492 16.5824 9.99618C16.6142 10.952 16.678 11.8973 16.7311 12.8531V12.8637Z" fill="#7A9C49"/>
</svg>
