<svg width="98" height="74" viewBox="0 0 98 74" fill="none" xmlns="http://www.w3.org/2000/svg">
<path d="M46.8423 41.2068C46.3491 40.4745 45.7961 40.9527 45.2655 41.1395C40.9462 42.6341 36.9035 44.6517 33.2343 47.3868C31.9938 48.3134 30.5292 49.0457 29.8192 50.4805C29.1392 51.8555 28.5713 53.3127 28.1229 54.7849C27.5923 56.5111 26.9572 58.1551 25.8811 59.6347C23.7962 62.5043 20.5679 61.4356 19.3573 59.2984C19.1556 58.9472 18.9388 58.596 18.5278 57.901C18.4232 60.6435 19.3274 62.8032 19.9028 65.0375C18.7446 64.4322 18.4083 63.3487 18.1019 62.2801C17.2201 59.1863 16.9137 56.0179 17.6759 52.8868C18.4681 49.6361 18.1766 46.4676 17.3994 43.3216C16.7867 40.8331 15.9049 38.4194 15.1427 35.9683C14.3804 33.5173 13.4986 31.1036 12.8859 28.6151C11.8621 24.4378 12.6094 20.41 14.5075 16.6138C15.0231 15.5751 15.875 14.6484 16.7493 13.8638C18.9762 11.8461 21.4572 10.1947 24.4314 9.44739C27.1066 8.77484 29.8192 8.5357 32.5767 8.34141C39.0332 7.87062 45.1385 9.52211 51.2662 11.0839C52.6935 11.4501 54.0311 12.175 55.5481 12.7952C57.6704 11.3828 60.0467 10.3068 62.6323 9.70893C67.1459 8.66274 71.6744 8.03503 76.3075 8.80473C78.7138 9.20826 80.836 10.2246 82.8238 11.6294C84.7144 12.9671 86.1268 16.6287 84.3333 19.3339C83.0331 21.2992 81.546 23.0554 79.5806 24.393C75.62 27.0907 71.4726 29.4222 67.0637 31.3053C66.3687 31.6042 65.7559 32.1497 65.1955 32.6728C64.1418 33.6443 63.0807 34.6233 62.1466 35.7068C59.5685 38.6959 56.1609 39.8243 52.417 39.8916C50.4068 39.9289 48.5237 39.9962 46.8348 41.1769L46.8572 41.2068H46.8423ZM19.8505 41.7224C20 41.7448 20.1569 41.7672 20.3064 41.7971C20.3064 42.238 20.3587 42.6864 20.2989 43.1198C20.0149 45.2496 19.5292 47.3718 19.4395 49.5091C19.3424 51.7584 19.5815 54.0226 19.7609 56.272C19.7982 56.7726 20.1345 57.2808 20.411 57.7291C20.9117 58.5362 21.3899 59.4703 22.5333 59.4255C23.6467 59.3881 23.9456 58.3793 24.252 57.5872C24.8947 55.9207 25.4028 54.202 25.9483 52.5057C26.5536 50.6001 27.3457 48.8365 29.0197 47.5736C33.8321 43.9418 39.0332 41.1246 44.9068 39.5478C48.8824 38.4792 51.0719 35.8712 51.4082 31.3427C51.5053 30.0349 51.4306 28.7197 51.4978 27.412C51.5203 27.0085 51.7519 26.6199 51.9611 26.0221C53.5155 27.6735 52.686 29.4969 53.0597 31.0214C53.7173 29.9602 53.3062 28.518 54.2403 27.5166C54.7037 29.325 54.2403 31.0512 53.7845 32.7252C53.3212 34.4065 52.6038 36.0132 51.9313 37.844C55.0325 37.0594 58.0141 36.4466 60.3307 34.0553C61.9 32.4337 63.5963 30.8644 65.472 29.6165C67.6989 28.1369 70.1873 27.0682 72.5263 25.7456C74.656 24.535 76.8306 23.3692 78.781 21.912C80.0888 20.9331 81.1873 19.5805 82.1288 18.2279C83.317 16.5092 82.8462 14.5961 81.1723 13.3407C79.6703 12.2123 77.9814 11.48 76.1431 11.0989C72.8028 10.4114 69.4624 10.6729 66.1595 11.2184C63.6411 11.6369 61.0854 12.1675 58.7016 13.0642C55.5855 14.2375 53.0746 16.4046 50.9075 18.9378C50.5563 19.3488 50.3246 20.0064 49.2411 19.7524C50.5637 17.4881 52.4693 15.8889 53.9713 13.9311C53.7173 13.7667 53.5827 13.6471 53.4258 13.5873C52.5963 13.251 51.7818 12.855 50.9224 12.6084C42.6351 10.2171 34.273 9.60431 25.7765 11.4725C23.0788 12.0703 20.807 13.4678 18.5278 14.8951C18.2364 15.0744 17.9973 15.3733 17.788 15.6573C15.1352 19.3638 13.9919 23.4813 14.6719 28.0098C14.9484 29.8332 15.3818 31.6416 15.8899 33.4127C16.9735 37.1864 18.8566 40.7435 19.0808 44.8236C19.3424 43.7924 19.6039 42.7611 19.858 41.7299L19.8505 41.7224Z" fill="#0080A3"/>
<path d="M46.8203 41.1768C46.8203 41.1768 46.8423 41.1988 46.8423 41.2061C46.8423 41.2134 46.8203 41.1768 46.8203 41.1768Z" fill="#0080A3"/>
<path d="M24.9998 14.5361C26.3972 15.9859 26.3822 17.2263 24.7009 17.9512C22.0106 19.1095 20.6132 21.0674 20.1723 23.8622C20.135 24.0938 20.0304 24.318 19.9556 24.5422C19.7539 25.2073 19.4325 25.7827 18.6554 25.8201C17.7661 25.8649 17.2579 25.3269 16.9067 24.5572C16.4658 23.6081 16.7274 22.689 16.9441 21.7698C17.8109 18.0932 21.3157 14.9098 24.9923 14.5361H24.9998ZM18.3191 24.5422C18.618 24.2433 18.7376 24.176 18.7749 24.0789C18.8795 23.8024 18.9916 23.511 19.0141 23.227C19.2532 20.0062 20.8598 17.7718 23.7966 16.4566C24.0956 16.3221 24.3048 15.9859 24.7382 15.5599C21.9957 15.8065 19.8734 17.4954 18.5283 20.3948C17.9454 21.6577 17.3551 22.9879 18.3191 24.5497V24.5422Z" fill="#0080A3"/>
<path d="M70.0754 13.9166C66.3987 14.2005 62.8492 14.9254 59.3594 16.7413C59.4341 15.4933 60.2636 15.2168 60.9436 14.9403C63.1032 14.081 65.3077 13.3711 67.6617 13.3187C68.4538 13.3038 69.2534 13.4159 70.0455 13.4682C70.0529 13.6177 70.0679 13.7671 70.0754 13.9166Z" fill="#0080A3"/>
</svg>
