<svg width="120" height="90" viewBox="0 0 120 90" fill="none" xmlns="http://www.w3.org/2000/svg">
<path d="M66.6938 14.9112C70.2686 14.7708 73.5533 14.5275 76.8287 14.5462C78.5974 14.5556 80.4317 14.7895 82.1068 15.3229C85.3728 16.3711 87.0479 18.8229 87.2351 22.22C87.3474 24.1571 87.2819 26.113 87.3007 28.0501C87.3007 29.0047 87.3007 29.9686 87.3007 30.9512C88.826 31.363 90.3234 30.2213 91.6335 31.494C91.5399 31.8122 91.4369 32.1865 91.3059 32.645C93.8513 33.4218 96.1161 34.5354 98.1843 36.2854C101.525 39.1022 103.004 42.7426 103.359 46.8602C103.565 49.2091 103.378 51.6704 102.938 53.9912C101.899 59.4564 98.437 63.1436 93.5987 65.6141C91.5493 66.6623 89.4437 67.57 86.4678 67.5326C87.6188 68.5807 88.3487 69.2451 89.3313 70.1342C88.4423 70.3588 87.9183 70.4898 87.4317 70.6114C87.2913 71.9403 87.2912 73.2224 87.0105 74.439C86.3367 77.3775 85.0172 78.2852 82.0132 78.4162C77.0814 78.6315 72.1589 79.0619 67.2271 79.1836C60.1242 79.3708 53.0213 79.352 45.9184 79.4456C42.9238 79.4831 39.9385 79.6328 36.9439 79.6515C34.7073 79.6702 32.4613 79.5579 30.2154 79.5392C28.5964 79.5298 26.9586 79.1087 25.3771 79.9416C25.0308 80.1288 24.3758 79.82 23.8985 79.6609C23.1218 79.4082 22.3731 79.0807 21.4092 78.7063C21.3063 78.4911 21.2127 78.0045 20.9132 77.7237C16.4212 73.3628 16.7488 67.7759 16.8705 62.2077C17.067 53.0086 17.2448 43.8094 17.3197 34.6196C17.3384 32.3924 16.9453 30.1558 16.6739 27.9378C16.3464 25.2895 16.7114 22.6972 17.3665 20.1705C18.1245 17.2039 20.8009 15.2949 24.0669 15.1451C28.7741 14.9299 33.4814 14.7334 38.1886 14.593C39.4239 14.5556 40.4813 14.2842 41.5388 13.601C46.7701 10.2695 52.4599 9.20264 58.5147 10.597C61.6029 11.3082 64.4291 12.6839 66.6938 14.8831V14.9112ZM79.0279 65.9885C79.0279 65.9885 79.1027 66.0259 79.1402 66.0446C79.084 66.0259 79.0373 66.0165 78.9812 65.9978C78.3074 65.5393 77.5774 65.1556 76.9691 64.6222C75.6402 63.4337 74.1897 62.32 73.1323 60.9163C70.7459 57.7439 69.417 54.1035 69.2111 50.1075C68.9397 44.792 70.802 40.1878 74.6015 36.5942C77.0814 34.2453 80.0106 32.3175 83.5386 31.6905C83.7539 31.6531 83.9317 31.4191 84.1282 31.2787C83.5948 31.0635 83.155 31.0729 82.7526 31.1945C79.0186 32.2894 75.818 34.3482 72.9544 36.9124C71.3822 38.3255 70.1657 40.0942 69.7633 42.2185C69.2393 44.9979 68.7994 47.796 68.4812 50.6129C68.2098 53.0647 68.921 55.3949 70.0627 57.5193C71.0173 59.288 72.1777 60.9631 73.441 62.5259C74.8728 64.2853 76.6134 65.7077 79.0185 65.9978L79.0279 65.9885ZM81.8074 34.9472C76.0988 36.9498 72.6643 40.9365 71.5413 46.8602C71.3073 48.0862 71.0453 49.4992 71.429 50.6035C72.5239 53.6917 73.8247 56.7145 75.2846 59.6436C76.3608 61.796 78.3355 63.0968 80.6376 63.7986C81.6389 64.1075 82.6683 64.2759 83.6884 64.5099C88.4143 65.5954 92.4102 64.3414 96.1535 61.2532C101.843 56.5647 102.133 48.3295 99.85 42.9485C97.9128 38.391 94.4129 35.6771 89.425 34.6851C86.5614 34.1143 84.2967 34.7787 82.1536 36.4913C81.7419 36.8188 81.405 37.2399 80.9745 37.53C80.675 37.7359 80.2726 37.8014 79.917 37.9325L79.6081 37.5394C80.3474 36.6691 81.0868 35.7988 81.8167 34.9285L81.8822 34.8536L81.798 34.9285L81.8074 34.9472ZM20.5202 18.5609C20.1178 21.7614 19.6031 24.7748 19.4159 27.8068C19.3036 29.6504 19.8463 31.5314 19.8276 33.3843C19.7715 37.5675 19.5282 41.7506 19.3972 45.9338C19.1539 53.5514 18.9854 61.1783 18.6859 68.7959C18.5924 71.0887 19.2662 73.1101 20.4453 74.9443C21.6993 76.9002 23.3183 78.2758 25.976 78.0232C28.4279 77.7892 30.9079 77.9483 33.3691 77.8922C43.7474 77.6395 54.0976 76.713 64.504 77.1248C68.5935 77.2839 72.7204 76.7879 76.8194 76.4697C79.2619 76.2825 81.6951 75.8895 84.1282 75.5807C85.2699 73.6154 84.9517 71.6221 84.7739 69.4885C82.4811 68.7585 80.1884 68.1128 77.9611 67.2799C76.651 66.7933 75.2752 66.2037 74.2365 65.3053C71.195 62.6569 69.0053 59.316 67.8636 55.4604C66.544 51.0153 67.3114 46.5795 68.4531 42.1905C69.0614 39.8696 70.2686 37.895 72.0279 36.3322C75.0132 33.6838 78.3167 31.5221 82.2003 30.3616C82.9677 30.1277 83.7351 29.9218 84.4182 29.7346C84.4182 26.8523 84.4932 24.1665 84.3903 21.49C84.3247 19.7962 83.3702 18.5047 81.7699 17.8871C80.7405 17.4847 79.6268 17.0729 78.56 17.0636C74.826 17.0542 71.0828 17.1572 67.3582 17.363C66.2913 17.4192 65.5334 17.2133 64.7005 16.5769C63.4652 15.6224 62.1737 14.7146 60.7887 14.0128C57.0922 12.1411 53.1243 12.216 49.1471 12.7026C45.4974 13.1425 42.1939 14.4245 39.5361 17.0916C39.2367 17.3911 38.7874 17.5502 38.6751 17.6157C37.6364 17.2882 36.8504 16.8109 36.083 16.839C31.9747 16.9606 27.8664 17.1478 23.7769 17.4566C22.7288 17.5315 21.7274 18.1398 20.5202 18.5702V18.5609ZM81.4891 66.8401C82.5185 67.205 83.5386 67.5794 84.568 67.9443C83.9129 66.447 82.6589 66.7839 81.4891 66.8401Z" fill="#7A9C49"/>
<path d="M66.3756 38.4467C65.8515 37.6606 65.5708 37.2395 65.4211 37.0149C61.2941 36.7996 57.3542 36.4627 53.405 36.4347C49.0066 36.4066 44.6083 36.6873 40.2099 36.7809C39.4706 36.7996 38.7219 36.5657 38.0762 36.4721C38.1323 35.321 38.2072 34.4882 38.1978 33.6459C38.1791 29.8558 38.7219 26.2248 40.9024 22.9775C42.2968 20.8906 44.1497 19.4401 46.5454 18.8318C51.5053 17.5778 56.3903 17.8211 60.8636 20.4508C64.3168 22.4815 66.3007 25.7288 66.8996 29.678C67.2178 31.7275 67.2365 33.8331 67.2552 35.92C67.2552 36.5938 66.8061 37.2676 66.3756 38.4654V38.4467ZM42.7553 23.1834C40.4532 25.4013 39.7981 28.2369 39.639 31.3812C40.9305 31.5403 42.0909 31.69 43.2513 31.8398C43.2513 32.0457 43.2513 32.2515 43.2513 32.4668C42.0722 32.6352 40.8837 32.7943 39.5267 32.9908C39.6203 33.7863 39.7046 34.4882 39.7982 35.2742C42.8022 35.7422 45.6002 35.0029 48.4077 34.9654C51.2433 34.928 54.0789 35.1152 56.9051 35.1994C59.7219 35.2836 62.5481 35.5363 65.4211 35.1526V32.7382C64.0454 32.2983 62.6884 33.5523 61.4718 32.4106C62.1081 31.8491 63.3903 31.3719 65.3181 30.9788C65.4866 27.7783 63.933 24.6901 61.4718 23.3051C60.7325 23.5671 60.0026 23.8385 58.8047 24.269C59.5066 23.2115 59.9278 22.5751 60.405 21.8545C58.1965 20.6847 56.0815 19.6834 53.5828 19.8051C53.5173 20.9561 53.4611 21.9949 53.405 23.0337C53.1991 23.0617 52.9933 23.0805 52.7874 23.1085C52.4599 22.0323 52.1416 20.9468 51.7954 19.8051C49.6898 19.4495 47.7339 19.8051 45.8529 20.5818C44.5521 21.1246 43.242 21.7422 42.6898 23.2208L42.7367 23.1834H42.7553Z" fill="#7A9C49"/>
<path d="M80.5527 71.4909C80.5246 73.3345 79.5795 74.3452 77.9044 74.3452C75.78 74.3452 74.9003 73.4842 74.9284 71.416C74.9471 69.638 76.276 68.1594 77.8669 68.1313C79.542 68.1032 80.5901 69.4227 80.5621 71.4909H80.5527ZM77.1183 73.0163C79.4017 72.9976 79.4953 72.8946 79.2426 70.8265C78.5782 71.1353 77.9138 71.4441 77.2493 71.7623C77.1464 71.6406 77.0434 71.519 76.9498 71.3973C77.2867 70.8171 77.6236 70.2275 78.1008 69.4134C76.0607 70.6487 76.0327 70.789 77.1277 73.0163H77.1183Z" fill="#7A9C49"/>
<path d="M26.7711 27.5917C25.2551 27.573 24.1041 26.3939 24.1415 24.8872C24.1883 23.0717 25.2176 21.7803 26.6401 21.7803C28.3152 21.7803 29.8312 23.2776 29.7844 24.8872C29.7377 26.3471 28.3339 27.6105 26.7711 27.5917ZM26.4717 25.561C26.35 25.4674 26.219 25.3645 26.0974 25.2709C26.2284 24.9527 26.322 24.6252 26.4811 24.3257C26.6589 23.9795 26.8928 23.6706 27.2484 23.0998C25.5639 23.2402 25.6482 24.307 25.4236 25.1305C26.2658 25.9915 27.3638 26.0726 28.7176 25.3738C28.6802 25.0744 28.6428 24.7281 28.5773 24.1947C27.7725 24.7188 27.1174 25.1399 26.4717 25.561Z" fill="#7A9C49"/>
<path d="M25.9295 68.5904C27.7731 68.5436 29.2985 69.6573 29.3734 71.1078C29.4389 72.4928 28.1662 73.831 26.6969 73.9059C25.1715 73.9901 23.7959 72.5396 23.7959 70.8364C23.7959 69.3016 24.4415 68.6278 25.9389 68.5811L25.9295 68.5904ZM25.6207 72.2308C26.6751 72.5801 27.4518 72.3306 27.9509 71.4821C27.1742 71.7348 26.3881 71.9968 25.5926 72.2682C26.0324 71.5663 26.4817 70.8551 27.0713 69.9193C26.2197 70.0035 25.5552 70.069 24.4416 70.1813C24.975 71.1171 25.2932 71.6786 25.6113 72.2401L25.6207 72.2308Z" fill="#7A9C49"/>
<path d="M81.115 24.6067C81.1618 26.1789 80.0482 27.3393 78.5228 27.33C76.6698 27.3206 75.5 26.469 75.4439 25.084C75.3877 23.6709 76.9224 22.2297 78.5508 22.1736C80.0949 22.1268 81.0682 23.0439 81.115 24.5974V24.6067ZM78.2139 23.7177C77.3342 23.83 76.885 24.3073 76.9599 25.2057C78.6912 26.7123 79.2902 26.6094 79.8142 24.719C79.2153 24.8033 78.635 24.8875 77.9987 24.9717C78.0829 24.4008 78.1297 24.0359 78.1859 23.6803C78.2701 23.6148 78.345 23.5399 78.4292 23.4744C78.3544 23.5586 78.2887 23.6428 78.2139 23.7177Z" fill="#7A9C49"/>
<path d="M93.7956 49.4052C91.0256 48.1231 89.5844 45.6525 87.0016 44.2581C87.0016 45.5496 87.0016 46.6258 87.0016 47.702C86.9828 51.4359 86.9829 55.1605 86.9361 58.8944C86.9361 59.4934 86.7021 60.0829 86.2997 60.6631C85.3826 58.9225 85.7008 57.0696 85.5978 55.2915C85.4855 53.4292 85.5605 51.5576 85.5605 49.6953C85.5605 47.8423 85.5605 45.98 85.5605 43.7809C83.1648 45.1472 82.2382 47.6926 79.7208 48.4413C79.6459 48.0295 79.4589 47.6365 79.5712 47.5148C81.7048 45.1752 83.6607 42.6298 86.5243 40.9453C89.0791 43.3785 91.5497 45.7274 93.9829 48.1044C94.0952 48.2167 93.9173 48.6378 93.7956 49.4145V49.4052Z" fill="#7A9C49"/>
<path d="M58.1314 25.9541C55.8667 28.7616 53.8734 31.2322 51.8894 33.6934C51.7116 33.6185 51.5245 33.5436 51.3467 33.4594C51.3841 33.0289 51.2999 32.5329 51.4777 32.1773C52.8814 29.4354 55.7451 26.6373 58.1314 25.9541Z" fill="#7A9C49"/>
<path d="M42.7179 23.221C44.4118 23.9884 45.9933 24.9242 47.2941 26.6742C45.4693 26.7959 44.5615 25.598 43.4104 24.9149C42.7273 24.5125 42.5775 23.9135 42.7646 23.1836L42.7179 23.221Z" fill="#7A9C49"/>
</svg>
