<svg width="14" height="16" viewBox="0 0 14 16" fill="none" xmlns="http://www.w3.org/2000/svg" preserveAspectRatio="none">
  <path d="M7.97255 15.7104C7.78044 15.5173 7.68438 15.2921 7.68438 15.0347C7.68438 14.7773 7.78044 14.552 7.97255 14.359L10.7341 11.5837H1.9211C1.39279 11.5837 0.940696 11.3948 0.564802 11.0171C0.188908 10.6393 0.000640365 10.1847 0 9.65309V0.965312C0 0.691808 0.0922127 0.462708 0.276638 0.278012C0.461063 0.0933166 0.689033 0.000646868 0.960548 3.32865e-06C1.23206 -0.000640211 1.46035 0.0920296 1.64542 0.278012C1.83048 0.463995 1.92238 0.693095 1.9211 0.965312V9.65309H10.7341L7.94853 6.8537C7.75642 6.66064 7.66421 6.4354 7.6719 6.17798C7.67958 5.92056 7.77179 5.69533 7.94853 5.50226C8.14064 5.3092 8.36477 5.20881 8.62092 5.20109C8.87706 5.19336 9.10119 5.28571 9.2933 5.47813L13.7358 9.94269C13.8319 10.0392 13.8998 10.1438 13.9395 10.2564C13.9792 10.369 13.9993 10.4897 14 10.6184C14.0006 10.7471 13.9805 10.8678 13.9395 10.9804C13.8985 11.093 13.8306 11.1976 13.7358 11.2941L9.34133 15.7104C9.14922 15.9035 8.92125 16 8.65742 16C8.39359 16 8.1653 15.9035 7.97255 15.7104Z" fill="#191919"></path>
</svg>