<svg width="100" height="100" viewBox="0 0 100 100" fill="none" xmlns="http://www.w3.org/2000/svg" preserveAspectRatio="none">
  <g clip-path="url(#clip0_2148_49326)">
    <path fill-rule="evenodd" clip-rule="evenodd" d="M62.7116 4.05542C75.498 36.2057 57.2095 65.9667 31.3275 85.2758C30.8836 85.6083 30.7907 86.2392 31.1232 86.6831C31.4557 87.1271 32.0865 87.2199 32.5305 86.8875C59.1384 67.0391 77.7244 36.362 64.5792 3.31118C64.3755 2.79587 63.7908 2.54447 63.2733 2.74948C62.758 2.95323 62.5066 3.53791 62.7116 4.05542Z" fill="#7A9C49"></path>
    <path fill-rule="evenodd" clip-rule="evenodd" d="M32.4172 85.7178C33.1308 84.1015 34.0488 82.0829 34.1463 81.8508C36.7885 75.5607 38.3132 69.1978 38.9609 62.3919C39.0142 61.8396 38.6072 61.3478 38.0548 61.2946C37.5025 61.2413 37.0108 61.6483 36.9576 62.2007C36.3316 68.8006 34.8545 74.9719 32.2909 81.0731C32.1417 81.4288 30.0752 85.9653 29.7263 86.914C29.5813 87.3024 29.62 87.5673 29.6351 87.6289C29.7026 87.9591 29.8832 88.1449 30.0493 88.26C30.2378 88.3886 30.6006 88.5249 31.0899 88.4182C31.6015 88.3045 32.5997 87.8103 32.8618 87.7058C36.8199 86.1415 41.1012 84.0506 45.4472 82.9245C49.5917 81.8503 53.8001 81.6534 57.8167 83.809C58.3054 84.0719 58.9162 83.8863 59.179 83.3975C59.4419 82.9088 59.2564 82.298 58.7676 82.0352C54.2765 79.6261 49.5751 79.7764 44.9436 80.9765C40.6234 82.0965 36.3643 84.1393 32.4172 85.7178Z" fill="#7A9C49"></path>
  </g>
  <defs>
    <clipPath id="clip0_2148_49326">
      <rect width="72.8128" height="72.8128" fill="white" transform="translate(0 36.4844) rotate(-30)"></rect>
    </clipPath>
  </defs>
</svg>