<svg width="1140" height="194" viewBox="0 0 1140 194" fill="none" xmlns="http://www.w3.org/2000/svg">
<path d="M97.2856 189.333C96.7136 142.71 97.0473 95.9729 96.503 49.3241C96.4024 37.7728 96.2753 26.2266 96.127 14.6856C96.1985 9.51229 95.3166 -0.135592 97.3849 0.0104301C97.3849 0.0104301 97.3823 0.00521507 97.381 0C99.7989 0.260754 98.7687 17.1472 99.1567 23.7234C99.3937 48.7453 99.4506 73.7828 99.5579 98.8152C99.64 122.267 99.7234 145.709 99.8439 169.161C99.6254 176.441 100.435 185.359 99.6479 191.8C98.9528 194.074 97.4088 193.437 97.2869 189.328L97.2856 189.333Z" fill="url(#paint0_linear_2187_69588)"/>
<path d="M1026.47 7.95044C871.444 8.51318 717.367 4.11839 562.588 3.14637C423.961 3.19509 285.27 3.30716 146.679 3.87234C134.079 3.41678 108.905 6.24757 100.504 4.11839C96.9429 1.54339 113.214 1.6116 119.168 1.13412C234.365 -1.01456 350.538 0.503159 466.009 0.756518C558.26 1.32414 650.483 0.305832 742.733 0.734593C837.321 1.25105 931.864 2.34001 1026.46 2.68594C1043.34 2.59824 1045.65 7.95044 1026.46 7.95287L1026.47 7.95044Z" fill="url(#paint1_linear_2187_69588)"/>
<path d="M736.634 192.732C526.624 190.232 316.141 191.473 106.21 190.654C103.055 190.505 99.3557 189.691 100.096 188.639C104.936 185.383 140.52 187.905 152.197 187.23C267.899 186.656 383.423 187.409 499.018 188.81C631.522 189.177 764.08 187.731 896.406 185.858C927.248 185.438 961.674 185.121 991.125 184.675C1006.55 185.218 1031.34 181.731 1040 186.766C1040.12 192.551 1001.54 189.98 988.326 190.992C904.536 192.577 820.594 193.718 736.634 192.735V192.732Z" fill="url(#paint2_linear_2187_69588)"/>
<path d="M1040.99 188.602C1040.35 127.211 1041.53 65.6143 1040 4.36038C1040.12 -1.23197 1042.55 -1.44394 1042.89 3.71822C1044.62 50.7263 1043.64 98.8317 1043.8 146.245C1043.81 160.366 1043.83 174.494 1044 188.602C1044.01 189.762 1043.83 190.847 1043.63 191.545C1042.86 194.263 1041.12 193.503 1040.99 188.602Z" fill="url(#paint3_linear_2187_69588)"/>
<defs>
<linearGradient id="paint0_linear_2187_69588" x1="96" y1="96.5503" x2="100" y2="96.5503" gradientUnits="userSpaceOnUse">
<stop stop-color="#0081A3"/>
<stop offset="1" stop-color="#A05FA6"/>
</linearGradient>
<linearGradient id="paint1_linear_2187_69588" x1="100" y1="4" x2="1040" y2="4" gradientUnits="userSpaceOnUse">
<stop stop-color="#0081A3"/>
<stop offset="1" stop-color="#A05FA6"/>
</linearGradient>
<linearGradient id="paint2_linear_2187_69588" x1="100" y1="188.55" x2="1040" y2="188.55" gradientUnits="userSpaceOnUse">
<stop stop-color="#0081A3"/>
<stop offset="1" stop-color="#A05FA6"/>
</linearGradient>
<linearGradient id="paint3_linear_2187_69588" x1="1040" y1="96.5503" x2="1044" y2="96.5503" gradientUnits="userSpaceOnUse">
<stop stop-color="#0081A3"/>
<stop offset="1" stop-color="#A05FA6"/>
</linearGradient>
</defs>
</svg>
