  <svg width="327" height="64" viewBox="0 0 327 64" fill="none" xmlns="http://www.w3.org/2000/svg" preserveAspectRatio="none">
<path d="M0.966153 62.6162C1.09351 42.0549 0.844884 21.479 0.497566 1.09233C0.435409 -0.424671 0.0259341 -0.361009 0.000563936 1.27968C-0.00197308 1.87993 0.00462321 2.48746 0.00893614 3.08589C0.151517 16.5279 0.464838 29.7279 0.464838 43.1863C0.469912 49.6635 0.467375 56.1463 0.426022 62.6181C0.44987 64.4588 0.940275 64.4625 0.966153 62.6181V62.6162Z" fill="url(#paint0_linear_2095_31304)"/>
<path d="M0.964208 62.7514C0.535174 47.299 0.785445 31.8087 0.377266 16.3477C0.301788 12.5192 0.206447 8.69237 0.0952163 4.86731C0.148846 3.15269 -0.512582 -0.0449397 1.03869 0.0034569C1.03869 0.0034569 1.03671 0.00172845 1.03571 0C2.84918 0.0864225 2.07652 5.68314 2.36751 7.86272C2.54528 16.1558 2.58798 24.4541 2.66843 32.7507C2.73 40.5235 2.79257 48.2929 2.88294 56.0657C2.71908 58.4786 3.32588 61.4343 2.73596 63.5689C2.21456 64.3225 1.05657 64.1116 0.965202 62.7496L0.964208 62.7514Z" fill="url(#paint1_linear_2095_31304)"/>
<path d="M320.037 3.97522C266.987 4.25659 214.262 2.05919 161.297 1.57319C113.859 1.59755 66.3991 1.65358 18.9736 1.93617C14.6617 1.70839 6.04711 3.12379 3.17246 2.05919C1.95386 0.771695 7.52193 0.805801 9.55918 0.56706C48.9793 -0.507278 88.7339 0.25158 128.248 0.378259C159.816 0.662069 191.374 0.152916 222.942 0.367296C255.31 0.625527 287.663 1.17 320.034 1.34297C325.811 1.29912 326.598 3.97522 320.034 3.97644L320.037 3.97522Z" fill="url(#paint2_linear_2095_31304)"/>
<path d="M198.608 3.48222C168.037 3.40548 137.472 3.06929 106.9 3.01448C78.7977 3.12654 50.6855 3.05711 22.5889 3.29829C17.1834 3.34214 11.7684 3.48709 6.35969 3.3933C5.39731 3.37259 4.14746 3.10705 4.14746 2.68194C4.14746 2.17401 5.6879 1.98034 6.74089 1.96328C16.2991 1.80737 25.8604 1.76352 35.4249 1.72941C74.1982 1.33841 112.937 2.33845 151.707 2.08265C169.958 1.99008 188.081 1.43829 206.288 1.08505C236.553 0.484547 266.856 0.913307 297.133 1.09602C303.545 1.13378 309.951 1.15692 316.362 1.1557C317.968 1.1557 320.318 1.49433 320.318 2.25075C320.318 3.00717 317.968 3.34457 316.362 3.34579C277.108 3.25444 237.859 3.50536 198.605 3.48222H198.608Z" fill="url(#paint3_linear_2095_31304)"/>
<path d="M220.855 62.9749C148.99 62.1231 76.9631 62.5459 5.12522 62.267C4.04541 62.2161 2.77953 61.939 3.03271 61.5805C4.68903 60.4713 16.8659 61.3303 20.8618 61.1006C60.4548 60.9048 99.9868 61.1613 139.543 61.6386C184.886 61.7638 230.247 61.2713 275.529 60.6331C286.083 60.4901 297.863 60.3819 307.942 60.23C313.222 60.415 321.702 59.2271 324.667 60.9423C324.709 62.9133 311.504 62.0373 306.984 62.3823C278.311 62.9222 249.586 63.311 220.855 62.9758V62.9749Z" fill="url(#paint4_linear_2095_31304)"/>
<path d="M200.488 63.996C169.289 63.9218 138.103 63.5089 106.898 63.5581C90.6063 63.5598 74.3268 63.735 58.0381 63.7046C40.9015 63.6403 23.7526 63.6394 6.63428 63.8977C4.26114 63.9505 2.18998 63.0289 6.23774 62.7894C15.8005 62.4774 25.476 62.5954 35.0845 62.5793C76.3552 62.5212 117.626 63.2166 158.881 62.607C212.78 61.8714 266.725 61.8642 320.655 61.6211C325.05 61.6149 325.993 63.0664 320.655 63.1514C314.472 63.1952 308.31 63.3507 302.13 63.4177C268.262 63.7279 234.376 64.0416 200.488 63.996Z" fill="url(#paint5_linear_2095_31304)"/>
<path d="M325.161 62.5091C324.844 42.162 325.43 21.7468 324.667 1.44518C324.727 -0.408315 325.94 -0.47857 326.113 1.23234C326.976 16.8124 326.487 32.7562 326.567 48.4705C326.57 53.1507 326.582 57.833 326.666 62.5091C326.673 62.8935 326.582 63.253 326.482 63.4844C326.094 64.3853 325.228 64.1332 325.161 62.5091Z" fill="url(#paint6_linear_2095_31304)"/>
<defs>
<linearGradient id="paint0_linear_2095_31304" x1="1" y1="32" x2="0" y2="32" gradientUnits="userSpaceOnUse">
<stop stop-color="#0081A3"/>
<stop offset="1" stop-color="#A05FA6"/>
</linearGradient>
<linearGradient id="paint1_linear_2095_31304" x1="0" y1="32" x2="3" y2="32" gradientUnits="userSpaceOnUse">
<stop stop-color="#0081A3"/>
<stop offset="1" stop-color="#A05FA6"/>
</linearGradient>
<linearGradient id="paint2_linear_2095_31304" x1="3" y1="2" x2="324.667" y2="2" gradientUnits="userSpaceOnUse">
<stop stop-color="#0081A3"/>
<stop offset="1" stop-color="#A05FA6"/>
</linearGradient>
<linearGradient id="paint3_linear_2095_31304" x1="4.14746" y1="2.13005" x2="320.318" y2="2.13005" gradientUnits="userSpaceOnUse">
<stop stop-color="#0081A3"/>
<stop offset="1" stop-color="#A05FA6"/>
</linearGradient>
<linearGradient id="paint4_linear_2095_31304" x1="3" y1="61.5503" x2="324.667" y2="61.5503" gradientUnits="userSpaceOnUse">
<stop stop-color="#0081A3"/>
<stop offset="1" stop-color="#A05FA6"/>
</linearGradient>
<linearGradient id="paint5_linear_2095_31304" x1="3.94385" y1="62.8108" x2="324.313" y2="62.8108" gradientUnits="userSpaceOnUse">
<stop stop-color="#0081A3"/>
<stop offset="1" stop-color="#A05FA6"/>
</linearGradient>
<linearGradient id="paint6_linear_2095_31304" x1="324.667" y1="32" x2="326.667" y2="32" gradientUnits="userSpaceOnUse">
<stop stop-color="#0081A3"/>
<stop offset="1" stop-color="#A05FA6"/>
</linearGradient>
</defs>
</svg>
