<svg width="167" height="5" viewBox="0 0 167 5" fill="none"
  xmlns="http://www.w3.org/2000/svg" preserveAspectRatio="none">
  <path
    d="M113.26 3.16048C76.1734 2.30865 39.003 2.73144 1.93024 2.45256C1.37299 2.40161 0.719722 2.12452 0.850377 1.7661C1.70514 0.656844 7.98915 1.51582 10.0513 1.28611C30.4837 1.09036 50.8847 1.34689 71.2983 1.82419C94.698 1.94933 118.107 1.45683 141.475 0.818628C146.922 0.675614 153.001 0.567459 158.202 0.415507C160.927 0.600531 165.303 -0.587378 166.833 1.12789C166.855 3.0988 160.041 2.22285 157.708 2.56787C142.911 3.10774 128.087 3.49656 113.26 3.16137V3.16048Z"
    fill="currentColor"></path>
  <path
    d="M102.75 4.18109C86.6492 4.10691 70.5551 3.69395 54.4515 3.74311C46.044 3.7449 37.6428 3.9201 29.2368 3.88971C20.3932 3.82535 11.5434 3.82446 2.70923 4.08277C1.48455 4.13551 0.415698 3.21396 2.50459 2.97441C7.43955 2.66247 12.4328 2.78045 17.3913 2.76437C38.6896 2.70627 59.9878 3.40167 81.2782 2.79207C109.093 2.05645 136.932 2.0493 164.763 1.80617C167.032 1.79992 167.518 3.25151 164.763 3.33642C161.572 3.38022 158.393 3.53574 155.203 3.60278C137.726 3.91294 120.238 4.22668 102.75 4.18109Z"
    fill="currentColor"></path>
</svg>