<svg width="167" height="5" viewBox="0 0 167 5" fill="none"
  xmlns="http://www.w3.org/2000/svg" preserveAspectRatio="none">
  <path
    d="M164.444 4.16076C137.067 4.44214 109.858 2.24474 82.5245 1.75873C58.0436 1.78309 33.5514 1.83912 9.07689 2.12172C6.85165 1.89394 2.40599 3.30933 0.922497 2.24474C0.293624 0.957242 3.16709 0.991348 4.21844 0.752607C24.5617 -0.321731 45.0775 0.437127 65.4691 0.563806C81.7602 0.847616 98.0464 0.338463 114.337 0.552843C131.041 0.811074 147.737 1.35555 164.443 1.52852C167.424 1.48467 167.83 4.16077 164.443 4.16198L164.444 4.16076Z"
    fill="currentColor"></path>
  <path
    d="M101.779 3.66788C86.0028 3.59115 70.2294 3.25496 54.4527 3.20015C39.9499 3.31221 25.4423 3.24278 10.9427 3.48396C8.15312 3.52781 5.35866 3.67276 2.56743 3.57897C2.07078 3.55826 1.42578 3.29272 1.42578 2.86761C1.42578 2.35968 2.22074 2.166 2.76415 2.14895C7.69678 1.99304 12.631 1.94919 17.5669 1.91508C37.5763 1.52408 57.5681 2.52412 77.5759 2.26832C86.9945 2.17575 96.347 1.62396 105.743 1.27072C121.362 0.670215 137 1.09898 152.625 1.28169C155.934 1.31945 159.239 1.34259 162.548 1.34137C163.377 1.34137 164.589 1.67999 164.589 2.43642C164.589 3.19284 163.377 3.53024 162.548 3.53146C142.29 3.44011 122.036 3.69103 101.778 3.66788H101.779Z"
    fill="currentColor"></path>
</svg>