<svg width="4" height="65" viewBox="0 0 4 65" fill="none" xmlns="http://www.w3.org/2000/svg"
  preserveAspectRatio="none">
  <path
    d="M1.7977 62.9369C1.36867 47.4846 1.61894 31.9942 1.21076 16.5332C1.13528 12.7047 1.03994 8.87792 0.928712 5.05286C0.982342 3.33824 0.320914 0.140607 1.87219 0.189004C1.87219 0.189004 1.8702 0.187275 1.86921 0.185547C3.68267 0.271969 2.91001 5.86869 3.201 8.04826C3.37877 16.3414 3.42148 24.6397 3.50192 32.9362C3.5635 40.709 3.62606 48.4784 3.71644 56.2513C3.55257 58.6642 4.15938 61.6198 3.56946 63.7545C3.04806 64.5081 1.89007 64.2972 1.7987 62.9352L1.7977 62.9369Z"
    fill="currentColor"></path>
</svg>