<svg width="325" height="70" viewBox="0 0 325 70" fill="none" xmlns="http://www.w3.org/2000/svg" preserveAspectRatio='none'>
<rect x="1.5" y="1.5" width="322" height="67.0005" rx="3.5" fill="none"/>
<rect x="1.5" y="1.5" width="322" height="67.0005" rx="3.5" stroke="white" stroke-width="3"/>
<path d="M3.1149 56.5077C2.68257 42.272 3.52656 28.0263 4.70557 13.9115C4.91657 12.8613 6.30658 12.9053 6.39271 14.0413C6.40132 14.4568 6.37893 14.8775 6.36428 15.2918C5.88028 24.5984 4.81667 33.7374 4.81667 43.0553C4.79945 47.5399 4.80806 52.0282 4.94844 56.509C4.86748 57.7834 3.20274 57.7859 3.1149 56.509V56.5077Z" fill="url(#paint0_linear_2089_31285)"/>
<path d="M4.99041 65.7514C4.56688 50.299 4.81394 34.8087 4.411 19.3477C4.33649 15.5192 4.24237 11.6924 4.13257 7.86731C4.18551 6.15269 3.53257 2.95506 5.06394 3.00346C5.06394 3.00346 5.06198 3.00173 5.061 3C6.85118 3.08642 6.08844 8.68314 6.37569 10.8627C6.55118 19.1558 6.59334 27.4541 6.67275 35.7507C6.73354 43.5235 6.7953 51.2929 6.88452 59.0657C6.72275 61.4786 7.32177 64.4343 6.73942 66.5689C6.22472 67.3225 5.08158 67.1116 4.99139 65.7496L4.99041 65.7514Z" fill="url(#paint1_linear_2089_31285)"/>
<path d="M315.495 6.97522C263.874 7.25659 212.57 5.05919 161.032 4.57319C114.872 4.59755 68.6909 4.65358 22.5433 4.93617C18.3475 4.70839 9.96501 6.12379 7.16782 5.05919C5.98205 3.7717 11.4001 3.8058 13.3825 3.56706C51.7405 2.49272 90.4239 3.25158 128.873 3.37826C159.591 3.66207 190.299 3.15292 221.016 3.3673C252.512 3.62553 283.993 4.17 315.492 4.34297C321.114 4.29912 321.88 6.97522 315.492 6.97644L315.495 6.97522Z" fill="url(#paint2_linear_2089_31285)"/>
<path d="M197.34 6.48222C167.593 6.40548 137.851 6.06929 108.104 6.01448C80.758 6.12654 53.4033 6.05711 26.0638 6.29829C20.8038 6.34214 15.5347 6.48709 10.2718 6.3933C9.33531 6.37259 8.11914 6.10705 8.11914 5.68194C8.11914 5.17401 9.61807 4.98034 10.6427 4.96328C19.9434 4.80737 29.2471 4.76352 38.5538 4.72941C76.2825 4.33841 113.978 5.33845 151.703 5.08265C169.463 4.99008 187.097 4.43829 204.814 4.08505C234.263 3.48455 263.749 3.91331 293.211 4.09602C299.45 4.13378 305.683 4.15692 311.922 4.1557C313.485 4.1557 315.771 4.49433 315.771 5.25075C315.771 6.00717 313.485 6.34457 311.922 6.34579C273.725 6.25444 235.534 6.50536 197.337 6.48222H197.34Z" fill="url(#paint3_linear_2089_31285)"/>
<path d="M218.986 65.9749C149.057 65.1231 78.9703 65.5459 9.06796 65.267C8.01725 65.2161 6.78547 64.939 7.03183 64.5805C8.64352 63.4713 20.4923 64.3303 24.3805 64.1006C62.9068 63.9048 101.374 64.1613 139.864 64.6386C183.986 64.7638 228.125 64.2713 272.186 63.6331C282.456 63.4901 293.919 63.3819 303.726 63.23C308.864 63.415 317.115 62.2271 320 63.9423C320.041 65.9133 307.192 65.0373 302.794 65.3823C274.893 65.9222 246.942 66.311 218.986 65.9758V65.9749Z" fill="url(#paint4_linear_2089_31285)"/>
<path d="M199.168 66.996C168.81 66.9218 138.464 66.5089 108.1 66.5581C92.2474 66.5598 76.4065 66.735 60.5567 66.7046C43.8818 66.6403 27.195 66.6394 10.5379 66.8977C8.22867 66.9505 6.21331 66.0289 10.152 65.7894C19.4571 65.4774 28.872 65.5954 38.2216 65.5793C78.3803 65.5212 118.539 66.2166 158.683 65.607C211.13 64.8714 263.621 64.8642 316.097 64.6211C320.374 64.6149 321.292 66.0664 316.097 66.1514C310.081 66.1952 304.085 66.3507 298.072 66.4177C265.117 66.7279 232.144 67.0416 199.168 66.996Z" fill="url(#paint5_linear_2089_31285)"/>
<path d="M320.495 65.5091C320.177 45.162 320.764 24.7468 320 4.44518C320.06 2.59168 321.274 2.52143 321.446 4.23234C322.31 19.8124 321.82 35.7562 321.9 51.4705C321.903 56.1508 321.916 60.833 322 65.5091C322.006 65.8935 321.916 66.253 321.816 66.4844C321.428 67.3853 320.562 67.1333 320.495 65.5091Z" fill="url(#paint6_linear_2089_31285)"/>
<defs>
<linearGradient id="paint0_linear_2089_31285" x1="3" y1="35.3105" x2="6.39462" y2="35.3105" gradientUnits="userSpaceOnUse">
<stop stop-color="#A05FA6"/>
<stop offset="1" stop-color="#765EA5"/>
</linearGradient>
<linearGradient id="paint1_linear_2089_31285" x1="4.03857" y1="35" x2="7.00007" y2="35" gradientUnits="userSpaceOnUse">
<stop stop-color="#A05FA6"/>
<stop offset="1" stop-color="#765EA5"/>
</linearGradient>
<linearGradient id="paint2_linear_2089_31285" x1="7" y1="5" x2="320" y2="5" gradientUnits="userSpaceOnUse">
<stop stop-color="#A05FA6"/>
<stop offset="1" stop-color="#765EA5"/>
</linearGradient>
<linearGradient id="paint3_linear_2089_31285" x1="8.11914" y1="5.13005" x2="315.771" y2="5.13005" gradientUnits="userSpaceOnUse">
<stop stop-color="#A05FA6"/>
<stop offset="1" stop-color="#765EA5"/>
</linearGradient>
<linearGradient id="paint4_linear_2089_31285" x1="7" y1="64.5503" x2="320" y2="64.5503" gradientUnits="userSpaceOnUse">
<stop stop-color="#A05FA6"/>
<stop offset="1" stop-color="#765EA5"/>
</linearGradient>
<linearGradient id="paint5_linear_2089_31285" x1="7.91992" y1="65.8108" x2="319.657" y2="65.8108" gradientUnits="userSpaceOnUse">
<stop stop-color="#A05FA6"/>
<stop offset="1" stop-color="#765EA5"/>
</linearGradient>
<linearGradient id="paint6_linear_2089_31285" x1="320" y1="35" x2="322" y2="35" gradientUnits="userSpaceOnUse">
<stop stop-color="#A05FA6"/>
<stop offset="1" stop-color="#765EA5"/>
</linearGradient>
</defs>
</svg>
