<svg width="151" height="113" viewBox="0 0 151 113" fill="none" xmlns="http://www.w3.org/2000/svg" class="self-stretch flex-grow-0 flex-shrink-0 h-[113px] relative" preserveAspectRatio="xMidYMid meet">
                <path d="M111.891 94.5841C114.99 95.4857 118.18 93.953 120.682 96.0379C120.332 97.5706 119.307 97.7059 118.326 97.7059C115.362 97.7284 112.398 97.6383 109.434 97.6495C104.836 97.6721 100.249 97.8073 95.6514 97.796C89.8925 97.7735 84.1224 97.6721 78.3635 97.5706C75.839 97.5256 73.3258 97.3903 70.8014 97.3678C61.887 97.2776 52.9725 97.21 44.0468 97.1311C42.3 97.1199 40.463 96.624 39.1106 98.3257C38.9754 98.4948 38.4231 98.3483 38.04 98.3483C37.8935 99.0244 37.7582 99.6894 37.6117 100.354L37.0933 100.444C36.8116 99.509 36.5299 98.5624 36.1918 97.4692C34.6365 97.3114 33.0249 97.1424 30.9851 96.9283C32.4051 94.6405 34.4787 95.9591 36.1805 94.8772C36.1805 93.4459 36.2256 91.7667 36.1805 90.0875C35.9776 83.1565 35.8987 76.203 35.4705 69.2834C34.9521 60.9211 33.9603 52.5927 33.4983 44.2418C33.1602 38.0546 32.4952 31.8337 33.3179 25.624C33.6673 22.9756 34.1068 20.3948 36.8905 19.3354C38.7162 13.2159 40.1474 12.4721 46.853 12.5623C55.9477 12.675 65.0538 12.5623 74.1486 12.6637C77.2929 12.6975 80.4597 12.9229 83.5814 13.2723C86.6581 13.6216 88.4049 16.2475 87.6048 19.0537C87.154 20.6315 86.2411 21.8148 84.4717 22.0064C83.4011 22.1191 82.3192 22.2205 81.2486 22.243C74.667 22.4346 68.0966 22.6262 61.5151 22.7727C59.0019 22.8291 56.4887 22.7727 53.6036 22.7727C53.9868 46.6648 54.37 70.5681 54.7419 94.4827C56.9282 95.0687 63.8592 94.911 68.8855 94.1333C67.0823 88.104 65.606 82.007 65.5835 75.8199C65.313 75.5719 65.2003 75.3916 65.0425 75.3465C60.9516 74.321 59.8133 71.3119 59.8359 67.5591C59.8697 61.1127 61.4362 55.0834 64.8284 49.5499C66.2259 47.2621 68.029 45.4251 70.5309 44.377C70.4859 44.0051 70.531 43.7121 70.4295 43.5092C68.1643 39.3957 69.1335 33.2762 72.5595 30.1319C76.4025 26.6157 82.0487 27.3032 85.2944 31.7661C87.6272 34.978 87.9654 38.3815 85.8241 41.8751C85.5424 42.3372 85.2832 42.7992 85.0014 43.2838C85.2156 43.5092 85.3507 43.791 85.5761 43.8924C90.8504 46.2929 93.6341 50.6994 95.133 56.0075C96.2149 59.8505 96.6206 63.8062 96.0684 67.7845C95.5951 71.1429 94.9301 74.4449 90.0954 73.9378C89.5319 81.0153 90.4109 88.0814 86.7144 94.6067H103.078C103.078 93.5135 103.157 92.6457 103.067 91.8005C102.346 84.7681 102.875 77.7583 103.439 70.7484C103.642 68.2353 103.461 65.6995 103.518 63.1751C103.664 56.8753 103.946 50.5754 103.98 44.2756C104.002 40.241 103.687 36.2064 103.529 32.0591C102.481 32.1267 101.681 32.2507 100.892 32.2169C97.7701 32.1042 96.3839 29.6924 97.9053 26.9989C98.4801 25.9846 99.1901 25.0154 99.9903 24.1927C101.805 22.3219 103.698 20.5188 105.614 18.7494C106.966 17.5097 108.172 17.3745 109.502 18.4789C111.711 20.3159 113.818 22.2881 115.948 24.2265C116.275 24.5196 116.523 24.9253 116.749 25.3084C118.631 28.464 117.459 31.0673 113.875 31.6872C113.277 31.7886 112.669 31.8337 111.891 31.9238V94.5729V94.5841ZM73.4386 33.8397C73.6189 33.4791 73.7992 33.1184 73.9682 32.7578C74.0133 32.7465 74.0472 32.7353 74.0922 32.7127C74.0472 32.7127 74.0133 32.724 73.9682 32.7353C73.7879 33.0959 73.6076 33.4678 73.4273 33.8284L73.3484 33.9411L73.4386 33.8397ZM87.0413 48.3778H86.9398L87.0863 48.3327C87.2666 48.9075 87.3906 49.5161 87.6498 50.057C88.6641 52.1532 89.7573 54.2156 90.7716 56.3118C91.3463 57.5064 91.8084 58.7573 92.3155 59.9745C91.9211 55.4665 90.456 51.4545 87.0413 48.3665V48.3778ZM89.994 71.3908C91.3125 71.8529 91.7746 71.1541 92.1014 70.2075C93.0368 67.5478 92.9805 64.9445 91.9098 62.2961C89.9827 57.5514 88.5965 52.5927 85.7002 48.2538C84.7422 46.8226 83.8631 45.7181 82.4995 46.2027C80.099 47.048 77.6986 46.6761 75.2868 46.7888C71.8157 46.9465 68.9306 48.2426 67.3191 51.477C66.0005 54.1254 64.6594 56.8189 63.7803 59.6251C62.5857 63.4005 61.9546 67.3224 62.7998 71.4359C63.6902 71.8191 64.5354 72.1797 65.606 72.6418C65.899 70.647 66.0455 69.0467 66.3724 67.4689C67.0485 64.2119 67.7698 60.9662 68.5587 57.743C68.7165 57.0781 69.1335 56.4019 69.6294 55.9173C70.4408 55.1284 71.7256 55.6243 71.8383 56.74C71.8946 57.2472 71.7143 57.7994 71.5565 58.2953C68.5362 67.7394 67.6572 77.3187 69.7872 87.0672C70.3394 89.5803 71.1395 92.0484 71.872 94.7081C73.6076 94.5729 75.0163 94.4714 76.5603 94.3587C77.0223 86.977 75.8052 79.6178 78.3973 72.5629C78.9946 74.6478 79.3665 76.744 79.4566 78.8514C79.6595 83.7087 79.7271 88.5773 79.8624 93.4459C79.8624 93.7727 80.0427 94.1108 80.1892 94.6292C80.9217 94.5391 81.5754 94.4602 82.2741 94.3813C83.0292 90.4819 83.8744 86.7967 84.4267 83.0664C84.7873 80.6772 84.7197 78.2203 84.8324 75.786C84.9 74.3435 84.9112 72.901 85.0239 71.4697C85.069 70.9513 85.3282 70.4554 85.486 69.9483C85.6889 69.9821 85.903 70.0159 86.1059 70.061C86.9736 77.0483 85.9368 83.9567 84.776 90.8764C86.027 87.5743 86.6356 84.1595 86.7595 80.6546C87.0413 73.0587 86.5341 65.5305 85.1141 58.0699C84.9338 57.1119 84.5168 56.1089 85.655 55.4102C86.8496 55.2186 87.2667 56.0751 87.5371 56.9316C87.9992 58.3854 88.4612 59.8618 88.6866 61.3719C89.1938 64.6514 89.5657 67.9648 90.0052 71.4021L89.994 71.3908ZM39.5163 22.9418C39.3923 24.4294 39.1445 26.0297 39.1557 27.63C39.2459 35.7443 39.4149 43.8473 39.5163 51.9616C39.5952 57.7318 39.5952 63.5019 39.6741 69.2721C39.7755 76.6538 39.9108 84.0356 40.0235 91.4173C40.046 92.5556 40.0235 93.6825 40.0235 94.9898C44.3173 95.1251 48.2167 95.4632 52.2513 94.7645C52.1273 91.8343 52.8373 89.1746 52.2062 86.6164C49.9747 85.6697 47.439 87.5179 45.3766 85.3879C47.4841 83.4608 50.1438 84.8357 52.3414 83.5622C52.285 82.593 52.24 81.59 52.1724 80.4067C50.0987 80.587 48.4082 80.8688 46.7065 80.8349C45.0723 80.8011 43.1903 81.4773 41.4998 79.4826C45.3541 78.9641 48.8365 78.4908 52.4654 77.9949C52.3978 76.7102 52.3527 75.786 52.3301 75.2564C50.2114 73.8138 47.8222 75.9213 45.8612 73.8251C47.9574 72.2924 50.2115 73.194 52.1161 72.5403V68.6072C50.7299 68.686 49.5803 68.7537 48.4308 68.81C46.7178 68.9002 45.016 69.0129 43.303 69.0467C42.5029 69.0692 41.883 68.7424 42.0408 67.4238C45.0611 66.0376 48.6449 67.2548 52.0033 66.1503C51.9244 65.1586 51.8568 64.3021 51.8005 63.5583C49.524 62.6905 47.1573 64.0203 44.892 62.3637C47.1122 60.707 49.7719 62.0143 51.9695 60.6168C51.8681 59.5349 51.7779 58.4418 51.6765 57.3599C48.1603 57.1457 44.8357 58.408 41.0828 56.5259C44.8019 54.9143 48.3744 55.861 51.53 54.5649V50.891C50.1438 50.891 48.983 50.9135 47.8222 50.891C46.6614 50.8684 45.3316 51.7024 44.2384 50.057C46.3458 47.9383 49.3211 49.5611 51.699 48.3215C51.6427 47.4424 51.5976 46.5859 51.53 45.4026C49.6141 45.4026 47.9124 45.5153 46.2219 45.3688C44.6892 45.2335 42.9424 46.1351 41.1167 44.3657C44.9146 43.8924 48.2166 43.4754 51.4962 43.0697V39.4634C49.9747 39.4634 48.6111 39.6324 47.3038 39.4183C46.019 39.2042 44.5314 40.3988 43.2241 38.8323C45.85 37.1643 48.9379 37.8405 51.5187 36.7924V33.1184C48.1603 32.9945 44.9033 33.7946 41.7252 32.7015C44.7906 31.0899 48.3857 32.0591 51.654 30.6053C51.4736 29.6924 51.2933 28.8697 51.1468 28.1484C48.7801 27.585 46.3458 28.7457 44.4525 27.1792V26.4242C46.6839 26.1988 48.9041 25.9846 51.1694 25.748C51.237 25.0267 51.3271 24.5872 51.2933 24.1477C51.2708 23.7081 51.1243 23.2911 51.0341 22.908C47.9236 22.1078 42.7959 22.1078 39.4825 22.953L39.5163 22.9418ZM105.152 29.1177C105.321 30.1319 105.445 30.7405 105.512 31.3491C106.887 44.9067 106.11 58.5207 106.335 72.1008C106.414 76.5073 106.031 80.9251 106.031 85.3316C106.031 88.273 106.313 91.2257 106.493 94.4264C107.496 94.246 108.229 94.1108 108.939 93.9868C108.939 90.5157 108.972 87.2813 108.939 84.0468C108.905 80.9927 108.758 77.9273 108.713 74.8732C108.668 71.5486 108.567 68.2127 108.691 64.8994C108.826 61.4846 109.243 58.0811 109.457 54.6664C109.66 51.3418 109.874 48.0172 109.851 44.6926C109.829 39.8353 109.603 34.978 109.502 30.1094C109.491 29.3543 109.682 28.588 109.75 28.0132C111.677 27.1454 111.44 29.2416 112.996 29.5234C113.503 29.3769 114.483 29.0951 115.385 28.8246C115.227 25.8156 112.274 22.5248 108.195 20.53C105.625 21.533 101.748 26.1424 101.275 28.757C102.503 28.8697 103.721 28.9824 105.152 29.1064V29.1177ZM40.5982 18.2535C42.7057 18.0169 44.7343 17.7238 46.7629 17.5886C48.9154 17.4421 51.0792 17.4308 53.243 17.3632C55.3167 17.2956 57.379 17.1942 59.4527 17.1604C61.5263 17.1265 63.5887 17.1604 65.6623 17.1604C67.736 17.1604 69.8097 17.1491 71.872 17.1829C74.0359 17.2167 76.1996 17.2392 78.3409 17.4083C80.2681 17.5548 82.3079 16.9124 84.3703 17.8591C83.4124 19.1889 82.3305 18.8283 81.4176 18.8283C75.8391 18.8283 70.2492 18.6705 64.6706 18.7381C57.8298 18.8283 51.0003 19.065 44.1595 19.3016C43.01 19.3354 41.883 19.6848 40.7448 19.8877C40.7786 20.1018 40.8124 20.3272 40.8349 20.5413C44.6892 20.5413 48.5435 20.5413 52.3978 20.5413C55.3618 20.5413 58.337 20.6427 61.3009 20.5413C68.3108 20.2821 75.3206 19.9102 82.3305 19.6172C84.6972 19.5157 85.1592 18.817 84.1787 16.0108C80.9668 15.7178 77.5859 15.2783 74.2049 15.1431C65.3919 14.7824 56.5676 15.9094 47.7658 15.0078C46.6952 14.8951 45.6133 14.7711 44.5427 14.7937C42.3901 14.85 41.3646 15.7629 40.6208 18.2761L40.5982 18.2535ZM77.8563 43.3965C81.0457 43.3853 82.7813 42.1794 83.9984 39.1365C85.3959 35.6429 82.5784 31.1913 78.803 31.1011C78.0029 31.0786 77.0111 31.5181 76.4363 32.0816C74.7346 33.7383 73.5513 35.7556 73.2244 38.1786C72.83 41.0637 74.9374 43.4191 77.8563 43.4078V43.3965ZM36.7327 66.6349C36.8341 66.6011 36.9243 66.5673 37.0257 66.5448C36.744 51.7137 36.4622 36.8713 36.1805 21.4204C35.0084 24.4745 34.5463 27.0891 34.659 29.76C34.9971 37.7616 35.4141 45.7519 35.8536 53.7535C36.0903 58.0473 36.4397 62.3411 36.744 66.6349H36.7327ZM37.3976 72.4614C37.6342 77.5216 36.6651 82.6381 38.1978 87.6532C37.9273 82.593 37.6681 77.5216 37.3976 72.4614Z" fill="#0080A3"></path>
              </svg>