<svg width="151" height="113" viewBox="0 0 151 113" fill="none" xmlns="http://www.w3.org/2000/svg"
  class="self-stretch flex-grow-0 flex-shrink-0 h-[113px] relative"
  preserveAspectRatio="xMidYMid meet">
  <path
    d="M131.919 11.868L131.831 11.8095C131.634 11.688 131.334 11.4914 131 11.5917C130.779 11.6513 130.356 11.8063 130.071 12.1297C129.054 13.2666 128.064 14.3862 127.106 15.5485C126.925 15.7615 126.757 15.9815 126.589 16.2015L126.376 16.4849C125.874 17.1544 125.393 17.7874 124.849 18.0675C124.849 18.0675 124.829 18.0727 124.815 18.0561C122.977 17.3903 121.144 16.6617 119.354 15.942L119.308 15.9236C117.013 15.0112 114.638 14.069 112.212 13.2433C111.894 13.1338 111.526 13.2227 111.295 13.48C110.169 14.7081 109.068 16.0321 108.09 17.1996C106.348 19.2921 104.552 21.4507 102.481 23.3135C102.465 23.3282 102.412 23.3629 102.356 23.3471C102.175 23.3241 102.017 23.2741 101.906 23.2425L100.805 22.9023C97.4212 21.8516 94.375 20.9053 91.314 19.9425L91.2339 19.9127C90.5693 19.7014 89.8246 19.4603 88.9895 19.8086C88.8144 19.8866 88.6243 20.1021 88.494 20.2708L88.0703 20.8473C87.7364 21.2968 87.4571 21.6803 87.104 22.135C86.6963 22.6558 86.279 23.1792 85.8617 23.7026L85.5157 24.1451C85.1151 24.6537 84.7145 25.1623 84.3139 25.671L83.8234 26.3065C82.8257 27.5924 81.8825 28.8123 80.5374 30.1096L80.2662 30.0594C79.9079 29.9916 79.506 29.9149 79.1349 29.7992C78.2133 29.5133 77.3083 29.2126 76.3963 28.9241L76.081 28.8241C75.1665 28.5261 74.2641 28.235 73.3521 27.9465C73.0271 27.8491 72.5547 27.7401 72.0828 27.8262C71.6397 27.9045 71.2552 28.3574 71.1471 28.7255C71.0486 29.0911 71.1435 29.6408 71.4644 29.9551C71.8096 30.2833 72.2543 30.4819 72.5696 30.5819C73.3265 30.83 74.0905 31.0659 74.8448 31.3044C75.5191 31.5131 76.1837 31.7245 76.8579 31.9332C77.6026 32.1743 78.2602 32.3978 79.0196 32.6555L79.9393 32.9727C80.3529 34.6797 80.9327 36.8556 81.5017 38.9522L81.5298 39.0577C82.2041 41.5882 82.8452 43.9941 82.9989 44.7643C82.2096 45.4393 78.4011 48.0168 76.0564 49.3164L75.7466 48.2697C75.4367 47.2231 75.1193 46.1478 74.7825 45.0776C74.5391 44.2802 74.2956 43.6369 74.0455 43.0468C73.8907 42.6981 73.609 42.4144 73.2815 42.3075C73.0072 42.2067 72.7154 42.234 72.464 42.3736C72.0399 42.6009 71.7182 43.0574 71.6575 43.5258C71.5967 43.9942 71.7566 44.3621 71.8966 44.6942C71.9516 44.8232 72.0092 44.9618 72.0449 45.096C72.1471 45.4795 72.2351 45.8872 72.343 46.3307L72.3762 46.4554C72.5179 47.0644 72.6621 47.6831 72.8205 48.2774L72.8818 48.5074C72.9175 48.6416 72.961 48.8046 73.0069 48.9771C71.2299 48.8087 69.4447 48.5705 67.853 48.3624C65.8235 48.0977 63.7286 47.8197 61.6547 47.6593C61.2727 47.6184 60.8961 47.7918 60.6374 48.0978C59.5133 49.4897 58.4596 50.4106 57.3488 51.3879L57.0151 51.6833C55.4467 53.0716 53.8006 54.5939 52.6146 55.7148L52.3168 55.9902C51.9927 56.283 51.697 57.0305 51.7964 57.5585C51.8359 57.7841 52.4012 59.7893 53.4084 63.2986L54.5236 67.2514C53.1788 68.7438 51.6542 69.9868 50.1796 71.1854L50.1366 71.2176C49.3063 71.8933 48.3566 72.6629 47.4369 73.5066C47.3965 73.5483 47.3535 73.5804 47.3227 73.6195C47.3023 73.5428 47.2793 73.4566 47.2588 73.3799L47.1349 72.9921C46.6901 71.6325 46.2646 70.2678 45.9355 69.2263C45.8998 69.0921 45.8666 68.9675 45.8283 68.8237L45.8181 68.7854C45.6917 68.2338 45.5571 67.6126 44.9504 67.2316C44.6653 67.0516 44.262 67.0472 43.8925 67.2084C43.5519 67.3618 43.3241 67.6287 43.2705 67.9308L43.2505 68.0492C43.206 68.3077 43.1403 68.6028 43.222 68.9096C43.5513 70.3002 43.9248 71.7406 44.2428 73.0111L44.5109 74.0176C44.5109 74.0176 44.5294 74.1256 44.5447 74.1831L44.5779 74.3077C44.6469 74.5665 44.7031 74.7774 44.7465 74.9403C43.5094 74.7086 42.2607 74.5109 41.046 74.3245L40.9178 74.3077C38.4326 73.9191 35.8602 73.5129 33.4163 72.8153C33.1279 72.7389 32.8271 72.8097 32.6128 73.0112C31.9743 73.5942 31.3357 74.1772 30.7042 74.7481L30.5066 74.9349C27.9903 77.2156 25.6145 79.3659 23.3001 81.7463C23.0741 81.9818 22.9788 82.3979 23.0566 82.7673C23.3852 84.2712 23.8478 85.6979 24.3053 87.1054C24.9776 89.1639 25.6096 91.11 25.8495 93.3261C25.3285 94.35 24.384 95.6421 23.5461 96.7925C22.3223 98.4681 21.7309 99.3055 21.6988 99.9203C21.7156 100.409 22.1549 100.897 22.7759 101.099C22.9797 101.168 23.1733 101.198 23.3759 101.184C23.8247 101.166 24.2154 100.968 24.4857 100.628C24.7085 100.342 24.9069 100.042 25.1406 99.6812C25.2729 99.4812 25.4027 99.2716 25.5375 99.0812C25.8547 98.6464 26.1571 98.1951 26.4712 97.7098L26.5065 97.6489C27.0877 96.7731 27.69 95.8609 28.4147 95.0595C29.9281 95.3606 31.4665 95.5625 32.9736 95.7625C35.2813 96.0654 37.664 96.3788 39.9265 97.0534C40.2078 97.142 40.5111 97.0808 40.7281 96.8888C42.023 95.7899 43.3021 94.5926 44.5432 93.4465L44.5837 93.4048C46.1701 91.9295 47.7944 90.4028 49.5533 88.994L61.2221 90.997C61.7618 91.0879 62.3724 90.9028 63.0775 90.4149C64.9587 89.1169 66.6696 87.5669 68.3112 86.0664L68.34 86.0587C69.424 85.0577 70.5534 84.0342 71.7251 83.0918C72.3719 82.5785 72.6788 81.6021 72.4405 80.8238C71.8394 78.8386 71.2044 76.6879 70.5172 74.2635C70.2828 73.4226 70.0676 72.5765 69.8684 71.8288L69.6819 71.1291L71.6388 69.2252C73.8241 67.0953 75.7854 65.1696 77.7301 63.2587C77.9855 63.005 78.3417 62.8713 78.7986 62.8578L78.8807 62.8562C79.3872 62.8225 80.3944 62.8491 81.3676 62.8642L83.0556 62.8923C83.4781 62.8914 83.9564 62.9064 84.4514 62.9066L85.2797 62.9197C87.7018 62.9554 88.7571 62.969 88.9667 62.9433C89.7721 62.8702 90.0595 62.053 90.2222 61.6188L90.2569 61.517C91.051 59.351 93.1234 53.7791 93.3791 53.2684L93.4613 53.1127C93.8038 52.4246 94.1861 51.6538 93.4829 50.9495C93.0051 50.4721 92.6362 50.1708 92.2403 49.846C91.6196 49.3351 90.7741 48.6383 88.9667 46.8857C88.592 46.5243 88.013 46.0537 87.4339 45.583C87.1187 45.3289 86.762 45.0346 86.5077 44.8155C85.8499 44.2427 85.4433 43.6845 85.1582 42.3436C84.5834 39.6835 83.5424 36.0086 82.7862 33.3255L82.6738 32.9037C82.5058 32.312 82.6811 32.0799 83.2999 31.307L83.3853 31.2018C84.0421 30.3776 84.6674 29.5516 85.3711 28.6326L85.4873 28.4882C86.1743 27.584 86.885 26.6528 87.6059 25.7599C88.1535 25.0679 88.7524 24.4134 89.3847 23.7293L89.4559 23.6485C89.6389 23.4451 89.8314 23.2391 90.0118 23.0261L90.2855 23.086C90.6342 23.1564 90.9733 23.2294 91.2764 23.3224L91.9603 23.5285C95.2026 24.5144 98.5469 25.5345 101.87 26.5911C102.85 26.9024 103.618 26.7263 104.144 26.0708C104.96 25.0702 105.789 24.1584 106.685 23.1875C107.572 22.2193 108.489 21.2119 109.404 20.0817C110.509 18.654 111.493 17.5876 112.781 16.3876C115.479 17.3044 118.166 18.4093 120.76 19.4774L120.818 19.5028C121.63 19.839 122.453 20.1821 123.271 20.5061L123.859 22.3615C124.469 24.3032 125.071 26.2161 125.671 28.1195C125.818 28.5936 125.991 29.0094 126.197 29.3956C126.383 29.7461 126.842 29.9204 127.189 29.868C127.56 29.8297 127.948 29.4682 128.006 29.1034C128.182 27.9464 128.083 26.7609 127.699 25.4772C127.347 24.3086 126.994 23.1399 126.659 21.9974L126.235 20.6014L126.225 20.563C126.23 20.5412 126.263 20.5117 126.287 20.4848C126.31 20.4578 126.334 20.4309 126.358 20.4039C126.737 19.9318 127.119 19.4693 127.504 19.0164L127.544 18.9747C127.895 18.5514 128.247 18.128 128.595 17.695C129.688 16.3423 130.77 14.9825 131.86 13.6202C132.052 13.3732 132.13 13.0851 132.185 12.8649L132.229 12.7196C132.309 12.4411 132.186 12.0942 131.944 11.923L131.919 11.868ZM76.8054 52.1658C78.2697 50.9288 83.374 47.6426 84.6371 47.0044C85.2271 47.4001 86.7547 48.8378 88.1278 50.1219L88.1964 50.1856C88.9797 50.9197 89.861 51.7507 90.5751 52.3802C89.8818 55.0018 88.1879 59.2081 87.7356 60.1416C86.375 60.2205 80.0126 60.1781 78.5311 60.0738C78.1063 58.5959 76.8396 52.5265 76.8213 52.2643C76.8162 52.2451 76.8156 52.2042 76.8054 52.1658ZM68.6519 68.5403C68.4664 68.7341 68.1295 68.979 67.7825 69.1855C67.5239 69.3374 67.5239 69.3374 66.9887 69.2247L66.9591 69.3457L66.9547 69.2133C66.7804 69.1781 66.5599 69.1245 66.3009 69.0813C64.187 68.6543 60.7487 67.9781 58.7777 67.5845L57.2983 67.2948C57.2541 67.2451 57.1453 67.0689 57.0687 66.7814C56.5093 64.6821 55.9602 62.6213 55.4073 60.469L54.5734 57.2623C56.2046 55.3742 58.1817 53.7011 60.1016 52.0845C60.7004 51.5841 61.3895 50.9978 62.0666 50.4044L63.1692 50.5183C64.1147 50.6231 65.0987 50.7175 66.0808 50.8433C66.9032 50.9504 67.7282 51.0672 68.5507 51.1743L68.6789 51.1912C69.8135 51.3478 71.1103 51.5326 72.3655 51.6772C72.5469 51.7003 72.7257 51.7137 72.9046 51.7272C73.0956 51.7476 73.4969 51.7833 73.7052 51.8299C73.7998 52.1846 73.9299 52.8276 74.0421 53.4035L74.0548 53.4514C74.2761 54.5527 74.5497 55.9276 74.8448 56.9576L74.9495 57.3506C75.8074 60.2221 75.9226 61.0027 75.9231 61.1978C75.4506 61.7463 73.2593 64.1243 72.0193 65.3522C71.5456 65.8189 71.0143 66.3011 70.54 66.7268C69.8989 67.3002 69.2341 67.9006 68.6372 68.5237L68.6519 68.5403ZM54.3718 71.2476C54.968 70.7377 55.5641 70.2277 56.1603 69.7178C57.8863 70.1979 59.6408 70.4752 61.342 70.7462C63.3894 71.0781 65.3278 71.3879 67.2082 72.0217L67.6343 73.4273C68.3441 75.7429 69.0213 77.9747 69.6985 80.2065C69.8377 80.6519 69.7432 80.9547 69.3543 81.2753C68.0215 82.4254 66.677 83.6096 65.409 84.7321L63.9644 86.0048L63.7905 86.1647C63.4517 86.4409 63.1655 86.6824 62.9127 86.8943C61.5266 88.0383 61.4952 88.0365 60.9343 87.9822C60.6368 87.9493 59.001 87.6915 57.1036 87.3808L56.5638 87.29C54.6254 86.9801 52.4377 86.6244 51.0537 86.422L50.7778 85.3867C50.5888 84.6774 50.41 84.0064 50.2313 83.3355C49.9707 82.3578 49.6935 81.3948 49.4234 80.4197L49.3697 80.2184C49.1175 79.3104 48.8678 78.4119 48.6155 77.5039L48.5951 77.4272C48.5031 77.0822 48.3754 76.6029 48.425 76.3635C48.4843 76.1215 48.766 75.9018 49.1144 75.623L49.2671 75.4996C50.9445 74.1333 52.6091 72.7191 54.2236 71.3492L54.3404 71.2458L54.3718 71.2476ZM47.9131 86.7853C47.7474 87.0149 47.2706 87.431 46.9799 87.6943C46.8869 87.7707 46.8034 87.8446 46.7463 87.901C44.9854 89.4953 43.1622 91.127 41.3839 92.6951L40.2256 93.7264C39.9683 93.9601 39.6265 94.0316 39.1669 93.9705C38.7387 93.9113 38.3053 93.8328 37.8791 93.7422C37.499 93.67 37.0221 93.5827 36.5695 93.5094C35.6356 93.3707 34.7041 93.2415 33.7195 93.1062L33.6445 93.0956C32.5292 92.9338 31.4067 92.7842 30.2984 92.6102L30.2234 92.5996C29.1926 92.4458 28.735 92.3534 28.5337 92.2946C28.351 91.6863 27.7882 89.8449 27.2809 88.1734L26.2256 84.6771C26.1342 84.373 26.0281 84.0522 25.9535 83.7333C25.7817 83.0502 25.9195 82.561 26.4245 82.0962C28.4397 80.2176 30.5235 78.2487 32.7999 76.0737C33.1952 75.7001 33.6474 75.5783 34.2961 75.6912C37.4017 76.2413 41.0349 76.8753 44.6976 77.5425L44.8597 77.5707C45.1405 77.6183 45.3777 77.6572 45.4904 77.7706C45.6569 77.9312 45.7789 78.3504 45.8612 78.6981C46.243 80.2082 46.6613 81.7392 47.0668 83.2224L47.6543 85.427C47.9173 86.4143 47.9382 86.6861 47.9272 86.761L47.9131 86.7853Z"
    fill="#0080A3"></path>
  <path
    d="M53.2919 83.0461C53.1812 83.1243 52.9698 83.3184 52.9589 83.4184C52.944 83.6084 52.7946 84.069 52.9343 84.1691C53.1557 84.3281 53.506 84.3717 53.7976 84.4068C55.5729 84.6429 57.3508 84.8539 59.1355 85.0551C59.4467 85.093 60.252 85.1846 60.3951 85.122C60.6206 85.0858 60.9759 84.6914 61.0272 84.532C61.0422 84.342 60.9991 84.1109 60.8688 83.976C60.7366 83.8335 60.495 83.599 60.2729 83.5776C58.1858 83.3362 56.0919 83.1046 54.0001 82.8806C53.778 82.8592 53.487 82.8968 53.2899 83.0386L53.2919 83.0461Z"
    fill="#0080A3"></path>
</svg>