<svg width="135" height="102" viewBox="0 0 135 102" fill="none" xmlns="http://www.w3.org/2000/svg"
  class="self-stretch flex-grow-0 flex-shrink-0 h-[101px] relative"
  preserveAspectRatio="xMidYMid meet">
  <path
    d="M39.691 21.9477C43.8445 21.7754 47.7481 21.6117 51.7034 21.4479C52.3152 19.8451 52.1946 18.3888 50.9279 17.1824C51.4104 15.8984 52.4273 16.2776 53.2545 16.2604C55.314 16.2259 57.3735 16.2518 59.3383 16.2518C60.4154 15.2608 61.3892 14.2956 62.4491 13.4253C64.9308 11.383 67.8176 11.0728 70.8508 11.6933C72.3244 11.9949 73.4705 12.8824 74.3063 14.1405C74.8406 14.9333 75.3835 15.7175 75.9781 16.5878C77.9859 16.4758 79.942 16.3724 82.1566 16.2518C83.2424 17.5874 81.8205 19.4487 82.846 21.3101C86.6375 21.4048 90.7135 21.5082 94.979 21.6117C95.0824 23.4988 95.2547 25.1275 95.2634 26.7647C95.2978 35.5888 95.3151 44.4041 95.3065 53.2282C95.3065 58.3985 95.4616 63.5688 95.1858 68.7219C94.91 73.8233 94.6171 78.8988 94.9273 84.0002C94.9531 84.4741 94.979 84.9567 95.0048 85.5599C95.9786 85.8184 96.9265 86.0683 97.9692 86.3354C97.478 87.9813 96.0217 87.2489 95.0048 87.9813C94.8928 88.2226 94.6774 88.7052 94.3499 89.4463C93.9105 88.8258 93.5916 88.3691 93.0746 87.6453C76.4089 88.2571 59.5623 87.4729 42.8536 86.4044C42.3021 87.1627 41.8884 87.7314 41.2249 88.6535C40.7337 87.8435 40.3201 87.3954 40.1822 86.887C39.9668 86.0942 39.8892 85.2583 39.8548 84.431C39.6738 79.8208 39.5532 75.202 39.355 70.5918C39.2085 67.2914 38.9672 63.991 38.5622 60.6907C38.5622 65.568 38.6053 70.454 38.5536 75.3313C38.5019 80.1828 39.3722 85.017 39.1913 89.8685C39.0275 89.903 38.8638 89.9288 38.6915 89.9633C38.5794 89.5755 38.3898 89.1877 38.364 88.7913C37.7953 81.9234 37.3041 75.0728 37.5023 68.1532C37.7608 59.4067 37.6143 50.6516 37.7177 41.8965C37.7436 39.5096 38.0366 37.1226 38.5708 34.7443V52.4181H38.588C38.95 42.3446 39.3119 32.2625 39.6824 21.9477H39.691ZM92.9022 85.5427C91.7562 79.795 92.3852 74.168 92.7127 68.5323C92.9712 64.0686 93.0487 59.5877 93.1091 55.1067C93.178 49.9364 93.1608 44.7747 93.1608 39.6044C93.1608 34.5719 93.1349 29.5395 93.1091 24.5157C93.1091 24.1882 93.0143 23.8608 92.9712 23.5764H82.4496C82.5961 24.7569 82.7081 25.6704 82.8546 26.8509C82.1911 26.9716 81.562 27.1698 80.9243 27.1784C78.9941 27.2042 77.0638 27.1956 75.1336 27.1439C68.731 26.9716 62.3198 26.7561 55.9172 26.601C54.9779 26.5752 54.0387 26.782 52.7806 26.9112C52.2894 26.6096 51.5311 26.1443 50.6091 25.5756C51.2812 24.9637 51.7034 24.5846 52.2205 24.1106C51.9016 23.8349 51.7121 23.5247 51.5225 23.5333C48.3858 23.6109 45.2578 23.7229 42.2331 23.8263C40.5183 44.1112 41.1387 64.0945 42.2848 84.1725C59.2262 84.9395 75.8833 86.6801 92.8936 85.5427H92.9022ZM53.9094 24.8173C63.0092 24.8173 71.7126 25.5497 80.5452 25.2309V18.0958C78.5718 18.2251 76.7536 18.3457 74.72 18.475C74.1426 17.5443 73.4618 16.45 72.7811 15.3556C71.9883 14.0888 70.825 13.5201 69.3515 13.365C66.1717 13.0203 63.6555 14.2956 61.7338 16.6568C60.7429 17.8718 59.6657 18.363 58.1922 18.3371C56.8393 18.3113 55.4778 18.3371 54.0301 18.3371C53.9698 19.2247 53.9094 19.8279 53.9008 20.4311C53.8836 21.7926 53.9008 23.1627 53.9008 24.8173H53.9094Z"
    fill="white"></path>
  <path
    d="M47.0503 72.703C47.3864 72.4703 47.7224 72.0481 48.0585 72.0394C54.2973 71.9533 60.5448 71.9102 66.7837 71.8929C67.2232 71.8929 67.6713 72.117 68.5157 72.3497C67.8091 72.6426 67.4731 72.9012 67.137 72.9098C60.8895 73.0994 54.6421 73.2631 48.4032 73.4182C48.024 73.4268 47.6362 73.2717 47.2485 73.1941C47.1882 73.0304 47.1192 72.8581 47.0589 72.6944L47.0503 72.703Z"
    fill="white"></path>
  <path
    d="M89.7396 84.5517C89.6362 83.8623 89.4208 83.1729 89.438 82.4922C89.55 79.1229 89.6017 75.7449 89.9033 72.3928C90.3169 67.7395 90.9115 63.0949 91.4544 58.4502C91.6268 56.9594 91.9111 55.4773 92.3937 54.0123C91.644 64.1548 90.9029 74.2972 90.1532 84.4397C90.0153 84.4828 89.8775 84.5172 89.731 84.5603L89.7396 84.5517Z"
    fill="white"></path>
  <path
    d="M74.901 71.2122C76.2367 72.4273 77.5293 73.6164 78.9942 74.9607C81.2088 72.2463 83.5441 69.687 86.6204 67.886C86.0775 69.1872 85.0865 70.1782 84.2248 71.2467C83.3631 72.3152 82.5186 73.4096 81.5707 74.392C80.6056 75.3916 80.2695 76.9427 78.9597 77.5459C77.3655 75.7707 75.8748 74.1162 74.384 72.4445C74.3064 72.3497 74.272 72.186 74.272 72.0567C74.272 71.9274 74.3409 71.7982 74.3926 71.6862C74.4185 71.6258 74.4874 71.5914 74.8924 71.2208L74.901 71.2122Z"
    fill="white"></path>
  <path
    d="M87.7403 38.0187C86.1117 40.3282 79.3903 46.1534 77.753 46.86C76.5638 45.3347 75.3746 43.8009 74.1079 42.1636C74.7456 42.0372 76.087 42.9104 78.1322 44.7832C81.2602 42.4566 84.1211 39.6733 87.7489 38.0101L87.7403 38.0187Z"
    fill="white"></path>
  <path
    d="M65.1805 42.8445C64.336 42.9134 63.5001 43.0513 62.6556 43.0513C60.0446 43.0513 57.4336 42.9996 54.8226 42.9565C52.8234 42.922 50.8328 42.8875 48.8423 42.8186C48.2477 42.8014 47.5669 42.8531 47.2739 41.9569C47.5152 41.7932 47.7565 41.5002 48.0409 41.4571C51.91 40.8367 62.6125 41.5347 65.1805 42.8358V42.8445Z"
    fill="white"></path>
  <path
    d="M86.4997 52.9868C86.1378 53.3832 85.7759 53.7882 85.4053 54.176C82.9667 56.7353 80.5194 59.286 78.0893 61.8367C76.9777 61.0698 74.315 57.2782 74.0737 56.0373C76.1505 56.3906 76.5555 58.4243 77.9084 59.6393C80.5194 57.08 82.7857 54.1329 86.1809 52.6077C86.2843 52.7369 86.3877 52.8662 86.4997 52.9955V52.9868Z"
    fill="white"></path>
  <path
    d="M63.7845 57.3903C63.4053 57.4506 63.0262 57.5454 62.647 57.5627C58.8038 57.7264 54.9605 57.8815 51.1086 58.028C50.2814 58.0625 49.4541 58.0711 48.6355 58.028C47.9547 57.9935 47.2998 57.8384 46.981 57.1404C47.1361 56.9508 47.2136 56.7785 47.2912 56.7699C51.2034 56.5803 55.107 56.3649 59.0192 56.2615C60.6478 56.2184 62.311 56.227 63.7845 57.3903Z"
    fill="white"></path>
</svg>