<svg width="130" height="98" viewBox="0 0 130 98" fill="none" xmlns="http://www.w3.org/2000/svg">
<path d="M91.6747 63.5287C93.0079 62.0739 94.341 60.619 95.768 59.0603C95.7962 60.4112 95.1296 61.3937 94.4255 62.3478C92.0127 65.626 89.6281 68.9136 87.1683 72.1539C86.3515 73.2214 85.3564 74.1567 84.4363 75.1298C82.3146 77.3687 80.2304 79.6455 78.0617 81.8278C74.7945 85.1059 72.1001 88.7903 69.922 92.8809C68.8799 94.8459 67.2745 95.271 65.0119 95.0537C62.5897 94.8175 61.2002 93.6083 59.961 91.8134C55.9709 86.0506 52.0278 80.2595 47.9533 74.5724C44.8833 70.2834 41.6162 66.1456 38.4805 61.9038C37.5416 60.6379 36.7155 59.2681 35.9175 57.9077C35.5419 57.2653 35.2603 56.5473 35.0725 55.8199C34.5374 53.7415 35.3354 52.23 37.4196 51.6443C38.4054 51.3703 39.4944 51.3325 40.5177 51.3892C44.1041 51.5687 47.681 51.8238 51.5021 52.0694C51.5772 50.1894 51.6898 48.4039 51.7086 46.6184C51.7931 38.9946 51.7556 31.3613 51.9715 23.747C52.0842 19.8359 52.4503 15.9059 53.0605 12.042C53.9337 6.52492 57.7172 3.52074 63.3032 3.53964C64.6551 3.53964 65.9977 3.70969 67.3496 3.71913C71.6964 3.75692 77.1604 8.51826 77.6767 12.486C77.9959 14.9517 78.6156 17.3985 78.7188 19.8642C79.0474 27.7903 78.7752 35.707 77.9396 43.6048C77.7237 45.6265 77.8363 47.6765 77.8645 49.7171C77.8645 50.2933 78.1274 50.8602 78.3339 51.7293C79.9675 51.7293 81.526 51.7293 83.0938 51.7293C85.5723 51.7293 88.0508 51.701 90.5294 51.6915C91.7686 51.6915 92.8577 51.9844 93.7589 52.9763C94.2377 53.4959 94.9982 53.7604 95.646 54.1194C96.8665 54.7902 97.6269 56.1505 97.3734 57.5015C97.2983 57.8983 96.8571 58.2195 96.3407 58.8808C96.0591 57.9927 95.9276 57.5109 95.7493 57.048C95.5897 56.6135 95.3831 56.1978 94.9888 55.7821C95.0451 58.9374 92.8201 61.0064 91.7029 63.5571C91.5433 63.7082 91.3931 63.8594 91.2335 64.0105C90.9424 64.464 90.642 64.9174 90.351 65.3709C90.1914 65.5221 90.0412 65.6732 89.8816 65.8244C89.5905 66.2873 89.2901 66.7407 88.9991 67.2036C87.281 69.1309 85.5348 71.0486 83.8543 73.0136C83.3848 73.5615 83.1126 74.2701 82.7558 74.903C82.5774 75.0731 82.4085 75.2337 82.2301 75.4037C82.0705 75.5454 81.9109 75.6871 81.7513 75.8288L81.648 75.895L81.7137 75.7911C81.8733 75.6494 82.0329 75.5076 82.1925 75.3565C82.3615 75.1959 82.5399 75.0258 82.7089 74.8652C85.4503 72.8436 87.3561 70.1323 88.9615 67.1659C89.2619 66.703 89.553 66.2495 89.8534 65.7866C90.013 65.6354 90.1632 65.4843 90.3228 65.3331C90.6139 64.8797 90.9143 64.4262 91.2053 63.9727C91.3649 63.8216 91.5151 63.6704 91.6747 63.5193L91.6747 63.5287ZM51.1453 73.9772C50.9669 73.8355 50.7792 73.6844 50.6008 73.5426C50.4881 73.2403 50.3661 72.9475 50.2534 72.6452C50.0751 72.4846 49.9061 72.324 49.7277 72.1634C49.5681 72.0217 49.4085 71.88 49.2489 71.7383C49.1268 71.4359 49.0142 71.1336 48.8921 70.8408C48.7137 70.6896 48.5448 70.5479 48.3664 70.3968C48.0566 68.7624 47.0051 67.6665 45.7095 66.7502C45.5593 66.599 45.3997 66.4479 45.2495 66.3062C44.949 65.8527 44.658 65.3898 44.3576 64.9363C43.9069 64.3317 43.4563 63.7271 43.0056 63.1225C42.8554 62.9714 42.6958 62.8202 42.5456 62.669C42.3766 62.5273 42.1982 62.3856 42.0293 62.2534C41.9166 61.9416 41.8039 61.6299 41.6913 61.3181C41.5129 61.1575 41.3439 60.9969 41.1655 60.8363C41.0059 60.6946 40.8557 60.5434 40.6961 60.4017C40.5741 60.1089 40.4614 59.8066 40.3394 59.5137L39.8136 59.0225C39.701 58.6918 39.5789 58.3612 39.4662 58.0305C39.2973 57.7471 39.1377 57.4731 38.9687 57.1897C38.8842 56.1883 38.8091 55.1869 38.7246 54.1855C38.1049 54.3556 37.6167 54.809 37.7012 55.0169C38.0298 55.7821 38.5462 56.4623 38.9874 57.1708C39.147 57.4448 39.3066 57.7282 39.4662 58.0022C39.5883 58.3328 39.7103 58.6635 39.8418 58.9941C40.0202 59.1547 40.1891 59.3248 40.3675 59.4854C40.4896 59.7782 40.6116 60.0805 40.7243 60.3734C40.8745 60.5151 41.0341 60.6663 41.1843 60.808C41.3627 60.9686 41.5411 61.1292 41.7194 61.2898C41.8321 61.6015 41.9448 61.9038 42.0668 62.2156C42.2358 62.3573 42.4048 62.499 42.5738 62.6407C42.724 62.7919 42.8742 62.9525 43.0244 63.1036C43.4751 63.7082 43.9351 64.3034 44.3857 64.908C44.6862 65.3615 44.9772 65.8149 45.2776 66.2778C45.4278 66.429 45.578 66.5896 45.7283 66.7407C46.6201 67.95 47.512 69.1592 48.3945 70.3779C48.5729 70.529 48.7513 70.6707 48.9297 70.8219C49.0517 71.1242 49.1644 71.4265 49.2864 71.7288C49.446 71.8705 49.6056 72.0122 49.7652 72.1539C49.9436 72.3145 50.1126 72.4751 50.291 72.6452C50.4036 72.9475 50.5257 73.2403 50.6477 73.5426C50.8073 73.6938 50.9669 73.845 51.1265 73.9961L51.2204 74.0811L51.1547 74.0056L51.1453 73.9772ZM53.8304 78.0678L54.7504 79.4282C56.1587 81.9884 57.52 84.5769 58.994 87.0992C59.961 88.7525 61.0876 90.3113 62.1391 91.9078C62.2893 91.8133 62.4301 91.7189 62.5803 91.615C60.4867 87.2315 57.6608 83.3015 54.7223 79.4471C54.4312 78.9747 54.1308 78.5118 53.8398 78.0395C53.8398 78.0111 53.821 77.9733 53.8116 77.945C53.8116 77.9828 53.8304 78.0206 53.8398 78.0584L53.8304 78.0678ZM68.7297 91.7189L68.7484 91.6622L68.7203 91.7567C67.8941 91.9362 67.481 92.4841 67.1994 93.1454C67.3214 93.2399 67.4341 93.3343 67.5561 93.4288C67.9504 92.862 68.3353 92.2857 68.7297 91.7189ZM58.2992 7.30903L58.4213 7.25235L58.3368 7.34682C56.553 8.31987 55.6517 9.94477 55.295 11.8531C54.8913 13.9976 54.5157 16.1704 54.3937 18.3432C54.1965 21.952 54.1965 25.5703 54.1402 29.1791C54.0275 36.34 53.9243 43.4914 53.8304 50.6523C53.8304 51.0019 53.9994 51.342 54.0933 51.6915C54.5815 47.6009 54.8631 43.567 54.9945 39.5331C55.2386 32.0793 55.3888 24.6256 55.586 17.1718C55.6705 14.0543 56.1493 11.0312 57.9331 8.35766C58.1302 8.0648 58.1866 7.66802 58.3086 7.31848L58.2992 7.30903ZM40.5084 55.5837C40.5647 57.0952 41.4378 58.1533 42.2452 59.2303C45.2682 63.2642 48.4227 67.2036 51.3049 71.3509C55.295 77.1042 59.0972 82.9992 62.9464 88.847C63.5942 89.8295 64.0637 90.9348 64.6645 92.0779C65.0964 91.7756 65.4437 91.615 65.6878 91.3599C68.7766 88.0628 72.0907 84.9453 74.879 81.4121C80.3712 74.4307 85.5442 67.1848 90.9143 60.0994C92.0784 58.569 92.407 57.048 91.7404 54.9319C90.689 54.8091 89.5342 54.5823 88.3794 54.554C84.2486 54.4501 80.1365 54.3367 76.0807 53.3259C73.4802 52.6835 73.283 52.6173 73.3487 49.8493C73.5083 42.4522 73.8369 35.0552 73.912 27.6486C73.9684 22.141 73.7806 16.6239 73.5834 11.1162C73.5083 9.08509 72.485 7.64913 70.4102 6.93115C68.2227 6.17538 66.007 5.92975 63.7632 6.12814C62.7024 6.22261 61.2753 6.57216 60.7308 7.32792C59.4258 9.12287 58.0739 11.1257 57.6139 13.2418C56.9285 16.3782 56.8816 19.6753 56.7502 22.9156C56.3746 32.2683 56.1118 41.6304 55.7362 50.9924C55.6987 51.9938 55.2386 52.9763 55.0415 53.7226C53.0042 54.6957 51.2298 54.6012 49.4179 54.3934C48.0096 54.2328 46.5638 54.11 45.1556 54.2233C43.5596 54.3556 41.8415 54.3273 40.5271 55.5743L40.5084 55.5837ZM75.7803 50.6145C75.9681 50.624 76.1652 50.6334 76.353 50.6523C76.353 49.991 76.3154 49.3297 76.353 48.6779C76.5407 45.8249 76.7567 42.9718 76.9444 40.1283C77.0102 39.1552 77.2355 38.1349 77.0665 37.2091C76.3154 33.2319 76.8318 29.2452 76.7755 25.2585C76.7285 22.1315 76.522 19.014 76.3812 15.8964C76.353 15.8964 76.3248 15.9153 76.2873 15.9153C76.1183 27.488 75.9493 39.0513 75.7709 50.624L75.7803 50.6145Z" fill="#0080A3"/>
</svg>
