<svg width="130" height="98" viewBox="0 0 130 98" fill="none" xmlns="http://www.w3.org/2000/svg">
<path d="M44.3163 61.0275C43.2179 59.8288 42.1194 58.6301 40.9437 57.3458C40.9205 58.4589 41.4697 59.2684 42.0498 60.0545C44.0378 62.7555 46.0026 65.4643 48.0293 68.1342C48.7023 69.0137 49.5222 69.7843 50.2803 70.5861C52.0285 72.4308 53.7458 74.3067 55.5326 76.1048C58.2246 78.8058 60.4446 81.8415 62.2392 85.2119C63.0979 86.8309 64.4206 87.1812 66.2849 87.0022C68.2806 86.8076 69.4254 85.8113 70.4465 84.3323C73.7341 79.5842 76.9829 74.8127 80.3401 70.1268C82.8696 66.593 85.5615 63.1836 88.1451 59.6887C88.9187 58.6457 89.5994 57.517 90.2569 56.3961C90.5663 55.8668 90.7984 55.2753 90.9531 54.6759C91.394 52.9635 90.7365 51.7181 89.0192 51.2355C88.207 51.0097 87.3097 50.9786 86.4666 51.0253C83.5116 51.1732 80.5644 51.3834 77.4161 51.5857C77.3542 50.0367 77.2614 48.5656 77.2459 47.0945C77.1763 40.8129 77.2073 34.5236 77.0293 28.2498C76.9365 25.0273 76.6348 21.7892 76.132 18.6056C75.4127 14.0599 72.2953 11.5846 67.6927 11.6002C66.5788 11.6002 65.4727 11.7403 64.3588 11.7481C60.7773 11.7792 56.2752 15.7023 55.8498 18.9715C55.5868 21.003 55.0763 23.0191 54.9912 25.0506C54.7204 31.5813 54.9448 38.1041 55.6332 44.6114C55.8111 46.2772 55.7183 47.9662 55.6951 49.6476C55.6951 50.1224 55.4785 50.5894 55.3083 51.3055C53.9624 51.3055 52.6783 51.3055 51.3865 51.3055C49.3443 51.3055 47.3022 51.2822 45.26 51.2744C44.2389 51.2744 43.3416 51.5157 42.599 52.333C42.2045 52.7611 41.578 52.979 41.0442 53.2748C40.0386 53.8275 39.4121 54.9483 39.6209 56.0614C39.6828 56.3884 40.0464 56.653 40.4718 57.1979C40.7039 56.4662 40.8122 56.0692 40.9591 55.6878C41.0906 55.3298 41.2608 54.9873 41.5857 54.6448C41.5393 57.2446 43.3726 58.9492 44.2931 61.0509C44.4246 61.1754 44.5484 61.3 44.6799 61.4245C44.9197 61.7981 45.1672 62.1717 45.407 62.5454C45.5385 62.6699 45.6623 62.7944 45.7938 62.919C46.0336 63.3004 46.2811 63.674 46.5209 64.0554C47.9365 65.6433 49.3753 67.2235 50.7599 68.8425C51.1467 69.294 51.371 69.8777 51.6649 70.3993C51.8119 70.5394 51.9512 70.6717 52.0981 70.8118C52.2296 70.9286 52.3611 71.0453 52.4926 71.1621L52.5777 71.2166L52.5236 71.1309C52.3921 71.0142 52.2606 70.8974 52.1291 70.7729C51.9898 70.6405 51.8429 70.5004 51.7036 70.3681C49.4449 68.7024 47.8746 66.4684 46.5518 64.0243C46.3043 63.6429 46.0645 63.2693 45.817 62.8879C45.6855 62.7633 45.5617 62.6388 45.4302 62.5142C45.1904 62.1406 44.9429 61.767 44.7031 61.3934C44.5716 61.2688 44.4478 61.1443 44.3163 61.0197L44.3163 61.0275ZM77.7101 69.6364C77.857 69.5197 78.0117 69.3951 78.1587 69.2784C78.2515 69.0293 78.3521 68.788 78.4449 68.5389C78.5919 68.4066 78.7311 68.2743 78.8781 68.1419C79.0096 68.0252 79.1411 67.9084 79.2726 67.7917C79.3732 67.5426 79.466 67.2935 79.5666 67.0522C79.7135 66.9277 79.8528 66.8109 79.9997 66.6864C80.255 65.3398 81.1214 64.4368 82.1889 63.6818C82.3126 63.5573 82.4441 63.4327 82.5679 63.316C82.8154 62.9423 83.0552 62.5609 83.3028 62.1873C83.6741 61.6891 84.0454 61.191 84.4167 60.6928C84.5404 60.5683 84.6719 60.4437 84.7957 60.3192C84.9349 60.2024 85.0819 60.0857 85.2212 59.9767C85.314 59.7198 85.4068 59.463 85.4996 59.2061C85.6466 59.0738 85.7858 58.9415 85.9328 58.8091C86.0643 58.6924 86.1881 58.5678 86.3196 58.4511C86.4201 58.2098 86.513 57.9607 86.6135 57.7194L87.0467 57.3146C87.1395 57.0422 87.2401 56.7698 87.3329 56.4973C87.4722 56.2638 87.6037 56.0381 87.7429 55.8046C87.8125 54.9795 87.8744 54.1544 87.944 53.3293C88.4545 53.4694 88.8568 53.843 88.7872 54.0143C88.5164 54.6448 88.091 55.2052 87.7274 55.789C87.5959 56.0147 87.4644 56.2483 87.3329 56.474C87.2324 56.7464 87.1318 57.0188 87.0235 57.2913C86.8765 57.4236 86.7373 57.5637 86.5903 57.696C86.4898 57.9373 86.3892 58.1864 86.2964 58.4277C86.1726 58.5445 86.0411 58.669 85.9173 58.7858C85.7704 58.9181 85.6234 59.0504 85.4764 59.1827C85.3836 59.4396 85.2908 59.6887 85.1902 59.9456C85.051 60.0623 84.9117 60.1791 84.7725 60.2958C84.6487 60.4204 84.525 60.5527 84.4012 60.6773C84.0299 61.1754 83.6509 61.6658 83.2796 62.164C83.032 62.5376 82.7922 62.9112 82.5447 63.2926C82.4209 63.4172 82.2972 63.5495 82.1734 63.674C81.4385 64.6704 80.7037 65.6667 79.9765 66.6708C79.8296 66.7953 79.6826 66.9121 79.5356 67.0366C79.4351 67.2857 79.3422 67.5348 79.2417 67.7839C79.1102 67.9006 78.9787 68.0174 78.8472 68.1342C78.7002 68.2665 78.561 68.3988 78.414 68.5389C78.3212 68.788 78.2206 69.0293 78.12 69.2784C77.9885 69.4029 77.857 69.5275 77.7255 69.652L77.6482 69.7221L77.7023 69.6598L77.7101 69.6364ZM75.4977 73.0068L74.7397 74.1277C73.5794 76.2371 72.4577 78.3699 71.2433 80.4482C70.4465 81.8104 69.5183 83.0947 68.6519 84.4102C68.5281 84.3323 68.4121 84.2545 68.2883 84.1689C70.0133 80.5572 72.3417 77.3191 74.7629 74.1433C75.0027 73.7541 75.2502 73.3727 75.49 72.9835C75.49 72.9601 75.5055 72.929 75.5132 72.9056C75.5132 72.9368 75.4977 72.9679 75.49 72.9991L75.4977 73.0068ZM63.2216 84.2545L63.2062 84.2078L63.2294 84.2856C63.9101 84.4335 64.2505 84.885 64.4825 85.4298C64.382 85.5077 64.2891 85.5855 64.1886 85.6634C63.8637 85.1963 63.5465 84.7215 63.2216 84.2545ZM71.8157 14.7059L71.7151 14.6592L71.7847 14.7371C73.2545 15.5388 73.9971 16.8776 74.291 18.4499C74.6236 20.2169 74.9331 22.0072 75.0336 23.7974C75.1961 26.7709 75.1961 29.7521 75.2425 32.7255C75.3353 38.6256 75.4204 44.518 75.4977 50.4182C75.4977 50.7062 75.3585 50.9864 75.2811 51.2744C74.8789 47.904 74.6468 44.5803 74.5385 41.2566C74.3374 35.1151 74.2137 28.9737 74.0512 22.8322C73.9816 20.2636 73.5871 17.7728 72.1174 15.5699C71.9549 15.3286 71.9085 15.0017 71.8079 14.7137L71.8157 14.7059ZM86.4743 54.4813C86.4279 55.7267 85.7085 56.5985 85.0432 57.4859C82.5524 60.8096 79.9533 64.0554 77.5786 67.4725C74.291 72.2129 71.1582 77.07 67.9867 81.8882C67.4529 82.6977 67.0661 83.6084 66.5711 84.5503C66.2152 84.3012 65.929 84.1689 65.7279 83.9587C63.183 81.2421 60.4524 78.6735 58.155 75.7623C53.6297 70.0101 49.3675 64.0399 44.9429 58.202C43.9837 56.941 43.7129 55.6878 44.2622 53.9442C45.1285 53.843 46.08 53.6562 47.0314 53.6329C50.435 53.5473 53.8231 53.4538 57.1648 52.621C59.3075 52.0917 59.47 52.0372 59.4158 49.7565C59.2843 43.6618 59.0136 37.567 58.9517 31.4645C58.9053 26.9265 59.06 22.3808 59.2224 17.8428C59.2843 16.1693 60.1275 14.9861 61.837 14.3946C63.6394 13.7719 65.4649 13.5695 67.3137 13.7329C68.1878 13.8108 69.3636 14.0988 69.8122 14.7215C70.8874 16.2004 72.0013 17.8506 72.3804 19.5942C72.9451 22.1784 72.9837 24.895 73.092 27.5648C73.4014 35.2708 73.618 42.9846 73.9274 50.6984C73.9584 51.5235 74.3374 52.333 74.4999 52.9479C76.1785 53.7496 77.6404 53.6718 79.1334 53.5006C80.2937 53.3682 81.4849 53.267 82.6453 53.3604C83.9603 53.4694 85.3759 53.4461 86.4588 54.4735L86.4743 54.4813ZM57.4124 50.387C57.2576 50.3948 57.0952 50.4026 56.9405 50.4182C56.9405 49.8733 56.9714 49.3284 56.9405 48.7913C56.7858 46.4406 56.6079 44.0899 56.4532 41.747C56.399 40.9452 56.2134 40.1046 56.3526 39.3418C56.9714 36.0648 56.546 32.78 56.5924 29.4952C56.6311 26.9188 56.8013 24.3501 56.9173 21.7814C56.9405 21.7814 56.9637 21.797 56.9946 21.797C57.1339 31.3322 57.2731 40.8596 57.4201 50.3948L57.4124 50.387Z" fill="#0080A3"/>
</svg>
