<svg width="135" height="102" viewBox="0 0 135 102" fill="none" xmlns="http://www.w3.org/2000/svg"
  class="self-stretch flex-grow-0 flex-shrink-0 h-[101px] relative"
  preserveAspectRatio="xMidYMid meet">
  <path
    d="M76.406 54.2716C78.3394 56.3242 80.2302 58.3684 82.1807 60.3614C82.6321 60.8213 83.2453 61.2387 83.8586 61.426C85.3491 61.8689 86.5159 62.7292 87.5976 63.8109C92.1628 68.3931 96.8047 72.8902 101.31 77.5406C102.469 78.733 103.261 80.3001 104.112 81.7651C104.402 82.2591 104.445 82.949 104.428 83.5367C104.385 84.5502 104.198 85.5552 104.087 86.5603C103.823 88.9792 101.617 90.4526 99.2406 89.8138C96.958 89.2091 95.2375 87.7442 93.8407 85.9811C90.1017 81.2881 86.039 76.9018 81.8059 72.6517C80.0854 70.9227 78.4842 69.1597 77.5047 66.7919C76.8915 65.2928 75.4265 64.143 74.3278 62.8484C73.3143 61.6645 72.2837 60.4977 71.2276 59.2882C68.8768 60.2336 66.6113 61.3323 64.235 62.0563C58.9799 63.649 53.7247 64.5689 48.2823 62.4396C44.1344 60.8213 40.5231 58.428 37.2269 55.6003C34.544 53.2921 32.3551 50.4474 31.6311 46.785C31.5545 46.3847 31.4353 45.9929 31.2905 45.6096C28.4968 38.0208 29.9022 31.0963 34.3822 24.5381C36.3497 21.6507 38.3086 18.7464 41.0937 16.6341C45.3438 13.4231 49.9857 11.2087 55.5644 11.4216C58.4518 11.5323 61.2369 11.9582 64.005 12.7162C68.238 13.866 71.6279 16.2764 74.413 19.564C75.9035 21.3271 77.36 23.1413 78.646 25.0576C81.6867 29.5717 82.1211 34.6991 81.9166 39.9542C81.7719 43.6336 80.6476 47.049 79.0634 50.3111C78.3905 51.6994 77.3429 52.9003 76.4145 54.2716H76.406ZM76.6956 56.963C76.5508 56.8097 76.406 56.6649 76.2697 56.5116C76.0824 56.1624 75.895 55.8217 75.7076 55.4725C75.5543 55.6514 75.4095 55.8217 75.2562 56.0006C75.6054 56.1624 75.9546 56.3242 76.2953 56.4861C76.4401 56.6309 76.5849 56.7842 76.7382 56.929C76.866 57.0738 77.0022 57.2185 77.13 57.3633C77.2577 57.5081 77.394 57.6444 77.5218 57.7892C77.5218 57.8318 77.5303 57.8744 77.5388 57.9169C77.5218 57.8829 77.5133 57.8488 77.4962 57.8147C77.3599 57.6785 77.2237 57.5337 77.0874 57.3974C76.9597 57.2526 76.8319 57.1078 76.6956 56.963ZM102.418 87.6334L100.416 88.383C101.242 88.4852 102.068 88.5788 102.418 87.6249C102.477 87.5653 102.545 87.5057 102.605 87.4461C102.562 87.4461 102.494 87.4375 102.477 87.4631C102.443 87.5057 102.443 87.5738 102.426 87.6249L102.418 87.6334ZM101.617 80.6579C101.617 80.6579 101.685 80.709 101.719 80.7345C101.677 80.7175 101.625 80.709 101.583 80.6919C101.029 79.8743 100.578 78.9374 99.8964 78.2475C95.6123 73.9037 91.277 69.6025 86.9418 65.3014C86.2689 64.637 85.562 63.9897 84.804 63.4361C84.4633 63.1891 83.9437 63.1721 83.4157 63.0273C85.2128 64.6115 86.9162 65.9572 88.4323 67.4818C91.3963 70.4628 94.224 73.5801 97.1795 76.5781C98.5848 78.009 100.143 79.3036 101.625 80.6579H101.617ZM55.4111 13.2443C50.5052 12.6225 46.664 14.5815 43.206 16.9493C39.4414 19.5215 36.239 22.8602 34.2544 27.1188C32.0485 31.8714 31.1201 36.8369 32.1422 42.0324C32.4403 43.5484 33.1983 44.9793 33.5816 46.4869C34.3992 49.749 36.3837 52.2871 38.8197 54.3568C41.9199 56.9971 45.3438 59.1605 49.1936 60.7617C53.8951 62.7206 58.4092 61.7923 63 60.8298C64.1072 60.5999 65.0952 59.8504 66.1854 59.4756C70.3758 58.0021 73.655 55.4299 76.0824 51.7079C78.7142 47.6537 80.111 43.2248 80.128 38.4211C80.1365 34.6054 79.8299 30.8323 78.2117 27.238C75.7246 21.6933 71.0828 18.4568 66.1513 15.4843C65.6914 15.2118 65.1463 15.0755 64.6268 14.9136C61.4924 13.9427 58.3496 13.0654 55.4111 13.2613V13.2443ZM81.6611 64.126C79.2934 65.872 79.1997 66.4256 80.9116 68.606C81.6271 69.5089 82.4106 70.3606 83.1942 71.2038C86.2434 74.4829 89.2329 77.8302 92.4013 80.99C94.1644 82.7531 96.1744 84.2862 98.1845 85.7597C98.8233 86.2281 99.8453 86.3644 100.689 86.3388C102.205 86.2962 103.048 84.7206 102.307 83.4089C101.949 82.7701 101.43 82.1995 100.918 81.6629C100.075 80.7856 99.1469 79.9765 98.2952 79.0992C94.6924 75.4027 91.1493 71.6467 87.4869 68.0098C85.8431 66.3745 84.327 64.4241 81.6526 64.1175L81.6611 64.126ZM72.1815 57.7722C74.2171 60.1229 76.1079 62.3033 78.0498 64.5433C78.8504 63.8109 79.5489 63.1806 80.3325 62.4651C78.5013 60.0292 76.4571 57.9255 73.8594 56.1028C73.2802 56.6734 72.7692 57.1845 72.173 57.7807L72.1815 57.7722Z"
    fill="white"></path>
  <path
    d="M54.8235 58.8624C47.6265 58.8538 42.5332 55.0467 38.3598 49.8171C36.1027 46.9894 35.6258 43.344 35.0126 39.852C34.2971 35.7467 35.6769 32.0588 37.3718 28.4475C41.4771 19.6918 51.9533 14.7859 61.3307 17.4092C64.0647 18.1757 66.5347 19.9899 69.0047 21.5145C70.1971 22.247 71.134 23.4138 72.1816 24.3848C75.5544 27.5361 76.8746 31.5307 77.2749 36.0278C77.7433 41.2658 75.6651 45.7203 73.4336 50.1663C73.1696 50.6944 72.7181 51.1628 72.2753 51.5802C69.1154 54.5782 65.5296 56.9034 61.2625 57.917C59.1588 58.4195 56.9784 58.5643 54.8321 58.8709L54.8235 58.8624ZM55.2835 17.7584C51.6637 17.5795 47.8224 18.8912 44.3985 21.7444C38.7772 26.4289 35.8813 32.2547 36.6479 39.605C37.1589 44.5194 38.7516 49.0335 42.8313 52.2701C43.683 52.9429 44.5007 53.6669 45.3269 54.3738C48.2823 56.8864 51.7914 57.917 55.556 57.687C60.6067 57.3719 65.2315 55.7877 69.2517 52.5085C71.3724 50.7795 73.0418 48.8291 73.9361 46.2399C74.5323 44.5024 75.2648 42.7989 75.6736 41.0103C76.7127 36.4621 76.2698 32.0843 73.6295 28.1153C71.168 24.4274 68.1018 21.4804 63.9029 19.7174C61.3562 18.6527 58.8607 17.6988 55.2835 17.7669V17.7584Z"
    fill="white"></path>
</svg>