<svg width="136" height="102" viewBox="0 0 136 102" fill="none" xmlns="http://www.w3.org/2000/svg"
  class="self-stretch flex-grow-0 flex-shrink-0 h-[101px] relative"
  preserveAspectRatio="xMidYMid meet">
  <path
    d="M53.6888 65.2749C52.8279 64.1936 52.1455 63.1437 51.2846 62.2723C45.6048 56.4456 39.9356 50.5978 34.1403 44.8971C31.8516 42.6504 30.2243 40.0572 29.227 37.1071C28.7125 35.5848 28.849 33.8315 28.7545 32.1832C28.723 31.6898 28.9435 31.1964 28.9645 30.6925C29.143 25.0442 31.8726 20.6243 35.7361 16.7923C41.3634 11.2175 49.5103 9.85267 56.6494 13.2542C57.3108 13.5692 57.9092 14.0626 58.4551 14.5666C59.3895 15.4064 60.1874 16.4038 61.1638 17.2017C69.5522 24.0783 77.1742 31.7633 84.6387 39.5953C90.4864 45.7265 96.5021 51.7107 102.161 58.0098C106.444 62.7762 108.271 68.4245 105.94 74.7657C104.933 77.5058 103.736 80.2144 102.255 82.7236C99.1898 87.9309 94.2029 89.8207 88.4287 89.9572C84.9432 90.0412 81.5836 89.2118 78.3395 88.0464C76.9642 87.553 75.6204 86.6711 74.581 85.6422C68.4813 79.6475 62.4761 73.5478 56.4079 67.5111C55.5995 66.7027 54.6231 66.0518 53.6783 65.2749H53.6888ZM69.6992 74.1043C68.9643 73.5583 68.1559 73.0964 67.4944 72.4665C64.8698 69.9888 62.2976 67.4586 59.7045 64.9495C59.1271 64.393 58.5181 63.8786 57.8777 63.3012C56.8489 64.519 57.8252 65.0124 58.3292 65.5059C64.3344 71.4901 70.3501 77.4533 76.4183 83.385C77.1742 84.1304 78.161 84.7498 79.1584 85.1173C82.2345 86.2616 85.3841 87.1435 88.7227 87.0175C93.2266 86.8391 97.216 85.5268 99.6622 81.4533C101.08 79.0911 102.497 76.6449 103.368 74.0623C104.933 69.4324 104.534 64.708 101.206 61.0125C94.9168 54.0309 88.2817 47.3643 81.7831 40.5717C81.4051 40.1727 80.9222 39.8892 80.5442 39.6058C74.392 48.1831 66.1611 54.5453 59.1166 62.2408C59.7885 62.9757 60.3974 63.6476 61.0168 64.3195C63.9879 67.5111 66.959 70.6922 69.9301 73.8838C69.8566 73.9573 69.7831 74.0308 69.7097 74.1043H69.6992ZM79.6833 38.7449C79.3054 38.2094 79.1059 37.842 78.833 37.569C75.4209 34.094 72.0719 30.556 68.5653 27.1964C64.9958 23.7738 61.2583 20.5193 57.5733 17.2122C57.1428 16.8238 56.6389 16.4983 56.1349 16.2254C51.736 13.8002 47.2111 13.7372 42.5287 15.3854C38.0458 16.9602 35.1587 20.2463 32.954 24.2043C29.3425 30.7135 30.0354 38.262 36.1666 43.8157C41.6993 48.8236 46.8962 54.1989 52.24 59.4062C53.0064 60.1516 53.7623 60.897 54.6336 61.7579C55.0116 61.2749 55.2531 60.981 55.5155 60.645C54.8541 59.9311 54.2977 59.3012 53.7203 58.7028C48.177 53.0965 42.6232 47.4902 37.0799 41.8735C36.0196 40.8026 34.9697 39.7108 33.9829 38.5664C33.7309 38.2725 33.7309 37.7475 33.6259 37.3276C35.7886 38.2725 37.0589 40.0257 38.6232 41.4745C40.156 42.9023 41.6363 44.3931 43.1271 45.8734C44.6809 47.4062 46.2347 48.939 47.7675 50.4928C49.2478 51.9836 50.6652 53.5269 52.177 54.9862C53.7098 56.477 54.8961 58.3563 56.8908 59.4902C64.6598 52.6766 71.0325 44.5296 79.7043 38.7449H79.6833Z"
    fill="white"></path>
  <path
    d="M71.3159 75.5321C71.5047 75.595 71.683 75.6579 71.8718 75.7209C71.7564 75.8572 71.6411 75.9936 71.5257 76.1404C71.4733 75.9307 71.4103 75.7104 71.3579 75.5006L71.3264 75.5321H71.3159Z"
    fill="white"></path>
  <path
    d="M71.3472 75.4895L70.8437 74.9756L70.8018 75.0175C70.9696 75.1854 71.1374 75.3637 71.3052 75.5315L71.3367 75.5L71.3472 75.4895Z"
    fill="white"></path>
  <path
    d="M70.8428 74.9751C70.6645 74.8073 70.4967 74.65 70.3184 74.4822C70.4757 74.6605 70.6435 74.8283 70.8008 75.0066L70.8428 74.9646V74.9751Z"
    fill="white"></path>
  <path
    d="M70.3283 74.492C70.1185 74.3662 69.9192 74.2403 69.7095 74.1144C69.7829 74.041 69.8563 73.9676 69.9297 73.8942C70.0661 74.0934 70.192 74.2928 70.3283 74.5025V74.492Z"
    fill="white"></path>
  <path
    d="M54.413 48.6555C53.2161 49.2644 52.1558 49.5479 51.2214 48.687C47.4734 45.2434 43.5364 41.9889 40.4708 37.8314C36.9433 33.044 38.896 27.7317 41.4892 25.2645C41.9406 24.8341 42.5915 24.4562 43.2005 24.3617C44.9222 24.0992 45.7201 25.1701 45.0482 26.7869C44.7018 27.6372 44.2398 28.4351 43.7884 29.2435C42.644 31.2803 42.686 33.296 44.1138 35.1228C45.3422 36.6871 46.7175 38.1569 48.1348 39.5637C49.7306 41.149 51.5049 42.5768 53.0902 44.1726C54.245 45.3379 54.8539 46.7762 54.4235 48.6555H54.413ZM43.8829 25.6845C42.2136 25.8945 41.6257 26.7659 41.1217 27.7317C39.4629 30.9338 39.5154 34.1149 41.8251 36.9075C44.0089 39.5427 46.476 41.9469 48.8697 44.393C49.9406 45.4849 51.1584 46.4508 52.3028 47.4796L52.8487 47.0387C52.4078 46.3143 52.0928 45.4639 51.5049 44.8865C50.0771 43.4797 48.4813 42.2408 47.0325 40.855C45.6466 39.5322 44.2713 38.1779 43.0535 36.6976C40.8698 34.0729 40.7123 31.2593 42.5705 28.3407C43.043 27.6058 43.3579 26.7764 43.8934 25.695L43.8829 25.6845Z"
    fill="white"></path>
</svg>