<svg width="70" height="70" viewBox="0 0 70 70" fill="none" xmlns="http://www.w3.org/2000/svg">
  <circle cx="35" cy="35" r="35" fill="#D91C5C"/>
  <circle cx="35" cy="35" r="29.5" fill="white"/>
  <path d="M40.183 18.889C42.411 18.889 44.453 18.889 46.506 18.889C46.726 18.935 46.923 19.054 47.066 19.227C49.015 21.094 50.963 22.96 52.9 24.85C53.073 25.03 53.281 25.172 53.512 25.267C53.744 25.361 53.992 25.406 54.241 25.399C57.31 25.399 60.39 25.399 63.458 25.399H64.181V43.319H57.986C57.959 43.157 57.92 42.997 57.87 42.84C57.662 42.122 57.343 41.441 56.925 40.822C55.175 38.92 53.343 37.089 51.511 35.28C51.032 34.779 50.415 34.432 49.737 34.282C49.06 34.133 48.354 34.188 47.708 34.44C46.985 34.684 46.342 35.119 45.845 35.698C45.348 36.277 45.016 36.979 44.885 37.73C44.814 38.186 44.767 38.646 44.745 39.107C41.781 39.224 40.206 41.37 40.428 44.287C39.773 44.324 39.133 44.492 38.544 44.781C37.954 45.069 37.429 45.472 36.998 45.967C36.617 46.503 36.353 47.114 36.224 47.76C36.095 48.405 36.105 49.07 36.251 49.712L35.341 49.945C34.776 50.107 34.258 50.386 33.82 50.765C33.381 51.143 33.034 51.614 32.802 52.14C32.486 53.035 32.486 54.013 32.802 54.908C33.151 55.924 33.798 56.796 34.646 57.407C35.495 58.017 36.504 58.338 37.535 58.322H37.875C38.198 58.322 38.516 58.263 38.815 58.149V58.322L37.875 58.484L37.535 58.334H64.181V50.372H64.02L63.458 50.384C63.038 50.388 62.627 50.275 62.27 50.057C61.913 49.838 61.623 49.523 61.433 49.145C61.231 48.741 61.145 48.29 61.185 47.841C61.224 47.392 61.387 46.963 61.658 46.597C61.921 46.185 62.28 45.845 62.703 45.606C63.127 45.367 63.601 45.237 64.085 45.23H64.181V37.73H64.02L63.458 37.742C63.038 37.747 62.627 37.634 62.27 37.415C61.913 37.197 61.623 36.881 61.433 36.504C61.231 36.099 61.145 35.648 61.185 35.199C61.224 34.751 61.387 34.322 61.658 33.955C61.916 33.547 62.27 33.208 62.687 32.97C63.105 32.731 63.573 32.601 64.05 32.592H64.181V33.955L11.97 33.899V57.897L40.195 57.909" fill="white"/>
  <path d="M49.002 35.595C49.489 35.783 49.951 36.03 50.378 36.33C52.175 38.072 53.944 39.842 55.687 41.638C56.099 42.021 56.359 42.54 56.419 43.1C56.48 43.659 56.335 44.222 56.013 44.683C55.723 45.181 55.275 45.566 54.739 45.778C54.204 45.989 53.613 46.015 53.062 45.85C52.655 45.678 52.287 45.429 51.977 45.115C50.332 43.47 48.698 41.813 47.053 40.157C46.679 39.838 46.418 39.406 46.31 38.926C46.203 38.446 46.255 37.945 46.458 37.497C46.658 37.001 46.996 36.573 47.433 36.265C47.869 35.956 48.386 35.78 48.92 35.758L49.002 35.607" fill="white"/>
  <path d="M44.653 40.577C45.154 40.785 45.624 41.06 46.053 41.393C47.826 43.108 49.553 44.893 51.268 46.632C51.509 46.858 51.7 47.133 51.828 47.439C51.955 47.745 52.016 48.074 52.006 48.405C51.996 48.737 51.915 49.062 51.77 49.359C51.625 49.657 51.418 49.92 51.163 50.132C50.97 50.383 50.726 50.59 50.446 50.74C50.167 50.889 49.858 50.976 49.542 50.996C49.226 51.016 48.909 50.968 48.613 50.855C48.317 50.742 48.049 50.567 47.826 50.342C45.959 48.557 44.128 46.725 42.378 44.835C42.133 44.521 41.968 44.153 41.894 43.762C41.821 43.37 41.842 42.967 41.957 42.586C42.071 42.205 42.274 41.856 42.55 41.57C42.827 41.283 43.167 41.067 43.544 40.938C43.859 40.81 44.198 40.74 44.711 40.588" fill="white"/>
  <path d="M43.999 55.23C43.526 55.058 43.078 54.823 42.669 54.53C41.152 53.091 39.67 51.613 38.224 50.097C38.001 49.865 37.828 49.59 37.717 49.288C37.606 48.987 37.558 48.665 37.576 48.344C37.595 48.023 37.68 47.71 37.825 47.423C37.971 47.136 38.174 46.883 38.422 46.678C38.625 46.429 38.879 46.226 39.167 46.083C39.454 45.94 39.769 45.859 40.091 45.847C40.412 45.835 40.732 45.891 41.03 46.013C41.327 46.134 41.596 46.317 41.817 46.55C43.205 47.927 44.582 49.327 45.947 50.727C46.326 51.056 46.584 51.503 46.677 51.997C46.77 52.49 46.694 53 46.46 53.445C46.251 53.938 45.911 54.364 45.477 54.679C45.043 54.993 44.532 55.184 43.999 55.23Z" fill="white"/>
  <path d="M40.614 55.37C40.616 55.939 40.453 56.497 40.145 56.975C39.836 57.454 39.395 57.832 38.876 58.065C38.442 58.291 37.945 58.362 37.465 58.266C36.986 58.171 36.553 57.915 36.239 57.54C35.597 56.887 34.944 56.257 34.314 55.592C34.074 55.364 33.884 55.087 33.759 54.78C33.634 54.474 33.575 54.144 33.588 53.813C33.6 53.482 33.682 53.157 33.83 52.86C33.977 52.563 34.186 52.301 34.442 52.092C34.656 51.839 34.922 51.635 35.221 51.492C35.52 51.35 35.846 51.273 36.177 51.266C36.508 51.26 36.836 51.324 37.141 51.454C37.445 51.584 37.719 51.778 37.942 52.022C38.689 52.757 39.436 53.492 40.112 54.285C40.334 54.617 40.506 54.978 40.626 55.358" fill="white"/>
</svg>