<svg width="152" height="113" viewBox="0 0 152 113" fill="none" xmlns="http://www.w3.org/2000/svg"
  class="self-stretch flex-grow-0 flex-shrink-0 h-[113px] relative"
  preserveAspectRatio="xMidYMid meet">
  <path
    d="M17.7776 30.1514C18.5993 28.8552 19.1779 27.2929 20.2889 26.3208C22.9853 23.9484 25.7744 21.6222 28.8065 19.7011C36.1436 15.0373 44.1983 12.9773 52.9705 12.607C62.9809 12.1788 72.4243 14.4934 81.914 16.9005C84.1244 17.4676 86.196 18.5901 88.5452 19.5507C91.8319 17.3634 95.5121 15.697 99.5163 14.7711C106.506 13.1509 113.519 12.1788 120.694 13.3708C124.421 13.9958 127.708 15.5697 130.786 17.7453C133.714 19.8169 135.901 25.4875 133.124 29.6769C131.11 32.7205 128.807 35.4401 125.763 37.5117C119.63 41.6894 113.207 45.3002 106.379 48.2165C105.303 48.6794 104.354 49.5242 103.486 50.3343C101.854 51.8388 100.211 53.3548 98.764 55.0329C94.7714 59.662 89.4942 61.4095 83.6962 61.5136C80.5832 61.5715 77.6668 61.6757 75.0514 63.5042L75.0861 63.5504C74.3223 62.4163 73.4659 63.157 72.6442 63.4463C65.9552 65.7608 59.6943 68.8855 54.012 73.1211C52.0909 74.5562 49.8227 75.6903 48.7232 77.9123C47.6701 80.0417 46.7906 82.2984 46.0962 84.5782C45.2745 87.2515 44.2909 89.7975 42.6244 92.0889C39.3956 96.5213 34.3961 94.878 32.5213 91.5682C32.2089 91.0242 31.8732 90.4803 31.0747 90.0406C31.3525 91.7765 31.5261 93.5355 31.9427 95.2483C32.3593 96.9842 33.0074 98.6507 33.3314 100.444C31.5839 99.5071 31.0631 97.829 30.6002 96.1857C29.2346 91.3946 28.7602 86.4877 29.9406 81.6387C31.1673 76.6046 30.7044 71.6977 29.5008 66.8255C28.5519 62.9718 27.2094 59.2222 25.9943 55.4495C25.0569 52.5447 23.969 49.6978 23.1011 46.7699C20.6708 38.5069 21.8165 30.6837 26.0753 23.173C23.7376 24.5733 21.6892 26.3439 19.8028 28.2997C19.1779 28.9478 18.4719 29.538 17.8007 30.1514H17.8123H17.7776ZM82.9324 57.9492C86.7052 57.9724 92.5379 55.6115 95.2343 53.1234C98.0118 50.5542 100.697 47.7883 103.787 45.6589C107.12 43.3675 110.915 41.782 114.457 39.7799C117.836 37.8589 121.296 36.0303 124.398 33.7274C126.492 32.165 128.252 29.9894 129.768 27.8252C131.527 25.2908 130.786 22.3282 128.333 20.4649C125.937 18.648 123.252 17.4676 120.289 16.8889C115.116 15.859 109.943 16.2525 104.828 17.1204C100.928 17.7801 96.9818 18.6133 93.3017 20.0136C88.4874 21.8421 84.5989 25.1982 81.2659 29.1561C80.7336 29.781 80.3517 30.811 78.7778 30.1861C80.8841 26.8068 83.8004 24.2724 86.2423 21.0783C83.9856 20.2914 82.0761 19.6086 80.1666 18.9489C75.3986 17.3056 70.4222 16.9005 65.4691 16.2062C58.8726 15.2919 52.3687 15.9168 45.8532 16.8427C40.9 17.5486 36.3635 19.273 32.2667 22.1083C31.3062 22.7679 30.4961 23.6706 29.7323 24.5733C27.464 27.2582 26.3993 30.5333 25.5892 33.8662C24.2236 39.4443 25.1842 44.8951 26.7234 50.288C28.5056 56.5257 31.6418 62.3932 31.7459 69.279C33.0652 67.7282 32.1394 65.6104 33.9679 64.1175C33.9679 65.2169 34.0489 65.9576 33.9564 66.6635C33.5282 69.8692 32.7991 73.0633 32.6602 76.2805C32.5097 79.7639 32.8222 83.2705 33.0884 86.7655C33.1578 87.6334 33.7365 88.4898 34.211 89.2767C34.9863 90.5266 35.7617 91.9385 37.5555 91.7881C39.1294 91.6492 39.5923 90.2257 40.0321 89.0684C41.0505 86.3951 41.8721 83.6524 42.7517 80.9328C43.6775 78.0859 44.8695 75.4125 47.3577 73.5146C54.799 67.8671 62.8421 63.481 71.9383 61.0507C78.1182 59.3958 81.6363 55.4263 82.1571 48.1702C82.296 46.2376 82.1802 44.2933 82.2728 42.3607C82.3075 41.701 82.6084 41.0645 82.9209 39.9767C85.4784 42.5921 84.0782 45.4737 84.761 48.1239C85.2239 46.0755 85.6636 44.1892 86.196 41.8167C87.55 44.8951 86.4043 49.9871 82.944 57.9955L82.9324 57.9492Z"
    fill="#0080A3"></path>
  <path
    d="M17.7661 30.1398C17.6156 30.4985 17.4652 30.8573 17.3263 31.2276C17.2106 31.1582 17.0833 31.0772 16.9675 31.0077C17.2453 30.7184 17.5115 30.4407 17.7892 30.1513L17.7776 30.1398H17.7661Z"
    fill="#0080A3"></path>
  <path d="M75.0286 63.5043C75.0286 63.5043 75.0633 63.539 75.0633 63.5506L75.0286 63.5043Z"
    fill="#0080A3"></path>
  <path
    d="M46.5706 55.7852C46.5359 52.73 48.1677 51.0404 51.1997 50.9825C53.8615 50.9362 56.5927 53.5748 56.6389 56.2366C56.6852 59.2571 54.4864 61.5832 51.5122 61.6642C48.3528 61.7452 46.6285 59.6853 46.5706 55.7852ZM54.5327 56.3755C54.5558 54.5701 53.0861 53.0078 51.2807 52.9383C49.1629 52.8573 47.9362 54.1072 47.9015 56.3755C47.8783 58.3544 49.1629 59.6158 51.1997 59.6043C53.2713 59.6043 54.498 58.4007 54.5327 56.3755Z"
    fill="#0080A3"></path>
  <path
    d="M42.7404 37.1066C40.0439 37.0719 37.9145 35.0004 37.9261 32.4196C37.9261 29.5149 40.9119 26.5754 43.8861 26.5522C46.4668 26.5291 48.8161 28.9131 48.7814 31.5517C48.7466 34.6763 46.0502 37.1645 42.7404 37.1182V37.1066ZM42.6594 27.9178C40.1365 29.1561 39.1297 30.6837 39.581 32.5469C39.986 34.2597 41.4905 35.3013 43.2843 35.1161C45.2632 34.9194 46.6635 33.6811 46.9066 31.9336C47.1728 30.0125 46.2238 29.0867 42.6594 27.9178Z"
    fill="#0080A3"></path>
  <path
    d="M100.778 30.0704C100.789 33.2761 98.7988 35.3361 95.6742 35.3476C92.5032 35.3476 90.3623 33.4728 90.316 30.6144C90.2697 27.9179 93.2554 24.99 96.0908 24.9669C98.6947 24.9437 100.766 27.2004 100.778 30.0704ZM95.489 33.8663C97.6184 33.8432 99.2733 32.2693 99.2617 30.2788C99.2617 28.2767 97.1208 26.4366 94.9219 26.5292C93.2207 26.5986 91.5311 28.4503 91.4848 30.2672C91.427 32.4197 93.0703 33.8779 95.489 33.8547V33.8663Z"
    fill="#0080A3"></path>
  <path
    d="M60.5622 43.113C58.4559 43.1593 56.6737 41.2266 56.6622 38.9005C56.6506 37.3266 58.7799 35.3013 60.5737 35.1856C62.5295 35.0583 64.4854 36.9215 64.5779 38.993C64.6821 41.0762 62.7378 43.0667 60.5737 43.113H60.5622ZM58.155 38.7732C58.4212 40.2545 58.9304 41.296 60.458 41.2382C61.5574 41.1919 62.5411 40.5901 62.6106 39.4675C62.6453 38.7963 62.1592 37.7779 61.6037 37.4539C60.2034 36.6438 59.2313 37.6506 58.1666 38.7732H58.155Z"
    fill="#0080A3"></path>
  <path
    d="M92.8043 48.2628C90.8022 48.2628 89.2746 46.8509 89.3556 45.0918C89.4251 43.2402 91.323 41.5506 93.2904 41.5621C95.3966 41.5737 96.9937 43.055 96.9011 44.9182C96.8085 46.7236 94.9105 48.2743 92.8043 48.2628ZM90.8253 45.2539C92.4687 47.3948 93.6838 47.2675 95.1767 44.8141C93.5681 42.7541 92.0868 42.9046 90.8253 45.2539Z"
    fill="#0080A3"></path>
  <path
    d="M124.93 25.742C124.965 26.9919 123.796 28.207 122.477 28.2996C120.926 28.4037 119.838 27.3853 119.792 25.7883C119.757 24.3533 120.521 23.5316 121.956 23.4737C123.564 23.4043 124.884 24.4111 124.93 25.742ZM122.407 27.2349C123.507 26.5984 123.784 26.0313 122.708 25.418C122.488 25.2907 122.083 25.4874 121.47 25.5684C121.852 26.2512 122.106 26.7141 122.396 27.2349H122.407Z"
    fill="#0080A3"></path>
  <path
    d="M38.9559 67.381C40.1594 67.3926 41.2704 68.492 41.2704 69.6725C41.2704 70.8644 40.1479 71.906 38.9096 71.8597C37.7407 71.8134 36.7108 70.8297 36.7455 69.7882C36.7802 68.5268 37.8333 67.381 38.9675 67.3926L38.9559 67.381ZM39.5229 70.0081L39.6734 69.5451C39.3031 69.4178 38.9327 69.2906 38.5624 69.1748C38.5045 69.3368 38.4582 69.4873 38.4004 69.6493C38.7707 69.7766 39.1411 69.8923 39.5114 70.0196L39.5229 70.0081Z"
    fill="#0080A3"></path>
  <path
    d="M108.208 33.519C109.712 31.8293 110.406 31.6326 111.726 32.3848C112.64 32.9056 113.08 33.6694 112.732 34.6878C112.374 35.7409 111.622 36.4121 110.464 36.3658C108.543 36.2964 108.555 34.7457 108.219 33.5074L108.208 33.519ZM111.39 34.0629C110.673 33.6578 110.048 33.1833 109.504 34.5142C110.233 35.0581 110.823 35.3706 111.39 34.0629Z"
    fill="#0080A3"></path>
  <path
    d="M37.5091 44.8025C37.5554 45.8325 36.7569 46.7814 35.75 46.8972C34.6043 47.0245 33.6785 46.2028 33.5744 44.9645C33.4818 43.9345 34.234 43.0203 35.2871 42.893C36.3865 42.7657 37.4512 43.6799 37.5091 44.8025Z"
    fill="#0080A3"></path>
  <path
    d="M67.5756 26.6448H70.3299C69.9364 28.0682 68.918 28.589 67.8186 28.2418C67.1011 28.0104 66.3489 27.1193 66.129 26.367C65.7934 25.2329 66.6151 24.4112 67.6913 24.1103C68.8023 23.7979 69.8786 23.8905 70.3646 25.3486C69.4851 25.881 67.7839 24.3997 67.5756 26.6448Z"
    fill="#0080A3"></path>
  <path
    d="M64.416 52.7531C64.9252 51.2602 65.8742 50.4154 67.3092 50.8205C67.8879 50.9825 68.5591 51.9893 68.5591 52.6258C68.5591 53.2739 67.9457 54.2692 67.3555 54.5006C65.7816 55.114 65.203 53.6905 64.416 52.7531ZM65.9784 53.216H67.7374C67.2629 51.6768 66.6843 51.7694 65.9784 53.216Z"
    fill="#0080A3"></path>
  <path
    d="M106.113 25.1636C105.789 25.0247 105.338 24.99 105.175 24.7469C104.62 23.9021 104.99 23.173 105.696 22.6291C106.599 21.9232 108.161 22.1199 108.914 22.9994C109.596 23.7864 109.677 24.6775 108.983 25.4644C108.323 26.2282 107.49 26.4944 106.611 25.719C106.402 25.5455 106.252 25.314 106.067 25.1057C106.715 24.99 107.363 24.8858 108.242 24.7354C107.27 23.9947 106.557 24.1374 106.101 25.1636H106.113Z"
    fill="#0080A3"></path>
  <path
    d="M51.2695 53.8293C52.7161 54.0145 53.7576 55.1486 53.6303 56.3985C53.5146 57.5673 52.23 58.5279 51.038 58.3543C49.6145 58.146 48.5151 56.7225 48.7582 55.3917C48.9665 54.246 49.9154 53.6557 51.2695 53.8293ZM52.2647 57.1044C52.4152 55.8083 51.8597 55.4495 50.6561 55.5421C50.5288 56.8383 50.8528 57.4285 52.2647 57.1044Z"
    fill="#0080A3"></path>
  <path
    d="M44.1406 29.5496C44.7539 30.7531 45.8186 31.9451 44.7308 33.4843C44.1406 34.3291 42.6477 34.5259 41.7103 33.9357C40.7729 33.357 40.2868 32.5238 40.5646 31.3781C40.9117 29.9546 41.8144 29.4686 44.129 29.5496H44.1406ZM42.9949 30.7531C42.7402 30.7879 42.4856 30.8226 42.231 30.8689C42.231 31.3896 42.069 32.003 42.2889 32.408C42.4162 32.6395 43.1453 32.5585 44.0133 32.6742C43.5388 31.7715 43.261 31.2623 42.9949 30.7531Z"
    fill="#0080A3"></path>
  <path
    d="M95.3962 32.6857C93.9612 32.7436 92.9775 31.9914 92.8618 30.7415C92.7229 29.4222 93.7645 28.2418 95.1301 28.1492C96.4378 28.0566 97.5488 29.0982 97.6645 30.5101C97.7687 31.7831 96.8891 32.6163 95.4078 32.6857H95.3962ZM93.6719 31.3433C94.9102 31.2391 95.6046 31.1813 96.2989 31.1234C96.2989 30.8341 96.2873 30.5564 96.2758 30.267C95.5814 29.5264 94.887 29.3644 93.6719 31.3433Z"
    fill="#0080A3"></path>
</svg>