<svg width="130" height="98" viewBox="0 0 130 98" fill="none" xmlns="http://www.w3.org/2000/svg">
<path d="M86.0172 37.617C87.1156 38.8157 88.214 40.0144 89.3898 41.2988C89.413 40.1857 88.8638 39.3761 88.2837 38.59C86.2957 35.889 84.3309 33.1802 82.3042 30.5104C81.6312 29.6308 80.8113 28.8602 80.0532 28.0585C78.305 26.2137 76.5877 24.3378 74.8008 22.5397C72.1089 19.8387 69.8889 16.803 68.0942 13.4326C67.2356 11.8136 65.9129 11.4633 64.0486 11.6423C62.0529 11.8369 60.9081 12.8333 59.887 14.3122C56.5994 19.0603 53.3506 23.8318 49.9934 28.5177C47.4639 32.0516 44.772 35.4609 42.1883 38.9558C41.4148 39.9989 40.7341 41.1275 40.0766 42.2484C39.7672 42.7777 39.5351 43.3693 39.3804 43.9686C38.9395 45.6811 39.597 46.9265 41.3143 47.4091C42.1265 47.6348 43.0238 47.6659 43.8669 47.6192C46.8219 47.4713 49.7691 47.2612 52.9174 47.0588C52.9793 48.6078 53.0721 50.0789 53.0875 51.5501C53.1572 57.8316 53.1262 64.121 53.3041 70.3947C53.397 73.6172 53.6986 76.8553 54.2014 80.0389C54.9208 84.5847 58.0382 87.0599 62.6408 87.0444C63.7547 87.0444 64.8608 86.9043 65.9747 86.8965C69.5562 86.8653 74.0582 82.9423 74.4837 79.6731C74.7467 77.6415 75.2572 75.6255 75.3423 73.5939C75.6131 67.0633 75.3887 60.5404 74.7003 54.0331C74.5224 52.3674 74.6152 50.6783 74.6384 48.997C74.6384 48.5222 74.855 48.0551 75.0252 47.339C76.3711 47.339 77.6552 47.339 78.947 47.339C80.9892 47.339 83.0313 47.3624 85.0735 47.3701C86.0945 47.3701 86.9919 47.1288 87.7345 46.3115C88.129 45.8834 88.7555 45.6655 89.2893 45.3697C90.2949 44.817 90.9214 43.6962 90.7126 42.5831C90.6507 42.2562 90.2871 41.9915 89.8617 41.4466C89.6296 42.1783 89.5213 42.5753 89.3744 42.9567C89.2429 43.3148 89.0727 43.6573 88.7478 43.9997C88.7942 41.3999 86.9609 39.6953 86.0404 37.5937C85.9089 37.4691 85.7851 37.3446 85.6536 37.22C85.4138 36.8464 85.1663 36.4728 84.9265 36.0992C84.795 35.9746 84.6712 35.8501 84.5397 35.7255C84.2999 35.3441 84.0524 34.9705 83.8126 34.5891C82.397 33.0012 80.9582 31.4211 79.5736 29.802C79.1868 29.3506 78.9625 28.7668 78.6685 28.2453C78.5216 28.1052 78.3823 27.9728 78.2354 27.8327C78.1039 27.716 77.9724 27.5992 77.8409 27.4825L77.7558 27.428L77.8099 27.5136C77.9414 27.6303 78.0729 27.7471 78.2044 27.8716C78.3437 28.004 78.4906 28.1441 78.6299 28.2764C80.8886 29.9421 82.4589 32.1761 83.7817 34.6202C84.0292 35.0016 84.269 35.3753 84.5165 35.7567C84.648 35.8812 84.7718 36.0058 84.9033 36.1303C85.1431 36.5039 85.3906 36.8775 85.6304 37.2512C85.7619 37.3757 85.8857 37.5002 86.0172 37.6248V37.617ZM52.6234 29.0081C52.4764 29.1248 52.3217 29.2494 52.1748 29.3661C52.0819 29.6152 51.9814 29.8565 51.8886 30.1056C51.7416 30.2379 51.6023 30.3703 51.4554 30.5026C51.3239 30.6193 51.1924 30.7361 51.0609 30.8528C50.9603 31.1019 50.8675 31.351 50.7669 31.5923C50.62 31.7169 50.4807 31.8336 50.3337 31.9582C50.0785 33.3048 49.2121 34.2077 48.1446 34.9627C48.0209 35.0873 47.8893 35.2118 47.7656 35.3286C47.518 35.7022 47.2783 36.0836 47.0307 36.4572C46.6594 36.9554 46.2881 37.4535 45.9168 37.9517C45.7931 38.0762 45.6616 38.2008 45.5378 38.3253C45.3985 38.4421 45.2516 38.5588 45.1123 38.6678C45.0195 38.9247 44.9267 39.1816 44.8339 39.4384C44.6869 39.5707 44.5476 39.7031 44.4007 39.8354C44.2692 39.9521 44.1454 40.0767 44.0139 40.1934C43.9133 40.4347 43.8205 40.6838 43.72 40.9251L43.2868 41.3299C43.194 41.6023 43.0934 41.8748 43.0006 42.1472C42.8613 42.3807 42.7298 42.6064 42.5906 42.84C42.521 43.665 42.4591 44.4901 42.3895 45.3152C41.8789 45.1751 41.4767 44.8015 41.5463 44.6302C41.8171 43.9997 42.2425 43.4393 42.6061 42.8555C42.7376 42.6298 42.8691 42.3963 43.0006 42.1705C43.1011 41.8981 43.2017 41.6257 43.31 41.3532C43.457 41.2209 43.5962 41.0808 43.7432 40.9485C43.8437 40.7072 43.9443 40.4581 44.0371 40.2168C44.1609 40.1 44.2924 39.9755 44.4162 39.8587C44.5631 39.7264 44.7101 39.5941 44.8571 39.4618C44.9499 39.2049 45.0427 38.9558 45.1433 38.699C45.2825 38.5822 45.4218 38.4654 45.561 38.3487C45.6848 38.2241 45.8085 38.0918 45.9323 37.9673C46.3036 37.4691 46.6826 36.9787 47.0539 36.4806C47.3015 36.1069 47.5413 35.7333 47.7888 35.3519C47.9126 35.2274 48.0363 35.095 48.1601 34.9705C48.8949 33.9742 49.6298 32.9778 50.3569 31.9737C50.5039 31.8492 50.6509 31.7324 50.7979 31.6079C50.8984 31.3588 50.9913 31.1097 51.0918 30.8606C51.2233 30.7439 51.3548 30.6271 51.4863 30.5104C51.6333 30.378 51.7725 30.2457 51.9195 30.1056C52.0123 29.8565 52.1129 29.6152 52.2134 29.3661C52.3449 29.2416 52.4764 29.1171 52.608 28.9925L52.6853 28.9225L52.6312 28.9847L52.6234 29.0081ZM54.8357 25.6377L55.5938 24.5168C56.7541 22.4074 57.8758 20.2746 59.0902 18.1963C59.887 16.8342 60.8152 15.5498 61.6816 14.2344C61.8054 14.3122 61.9214 14.39 62.0451 14.4757C60.3202 18.0874 57.9918 21.3254 55.5706 24.5012C55.3308 24.8904 55.0833 25.2718 54.8435 25.661C54.8435 25.6844 54.828 25.7155 54.8203 25.7389C54.8203 25.7077 54.8357 25.6766 54.8435 25.6455L54.8357 25.6377ZM67.1118 14.39L67.1273 14.4367L67.1041 14.3589C66.4234 14.211 66.083 13.7595 65.851 13.2147C65.9515 13.1368 66.0444 13.059 66.1449 12.9812C66.4698 13.4482 66.787 13.923 67.1118 14.39ZM58.5178 83.9386L58.6184 83.9853L58.5487 83.9075C57.079 83.1057 56.3364 81.7669 56.0425 80.1946C55.7099 78.4277 55.4004 76.6374 55.2999 74.8471C55.1374 71.8737 55.1374 68.8925 55.091 65.919C54.9982 60.0189 54.9131 54.1265 54.8357 48.2264C54.8357 47.9384 54.975 47.6581 55.0523 47.3701C55.4546 50.7405 55.6866 54.0642 55.7949 57.3879C55.9961 63.5294 56.1198 69.6708 56.2823 75.8123C56.3519 78.381 56.7464 80.8718 58.2161 83.0746C58.3786 83.3159 58.425 83.6428 58.5255 83.9308L58.5178 83.9386ZM43.8592 44.1632C43.9056 42.9178 44.625 42.046 45.2903 41.1586C47.7811 37.8349 50.3802 34.5891 52.7549 31.172C56.0425 26.4316 59.1753 21.5745 62.3468 16.7563C62.8806 15.9468 63.2673 15.0361 63.7624 14.0942C64.1182 14.3433 64.4045 14.4757 64.6056 14.6858C67.1505 17.4024 69.8811 19.971 72.1785 22.8822C76.7038 28.6345 80.966 34.6047 85.3906 40.4425C86.3498 41.7035 86.6206 42.9567 86.0713 44.7003C85.205 44.8015 84.2535 44.9883 83.3021 45.0116C79.8985 45.0973 76.5104 45.1907 73.1687 46.0235C71.026 46.5528 70.8635 46.6073 70.9177 48.888C71.0492 54.9827 71.3199 61.0775 71.3818 67.18C71.4282 71.718 71.2735 76.2637 71.1111 80.8017C71.0492 82.4752 70.206 83.6584 68.4965 84.25C66.6941 84.8727 64.8686 85.0751 63.0198 84.9116C62.1457 84.8338 60.9699 84.5457 60.5213 83.923C59.4461 82.4441 58.3322 80.7939 57.9531 79.0504C57.3884 76.4661 57.3498 73.7496 57.2415 71.0797C56.932 63.3737 56.7155 55.6599 56.406 47.9461C56.3751 47.1211 55.9961 46.3115 55.8336 45.6966C54.155 44.8949 52.693 44.9727 51.2001 45.144C50.0398 45.2763 48.8485 45.3775 47.6882 45.2841C46.3732 45.1751 44.9576 45.1985 43.8747 44.171L43.8592 44.1632ZM72.9211 48.2575C73.0758 48.2497 73.2383 48.2419 73.393 48.2264C73.393 48.7712 73.3621 49.3161 73.393 49.8532C73.5477 52.2039 73.7256 54.5546 73.8803 56.8976C73.9345 57.6993 74.1201 58.54 73.9809 59.3028C73.3621 62.5798 73.7875 65.8645 73.7411 69.1493C73.7024 71.7258 73.5322 74.2944 73.4162 76.8631C73.393 76.8631 73.3698 76.8475 73.3389 76.8475C73.1996 67.3123 73.0604 57.7849 72.9134 48.2497L72.9211 48.2575Z" fill="#0080A3"/>
</svg>
