<svg width="239" height="138" viewBox="0 0 239 138" fill="none" xmlns="http://www.w3.org/2000/svg">
<g clip-path="url(#clip0_1_20542)">
<path d="M80.8004 50.3389C76.7453 50.3389 72.3503 51.9896 68.878 54.7831C66.1585 51.9114 62.2054 50.3389 57.6356 50.3389C51.0698 50.3389 45.0334 53.0884 41.969 55.8136L41.6582 56.092V87.3238L42.3867 87.4801C43.3725 87.6901 44.3535 87.7926 45.4753 87.7926C46.3057 87.7926 47.5295 87.7389 48.6513 87.4801L49.3652 87.314V59.5839C51.4486 58.3873 54.2362 57.6548 56.7712 57.6548C62.2151 57.6548 64.9735 60.7999 64.9735 66.9975V87.314L65.6874 87.4801C66.6004 87.6901 67.6397 87.7926 68.8635 87.7926C70.0193 87.7926 71.0634 87.6852 71.9667 87.4801L72.6806 87.314V64.5214C72.6806 63.3004 72.5252 62.0355 72.2144 60.756C73.8315 59.3299 76.3083 57.6597 79.9408 57.6597C85.3848 57.6597 88.1432 60.8048 88.1432 67.0023V87.3189L88.8571 87.485C89.7701 87.695 90.8093 87.7975 92.0331 87.7975C93.1938 87.7975 94.2379 87.6901 95.1363 87.485L95.8502 87.3189V64.5263C95.8502 55.2227 88.284 50.3535 80.815 50.3535L80.8004 50.3389Z" fill="#18314C"/>
<path d="M106.85 50.9932C105.694 50.9932 104.665 51.0957 103.688 51.3057L102.96 51.462V87.3188L103.688 87.4751C104.665 87.6851 105.694 87.7876 106.85 87.7876C108.006 87.7876 109.05 87.6802 109.953 87.4751L110.667 87.309V51.4767L109.953 51.3106C109.055 51.1006 108.011 50.998 106.85 50.998V50.9932Z" fill="#18314C"/>
<path d="M140.796 51.7503L140.228 51.5549C137.8 50.7149 135.449 50.3389 132.618 50.3389C126.261 50.3389 120.914 52.9663 118.272 55.2178L117.947 55.4961V87.3189L118.675 87.4752C119.676 87.6901 120.652 87.7878 121.837 87.7878C123.022 87.7878 124.1 87.6852 125.013 87.4752L125.727 87.3091V59.0808C127.392 58.192 129.641 57.7232 132.263 57.7232C134.463 57.7232 136.59 57.9722 138.251 58.4167L138.839 58.5778L139.213 58.0943C140.373 56.595 141.014 54.3436 140.849 52.3559L140.801 51.7552L140.796 51.7503Z" fill="#18314C"/>
<path d="M173.936 51.1396C172.78 51.1396 171.75 51.2422 170.774 51.4522L170.046 51.6085V79.9491C167.593 80.794 165.116 81.2042 162.494 81.2042C156.477 81.2042 153.422 79.7391 153.422 71.7199V51.6183L152.708 51.4522C151.81 51.2422 150.766 51.1396 149.605 51.1396C148.445 51.1396 147.42 51.2422 146.444 51.4522L145.715 51.6085V74.1228C145.715 83.2701 151.329 88.5153 161.11 88.5153C168.414 88.5153 173.154 86.8694 177.189 85.0869L177.738 84.8427V51.6183L177.024 51.4522C176.126 51.2422 175.082 51.1396 173.921 51.1396H173.936Z" fill="#18314C"/>
<path d="M223.883 50.3389C219.828 50.3389 215.433 51.9896 211.961 54.7831C209.241 51.9114 205.288 50.3389 200.718 50.3389C194.152 50.3389 188.116 53.0884 185.052 55.8136L184.741 56.092V87.3238L185.469 87.4801C186.455 87.6901 187.436 87.7926 188.558 87.7926C189.388 87.7926 190.612 87.7389 191.734 87.4801L192.448 87.314V59.5839C194.531 58.3873 197.319 57.6548 199.854 57.6548C205.298 57.6548 208.056 60.7999 208.056 66.9975V87.314L208.77 87.4801C209.683 87.6901 210.722 87.7926 211.946 87.7926C213.102 87.7926 214.146 87.6852 215.049 87.4801L215.763 87.314V64.5214C215.763 63.3004 215.608 62.0355 215.297 60.756C216.914 59.3299 219.391 57.6548 223.028 57.6548C228.472 57.6548 231.231 60.7999 231.231 66.9975V87.314L231.944 87.4801C232.857 87.6901 233.897 87.7926 235.121 87.7926C236.281 87.7926 237.325 87.6852 238.224 87.4801L238.938 87.314V64.5214C238.938 55.2178 231.376 50.3486 223.902 50.3486L223.883 50.3389Z" fill="#18314C"/>
<path d="M112.114 103.289C113.294 100.295 111.837 96.8911 108.86 95.6994C105.883 94.5127 102.498 95.9778 101.313 98.9764C100.133 101.97 101.59 105.374 104.572 106.566C106.014 107.142 107.593 107.118 109.02 106.497C110.443 105.877 111.546 104.739 112.119 103.289H112.114Z" fill="#007EAE"/>
<path d="M81.514 113.911C79.9988 113.569 78.4448 113.843 77.1335 114.678C74.4286 116.402 73.6175 120.016 75.3318 122.741C77.0461 125.461 80.6398 126.277 83.3497 124.553C86.0547 122.829 86.8657 119.215 85.1514 116.49C84.3209 115.171 83.0291 114.258 81.514 113.916V113.911Z" fill="#004C8A"/>
<path d="M48.3985 113.081H48.3694C45.1836 112.89 42.4349 115.332 42.2309 118.536C42.1338 120.094 42.6437 121.598 43.6684 122.765C44.6931 123.937 46.1112 124.636 47.6603 124.738H47.6895C49.2289 124.831 50.7101 124.318 51.8659 123.293C53.0315 122.262 53.7259 120.836 53.8279 119.278C54.0319 116.065 51.5988 113.281 48.4034 113.076L48.3985 113.081Z" fill="#007EAE"/>
<path d="M26.8461 103.03C27.8368 101.829 28.303 100.31 28.1573 98.7567C28.0116 97.2037 27.2735 95.7971 26.0788 94.8008C23.6118 92.7448 19.9452 93.0915 17.9007 95.5725C15.8562 98.0534 16.201 101.741 18.668 103.797C19.8627 104.793 21.373 105.262 22.9173 105.115C24.4616 104.969 25.8603 104.227 26.851 103.025L26.8461 103.03Z" fill="#004C8A"/>
<path d="M18.0806 71.251C18.8722 69.9079 19.0956 68.3353 18.7119 66.8262C18.3283 65.3171 17.3813 64.0425 16.0458 63.2464C15.2348 62.7629 14.3461 62.4894 13.4331 62.4357C12.8406 62.4015 12.2384 62.4601 11.6459 62.6115C8.54271 63.4076 6.66331 66.5967 7.45489 69.7174C7.83854 71.2314 8.78553 72.5012 10.121 73.2973C11.4565 74.0933 13.0203 74.318 14.5209 73.9321C16.0263 73.5463 17.289 72.594 18.0806 71.251Z" fill="#007EAE"/>
<path d="M29.0997 39.8337C30.2798 36.8399 28.8229 33.4359 25.8411 32.2443C25.2535 32.0098 24.6464 31.8731 24.0345 31.8389C23.1409 31.7852 22.2425 31.9415 21.3975 32.3126C19.9746 32.9329 18.8722 34.0708 18.2992 35.5213C17.1191 38.515 18.576 41.919 21.5578 43.1107C23.0001 43.687 24.5784 43.6626 26.0062 43.0423C27.4291 42.4221 28.5315 41.2842 29.1045 39.8337H29.0997Z" fill="#004C8A"/>
<path d="M44.5036 17.92C44.1637 19.4438 44.4357 21.0066 45.2661 22.3252C46.9804 25.0455 50.5741 25.8611 53.2839 24.1371C55.9889 22.4131 56.7999 18.7991 55.0856 16.0739C54.0464 14.4232 52.3175 13.4758 50.511 13.3683C49.3406 13.3 48.1362 13.5832 47.0678 14.2621C45.7566 15.0972 44.8485 16.3963 44.5085 17.9151L44.5036 17.92Z" fill="#007EAE"/>
<path d="M82.7574 14.0717H82.7283C81.1888 13.9789 79.7076 14.4917 78.5518 15.5173C77.3863 16.5478 76.6918 17.9739 76.5898 19.5318C76.4927 21.0897 77.0026 22.5891 78.0273 23.7612C79.052 24.9333 80.47 25.6317 82.0192 25.7342H82.0484C85.2341 25.9247 87.9828 23.4828 88.1868 20.279C88.3908 17.0655 85.9577 14.2817 82.7622 14.0766L82.7574 14.0717Z" fill="#004C8A"/>
<path d="M111.424 32.6251C108.03 30.1197 103.256 30.8523 100.765 34.266C98.2734 37.6798 99.0018 42.4806 102.396 44.986C105.791 47.4913 110.565 46.7588 113.056 43.345C115.547 39.9312 114.819 35.1305 111.424 32.6251Z" fill="#D91C5C"/>
<path d="M86.6569 106.502C86.8025 107.806 87.4484 108.978 88.4731 109.799C90.5856 111.489 93.6694 111.137 95.3497 109.013C96.1656 107.982 96.5298 106.698 96.3841 105.389C96.2384 104.085 95.5925 102.913 94.5678 102.092C93.5432 101.272 92.2708 100.906 90.9644 101.052C89.6629 101.199 88.5023 101.848 87.6864 102.879C86.8705 103.909 86.5063 105.194 86.652 106.502H86.6569Z" fill="#007EAE"/>
<path d="M69.8542 113.203C69.5045 111.933 68.6838 110.883 67.5474 110.234C66.411 109.589 65.0901 109.423 63.8274 109.774C61.2244 110.497 59.6947 113.218 60.4183 115.835C60.7679 117.1 61.5886 118.155 62.725 118.805C63.8614 119.454 65.1823 119.615 66.445 119.264C69.048 118.541 70.5777 115.821 69.8542 113.208V113.203Z" fill="#004C8A"/>
<path d="M37.0686 110.473C38.2924 110.932 39.623 110.888 40.8128 110.341C42.0026 109.794 42.9108 108.817 43.3672 107.587C43.8237 106.356 43.78 105.018 43.2361 103.821C42.6922 102.625 41.7209 101.712 40.4971 101.252C37.9718 100.3 35.1454 101.594 34.1985 104.139C33.2515 106.683 34.5384 109.526 37.0686 110.473Z" fill="#007EAE"/>
<path d="M18.4399 85.9956C19.1635 87.0944 20.2658 87.8416 21.5479 88.1054C22.83 88.3642 24.1364 88.1151 25.229 87.3874C26.3217 86.6598 27.0647 85.5511 27.3221 84.2618C27.5844 82.9725 27.3318 81.6588 26.6082 80.5648C25.7244 79.2218 24.2918 78.455 22.8057 78.3671C21.7859 78.3085 20.7369 78.5624 19.8239 79.1729C17.5754 80.6722 16.9538 83.7295 18.4447 85.9956H18.4399Z" fill="#004C8A"/>
<path d="M22.8542 50.4851C22.8299 50.4851 22.8056 50.4851 22.7765 50.4851C20.0812 50.3679 17.789 52.4777 17.6724 55.1882C17.6142 56.502 18.0707 57.7571 18.9545 58.729C19.8384 59.7008 21.0622 60.2722 22.3491 60.3211C23.6555 60.3797 24.9036 59.9206 25.87 59.0318C26.8315 58.1429 27.3949 56.9317 27.4531 55.618C27.5114 54.3042 27.0549 53.0491 26.1711 52.0772C25.3066 51.1249 24.1265 50.5633 22.8493 50.49L22.8542 50.4851Z" fill="#007EAE"/>
<path d="M42.7262 35.9318C43.5421 34.9013 43.9063 33.6169 43.7606 32.308C43.6149 30.9992 42.969 29.832 41.9443 29.0115C41.1285 28.3571 40.1621 28.0103 39.1908 27.9517C37.6513 27.8589 36.0973 28.4987 35.0677 29.7978C34.2519 30.8283 33.8877 32.1127 34.0333 33.4215C34.179 34.7304 34.8249 35.8976 35.8496 36.7181C36.8743 37.5386 38.1515 37.9097 39.453 37.7583C40.7497 37.6118 41.9152 36.9623 42.7311 35.9318H42.7262Z" fill="#004C8A"/>
<path d="M60.5589 25.6071C61.2776 28.2248 63.9826 29.7632 66.5856 29.0355C69.1886 28.3127 70.7135 25.5924 69.9948 22.9747C69.4217 20.8942 67.5957 19.4975 65.5609 19.3754C65.0364 19.3461 64.5022 19.3998 63.968 19.5463C61.365 20.2691 59.8353 22.9894 60.5589 25.6022V25.6071Z" fill="#007EAE"/>
<path d="M87.0456 31.2237C86.0986 33.7682 87.3856 36.6106 89.9157 37.558C91.1395 38.0171 92.4702 37.9731 93.66 37.4261C94.8498 36.8792 95.7579 35.9024 96.2144 34.6717C97.1614 32.1321 95.8745 29.2898 93.3443 28.3374C92.8732 28.1616 92.3973 28.0639 91.9214 28.0346C89.8332 27.9125 87.8178 29.153 87.0456 31.2237Z" fill="#004C8A"/>
<path d="M107.918 123.669C109.108 122.17 109.642 120.289 109.424 118.385C109.21 116.48 108.268 114.771 106.772 113.574C105.607 112.641 104.218 112.109 102.761 112.026C102.353 112.002 101.935 112.011 101.518 112.06C99.6235 112.275 97.9238 113.223 96.734 114.727C95.5442 116.226 95.01 118.106 95.2285 120.011C95.4422 121.916 96.3844 123.625 97.8801 124.817C99.371 126.013 101.236 126.55 103.135 126.331C105.029 126.116 106.728 125.168 107.918 123.669Z" fill="#007EAE"/>
<path d="M72.9328 128.718C72.4229 126.868 71.2283 125.329 69.5674 124.387C68.6058 123.84 67.552 123.527 66.4739 123.464C65.6969 123.42 64.9101 123.503 64.1428 123.717C62.3023 124.23 60.7725 125.432 59.8353 127.102C58.898 128.772 58.66 130.711 59.1699 132.557C59.6799 134.408 60.8745 135.946 62.5354 136.889C64.1963 137.832 66.1242 138.071 67.9599 137.558C71.7576 136.498 73.9867 132.533 72.9328 128.718Z" fill="#004C8A"/>
<path d="M32.2414 112.422C31.5615 112.163 30.8574 112.016 30.1483 111.972C29.0022 111.904 27.8513 112.119 26.778 112.612C25.0443 113.408 23.7185 114.834 23.0484 116.631C21.6691 120.343 23.5486 124.489 27.2345 125.876C30.9205 127.263 35.0484 125.373 36.4276 121.667C37.0978 119.869 37.0298 117.916 36.2382 116.172C35.4466 114.429 34.0286 113.096 32.2414 112.422Z" fill="#007EAE"/>
<path d="M1.06388 87.9683C0.685085 89.8485 1.05417 91.7679 2.108 93.3649C3.16182 94.9668 4.76928 96.0558 6.63897 96.4417C8.50867 96.8226 10.4124 96.4514 12.0052 95.3916C13.5981 94.3319 14.6811 92.7153 15.0647 90.8351C15.4484 88.9548 15.0745 87.0404 14.0206 85.4385C12.9668 83.8366 11.3593 82.7475 9.48965 82.3617C7.61995 81.9759 5.71626 82.3519 4.12338 83.4117C2.5305 84.4715 1.44753 86.088 1.06388 87.9683Z" fill="#004C8A"/>
<path d="M0.990786 50.0897C0.908228 52.009 1.56869 53.8405 2.86048 55.2568C4.14741 56.673 5.90541 57.5033 7.81396 57.5814C9.71765 57.6645 11.5436 57.0003 12.952 55.7012C14.3603 54.407 15.181 52.6342 15.2636 50.7197C15.3462 48.8004 14.6857 46.969 13.3939 45.5527C12.1313 44.1657 10.4121 43.3452 8.55212 43.2329C8.51327 43.2329 8.47928 43.2329 8.44043 43.228C4.50678 43.057 1.16561 46.1338 0.990786 50.0897Z" fill="#007EAE"/>
<path d="M36.491 24.5377C37.6808 23.0383 38.215 21.1581 37.9964 19.2534C37.7828 17.3487 36.8406 15.6394 35.3449 14.4429C34.1793 13.5101 32.7904 12.9777 31.3335 12.8947C30.9207 12.8703 30.5079 12.8801 30.0903 12.9289C28.1963 13.1438 26.4966 14.0912 25.3117 15.5954C24.1218 17.0948 23.5877 18.975 23.8062 20.8797C24.0199 22.7844 24.962 24.4937 26.4529 25.6853C27.9438 26.8819 29.8135 27.4191 31.7075 27.1993C33.6014 26.9844 35.3012 26.037 36.491 24.5377Z" fill="#004C8A"/>
<path d="M73.511 6.08656C72.6757 3.04885 70.0095 1.00742 67.0423 0.831608C66.2799 0.787654 65.498 0.865794 64.721 1.08068C62.8804 1.59348 61.3507 2.79489 60.4134 4.46515C59.4761 6.1354 59.2381 8.07426 59.7481 9.92034C60.258 11.7713 61.4526 13.3097 63.1135 14.2523C64.7744 15.1997 66.7024 15.4341 68.5381 14.9213C72.3357 13.8616 74.5648 9.89592 73.511 6.08168V6.08656Z" fill="#007EAE"/>
<path d="M106.029 12.7971C105.344 12.5383 104.645 12.3967 103.951 12.3527C100.906 12.172 97.9626 13.9839 96.8359 17.0069C95.4567 20.7186 97.3362 24.865 101.022 26.252C104.708 27.6389 108.836 25.7489 110.215 22.0421C110.885 20.2449 110.817 18.2963 110.026 16.5479C109.234 14.8044 107.816 13.4711 106.029 12.7971Z" fill="#004C8A"/>
</g>
<defs>
<clipPath id="clip0_1_20542">
<rect width="238" height="137" fill="white" transform="translate(0.917969 0.822266)"/>
</clipPath>
</defs>
</svg>
