<svg width="239" height="138" viewBox="0 0 239 138" fill="none" xmlns="http://www.w3.org/2000/svg">
  <path d="M31.1377 95.7188C31.1377 99.0033 28.4651 101.676 25.1806 101.676C21.8962 101.676 19.2236 99.0033 19.2236 95.7188C19.2236 92.4344 21.8962 89.7618 25.1806 89.7618C28.4651 89.7618 31.1377 92.4344 31.1377 95.7188Z" fill="#D91B5B"/>
  <path d="M25.1772 88.7708C21.3513 88.7708 18.2256 91.8965 18.2256 95.7224C18.2256 99.5483 21.3513 102.674 25.1772 102.674C28.9686 102.674 32.1227 99.5553 32.136 95.7646C32.136 91.8965 29.0031 88.7708 25.1772 88.7708Z" stroke="#D91B5B" stroke-width="0.25"/>
  <path d="M50.9077 95.7188C50.9077 99.0033 48.2351 101.676 44.9506 101.676C41.6662 101.676 38.9936 99.0033 38.9936 95.7188C38.9936 92.4344 41.6662 89.7618 44.9506 89.7618C48.2351 89.7618 50.9077 92.4344 50.9077 95.7188Z" fill="#D91B5B"/>
  <path d="M44.9449 88.7708C41.119 88.7708 37.9933 91.8965 37.9933 95.7224C37.9933 99.5483 41.119 102.674 44.9449 102.674C48.7363 102.674 51.8904 99.5553 51.9037 95.7646C51.9037 91.8965 48.7708 88.7708 44.9449 88.7708Z" stroke="#D91B5B" stroke-width="0.25"/>
  <path d="M70.6834 95.7188C70.6834 99.0033 68.0108 101.676 64.7263 101.676C61.4419 101.676 58.7693 99.0033 58.7693 95.7188C58.7693 92.4344 61.4419 89.7618 64.7263 89.7618C68.0108 89.7618 70.6834 92.4344 70.6834 95.7188Z" fill="#D91B5B"/>
  <path d="M64.7216 88.7708C60.8957 88.7708 57.77 91.8965 57.77 95.7224C57.77 99.5483 60.8957 102.674 64.7216 102.674C68.513 102.674 71.6671 99.5553 71.6804 95.7646C71.6804 91.8965 68.5475 88.7708 64.7216 88.7708Z" stroke="#D91B5B" stroke-width="0.25"/>
  <path d="M90.4583 95.7188C90.4583 99.0033 87.7857 101.676 84.5012 101.676C81.2168 101.676 78.5442 99.0033 78.5442 95.7188C78.5442 92.4344 81.2168 89.7618 84.5012 89.7618C87.7857 89.7618 90.4583 92.4344 90.4583 95.7188Z" fill="#D91B5B"/>
  <path d="M84.4973 88.7708C80.6714 88.7708 77.5457 91.8965 77.5457 95.7224C77.5457 99.5483 80.6714 102.674 84.4973 102.674C88.2887 102.674 91.4428 99.5553 91.4561 95.7646C91.4561 91.8965 88.3232 88.7708 84.4973 88.7708Z" stroke="#D91B5B" stroke-width="0.25"/>
  <path d="M110.236 95.7188C110.236 99.0033 107.564 101.676 104.279 101.676C100.995 101.676 98.3223 99.0033 98.3223 95.7188C98.3223 92.4344 100.995 89.7618 104.279 89.7618C107.564 89.7618 110.236 92.4344 110.236 95.7188Z" fill="#D91B5B"/>
  <path d="M104.274 88.7708C100.448 88.7708 97.3223 91.8965 97.3223 95.7224C97.3223 99.5483 100.448 102.674 104.274 102.674C108.065 102.674 111.219 99.5553 111.233 95.7646C111.233 91.8965 108.1 88.7708 104.274 88.7708Z" stroke="#D91B5B" stroke-width="0.25"/>
  <path d="M175.053 53.1284C182.979 53.1284 189.4 46.7079 189.4 38.7817C189.4 30.8554 182.979 24.4349 175.053 24.4349C167.127 24.4349 160.706 30.8554 160.706 38.7817C160.706 46.7079 167.127 53.1284 175.053 53.1284Z" fill="#D91B5B"/>
  <path d="M175.051 23.9839C166.879 23.9839 160.255 30.6081 160.255 38.7803C160.255 46.9524 166.879 53.5766 175.051 53.5766C183.21 53.5766 189.847 46.9664 189.847 38.7873C189.847 30.6081 183.223 23.9839 175.051 23.9839Z" stroke="#D91B5B" stroke-width="0.5"/>
  <path d="M12.8179 65.9196L0 76.9131V78.4688H3.68908V64.6089H3.81689L12.5623 74.3123L21.3078 64.6089H21.4356V78.4688H25.1246V76.9131L12.8179 65.9196Z" fill="#18314C"/>
  <path d="M56.4458 64.6088H52.7569V78.4687H56.4458V64.6088Z" fill="#18314C"/>
  <path d="M86.8017 64.6088H83.1128V78.4687H98.1612V75.3935H86.8017V64.6088Z" fill="#18314C"/>
  <path d="M128.527 64.6088H113.479V78.4687H128.527V75.3935H117.168V73.0704H125.856V70.0075H117.168V67.6844H128.527V64.6088Z" fill="#18314C"/>
  <path d="M160.17 78.4688L170.632 64.6089H156.481V67.6844H162.984L152.537 81.5444H166.688V78.4688H160.17Z" fill="#18314C"/>
  <path d="M206.172 64.6088H191.124V78.4687H206.172V75.3935H194.812V73.0704H203.5V70.0075H194.812V67.6844H206.172V64.6088Z" fill="#18314C"/>
  <path d="M238.943 67.6844V64.6088H223.753V78.4687H227.442V73.0704H236.13V70.0075H227.442V67.6844H238.943Z" fill="#18314C"/>
</svg>