<svg xmlns="http://www.w3.org/2000/svg" viewBox="0 0 12 63" fill="none">
  <path
    d="M0.190812 52.4795C0.178474 52.2866 0.237083 52.0954 0.356349 51.9394C0.475616 51.7834 0.647914 51.6726 0.84299 51.6265C1.03807 51.5803 1.24345 51.6018 1.42307 51.687C1.60269 51.7723 1.74508 51.916 1.82522 52.0928C2.97306 54.6086 4.262 57.062 5.68635 59.4421C6.80257 56.3345 8.12882 53.2998 9.65655 50.3575C9.70716 50.2608 9.77701 50.1745 9.86209 50.1037C9.94717 50.0328 10.0458 49.9787 10.1524 49.9445C10.259 49.9102 10.3715 49.8965 10.4834 49.9041C10.5952 49.9117 10.7044 49.9405 10.8045 49.9888C10.9046 50.0371 10.9938 50.1039 11.067 50.1856C11.1401 50.2672 11.1958 50.3619 11.2308 50.4645C11.2658 50.567 11.2795 50.6752 11.2711 50.7831C11.2626 50.8909 11.2322 50.9961 11.1816 51.0928C9.39786 54.4976 7.89105 58.0296 6.67482 61.6568C6.62525 61.8079 6.53156 61.9422 6.40498 62.0436C6.27841 62.145 6.12433 62.2092 5.96123 62.2286C5.79813 62.2479 5.63293 62.2215 5.48546 62.1526C5.33798 62.0836 5.21449 61.9751 5.1298 61.8399C3.2907 58.9224 1.65455 55.8899 0.23207 52.7624C0.201147 52.6705 0.187867 52.5752 0.190812 52.4795Z"
    fill="url(#paint0_linear_49_34205)"
  />
  <path
    d="M3.69224 18.9038C3.78109 13.2614 3.92362 7.61961 4.11985 1.9785C4.12466 1.67241 4.22356 1.38001 4.39478 1.16564C4.566 0.95127 4.79552 0.832483 5.03284 0.835413C5.27016 0.838342 5.49585 0.962747 5.66025 1.18126C5.82465 1.39977 5.91431 1.6945 5.90949 2.00059C5.22181 21.8009 5.19207 41.8787 5.81704 61.6798C5.82646 61.9861 5.7411 62.286 5.57975 62.5134C5.41839 62.7409 5.19426 62.8774 4.95665 62.8928C4.71904 62.9083 4.48742 62.8014 4.31274 62.5957C4.13806 62.3901 4.03464 62.1025 4.02522 61.7962C3.58061 47.5921 3.46689 33.2151 3.69224 18.9038Z"
    fill="url(#paint1_linear_49_34205)"
  />
  <defs>
    <linearGradient
      id="paint0_linear_49_34205"
      x1="7.41129"
      y1="65.9445"
      x2="6.44633"
      y2="50.1582"
      gradientUnits="userSpaceOnUse"
    >
      <stop stop-color="#A05EA6" />
      <stop offset="1" stop-color="#0080A3" />
    </linearGradient>
    <linearGradient
      id="paint1_linear_49_34205"
      x1="4.27669"
      y1="82.5237"
      x2="12.0726"
      y2="1.45965"
      gradientUnits="userSpaceOnUse"
    >
      <stop stop-color="#A05EA6" />
      <stop offset="1" stop-color="#0080A3" />
    </linearGradient>
  </defs>
</svg>